<?xml version="1.0" encoding="UTF-8" standalone="no"?>
<!-- Generator: Adobe Illustrator 19.0.0, SVG Export Plug-In . SVG Version: 6.00 Build 0)  -->

<svg
   xmlns:dc="http://purl.org/dc/elements/1.1/"
   xmlns:cc="http://creativecommons.org/ns#"
   xmlns:rdf="http://www.w3.org/1999/02/22-rdf-syntax-ns#"
   xmlns:svg="http://www.w3.org/2000/svg"
   xmlns="http://www.w3.org/2000/svg"
   xmlns:sodipodi="http://sodipodi.sourceforge.net/DTD/sodipodi-0.dtd"
   xmlns:inkscape="http://www.inkscape.org/namespaces/inkscape"
   version="1.1"
   id="Layer_1"
   x="0px"
   y="0px"
   viewBox="0 0 24 24"
   xml:space="preserve"
   width="24"
   height="24"
   inkscape:version="0.91 r13725"
   sodipodi:docname="language.svg"><metadata
     id="metadata67"><rdf:RDF><cc:Work
         rdf:about=""><dc:format>image/svg+xml</dc:format><dc:type
           rdf:resource="http://purl.org/dc/dcmitype/StillImage" /><dc:title></dc:title></cc:Work></rdf:RDF></metadata><defs
     id="defs65" /><sodipodi:namedview
     pagecolor="#ffffff"
     bordercolor="#666666"
     borderopacity="1"
     objecttolerance="10"
     gridtolerance="10"
     guidetolerance="10"
     inkscape:pageopacity="0"
     inkscape:pageshadow="2"
     inkscape:window-width="1543"
     inkscape:window-height="876"
     id="namedview63"
     showgrid="false"
     fit-margin-top="0"
     fit-margin-left="0"
     fit-margin-right="0"
     fit-margin-bottom="0"
     inkscape:zoom="0.4609375"
     inkscape:cx="-459.86441"
     inkscape:cy="12"
     inkscape:window-x="57"
     inkscape:window-y="24"
     inkscape:window-maximized="1"
     inkscape:current-layer="Layer_1" /><g
     id="g3395"
     transform="scale(0.046875,0.046875)"><g
       id="g3"><g
         id="g5"><polygon
           id="polygon7"
           points="138.71,137 132.29,137 120.293,197 150.707,197 "
           style="fill:#3a4145" /></g></g><g
       id="g9"><g
         id="g11"><path
           id="path13"
           d="m 381.374,257 c 6.477,17.399 15.092,31.483 24.626,43.467 9.534,-11.984 19.149,-26.069 25.626,-43.467 l -50.252,0 z"
           inkscape:connector-curvature="0"
           style="fill:#3a4145" /></g></g><g
       id="g15"><g
         id="g17"><path
           id="path19"
           d="m 467,91 -186.283,0 38.842,311.679 c 0.687,12.748 -2.798,24.75 -11.118,34.146 L 242.663,512 467,512 c 24.814,0 45,-20.186 45,-45 l 0,-330 c 0,-24.814 -20.186,-46 -45,-46 z m 0,166 -4.006,0 c -8.535,27.383 -22.07,48.81 -36.136,65.702 11.019,10.074 22.802,18.338 34.517,27.594 6.46,5.171 7.515,14.604 2.329,21.079 -5.162,6.465 -14.632,7.513 -21.079,2.329 -12.729,-10.047 -24.677,-18.457 -36.625,-29.421 -11.948,10.964 -22.896,19.374 -35.625,29.421 -6.447,5.184 -15.917,4.136 -21.079,-2.329 -5.186,-6.475 -4.131,-15.908 2.329,-21.079 11.715,-9.256 22.498,-17.52 33.517,-27.594 C 371.076,305.811 358.54,284.384 350.006,257 L 346,257 c -8.291,0 -15,-6.709 -15,-15 0,-8.291 6.709,-15 15,-15 l 45,0 0,-15 c 0,-8.291 6.709,-15 15,-15 8.291,0 15,6.709 15,15 l 0,15 46,0 c 8.291,0 15,6.709 15,15 0,8.291 -6.709,15 -15,15 z"
           inkscape:connector-curvature="0"
           style="fill:#3a4145" /></g></g><g
       id="g21"><g
         id="g23"><path
           id="path25"
           d="M 244.164,39.419 C 241.366,16.948 222.162,0 199.516,0 L 45,0 C 20.186,0 0,20.186 0,45 l 0,332 c 0,24.814 20.186,45 45,45 89.67,0 154.177,0 236.551,0 4.376,-5.002 8.044,-8.134 8.199,-14.663 C 289.788,405.7 244.367,41.043 244.164,39.419 Z m -60.22,247.288 c -7.954,1.637 -16.011,-3.527 -17.651,-11.763 L 156.706,227 l -42.411,0 -9.587,47.944 c -1.611,8.115 -9.434,13.447 -17.651,11.763 -8.115,-1.626 -13.389,-9.521 -11.763,-17.651 l 29.999,-150 C 106.699,112.054 112.852,107 120,107 l 31,0 c 7.148,0 13.301,5.054 14.707,12.056 l 30,150 c 1.626,8.13 -3.647,16.025 -11.763,17.651 z"
           inkscape:connector-curvature="0"
           style="fill:#3a4145" /></g></g><g
       id="g27"><g
         id="g29"><path
           id="path31"
           d="m 175.261,452 2.574,20.581 c 1.716,13.783 10.874,27.838 25.938,34.856 28.428,-31.294 11.229,-12.362 50.359,-55.437 l -78.871,0 z"
           inkscape:connector-curvature="0"
           style="fill:#3a4145" /></g></g><g
       id="g33" /><g
       id="g35" /><g
       id="g37" /><g
       id="g39" /><g
       id="g41" /><g
       id="g43" /><g
       id="g45" /><g
       id="g47" /><g
       id="g49" /><g
       id="g51" /><g
       id="g53" /><g
       id="g55" /><g
       id="g57" /><g
       id="g59" /><g
       id="g61" /></g></svg>