<?xml version="1.0" encoding="UTF-8" standalone="no"?>
<svg
   xmlns:dc="http://purl.org/dc/elements/1.1/"
   xmlns:cc="http://creativecommons.org/ns#"
   xmlns:rdf="http://www.w3.org/1999/02/22-rdf-syntax-ns#"
   xmlns:svg="http://www.w3.org/2000/svg"
   xmlns="http://www.w3.org/2000/svg"
   viewBox="0 0 236.25 140"
   height="140"
   width="236.25"
   xml:space="preserve"
   version="1.1"
   id="svg2"><metadata
     id="metadata8"><rdf:RDF><cc:Work
         rdf:about=""><dc:format>image/svg+xml</dc:format><dc:type
           rdf:resource="http://purl.org/dc/dcmitype/StillImage" /></cc:Work></rdf:RDF></metadata><defs
     id="defs6" /><g
     transform="matrix(1.25,0,0,-1.25,0,140)"
     id="g10"><g
       transform="scale(0.1,0.1)"
       id="g12"><path
         id="path14"
         style="fill:#3a4145;fill-opacity:1;fill-rule:nonzero;stroke:none"
         d="m 338.48,761.242 c 0,83.988 68.2,152.149 152.301,152.149 83.989,0 151.989,-68.161 151.989,-152.149 0,-83.98 -68,-152.152 -151.989,-152.152 -84.101,0 -152.301,68.172 -152.301,152.152 z m 901.44,0 c 0,83.988 68.17,152.149 152.15,152.149 84.14,0 152.15,-68.161 152.15,-152.149 0,-83.98 -68.01,-152.152 -152.15,-152.152 -83.98,0 -152.15,68.172 -152.15,152.152 z m -450.701,0 c 0,83.988 68.16,152.149 152.261,152.149 83.99,0 152.04,-68.161 152.04,-152.149 0,-83.98 -68.05,-152.152 -152.04,-152.152 -84.101,0 -152.261,68.172 -152.261,152.152 z M 1836.37,596.012 c 25.78,46.09 41.33,98.32 43.63,153.789 0.27,5.039 0.43,9.961 0.43,14.719 0,193.992 -160.74,351.21 -358.83,351.21 l -1160.35,0 C 163.051,1115.73 2.42188,958.512 2.42188,764.52 l 0,-0.149 C 2.58203,570.539 163.16,413.469 361.25,413.469 l 797.42,0 0,-339.4573 c 0,-68.98045 72.11,-74.882794 119.3,-27.5312 45.12,45.1093 381.33,356.3595 492.69,465.5395 3.83,3.562 7.5,7.23 11.06,10.902 0.82,0.82 1.76,1.637 2.46,2.457 0.66,0.551 1.21,1.371 1.91,2.07 l 1.76,1.762 c 19.38,20.199 35.43,42.809 48.52,66.801" /></g></g></svg>