<?xml version="1.0" encoding="UTF-8" standalone="no"?>
<svg
   xmlns:dc="http://purl.org/dc/elements/1.1/"
   xmlns:cc="http://creativecommons.org/ns#"
   xmlns:rdf="http://www.w3.org/1999/02/22-rdf-syntax-ns#"
   xmlns:svg="http://www.w3.org/2000/svg"
   xmlns="http://www.w3.org/2000/svg"
   viewBox="0 0 128.75 138.75"
   height="138.75"
   width="128.75"
   xml:space="preserve"
   version="1.1"
   id="svg2"><metadata
     id="metadata8"><rdf:RDF><cc:Work
         rdf:about=""><dc:format>image/svg+xml</dc:format><dc:type
           rdf:resource="http://purl.org/dc/dcmitype/StillImage" /></cc:Work></rdf:RDF></metadata><defs
     id="defs6" /><g
     transform="matrix(1.25,0,0,-1.25,0,138.75)"
     id="g10"><g
       transform="scale(0.1,0.1)"
       id="g12"><path
         id="path14"
         style="fill:#3a4145;fill-opacity:1;fill-rule:nonzero;stroke:none"
         d="m 743.398,611.711 -449.726,0 0,169.73 c 0,50.86 17.187,97.688 45.816,135.391 41.102,54.18 106.024,89.408 179.102,89.408 123.949,0 224.808,-100.9 224.808,-224.799 l 0,-169.73 z m -154.769,-437.969 -140.109,0 37.218,145.699 c -26.789,12.539 -45.386,39.461 -45.386,70.899 0,43.25 35,78.172 78.168,78.172 43.281,0 78.359,-34.922 78.359,-78.172 0,-31.438 -18.789,-58.36 -45.469,-70.899 L 588.629,173.742 Z M 518.59,1107.88 c -101.129,0 -191.68,-46.21 -251.641,-118.591 -46.75,-56.527 -74.918,-128.949 -74.918,-207.848 l 0,-169.73 -182.49975,0 0,-593.8712 1018.04875,0 0,593.8712 -182.459,0 0,169.73 c 0,180 -146.531,326.439 -326.531,326.439" /></g></g></svg>