<?xml version="1.0" encoding="UTF-8" standalone="no"?>
<svg
   xmlns:dc="http://purl.org/dc/elements/1.1/"
   xmlns:cc="http://creativecommons.org/ns#"
   xmlns:rdf="http://www.w3.org/1999/02/22-rdf-syntax-ns#"
   xmlns:svg="http://www.w3.org/2000/svg"
   xmlns="http://www.w3.org/2000/svg"
   viewBox="0 0 108.75 140"
   height="140"
   width="108.75"
   xml:space="preserve"
   version="1.1"
   id="svg2"><metadata
     id="metadata8"><rdf:RDF><cc:Work
         rdf:about=""><dc:format>image/svg+xml</dc:format><dc:type
           rdf:resource="http://purl.org/dc/dcmitype/StillImage" /></cc:Work></rdf:RDF></metadata><defs
     id="defs6" /><g
     transform="matrix(1.25,0,0,-1.25,0,140)"
     id="g10"><g
       transform="scale(0.1,0.1)"
       id="g12"><path
         id="path14"
         style="fill:#3a4145;fill-opacity:1;fill-rule:nonzero;stroke:none"
         d="m 867.148,106.441 -94.097,249.489 -671.801,0 -94.10156,-249.489 345.35156,0 c -0.66,-4.031 -1.25,-8.0894 -1.25,-12.191 0,-42.6211 34.531,-77.1094 77.148,-77.1094 42.582,0 77.153,34.4883 77.153,77.1094 0,4.1016 -0.59,8.16 -1.211,12.191 l 362.808,0" /><path
         id="path16"
         style="fill:#3a4145;fill-opacity:1;fill-rule:nonzero;stroke:none"
         d="m 428.398,973.742 c -11.718,0 -23.238,-1.683 -34.609,-4.41 2.301,69.918 24.961,107.928 34.609,107.928 9.692,0 32.34,-38.01 34.653,-107.928 -11.41,2.727 -22.93,4.41 -34.653,4.41 z m 74.801,-19.301 c 0.039,1.289 0.16,2.579 0.16,3.911 0,78.908 -25.699,158.788 -74.961,158.788 -49.218,0 -74.957,-79.88 -74.957,-158.788 0,-1.332 0.188,-2.622 0.188,-3.911 C 232.23,892.73 137.969,684.84 115.199,423.66 l 626.442,0 C 718.871,684.84 624.57,892.73 503.199,954.441" /></g></g></svg>