<?xml version="1.0" encoding="UTF-8" standalone="no"?>
<svg
   xmlns:dc="http://purl.org/dc/elements/1.1/"
   xmlns:cc="http://creativecommons.org/ns#"
   xmlns:rdf="http://www.w3.org/1999/02/22-rdf-syntax-ns#"
   xmlns:svg="http://www.w3.org/2000/svg"
   xmlns="http://www.w3.org/2000/svg"
   viewBox="0 0 16.25 16.25"
   height="16.25"
   width="16.25"
   xml:space="preserve"
   version="1.1"
   id="svg2"><metadata
     id="metadata8"><rdf:RDF><cc:Work
         rdf:about=""><dc:format>image/svg+xml</dc:format><dc:type
           rdf:resource="http://purl.org/dc/dcmitype/StillImage" /></cc:Work></rdf:RDF></metadata><defs
     id="defs6" /><g
     transform="matrix(1.25,0,0,-1.25,0,16.25)"
     id="g10"><g
       transform="scale(0.1,0.1)"
       id="g12"><path
         id="path14"
         style="fill:#030104;fill-opacity:1;fill-rule:nonzero;stroke:none"
         d="m 63.9805,104.02 0,-80.0005 c 22.1093,0 39.9995,17.8907 39.9995,40 0,22.0703 -17.8902,40.0005 -39.9995,40.0005 z" /><path
         id="path16"
         style="fill:#030104;fill-opacity:1;fill-rule:nonzero;stroke:none"
         d="M 63.9805,128.012 C 28.6719,128.012 0,99.3398 0,64.0195 0,28.6719 28.6719,0 63.9805,0 c 35.3593,0 64.0315,28.6719 64.0315,64.0195 0,35.3203 -28.6722,63.9925 -64.0315,63.9925 z m 0,-111.9925 c -26.4805,0 -47.961,21.4805 -47.961,48 0,26.4922 21.4805,47.9685 47.961,47.9685 26.5312,0 48.0075,-21.4763 48.0075,-47.9685 0,-26.5195 -21.4763,-48 -48.0075,-48 z" /><path
         id="path18"
         style="fill:#3a4145;fill-opacity:1;fill-rule:nonzero;stroke:none"
         d="M 56.5586,0.511719 C 42.2305,2.23047 29.0586,8.62891 18.8711,18.8281 10.4297,27.2695 4.69141,37.5391 1.83984,49.2617 -0.078125,57.1094 -0.390625,66.4805 1.01953,74.7305 4.92188,97.8516 21.4805,117.148 43.9102,124.648 c 10.4687,3.512 22.3398,4.18 33.2812,1.872 9.5274,-2.032 19.1367,-6.559 26.9106,-12.77 2.699,-2.148 7.5,-6.949 9.687,-9.691 6.289,-7.8871 10.621,-16.9887 12.731,-26.7192 1.601,-7.4179 1.8,-16.289 0.511,-23.8984 C 125.27,42.8516 120.781,32.8086 114.059,24.3008 111.84,21.4805 106.129,15.8203 103.551,13.8281 93.7109,6.21094 82.1914,1.55859 70.2305,0.390625 c -3,-0.3125 -10.7422,-0.230469 -13.6719,0.121094 z M 70.9414,16.4102 c 21.6367,3.3203 37.8866,20 40.8206,41.8711 0.386,2.8476 0.308,9.4179 -0.121,12.2695 -1.68,11.1289 -6.371,20.3086 -14.3012,28 -9.0585,8.7892 -20.539,13.4372 -33.1992,13.4372 -5.2304,0 -8.832,-0.468 -13.4804,-1.828 C 32.5,104.961 19.3008,89.7305 16.4102,70.7383 c -0.5508,-3.4375 -0.5508,-9.918 0,-13.3985 1.6015,-10.6992 6.1289,-19.7617 13.6289,-27.3007 8.1601,-8.1993 17.9297,-12.6993 30.1914,-13.9883 1.6797,-0.1914 8.6797,0.039 10.7109,0.3594 z" /><path
         id="path20"
         style="fill:#3a4145;fill-opacity:1;fill-rule:nonzero;stroke:none"
         d="m 64.1406,64.0195 0,39.9605 1.5196,-0.109 c 3.4414,-0.242 5.6289,-0.59 8.2109,-1.25 11.25,-2.8515 20.5391,-10.3905 25.8203,-20.8593 3.1176,-6.25 4.4886,-13.1328 4.0586,-20.3515 -0.469,-7.6211 -3.129,-14.8907 -7.7305,-21.1797 -1.8007,-2.4219 -6.4101,-6.9102 -8.8281,-8.6289 -6.25,-4.4102 -13.2109,-6.8711 -20.9023,-7.4219 l -2.1485,-0.1602 0,40 z" /></g></g></svg>