<?xml version="1.0" encoding="UTF-8" standalone="no"?>
<!-- Generator: Adobe Illustrator 18.1.1, SVG Export Plug-In . SVG Version: 6.00 Build 0)  -->

<svg
   xmlns:dc="http://purl.org/dc/elements/1.1/"
   xmlns:cc="http://creativecommons.org/ns#"
   xmlns:rdf="http://www.w3.org/1999/02/22-rdf-syntax-ns#"
   xmlns:svg="http://www.w3.org/2000/svg"
   xmlns="http://www.w3.org/2000/svg"
   xmlns:sodipodi="http://sodipodi.sourceforge.net/DTD/sodipodi-0.dtd"
   xmlns:inkscape="http://www.inkscape.org/namespaces/inkscape"
   version="1.1"
   id="Capa_1"
   x="0px"
   y="0px"
   viewBox="0 0 26.899313 19.737095"
   xml:space="preserve"
   width="24"
   height="17.609755"
   inkscape:version="0.91 r13725"
   sodipodi:docname="font-size.svg"><metadata
     id="metadata43"><rdf:RDF><cc:Work
         rdf:about=""><dc:format>image/svg+xml</dc:format><dc:type
           rdf:resource="http://purl.org/dc/dcmitype/StillImage" /><dc:title></dc:title></cc:Work></rdf:RDF></metadata><defs
     id="defs41" /><sodipodi:namedview
     pagecolor="#ffffff"
     bordercolor="#666666"
     borderopacity="1"
     objecttolerance="10"
     gridtolerance="10"
     guidetolerance="10"
     inkscape:pageopacity="0"
     inkscape:pageshadow="2"
     inkscape:window-width="1543"
     inkscape:window-height="876"
     id="namedview39"
     showgrid="false"
     fit-margin-top="0"
     fit-margin-left="0"
     fit-margin-right="0"
     fit-margin-bottom="0"
     inkscape:zoom="0.4609375"
     inkscape:cx="11.999994"
     inkscape:cy="8.8048834"
     inkscape:window-x="57"
     inkscape:window-y="24"
     inkscape:window-maximized="1"
     inkscape:current-layer="Capa_1" /><g
     id="g3371"
     transform="matrix(0.046875,0,0,0.046875,0,-3.5811094)"><g
       id="g3"><g
         id="g5"><path
           id="path7"
           d="m 217.667,83.129 c -1.632,-4.488 -4.692,-6.732 -9.18,-6.732 l -78.947,0 c -4.488,0 -7.548,2.244 -9.18,6.732 L 0.408,477.257 c -0.816,3.672 -0.408,6.321 1.224,7.953 1.632,2.448 4.284,3.675 7.956,3.675 l 70.992,0 c 4.896,0 7.956,-2.244 9.18,-6.732 l 20.196,-70.992 118.117,0 20.196,70.992 c 1.224,4.488 4.08,6.732 8.568,6.732 l 71.604,0 0.609,0 c 2.448,0 4.593,-0.817 6.429,-2.448 1.836,-1.631 2.754,-3.876 2.754,-6.732 0,-0.814 -0.409,-2.446 -1.227,-4.896 L 217.667,83.129 Z m -89.351,251.532 40.392,-144.432 41.004,144.432 -81.396,0 z M 545.087,220.829 c -19.176,-17.544 -46.103,-26.316 -80.781,-26.316 -21.624,0 -41.616,3.57 -59.977,10.709 -18.361,7.14 -34.476,17.646 -48.348,31.518 -3.267,3.264 -3.876,6.936 -1.836,11.016 l 22.644,39.167 c 1.225,2.447 3.467,4.08 6.732,4.896 2.854,0.817 5.508,0 7.956,-2.448 18.768,-19.176 39.575,-28.764 62.424,-28.764 29.375,0 44.062,14.077 44.062,42.228 l 0,17.748 c -17.135,-13.464 -38.351,-20.193 -63.646,-20.193 -11.424,0 -22.746,1.937 -33.966,5.812 -11.222,3.876 -21.219,9.792 -29.988,17.748 -8.773,7.956 -15.912,18.157 -21.42,30.603 -5.508,12.442 -8.262,27.027 -8.262,43.758 0,16.317 2.649,30.6 7.953,42.84 5.307,12.24 12.444,22.542 21.423,30.906 8.975,8.362 18.971,14.688 29.985,18.972 11.018,4.284 22.44,6.426 34.272,6.426 11.832,0 23.255,-1.836 34.271,-5.508 11.019,-3.672 20.811,-8.975 29.376,-15.912 l 0,5.508 c 0,2.448 0.918,4.593 2.754,6.429 1.839,1.836 3.979,2.754 6.429,2.754 l 57.525,0 c 2.448,0 4.592,-0.918 6.429,-2.754 1.836,-1.836 2.754,-3.979 2.754,-6.429 l 0,-186.05 c 10e-4,-32.232 -9.587,-57.12 -28.765,-74.664 z m -47.123,198.287 c -8.976,13.872 -23.256,20.811 -42.84,20.811 -11.832,0 -21.215,-3.774 -28.149,-11.322 -6.938,-7.548 -10.404,-17.443 -10.404,-29.685 0,-12.237 3.467,-22.233 10.404,-29.985 6.935,-7.752 16.317,-11.628 28.149,-11.628 5.712,0 12.854,1.325 21.42,3.978 8.568,2.653 15.708,8.67 21.42,18.054 l 0,39.777 z"
           inkscape:connector-curvature="0"
           style="fill:#3a4145" /></g></g><g
       id="g9" /><g
       id="g11" /><g
       id="g13" /><g
       id="g15" /><g
       id="g17" /><g
       id="g19" /><g
       id="g21" /><g
       id="g23" /><g
       id="g25" /><g
       id="g27" /><g
       id="g29" /><g
       id="g31" /><g
       id="g33" /><g
       id="g35" /><g
       id="g37" /></g></svg>