<?xml version="1.0" encoding="UTF-8" standalone="no"?>
<svg
   xmlns:dc="http://purl.org/dc/elements/1.1/"
   xmlns:cc="http://creativecommons.org/ns#"
   xmlns:rdf="http://www.w3.org/1999/02/22-rdf-syntax-ns#"
   xmlns:svg="http://www.w3.org/2000/svg"
   xmlns="http://www.w3.org/2000/svg"
   xmlns:sodipodi="http://sodipodi.sourceforge.net/DTD/sodipodi-0.dtd"
   xmlns:inkscape="http://www.inkscape.org/namespaces/inkscape"
   enable-background="new -0.709 -1.23 141.732 141.732"
   height="141.732px"
   id="Livello_1"
   version="1.1"
   viewBox="-0.709 -1.23 141.732 141.732"
   width="141.732px"
   xml:space="preserve"
   sodipodi:docname="if_65_171424.svg"
   inkscape:version="0.92.3 (3ce5693, 2018-03-11)"><metadata
     id="metadata11"><rdf:RDF><cc:Work
         rdf:about=""><dc:format>image/svg+xml</dc:format><dc:type
           rdf:resource="http://purl.org/dc/dcmitype/StillImage" /></cc:Work></rdf:RDF></metadata><defs
     id="defs9" /><sodipodi:namedview
     pagecolor="#ffffff"
     bordercolor="#666666"
     borderopacity="1"
     objecttolerance="10"
     gridtolerance="10"
     guidetolerance="10"
     inkscape:pageopacity="0"
     inkscape:pageshadow="2"
     inkscape:window-width="1207"
     inkscape:window-height="809"
     id="namedview7"
     showgrid="false"
     inkscape:zoom="1.6651145"
     inkscape:cx="70.865997"
     inkscape:cy="70.865997"
     inkscape:window-x="75"
     inkscape:window-y="34"
     inkscape:window-maximized="0"
     inkscape:current-layer="Livello_1" /><g
     id="Livello_76"
     transform="matrix(0.17231847,0,0,0.17231847,0,7.1763264)"><path
       d="m 0,69.023 h 0.026 v -0.025 z m 136.448,-2.65 c 0,-0.77 -0.33,-1.461 -0.854,-1.942 L 72.026,0.836 C 71.555,0.336 70.894,0.02 70.157,0 V 0.095 C 69.42,0.113 68.759,0.43 68.288,0.93 L 4.72,64.521 C 4.197,65 3.866,65.695 3.866,66.461 c 0,1.467 1.188,2.65 2.65,2.65 h 15.067 v 12.529 57.629 h 35.078 v -40.47 c 0,-1.487 1.203,-2.696 2.688,-2.696 H 80.92 c 1.49,0 2.697,1.209 2.697,2.696 v 40.478 h 35.105 v -57.63 -12.604 -0.02 h 15.067 c 1.473,0 2.659,-1.185 2.659,-2.65 m 3.867,2.742 -0.027,-0.025 v 0.025 z"
       id="path2"
       inkscape:connector-curvature="0" /></g><g
     id="Livello_1_1_" /></svg>