<?xml version="1.0" encoding="UTF-8" standalone="no"?>
<!-- Created with Inkscape (http://www.inkscape.org/) -->

<svg
   xmlns:dc="http://purl.org/dc/elements/1.1/"
   xmlns:cc="http://creativecommons.org/ns#"
   xmlns:rdf="http://www.w3.org/1999/02/22-rdf-syntax-ns#"
   xmlns:svg="http://www.w3.org/2000/svg"
   xmlns="http://www.w3.org/2000/svg"
   xmlns:sodipodi="http://sodipodi.sourceforge.net/DTD/sodipodi-0.dtd"
   xmlns:inkscape="http://www.inkscape.org/namespaces/inkscape"
   id="svg2"
   version="1.1"
   inkscape:version="0.91 r13725"
   xml:space="preserve"
   width="1000"
   height="1000"
   viewBox="0 0 1000 1000"
   sodipodi:docname="571011 (5).svg"><metadata
     id="metadata8"><rdf:RDF><cc:Work
         rdf:about=""><dc:format>image/svg+xml</dc:format><dc:type
           rdf:resource="http://purl.org/dc/dcmitype/StillImage" /><dc:title></dc:title></cc:Work></rdf:RDF></metadata><defs
     id="defs6"><linearGradient
       x1="0"
       y1="0"
       x2="1"
       y2="0"
       gradientUnits="userSpaceOnUse"
       gradientTransform="matrix(-3.497e-4,8000,8000,3.497e-4,4000,0)"
       spreadMethod="pad"
       id="linearGradient14"><stop
         style="stop-opacity:1;stop-color:#1f1618"
         offset="0"
         id="stop16" /><stop
         style="stop-opacity:1;stop-color:#413d48"
         offset="0.950549"
         id="stop18" /><stop
         style="stop-opacity:1;stop-color:#413d48"
         offset="1"
         id="stop20" /></linearGradient><clipPath
       clipPathUnits="userSpaceOnUse"
       id="clipPath364"><path
         d="m 0,6047.52 1952.47,0 0,1952.48 L 0,8000 0,6047.52 Z"
         id="path366"
         inkscape:connector-curvature="0" /></clipPath></defs><sodipodi:namedview
     pagecolor="#ffffff"
     bordercolor="#666666"
     borderopacity="1"
     objecttolerance="10"
     gridtolerance="10"
     guidetolerance="10"
     inkscape:pageopacity="0"
     inkscape:pageshadow="2"
     inkscape:window-width="1680"
     inkscape:window-height="1026"
     id="namedview4"
     showgrid="false"
     inkscape:zoom="0.944"
     inkscape:cx="480.85508"
     inkscape:cy="573.49899"
     inkscape:window-x="1600"
     inkscape:window-y="24"
     inkscape:window-maximized="1"
     inkscape:current-layer="g12" /><g
     id="g10"
     inkscape:groupmode="layer"
     inkscape:label="ink_ext_XXXXXX"
     transform="matrix(1.25,0,0,-1.25,0,1000)"><g
       id="g12"
       transform="scale(0.1,0.1)"><path
         d="m 0,0 8000,0 0,8000 L 0,8000 0,0 Z"
         style="fill:url(#linearGradient14);fill-opacity:1;fill-rule:nonzero;stroke:none"
         id="path22"
         inkscape:connector-curvature="0" /><path
         d="m 4367.78,4816.04 100.38,-139.55 -43.68,-60.72 -7.65,-10.65 -200.74,0 151.69,210.92 z m 208.65,75.77 c 22.88,0 41.42,-18.55 41.42,-41.42 0,-22.88 -18.54,-41.43 -41.42,-41.43 -22.89,0 -41.43,18.55 -41.43,41.43 0,22.87 18.54,41.42 41.43,41.42 z m 72.5,-286.69 -209.67,0 40.12,55.77 64.71,89.98 104.84,-145.75 z m 44.2,336.2 -525.39,0 0,-380.91 525.39,0 0,380.91"
         style="fill:#d0cfd2;fill-opacity:1;fill-rule:nonzero;stroke:none"
         id="path174"
         inkscape:connector-curvature="0" /><path
         d="m 4718.94,4535.11 -577.02,0 0,431.52 577.02,0 0,-431.52 z m 54.65,486.19 -686.32,0 0,-540.86 686.32,0 0,540.86"
         style="fill:#d0cfd2;fill-opacity:1;fill-rule:nonzero;stroke:none"
         id="path176"
         inkscape:connector-curvature="0" /><path
         d="m 6914.47,2040.14 c 28.01,0 50.71,-22.7 50.71,-50.69 0,-27.99 -22.7,-50.68 -50.71,-50.68 -27.98,0 -50.68,22.69 -50.68,50.68 0.01,27.99 22.7,50.69 50.68,50.69 z m 255.3,-92.72 185.6,-258.06 -250.23,0 -7.78,10.84 -52.7,73.28 125.11,173.94 z m -343.98,-258.06 128.25,178.32 79.19,-110.08 49.06,-68.24 -256.5,0 0,0 z m -54.09,-54.69 642.83,0 0,466.05 -642.83,0 0,-466.05"
         style="fill:#d0cfd2;fill-opacity:1;fill-rule:nonzero;stroke:none"
         id="path258"
         inkscape:connector-curvature="0" /><path
         d="m 3977.97,319.41 6.83,0 0,8.66 c 0,8.981 1.12,16.149 3.4,21.442 2.25,5.289 6.16,9.136 11.59,11.578 5.42,2.39 12.89,3.601 22.34,3.601 16.82,0 25.14,-4.05 25.14,-12.351 0,-2.61 -0.88,-4.942 -2.66,-6.789 -1.7,-1.903 -3.79,-2.84 -6.17,-2.84 -1.12,0 -3.07,0.18 -5.84,0.629 -2.62,0.41 -5.02,0.66 -6.9,0.66 -5.17,0 -8.47,-1.539 -10.02,-4.641 -1.4,-2.988 -2.16,-7.371 -2.16,-13.089 l 0,-6.86 7.01,0 c 10.95,0 16.38,-3.238 16.38,-9.879 0,-4.652 -1.38,-7.64 -4.31,-8.922 -2.91,-1.25 -6.94,-1.879 -12.07,-1.879 l -7.01,0 0,-76.07 c 0,-5.672 -1.33,-9.961 -4.11,-12.91 -2.65,-3.031 -6.11,-4.539 -10.41,-4.539 -4.08,0 -7.42,1.508 -10.17,4.539 -2.68,2.949 -4.03,7.238 -4.03,12.91 l 0,76.07 -7.89,0 c -4.31,0 -7.57,0.922 -9.9,2.872 -2.32,1.898 -3.47,4.418 -3.47,7.539 0,6.879 4.8,10.269 14.43,10.269"
         style="fill:#d0cfd2;fill-opacity:1;fill-rule:nonzero;stroke:none"
         id="path296"
         inkscape:connector-curvature="0" /><path
         d="m 4071.95,246.641 0,-23.981 c 0,-5.801 -1.48,-10.16 -4.16,-13.07 -2.73,-2.93 -6.17,-4.379 -10.37,-4.379 -4.22,0 -7.6,1.449 -10.23,4.48 -2.64,2.911 -3.99,7.219 -3.99,12.969 l 0,79.942 c 0,12.929 4.65,19.386 13.95,19.386 4.8,0 8.2,-1.496 10.33,-4.508 2.09,-3.05 3.24,-7.5 3.5,-13.398 3.41,5.898 6.91,10.348 10.52,13.398 3.66,3.012 8.44,4.508 14.48,4.508 6.07,0 11.87,-1.496 17.56,-4.508 5.7,-3.05 8.53,-7.089 8.53,-12.011 0,-3.52 -1.23,-6.43 -3.59,-8.668 -2.46,-2.313 -5.06,-3.442 -7.84,-3.442 -1.11,0 -3.65,0.661 -7.67,1.973 -4.04,1.25 -7.6,1.898 -10.67,1.898 -4.19,0 -7.65,-1.101 -10.27,-3.281 -2.69,-2.23 -4.78,-5.488 -6.27,-9.847 -1.42,-4.352 -2.42,-9.532 -3.01,-15.493 -0.56,-6.05 -0.8,-13.339 -0.8,-21.968"
         style="fill:#d0cfd2;fill-opacity:1;fill-rule:nonzero;stroke:none"
         id="path298"
         inkscape:connector-curvature="0" /><path
         d="m 4147.75,272.871 52.07,0 c -0.72,9.789 -3.32,17.129 -7.93,22.008 -4.62,4.851 -10.62,7.273 -18.16,7.273 -7.15,0 -13.03,-2.422 -17.62,-7.363 -4.59,-4.988 -7.38,-12.289 -8.36,-21.918 m 56.18,-16.312 -56.18,0 c 0.1,-6.539 1.37,-12.34 3.93,-17.278 2.58,-4.941 6,-8.691 10.23,-11.25 4.26,-2.539 8.91,-3.789 14.03,-3.789 3.45,0 6.58,0.41 9.43,1.25 2.81,0.758 5.59,2.047 8.24,3.789 2.68,1.719 5.1,3.508 7.35,5.52 2.24,1.961 5.17,4.609 8.73,7.988 1.52,1.25 3.61,1.902 6.31,1.902 2.96,0 5.33,-0.8 7.18,-2.461 1.84,-1.609 2.72,-3.851 2.72,-6.839 0,-2.602 -1,-5.602 -2.97,-9.102 -2.09,-3.519 -5.14,-6.758 -9.26,-9.98 -4.14,-3.168 -9.29,-5.879 -15.47,-7.95 -6.21,-2.089 -13.36,-3.148 -21.4,-3.148 -18.5,0 -32.82,5.219 -43.03,15.769 -10.22,10.559 -15.37,24.782 -15.37,42.79 0,8.48 1.27,16.39 3.83,23.671 2.48,7.309 6.19,13.461 11.05,18.688 4.81,5.16 10.74,9.141 17.85,11.902 7.07,2.75 14.92,4.141 23.56,4.141 11.21,0 20.82,-2.352 28.86,-7.113 7.99,-4.727 14.09,-10.84 18.03,-18.317 3.99,-7.543 6,-15.203 6,-22.992 0,-7.148 -2.09,-11.84 -6.23,-13.98 -4.12,-2.168 -9.92,-3.211 -17.42,-3.211"
         style="fill:#d0cfd2;fill-opacity:1;fill-rule:nonzero;stroke:none"
         id="path300"
         inkscape:connector-curvature="0" /><path
         d="m 4267.19,272.871 52.03,0 c -0.68,9.789 -3.36,17.129 -7.91,22.008 -4.65,4.851 -10.65,7.273 -18.17,7.273 -7.16,0 -13,-2.422 -17.63,-7.363 -4.57,-4.988 -7.4,-12.289 -8.32,-21.918 m 56.15,-16.312 -56.15,0 c 0.06,-6.539 1.38,-12.34 3.92,-17.278 2.54,-4.941 5.98,-8.691 10.2,-11.25 4.24,-2.539 8.92,-3.789 14.06,-3.789 3.42,0 6.58,0.41 9.38,1.25 2.85,0.758 5.58,2.047 8.28,3.789 2.67,1.719 5.1,3.508 7.36,5.52 2.19,1.961 5.16,4.609 8.71,7.988 1.51,1.25 3.61,1.902 6.31,1.902 2.99,0 5.33,-0.8 7.21,-2.461 1.79,-1.609 2.67,-3.851 2.67,-6.839 0,-2.602 -1.01,-5.602 -3.04,-9.102 -1.96,-3.519 -5.04,-6.758 -9.2,-9.98 -4.1,-3.168 -9.28,-5.879 -15.43,-7.95 -6.19,-2.089 -13.38,-3.148 -21.45,-3.148 -18.44,0 -32.75,5.219 -43.03,15.769 -10.21,10.559 -15.35,24.782 -15.35,42.79 0,8.48 1.27,16.39 3.83,23.671 2.5,7.309 6.17,13.461 11.02,18.688 4.82,5.16 10.78,9.141 17.89,11.902 7.07,2.75 14.94,4.141 23.55,4.141 11.19,0 20.8,-2.352 28.95,-7.113 7.97,-4.727 14,-10.84 17.95,-18.317 3.96,-7.543 6.03,-15.203 6.03,-22.992 0,-7.148 -2.11,-11.84 -6.21,-13.98 -4.16,-2.168 -9.96,-3.211 -17.46,-3.211"
         style="fill:#d0cfd2;fill-opacity:1;fill-rule:nonzero;stroke:none"
         id="path302"
         inkscape:connector-curvature="0" /><path
         d="m 4442.52,264.121 c 0,7.578 -1.17,14.078 -3.5,19.469 -2.3,5.512 -5.5,9.59 -9.61,12.539 -4.04,2.91 -8.63,4.363 -13.63,4.363 -7.89,0 -14.57,-3.113 -20,-9.344 -5.45,-6.25 -8.18,-15.41 -8.18,-27.578 0,-11.379 2.71,-20.289 8.12,-26.679 5.41,-6.301 12.05,-9.493 20.06,-9.493 4.77,0 9.2,1.434 13.28,4.141 4.08,2.801 7.35,6.922 9.77,12.5 2.46,5.531 3.69,12.27 3.69,20.082 m -56.29,41.719 0,-3.442 c 5.37,6.622 11.02,11.532 16.9,14.672 5.7,3.11 12.34,4.731 19.7,4.731 8.81,0 17.01,-2.313 24.44,-6.879 7.44,-4.59 13.26,-11.192 17.57,-20 4.34,-8.793 6.51,-19.141 6.51,-31.152 0,-8.79 -1.25,-16.911 -3.71,-24.36 -2.48,-7.379 -5.96,-13.57 -10.28,-18.57 -4.37,-4.981 -9.49,-8.91 -15.39,-11.598 -5.99,-2.683 -12.3,-4.031 -19.14,-4.031 -8.18,0 -15.1,1.648 -20.64,4.969 -5.59,3.222 -10.88,8.14 -15.96,14.472 l 0,-43.093 c 0,-12.61 -4.63,-18.918 -13.77,-18.918 -5.43,0 -8.94,1.578 -10.76,4.839 -1.68,3.301 -2.58,8.012 -2.58,14.301 l 0,123.899 c 0,5.468 1.17,9.55 3.54,12.23 2.38,2.68 5.66,4.078 9.8,4.078 4.08,0 7.36,-1.398 9.9,-4.156 2.62,-2.812 3.87,-6.762 3.87,-11.992"
         style="fill:#d0cfd2;fill-opacity:1;fill-rule:nonzero;stroke:none"
         id="path304"
         inkscape:connector-curvature="0" /><path
         d="m 4514.47,305.68 0,-83.02 c 0,-5.75 -1.36,-10.058 -4.1,-12.969 -2.75,-3.031 -6.21,-4.48 -10.41,-4.48 -4.24,0 -7.58,1.508 -10.27,4.539 -2.58,3.059 -3.95,7.32 -3.95,12.91 l 0,82.219 c 0,5.613 1.37,9.891 3.95,12.742 2.69,2.969 6.03,4.367 10.27,4.367 4.2,0 7.66,-1.398 10.41,-4.367 2.74,-2.851 4.1,-6.883 4.1,-11.941 m -14.22,29.691 c -4.02,0 -7.4,1.25 -10.21,3.629 -2.85,2.539 -4.3,5.961 -4.3,10.41 0,4.07 1.47,7.449 4.4,10.039 2.89,2.641 6.29,3.992 10.11,3.992 3.77,0 7.04,-1.211 9.91,-3.582 2.87,-2.418 4.31,-5.879 4.31,-10.449 0,-4.41 -1.4,-7.871 -4.2,-10.351 -2.81,-2.438 -6.11,-3.688 -10.02,-3.688"
         style="fill:#d0cfd2;fill-opacity:1;fill-rule:nonzero;stroke:none"
         id="path306"
         inkscape:connector-curvature="0" /><path
         d="m 4607.03,218.32 -25.29,41.7 -15.61,-14.731 0,-22.848 c 0,-5.531 -1.44,-9.742 -4.39,-12.691 -2.83,-3.031 -6.25,-4.539 -10.02,-4.539 -4.43,0 -7.89,1.449 -10.43,4.48 -2.48,2.911 -3.79,7.219 -3.79,12.969 l 0,122.5 c 0,6.34 1.25,11.192 3.67,14.512 2.48,3.359 6.02,5.019 10.55,5.019 4.41,0 7.89,-1.511 10.49,-4.57 2.61,-2.969 3.92,-7.441 3.92,-13.301 l 0,-69.668 32.29,33.887 c 4.02,4.191 7.03,7.082 9.16,8.633 2.13,1.5 4.65,2.316 7.63,2.316 3.62,0 6.59,-1.148 9.05,-3.418 2.34,-2.3 3.53,-5.129 3.53,-8.59 0,-4.14 -3.9,-9.839 -11.66,-16.839 l -15.25,-13.942 29.43,-46.328 c 2.13,-3.441 3.75,-6.031 4.69,-7.832 0.94,-1.758 1.45,-3.519 1.45,-5.098 0,-4.589 -1.25,-8.14 -3.77,-10.8 -2.5,-2.621 -5.82,-3.93 -9.83,-3.93 -3.49,0 -6.21,0.898 -8.1,2.859 -1.9,1.93 -4.52,5.332 -7.72,10.25"
         style="fill:#d0cfd2;fill-opacity:1;fill-rule:nonzero;stroke:none"
         id="path308"
         inkscape:connector-curvature="0" /><path
         d="m 4669.41,205.211 c -4.35,0 -8.06,1.391 -11.23,4.219 -3.14,2.761 -4.74,6.718 -4.74,11.8 0,4.262 1.54,7.95 4.55,11.02 3.03,3.082 6.74,4.59 11.13,4.59 4.42,0 8.18,-1.508 11.35,-4.52 3.08,-3.039 4.69,-6.769 4.69,-11.09 0,-5.039 -1.61,-8.929 -4.69,-11.742 -3.17,-2.886 -6.86,-4.277 -11.06,-4.277"
         style="fill:#d0cfd2;fill-opacity:1;fill-rule:nonzero;stroke:none"
         id="path310"
         inkscape:connector-curvature="0" /><path
         d="m 4812.23,240.781 c 0,-3.59 -1.1,-7.402 -3.23,-11.461 -2.12,-4.121 -5.41,-7.929 -9.82,-11.66 -4.36,-3.68 -9.86,-6.609 -16.54,-8.89 -6.66,-2.211 -14.16,-3.379 -22.48,-3.379 -17.78,0 -31.64,5.199 -41.61,15.55 -9.92,10.348 -14.92,24.2 -14.92,41.579 0,11.851 2.27,22.23 6.88,31.289 4.51,9 11.11,16.011 19.74,20.961 8.62,4.98 18.97,7.402 30.92,7.402 7.44,0 14.26,-1.102 20.51,-3.242 6.21,-2.149 11.43,-5 15.78,-8.399 4.26,-3.5 7.58,-7.129 9.84,-10.98 2.29,-3.93 3.4,-7.539 3.4,-10.961 0,-3.391 -1.25,-6.32 -3.81,-8.692 -2.57,-2.398 -5.7,-3.609 -9.27,-3.609 -2.42,0 -4.42,0.66 -6,1.871 -1.58,1.25 -3.36,3.211 -5.31,5.942 -3.52,5.347 -7.15,9.339 -11,11.988 -3.79,2.699 -8.65,4.012 -14.55,4.012 -8.44,0 -15.33,-3.301 -20.51,-9.961 -5.17,-6.59 -7.79,-15.731 -7.79,-27.149 0,-5.39 0.7,-10.433 2.03,-14.902 1.27,-4.5 3.22,-8.379 5.76,-11.59 2.54,-3.16 5.57,-5.559 9.13,-7.219 3.61,-1.742 7.53,-2.539 11.79,-2.539 5.78,0 10.71,1.379 14.79,4.039 4.18,2.68 7.77,6.739 10.93,12.188 1.74,3.222 3.6,5.742 5.61,7.543 2.03,1.789 4.53,2.769 7.48,2.769 3.54,0 6.45,-1.351 8.73,-4.019 2.33,-2.621 3.52,-5.532 3.52,-8.481"
         style="fill:#d0cfd2;fill-opacity:1;fill-rule:nonzero;stroke:none"
         id="path312"
         inkscape:connector-curvature="0" /><path
         d="m 4907.27,263.57 c 0,11.719 -2.58,20.789 -7.72,27.332 -5.14,6.578 -12.07,9.836 -20.76,9.836 -5.63,0 -10.55,-1.437 -14.84,-4.347 -4.3,-2.95 -7.54,-7.192 -9.89,-12.93 -2.28,-5.672 -3.45,-12.289 -3.45,-19.891 0,-7.531 1.11,-14 3.39,-19.64 2.33,-5.61 5.55,-9.93 9.83,-12.891 4.28,-2.969 9.24,-4.5 14.96,-4.5 8.69,0 15.62,3.281 20.76,9.852 5.14,6.578 7.72,15.621 7.72,27.179 m 28.84,0 c 0,-8.55 -1.36,-16.398 -3.92,-23.648 -2.76,-7.223 -6.56,-13.473 -11.64,-18.57 -5.02,-5.243 -11.12,-9.2 -18.05,-11.961 -7.09,-2.789 -14.96,-4.18 -23.71,-4.18 -8.67,0 -16.52,1.391 -23.46,4.219 -6.89,2.761 -12.97,6.82 -18.03,12.019 -5.09,5.25 -8.92,11.422 -11.62,18.512 -2.54,7.148 -3.9,15.019 -3.9,23.609 0,8.68 1.4,16.68 3.98,23.93 2.68,7.25 6.53,13.402 11.51,18.48 5,5.09 10.97,9.079 18.06,11.852 7.11,2.758 14.94,4.156 23.46,4.156 8.69,0 16.58,-1.398 23.71,-4.218 7.03,-2.79 13.07,-6.829 18.16,-11.93 5.08,-5.289 8.91,-11.43 11.55,-18.551 2.58,-7.168 3.9,-15.078 3.9,-23.719"
         style="fill:#d0cfd2;fill-opacity:1;fill-rule:nonzero;stroke:none"
         id="path314"
         inkscape:connector-curvature="0" /><path
         d="m 5045.61,261.461 0,-38.18 c 0,-6.031 -1.31,-10.472 -4.07,-13.531 -2.77,-3.031 -6.33,-4.539 -10.84,-4.539 -4.33,0 -7.91,1.508 -10.52,4.539 -2.74,3.059 -4.11,7.5 -4.11,13.531 l 0,45.778 c 0,7.23 -0.23,12.851 -0.72,16.882 -0.51,3.899 -1.85,7.2 -4,9.797 -2.19,2.563 -5.65,3.852 -10.31,3.852 -9.44,0 -15.59,-3.199 -18.56,-9.75 -2.95,-6.379 -4.49,-15.68 -4.49,-27.77 l 0,-38.789 c 0,-5.922 -1.37,-10.429 -4.03,-13.492 -2.73,-3.07 -6.28,-4.578 -10.68,-4.578 -4.35,0 -7.93,1.508 -10.7,4.578 -2.78,3.063 -4.18,7.57 -4.18,13.492 l 0,82.188 c 0,5.351 1.29,9.511 3.73,12.301 2.56,2.82 5.82,4.218 9.86,4.218 3.95,0 7.21,-1.367 9.87,-3.957 2.61,-2.601 3.9,-6.23 3.9,-10.879 l 0,-2.722 c 5.04,5.902 10.35,10.34 16.02,13.09 5.72,2.851 11.97,4.281 18.96,4.281 7.21,0 13.4,-1.469 18.58,-4.321 5.19,-2.91 9.45,-7.281 12.83,-13.05 4.88,5.84 10.08,10.261 15.6,13.09 5.55,2.812 11.68,4.281 18.4,4.281 7.83,0 14.65,-1.621 20.33,-4.692 5.65,-3.05 9.87,-7.539 12.68,-13.179 2.48,-5.239 3.67,-13.418 3.67,-24.571 l 0,-56.078 c 0,-6.031 -1.37,-10.472 -4.08,-13.531 -2.7,-3.031 -6.35,-4.539 -10.84,-4.539 -4.36,0 -7.89,1.508 -10.66,4.578 -2.78,3.063 -4.16,7.57 -4.16,13.492 l 0,48.34 c 0,6.168 -0.28,11.09 -0.79,14.828 -0.52,3.692 -1.93,6.813 -4.23,9.352 -2.35,2.5 -5.88,3.789 -10.55,3.789 -3.77,0 -7.38,-1.211 -10.78,-3.418 -3.4,-2.223 -6.06,-5.27 -7.99,-8.981 -2.05,-4.89 -3.14,-13.441 -3.14,-25.73"
         style="fill:#d0cfd2;fill-opacity:1;fill-rule:nonzero;stroke:none"
         id="path316"
         inkscape:connector-curvature="0" /><path
         d="m 3779.12,195.18 c 0,0 -15.68,2.5 -30.98,19.211 -15.39,16.898 -17.98,34.73 -17.98,34.73 0,0 19.53,-4.57 33.55,-6.152 24.75,-2.789 47.01,-1.25 57.5,-0.078 22.74,2.5 34.83,6.679 39.75,7.871 29.02,6.988 56.93,25.777 56.93,25.777 0,0 3.54,-21.809 -12.85,-46.008 -6.41,-9.441 -19.16,-20.281 -33.83,-27.781 -50.27,-21.441 -92.09,-7.57 -92.09,-7.57"
         style="fill:#d0cfd2;fill-opacity:1;fill-rule:evenodd;stroke:none"
         id="path318"
         inkscape:connector-curvature="0" /><path
         d="m 3869.43,293.441 c -10.41,-0.589 -19.37,7.239 -20.04,17.598 -0.64,10.332 7.31,19.293 17.7,19.941 10.39,0.7 19.41,-7.21 20.04,-17.5 0.66,-10.371 -7.31,-19.359 -17.7,-20.039 m -84.53,-21.23 c -16.54,-1.039 -30.78,11.379 -31.81,27.891 -1.02,16.418 11.58,30.66 28.1,31.679 16.56,1.129 30.84,-11.41 31.82,-27.82 1.05,-16.461 -11.56,-30.699 -28.11,-31.75 m 112.91,46.91 c -5.37,6.539 -23.38,37.359 -59.78,41.859 -9.3,1.11 -58.54,-0.82 -88.07,-28.109 -2.91,-2.789 -17.91,-15.941 -22.87,-40.473 -3.89,-18.937 2.46,-40.269 2.46,-40.269 0,0 32.75,-6.84 57.42,-6.188 39.12,0.969 58.83,4.43 79.28,10.618 30.12,9.101 51.46,24.402 51.46,24.402 0,0 -14.47,31.578 -19.9,38.16"
         style="fill:#d0cfd2;fill-opacity:1;fill-rule:evenodd;stroke:none"
         id="path320"
         inkscape:connector-curvature="0" /><path
         d="m 3883.67,340.469 9.51,11.422 c 0,0 13.13,-6.5 21.59,-18.629 8.39,-12.133 13.88,-23.223 13.88,-23.223 l -15.7,-9.547 c 0,0 -4.86,11.699 -12.17,21.09 -7.28,9.34 -17.11,18.887 -17.11,18.887"
         style="fill:#d0cfd2;fill-opacity:1;fill-rule:evenodd;stroke:none"
         id="path322"
         inkscape:connector-curvature="0" /><path
         d="m 3913.52,332.539 c 2.46,1.461 6.6,1.723 6.34,5.172 -0.17,3.48 -2.52,10.32 4.34,12.66 6.89,2.309 3.01,-2.051 0.64,-5.062 -2.36,-3.02 -1.6,-4.879 -1.3,-9.289 0.25,-4.379 -2.84,-5.879 -7.49,-8.051 -4.66,-2.188 -5.01,3.101 -2.53,4.57"
         style="fill:#d0cfd2;fill-opacity:1;fill-rule:evenodd;stroke:none"
         id="path324"
         inkscape:connector-curvature="0" /><path
         d="m 3739.1,325.531 c 0,0 -11.01,-12.781 -13.83,-24.34 -2.77,-11.601 -2.2,-25.55 -2.2,-25.55 l -16.29,5.609 c 0,0 -0.94,16.039 6.48,28.98 8.24,14.379 18.79,20.79 18.79,20.79 l 7.05,-5.489"
         style="fill:#d0cfd2;fill-opacity:1;fill-rule:evenodd;stroke:none"
         id="path326"
         inkscape:connector-curvature="0" /><path
         d="m 3715.12,311 c -2.66,1.699 -2.91,5.82 -5,8.531 -2.09,2.758 -2.62,1.09 -7.41,1.09 -4.78,0 -4.92,2.289 -6.26,3.438 -1.37,1.211 -2.02,-3.629 -2.02,-3.629 0,0 0.88,-4.059 6.02,-4.36 5.1,-0.289 4.98,2.211 7.17,-2.398 2.2,-4.652 6.56,-8.141 6.56,-8.141 0,0 3.61,3.711 0.94,5.469"
         style="fill:#d0cfd2;fill-opacity:1;fill-rule:evenodd;stroke:none"
         id="path328"
         inkscape:connector-curvature="0" /><path
         d="m 3801.62,371.699 c 26.74,6.703 43.46,-1.019 43.46,-1.019 l -1.43,-7.688 c 0,0 -19.53,1.289 -35.04,-1.004 -15.47,-2.238 -22.52,-7.129 -22.52,-7.129 l -3.36,7.68 c 0,0 7.33,6.25 18.89,9.16"
         style="fill:#d0cfd2;fill-opacity:1;fill-rule:evenodd;stroke:none"
         id="path330"
         inkscape:connector-curvature="0" /><path
         d="m 3809.63,382.68 3.77,1.359 4.96,-13.32 -3.73,-1.418 -5,13.379"
         style="fill:#d0cfd2;fill-opacity:1;fill-rule:evenodd;stroke:none"
         id="path332"
         inkscape:connector-curvature="0" /><path
         d="m 3927.42,357.91 c 3.77,0.199 7.01,-2.68 7.23,-6.41 0.27,-3.789 -2.6,-6.988 -6.39,-7.238 -3.79,-0.262 -7.03,2.629 -7.24,6.347 -0.26,3.782 2.61,7.012 6.4,7.301"
         style="fill:#d0cfd2;fill-opacity:1;fill-rule:evenodd;stroke:none"
         id="path334"
         inkscape:connector-curvature="0" /><path
         d="m 3692.6,332.051 c 3.75,0.238 7.01,-2.621 7.26,-6.391 0.22,-3.73 -2.63,-6.93 -6.44,-7.16 -3.75,-0.262 -6.99,2.57 -7.25,6.32 -0.23,3.75 2.66,6.961 6.43,7.231"
         style="fill:#d0cfd2;fill-opacity:1;fill-rule:evenodd;stroke:none"
         id="path336"
         inkscape:connector-curvature="0" /><path
         d="m 3812.91,399.711 c 6,0.348 11.19,-4.141 11.56,-10.16 0.35,-5.922 -4.22,-11.11 -10.23,-11.5 -6.02,-0.41 -11.15,4.121 -11.54,10.129 -0.41,6 4.18,11.179 10.21,11.531"
         style="fill:#d0cfd2;fill-opacity:1;fill-rule:evenodd;stroke:none"
         id="path338"
         inkscape:connector-curvature="0" /><path
         d="m 2922.85,268.109 c -10.45,0 -15.62,-10.937 -15.62,-20.429 0,-9.36 5.17,-20.282 15.62,-20.282 10.98,0 15.72,11.172 15.72,20.981 0,9.73 -5,19.73 -15.72,19.73 m 35.82,-47.07 c 0,-6.738 -4.22,-11.16 -10.08,-11.16 -5.52,0 -8.75,3.012 -10.02,8.383 -3.77,-6.153 -11.54,-9.18 -18.37,-9.18 -20.22,0 -33.03,18.707 -33.03,37.699 0,19.571 10.72,39.758 32.34,39.758 6.95,0 13.77,-2.437 19.06,-6.988 l 0,27.34 c 0,6.66 4.18,11.101 10.02,11.101 5.86,0 10.08,-4.441 10.08,-11.101 l 0,-85.852"
         style="fill:#d0cfd2;fill-opacity:1;fill-rule:nonzero;stroke:none"
         id="path340"
         inkscape:connector-curvature="0" /><path
         d="m 3017.73,254.469 c -1.09,8.812 -6.68,15.301 -16.03,15.301 -8.91,0 -14.92,-6.778 -15.88,-15.301 l 31.91,0 z m -31.52,-13.379 c 1.45,-9.86 9.63,-14.508 19.02,-14.508 10.28,0 17.37,8.047 22.7,8.047 4.3,0 8.16,-4.258 8.16,-8.629 0,-8.641 -17.79,-16.918 -32.71,-16.918 -22.6,0 -37.62,16.41 -37.62,38.598 0,20.332 14.77,38.859 35.94,38.859 21.74,0 36.09,-19.777 36.09,-36.519 0,-5.981 -2.65,-8.93 -8.77,-8.93 l -42.81,0"
         style="fill:#d0cfd2;fill-opacity:1;fill-rule:nonzero;stroke:none"
         id="path342"
         inkscape:connector-curvature="0" /><path
         d="m 3087.15,263.109 c -3.77,0 -11.43,5.891 -17.99,5.891 -3.61,0 -6.84,-1.699 -6.84,-5.641 0,-9.339 34.85,-7.929 34.85,-30.777 0,-13.34 -11.27,-23.5 -28.6,-23.5 -11.27,0 -27.98,6.367 -27.98,15.406 0,3.051 3.06,8.891 8.63,8.891 7.81,0 11.29,-6.797 20.74,-6.797 6.15,0 7.97,1.988 7.97,5.738 0,9.219 -34.82,7.801 -34.82,30.789 0,13.922 11.28,23.43 27.18,23.43 9.87,0 25.06,-4.629 25.06,-14.527 0,-4.571 -3.47,-8.903 -8.2,-8.903"
         style="fill:#d0cfd2;fill-opacity:1;fill-rule:nonzero;stroke:none"
         id="path344"
         inkscape:connector-curvature="0" /><path
         d="m 3103.98,274.512 c 0,6.699 4.18,11.187 10.04,11.187 5.84,0 10.02,-4.488 10.02,-11.187 l 0,-53.473 c 0,-6.738 -4.18,-11.16 -10.02,-11.16 -5.86,0 -10.04,4.422 -10.04,11.16 l 0,53.473 z m 21.33,30.258 c 0,-6.29 -5,-11.59 -11.29,-11.59 -5.99,0 -11.29,5.449 -11.29,11.59 0,5.722 5.3,11.011 11.29,11.011 5.98,0 11.29,-5.14 11.29,-11.011"
         style="fill:#d0cfd2;fill-opacity:1;fill-rule:nonzero;stroke:none"
         id="path346"
         inkscape:connector-curvature="0" /><path
         d="m 3167.93,268.109 c -10.43,0 -15.57,-10.839 -15.57,-20.199 0,-10.719 5.14,-20.512 15.57,-20.512 10.72,0 15.76,10.082 15.76,19.852 0,9.699 -4.73,20.859 -15.76,20.859 m 35.84,-51.55 c 0,-24.098 -15.76,-36.27 -38.61,-36.27 -8.21,0 -31.64,4.082 -31.64,15.082 0,3.731 4.18,8.77 8.12,8.77 6.39,0 13.5,-6.211 25.06,-6.211 9.78,0 16.99,5.621 16.99,15.879 l 0,4.711 -0.27,0 c -4.16,-6.122 -11.02,-9.438 -20.2,-9.438 -21.03,0 -30.95,18.457 -30.95,38.418 0,20.199 12.79,39.039 33.02,39.039 6.86,0 14.61,-3.078 18.4,-9.18 1.27,5.243 4.45,8.34 10.04,8.34 5.84,0 10.04,-4.488 10.04,-11.187 l 0,-57.953"
         style="fill:#d0cfd2;fill-opacity:1;fill-rule:nonzero;stroke:none"
         id="path348"
         inkscape:connector-curvature="0" /><path
         d="m 3215.18,274.512 c 0,6.699 4.16,11.187 10.03,11.187 5.14,0 8.52,-2.789 9.18,-7.461 3.93,5.473 9.89,8.301 19.38,8.301 15.74,0 27.44,-10.059 27.44,-27.027 l 0,-38.473 c 0,-6.738 -4.12,-11.16 -10,-11.16 -5.82,0 -10.06,4.422 -10.06,11.16 l 0,34.941 c 0,9.352 -5.82,13.79 -13.08,13.79 -8.25,0 -12.82,-6 -12.82,-13.79 l 0,-34.941 c 0,-6.738 -4.2,-11.16 -10.04,-11.16 -5.87,0 -10.03,4.422 -10.03,11.16 l 0,53.473"
         style="fill:#d0cfd2;fill-opacity:1;fill-rule:nonzero;stroke:none"
         id="path350"
         inkscape:connector-curvature="0" /><path
         d="m 3340.31,254.469 c -1.11,8.812 -6.7,15.301 -16.03,15.301 -8.93,0 -14.94,-6.778 -15.88,-15.301 l 31.91,0 z m -31.5,-13.379 c 1.4,-9.86 9.61,-14.508 18.96,-14.508 10.34,0 17.43,8.047 22.7,8.047 4.33,0 8.26,-4.258 8.26,-8.629 0,-8.641 -17.87,-16.918 -32.77,-16.918 -22.6,0 -37.62,16.41 -37.62,38.598 0,20.332 14.77,38.859 35.94,38.859 21.76,0 36.09,-19.777 36.09,-36.519 0,-5.981 -2.66,-8.93 -8.77,-8.93 l -42.79,0"
         style="fill:#d0cfd2;fill-opacity:1;fill-rule:nonzero;stroke:none"
         id="path352"
         inkscape:connector-curvature="0" /><path
         d="m 3400.23,268.109 c -10.46,0 -15.6,-10.937 -15.6,-20.429 0,-9.36 5.14,-20.282 15.6,-20.282 10.98,0 15.75,11.172 15.75,20.981 0,9.73 -5.02,19.73 -15.75,19.73 m 35.81,-47.07 c 0,-6.738 -4.2,-11.16 -10.06,-11.16 -5.55,0 -8.73,3.012 -10,8.383 -3.79,-6.153 -11.57,-9.18 -18.4,-9.18 -20.2,0 -33.01,18.707 -33.01,37.699 0,19.571 10.72,39.758 32.34,39.758 6.94,0 13.77,-2.437 19.07,-6.988 l 0,27.34 c 0,6.66 4.18,11.101 10,11.101 5.86,0 10.06,-4.441 10.06,-11.101 l 0,-85.852"
         style="fill:#d0cfd2;fill-opacity:1;fill-rule:nonzero;stroke:none"
         id="path354"
         inkscape:connector-curvature="0" /><path
         d="m 3520.63,227.398 c 10.44,0 15.58,10.922 15.58,20.282 0,9.492 -5.14,20.429 -15.58,20.429 -10.73,0 -15.75,-10 -15.75,-19.73 0,-9.809 4.77,-20.981 15.75,-20.981 m -35.84,79.493 c 0,6.66 4.21,11.101 10.07,11.101 5.86,0 10.02,-4.441 10.02,-11.101 l 0,-27.34 c 5.32,4.551 12.11,6.988 19.08,6.988 21.61,0 32.33,-20.187 32.33,-39.758 0,-18.992 -12.79,-37.699 -33.03,-37.699 -6.83,0 -14.63,3.027 -18.38,9.18 -1.27,-5.371 -4.45,-8.383 -10.02,-8.383 -5.86,0 -10.07,4.422 -10.07,11.16 l 0,85.852"
         style="fill:#d0cfd2;fill-opacity:1;fill-rule:nonzero;stroke:none"
         id="path356"
         inkscape:connector-curvature="0" /><path
         d="m 3559.79,271.91 c -0.57,1.512 -1,3.051 -1,5.121 0,5.059 5.29,8.668 9.49,8.668 4.85,0 8.34,-2.687 10.04,-7.09 l 13.75,-37.828 14.81,37.828 c 1.67,4.403 5.13,7.09 10.03,7.09 4.18,0 9.46,-3.609 9.46,-8.668 0,-2.07 -0.28,-3.609 -0.96,-5.121 l -33.59,-83.648 c -1.64,-4.141 -4.73,-7.973 -9.48,-7.973 -6.81,0 -10.43,4.383 -10.43,8.641 0,2.031 0.57,4.082 1.22,5.871 l 8.8,21.758 -22.14,55.351"
         style="fill:#d0cfd2;fill-opacity:1;fill-rule:nonzero;stroke:none"
         id="path358"
         inkscape:connector-curvature="0" /><g
         id="g360"><g
           id="g362"
           clip-path="url(#clipPath364)"><path
             d="m 962.168,7652.36 c -8.531,8.53 -11.324,8.78 -19.855,0.25 -9.422,-9.43 -12.352,-13.37 2.414,-27.88 l 16.933,16.93 c 3.692,3.69 3.824,7.38 0.508,10.7"
             style="fill:#d0cfd2;fill-opacity:1;fill-rule:nonzero;stroke:none"
             id="path368"
             inkscape:connector-curvature="0" /><path
             d="m 401,7062.17 c -4.32,-5.11 -1.527,-9.44 1.402,-12.37 l 3.305,-3.3 c 5.602,-5.6 9.305,-3.19 12.613,0.12 7.383,7.38 10.18,20.89 10.18,20.89 L 416.152,7079.86 401,7062.17"
             style="fill:#d0cfd2;fill-opacity:1;fill-rule:nonzero;stroke:none"
             id="path370"
             inkscape:connector-curvature="0" /><path
             d="m 639.648,7329.84 c -8.531,8.53 -11.328,8.77 -19.859,0.25 -9.418,-9.43 -12.348,-13.37 2.418,-27.88 l 16.934,16.93 c 3.691,3.69 3.824,7.38 0.507,10.7"
             style="fill:#d0cfd2;fill-opacity:1;fill-rule:nonzero;stroke:none"
             id="path372"
             inkscape:connector-curvature="0" /><path
             d="m 1073.17,7673.22 c -12.86,-12.86 -33.61,-32.34 -41.38,-33.99 l -11.08,11.07 31.96,31.97 c 1.14,1.14 4.33,4.57 0.13,8.77 l -3.18,3.18 c -2.8,2.8 -5.09,3.57 -8.79,-0.12 l -15.79,-15.79 c -11.96,-11.97 -24.06,-13.88 -37.173,-0.76 l -5.855,5.85 c -10.442,10.44 -13.754,22.66 -0.641,35.78 12.988,12.99 31.329,30.55 39.599,32.72 l 11.2,-11.21 -30.68,-30.68 c -4.58,-4.58 -3.693,-6.75 -0.51,-9.93 l 3.06,-3.06 c 4.2,-4.2 6.61,-2.03 9.54,0.9 l 16.04,16.04 c 12.87,12.87 25.6,10.31 35.53,0.38 l 6.87,-6.88 c 13.88,-13.87 9.29,-26.09 1.15,-34.24 z m -84.01,-84.01 c -17.187,-17.19 -32.207,-12.35 -57.031,12.47 -29.031,29.03 -25.852,42.15 -4.461,63.53 19.605,19.61 30.809,26.49 53.215,4.09 12.101,-12.1 10.445,-23.69 -1.778,-35.91 l -21.515,-21.52 c 12.094,-12.1 17.437,-8.28 27.117,1.4 10.309,10.32 15.403,15.15 23.423,26.23 l 12.1,-12.1 c -5.99,-13.1 -20.503,-27.63 -31.07,-38.19 z m -51.172,-49.9 -67.601,67.6 17.828,17.82 67.601,-67.59 -17.828,-17.83 z m -52.691,-52.69 -67.602,67.6 15.024,15.03 11.328,-5.73 c 0,9.17 1.781,20.11 10.187,28.52 2.922,2.92 5.727,5.73 8.278,6.74 l 17.179,-17.18 c -1.902,-1.66 -6.23,-5.47 -10.179,-9.43 -7.383,-7.38 -11.461,-13.99 -9.551,-24.57 l 43.16,-43.16 -17.824,-17.82 z m -44.926,-46.2 c -17.187,-17.19 -32.207,-12.35 -57.031,12.47 -29.031,29.04 -25.852,42.15 -4.457,63.55 19.601,19.6 30.805,26.47 53.211,4.07 12.101,-12.1 10.449,-23.68 -1.778,-35.91 l -21.511,-21.51 c 12.093,-12.11 17.433,-8.29 27.113,1.39 10.312,10.32 15.41,15.15 23.422,26.23 l 12.101,-12.1 c -5.988,-13.1 -20.5,-27.61 -31.07,-38.19 z m -56.633,-57.39 c -15.918,-15.92 -27.371,-25.34 -39.847,-32.21 l -14.004,14 c 5.605,4.58 22.027,19.22 33.867,31.07 5.348,5.34 10.566,12.34 3.434,19.47 l -4.965,4.97 c -5.348,5.35 -10.313,7.26 -17.188,0.38 l -14.258,-14.25 c -22.535,-22.54 -40.617,-7.51 -48.765,0.63 l -8.012,8.02 c -18.469,18.46 -12.867,34.75 1.141,49.28 13.117,13.62 30.172,27.11 39.726,32.33 l 14.004,-14.01 c -8.914,-7.38 -27.887,-25.33 -32.469,-29.92 -7.89,-7.63 -11.839,-12.6 -3.179,-21.27 l 4.574,-4.57 c 7.391,-7.39 11.719,-6.11 18.848,1.02 l 14.773,14.76 c 18.332,18.34 36.41,7.65 46.727,-2.67 l 6.234,-6.23 c 21.141,-21.14 11.965,-38.19 -0.641,-50.8 z M 666.637,7266.69 c -17.188,-17.19 -32.207,-12.35 -57.032,12.47 -29.035,29.03 -25.851,42.15 -4.46,63.54 19.605,19.6 30.808,26.48 53.218,4.08 12.102,-12.1 10.446,-23.69 -1.777,-35.91 l -21.52,-21.52 c 12.098,-12.09 17.438,-8.28 27.118,1.4 10.312,10.31 15.41,15.15 23.425,26.23 l 12.102,-12.1 c -5.992,-13.11 -20.504,-27.62 -31.074,-38.19 z m -72.422,-71.15 -67.61,67.6 15.028,15.01 11.332,-5.72 c 0,9.17 1.777,20.12 10.18,28.52 2.929,2.93 5.734,5.73 8.277,6.75 l 17.187,-17.18 c -1.906,-1.66 -6.238,-5.49 -10.179,-9.43 -7.391,-7.39 -11.465,-14.01 -9.551,-24.57 l 43.156,-43.16 -17.82,-17.82 z m -25.953,-25.96 -10.571,3.7 c -2.796,-10.7 -2.925,-19.49 -13.238,-29.8 -15.66,-15.66 -30.933,-9.29 -43.922,3.7 l -44.941,44.94 17.824,17.82 45.32,-45.32 c 6.754,-6.76 12.102,-5.99 16.555,-1.53 7.129,7.12 9.289,12.86 10.434,22.16 l -48.5,48.5 17.82,17.82 67.602,-67.61 -14.383,-14.38 z m -68.992,-68.99 c -9.93,-9.93 -22.786,-10.32 -40.739,7.64 l -29.922,29.92 -10.953,-10.95 -9.926,9.93 7.254,14.65 -15.906,21.77 14.891,14.89 18.84,-18.84 15.152,15.15 13.621,-13.62 -15.152,-15.15 27.121,-27.12 c 9.929,-9.93 14.394,-9.81 19.101,-7.64 0,0 10.309,4.96 11.2,5.86 l 10.953,-10.95 -15.535,-15.54 z m -48.235,-48.23 -11.074,3.69 c 0.637,-2.16 -1.914,-18.71 -12.477,-28.78 -13.375,-12.6 -28.265,-9.93 -37.05,-1.14 l -6.368,6.37 c -9.925,9.92 -13.242,23.94 1.27,38.45 0,0 19.996,19.73 19.863,19.86 0,0 -4.07,4.33 -4.324,4.33 -7.262,7.25 -11.715,4.83 -17.316,-0.76 -5.985,-5.99 -21.903,-23.94 -26.993,-29.8 l -11.074,11.07 c 5.477,12.35 13.746,22.67 26.348,35.28 14.515,14.51 29.414,19.48 46.223,2.68 l 47.109,-47.11 -14.137,-14.14 z m -70.762,-70.77 -96.628,22.54 59.582,-59.58 -17.954,-17.96 -93.195,93.2 18.082,18.08 97.141,-23.3 -60.223,60.22 17.828,17.83 93.196,-93.2 -17.829,-17.83 z m 467.957,652.32 13.372,13.36 c 1.91,1.92 4.332,1.28 6.113,-0.51 l 11.203,-11.2 c 1.906,-1.91 1.906,-3.94 0.125,-5.72 l -13.367,-13.38 c -1.785,-1.77 -4.207,-1.9 -5.985,-0.12 l -11.199,11.2 c -2.043,2.04 -2.297,4.34 -0.262,6.37 z m 718.63,912.22 -2101.294,-2101.31 295.313,-295.31 2101.291,2101.32 -295.31,295.3"
             style="fill:#d0cfd2;fill-opacity:1;fill-rule:nonzero;stroke:none"
             id="path374"
             inkscape:connector-curvature="0" /><path
             d="m 813.383,7503.57 c -8.528,8.53 -11.328,8.79 -19.86,0.25 -9.418,-9.42 -12.347,-13.36 2.418,-27.87 l 16.934,16.93 c 3.691,3.69 3.824,7.37 0.508,10.69"
             style="fill:#d0cfd2;fill-opacity:1;fill-rule:nonzero;stroke:none"
             id="path376"
             inkscape:connector-curvature="0" /></g></g></g></g></svg>