<?xml version="1.0" encoding="UTF-8" standalone="no"?>
<!-- Created with Inkscape (http://www.inkscape.org/) -->

<svg
   xmlns:dc="http://purl.org/dc/elements/1.1/"
   xmlns:cc="http://creativecommons.org/ns#"
   xmlns:rdf="http://www.w3.org/1999/02/22-rdf-syntax-ns#"
   xmlns:svg="http://www.w3.org/2000/svg"
   xmlns="http://www.w3.org/2000/svg"
   xmlns:sodipodi="http://sodipodi.sourceforge.net/DTD/sodipodi-0.dtd"
   xmlns:inkscape="http://www.inkscape.org/namespaces/inkscape"
   id="svg2"
   version="1.1"
   inkscape:version="0.91 r13725"
   xml:space="preserve"
   width="6250"
   height="6250"
   viewBox="0 0 6250 6250"
   sodipodi:docname="42.svg"><metadata
     id="metadata8"><rdf:RDF><cc:Work
         rdf:about=""><dc:format>image/svg+xml</dc:format><dc:type
           rdf:resource="http://purl.org/dc/dcmitype/StillImage" /><dc:title></dc:title></cc:Work></rdf:RDF></metadata><defs
     id="defs6"><clipPath
       clipPathUnits="userSpaceOnUse"
       id="clipPath1284"><path
         d="m 13594.4,6851.74 -0.6,0 0.4,0.21 c 0.1,-0.06 0.1,-0.12 0.2,-0.21"
         id="path1286"
         inkscape:connector-curvature="0" /></clipPath><clipPath
       clipPathUnits="userSpaceOnUse"
       id="clipPath1826"><path
         d="m 6270.07,2693.03 c 4.61,5.19 11.16,9.45 20.54,10.65 l 311.65,0.12 -0.14,-0.24 -308.83,0 c -8.87,0 -17.08,-3.99 -23.22,-10.53"
         id="path1828"
         inkscape:connector-curvature="0" /></clipPath></defs><sodipodi:namedview
     pagecolor="#ffffff"
     bordercolor="#666666"
     borderopacity="1"
     objecttolerance="10"
     gridtolerance="10"
     guidetolerance="10"
     inkscape:pageopacity="0"
     inkscape:pageshadow="2"
     inkscape:window-width="1680"
     inkscape:window-height="1026"
     id="namedview4"
     showgrid="false"
     inkscape:zoom="0.10680141"
     inkscape:cx="2943.3332"
     inkscape:cy="3408.7551"
     inkscape:window-x="1600"
     inkscape:window-y="24"
     inkscape:window-maximized="1"
     inkscape:current-layer="g12" /><g
     id="g10"
     inkscape:groupmode="layer"
     inkscape:label="ink_ext_XXXXXX"
     transform="matrix(1.25,0,0,-1.25,0,6250)"><g
       id="g12"
       transform="scale(0.340832,0.340832)"><path
         d="m 0,0 14670,0 0,14670 L 0,14670 0,0 Z"
         style="fill:#ffffff;fill-opacity:1;fill-rule:nonzero;stroke:none"
         id="path14"
         inkscape:connector-curvature="0" /><path
         d="m 2984.85,13702.4 c 0,-333.6 -270.43,-604 -604.03,-604 -333.59,0 -604.03,270.4 -604.03,604 0,333.6 270.44,604 604.03,604 333.6,0 604.03,-270.4 604.03,-604"
         style="fill:#4fabe4;fill-opacity:1;fill-rule:nonzero;stroke:none"
         id="path40"
         inkscape:connector-curvature="0" /><path
         d="m 2737.42,13737 0,-240.8 c 0,-34.1 -30.82,-61.4 -64.94,-61.4 l -582.75,0 c -34.12,0 -65.27,27.3 -65.27,61.4 l 0,240.8 316.58,0 c -6,-5.9 -11.04,-17.3 -15.06,-26.8 -4.85,-11.5 -8.06,-23.5 -9.6,-35.8 -0.69,-5.5 -1.04,-11.2 -1.04,-16.9 0,-7.4 0.59,-14.8 1.77,-22 0.17,-1.1 0.37,-2.2 0.58,-3.3 0.1,-0.6 0.42,-1.1 0.52,-1.7 0.67,-3.3 2.58,-6.5 2.58,-9.8 l 0,0 c 0,-1.1 0.42,-2.1 0.76,-3.2 0.33,-1.1 0.57,-2.2 0.93,-3.2 1.08,-3.2 2.39,-4.9 3.72,-8 2.12,-5 5.02,-10.1 7.42,-13.1 l -0.04,0 c 1.21,-5.8 2.59,-6.2 4.08,-8.4 1.78,-2.7 3.14,-6.2 5.11,-8.7 0.66,-0.9 1.5,-2.3 1.5,-3.2 l 0,-0.1 c 0,-0.8 5.86,-1.7 5.86,-2.5 l 0,-0.1 c 0,-0.8 0,-1.6 0,-2.4 l 0,-0.1 c 0,-1.2 2.32,-2.4 3.45,-3.6 0.76,-0.8 2.42,-1.5 2.42,-2.3 l 0,0 c 0,-2 3.41,-3.8 5.45,-5.7 1.23,-1 2.21,-2.1 3.47,-3.1 0.84,-0.7 1.55,-1.4 2.41,-2.1 0.85,-0.6 1.65,-1.3 2.52,-2 0.43,-0.3 0.83,-0.6 1.28,-0.9 5.25,-3.9 10.75,-7.3 16.52,-10.3 0.48,-0.3 0.96,-0.5 1.44,-0.8 0.97,-0.5 1.94,-1 2.92,-1.4 1.96,-1 3.95,-1.9 5.96,-2.7 16.71,-7.1 34.43,-10.7 52.68,-10.7 18.26,0 35.98,3.6 52.68,10.7 16.12,6.8 30.59,16.6 43.01,29 12.41,12.4 22.16,26.9 28.98,43 7.07,16.7 10.65,34.4 10.65,52.7 0,18.2 -3.58,36 -10.65,52.7 -4.02,9.5 -9.05,20.9 -15.06,26.8 l 177.16,0"
         style="fill:#264364;fill-opacity:1;fill-rule:nonzero;stroke:none"
         id="path42"
         inkscape:connector-curvature="0" /><path
         d="m 2737.42,13831.9 0,-77.3 -187.89,0 c -1.04,0 -2.11,-0.2 -3.19,0.9 -12.42,12.4 -26.89,21 -43.01,27.8 -16.7,7.1 -34.42,10.1 -52.68,10.1 -18.25,0 -35.97,-3.9 -52.68,-11 -16.11,-6.8 -30.58,-14.3 -43,-26.7 -1.09,-1.1 -2.15,-1.1 -3.19,-1.1 l -327.32,0 0,77.3 c 0,32.8 29.84,60.6 62.65,60.6 l 587.99,0 c 32.81,0 62.32,-27.8 62.32,-60.6"
         style="fill:#264364;fill-opacity:1;fill-rule:nonzero;stroke:none"
         id="path44"
         inkscape:connector-curvature="0" /><path
         d="m 2551.63,13657.1 c 0,-2.6 -0.1,-5.2 -0.3,-7.8 -3.31,-43.5 -33.93,-79.3 -74.74,-90.3 -1.21,-0.4 -2.43,-0.7 -3.66,-0.9 -0.83,-0.2 -1.65,-0.4 -2.48,-0.6 -0.82,-0.2 -1.65,-0.3 -2.49,-0.5 -3.75,-0.6 -7.58,-1.1 -11.46,-1.3 -0.87,-0.1 -1.74,-0.1 -2.61,-0.2 -1.3,0 -2.61,0 -3.93,0 -53.51,0 -97.36,41.3 -101.36,93.8 -0.19,2.6 -0.3,5.2 -0.3,7.8 0,2.5 0.1,5 0.27,7.4 1.04,14.3 5.03,27.8 11.37,39.9 0.21,0.4 0.02,0.8 0.25,1.2 0.67,1.2 1.68,2.5 1.68,3.7 l 0,0 c 0,1.2 1.87,2.4 2.65,3.5 0.5,0.8 1.23,1.6 1.77,2.4 5.6,8 12.43,15.2 20.06,21.3 6.42,5.1 13.52,9.5 21.08,13 12.92,5.9 27.34,9.3 42.51,9.3 15.17,0 29.57,-3.4 42.5,-9.3 0.94,-0.4 1.89,-0.9 2.81,-1.4 6.51,-3.2 12.61,-7.1 18.23,-11.6 l 0.06,-0.1 c 7.6,-6.1 14.32,-13.2 19.9,-21.2 0.53,-0.8 1.39,-1.6 1.9,-2.4 0.77,-1.1 2.57,-2.3 2.57,-3.5 l 0,0 c 0,-1.2 1.09,-2.5 1.76,-3.7 0.22,-0.4 0.28,-0.8 0.49,-1.2 6.34,-12.1 10.25,-25.6 11.28,-39.9 0.18,-2.4 0.19,-4.9 0.19,-7.4"
         style="fill:#c7e88e;fill-opacity:1;fill-rule:nonzero;stroke:none"
         id="path46"
         inkscape:connector-curvature="0" /><path
         d="m 2312.13,13945.3 -154.45,0 -77.23,-76.3 308.9,0 -77.22,76.3"
         style="fill:#1e3047;fill-opacity:1;fill-rule:nonzero;stroke:none"
         id="path48"
         inkscape:connector-curvature="0" /><path
         d="m 2102.5,13689.9 c 0,-10.4 -8.45,-18.9 -18.87,-18.9 -10.43,0 -18.89,8.5 -18.89,18.9 0,10.4 8.46,18.9 18.89,18.9 10.42,0 18.87,-8.5 18.87,-18.9"
         style="fill:#c7e88e;fill-opacity:1;fill-rule:nonzero;stroke:none"
         id="path50"
         inkscape:connector-curvature="0" /><path
         d="m 8641.6,13702.4 c 0,-333.6 -270.43,-604 -604.03,-604 -333.59,0 -604.02,270.4 -604.02,604 0,333.6 270.43,604 604.02,604 333.6,0 604.03,-270.4 604.03,-604"
         style="fill:#4cba99;fill-opacity:1;fill-rule:nonzero;stroke:none"
         id="path156"
         inkscape:connector-curvature="0" /><path
         d="m 7894.81,14006.6 -171.82,-43.1 c -15.69,-3.9 -28.43,-23.2 -28.43,-43.1 l 0,-501.4 c 0,-19.9 12.74,-31.8 28.43,-26.8 l 171.7,42.4 28.55,8.1 0,571 -28.43,-7.1"
         style="fill:#cbc9c9;fill-opacity:1;fill-rule:nonzero;stroke:none"
         id="path158"
         inkscape:connector-curvature="0" /><path
         d="m 7897.95,13977.2 -152.86,-38.3 c -13.97,-3.5 -25.27,-20.7 -25.27,-38.3 l 0,-446.1 c 0,-17.7 11.3,-28.3 25.27,-23.8 l 152.74,37.7 25.41,7.2 0,507.9 -25.29,-6.3"
         style="fill:#a4e1f8;fill-opacity:1;fill-rule:nonzero;stroke:none"
         id="path160"
         inkscape:connector-curvature="0" /><path
         d="m 8180.34,13398.2 171.82,43.1 c 15.7,3.9 28.43,23.2 28.43,43 l 0,501.5 c 0,19.8 -12.73,31.8 -28.43,26.8 l -171.7,-42.4 -28.55,-8.8 0,-570.3 28.43,7.1"
         style="fill:#cbc9c9;fill-opacity:1;fill-rule:nonzero;stroke:none"
         id="path162"
         inkscape:connector-curvature="0" /><path
         d="m 8177.38,13428.5 151.07,38.4 c 13.79,3.5 25,20.7 25,38.5 l 0,447.3 c 0,17.7 -11.21,28.4 -25,23.9 l -150.95,-37.8 -25.09,-7.2 0,-509.5 24.97,6.4"
         style="fill:#a4e1f8;fill-opacity:1;fill-rule:nonzero;stroke:none"
         id="path164"
         inkscape:connector-curvature="0" /><path
         d="m 8152.32,13391.1 -229.08,52.4 0,570.2 229.08,-52.4 0,-570.2"
         style="fill:#7e7f80;fill-opacity:1;fill-rule:nonzero;stroke:none"
         id="path166"
         inkscape:connector-curvature="0" /><path
         d="m 8151.91,13421.6 -228.67,53.8 0,507.8 228.67,-51.4 0,-510.2"
         style="fill:#68bacf;fill-opacity:1;fill-rule:nonzero;stroke:none"
         id="path168"
         inkscape:connector-curvature="0" /><path
         d="m 8020.59,13573.9 c -10.45,0 -18.9,8.4 -18.9,18.9 0,10.4 8.45,18.8 18.9,18.8 10.41,0 18.86,-8.4 18.86,-18.8 0,-10.5 -8.45,-18.9 -18.86,-18.9 z m 38.58,18.9 c 0,21.3 -17.28,38.6 -38.61,38.6 -21.3,0 -38.55,-17.3 -38.55,-38.6 0,-3.6 0.47,-7 1.35,-10.2 l 0,0 c 0,0 17.28,-63.9 37.2,-64.3 19.95,-0.4 37.26,64.4 37.26,64.4 l 0,0 c 0.85,3.2 1.35,6.6 1.35,10.1"
         style="fill:#f03937;fill-opacity:1;fill-rule:nonzero;stroke:none"
         id="path170"
         inkscape:connector-curvature="0" /><path
         d="m 7845.72,13778.9 c -11.27,0 -20.39,9.1 -20.39,20.4 0,11.2 9.12,20.4 20.39,20.4 11.27,0 20.39,-9.2 20.39,-20.4 0,-11.3 -9.12,-20.4 -20.39,-20.4 z m 41.69,20.4 c 0,23 -18.66,41.7 -41.69,41.7 -23.03,0 -41.69,-18.7 -41.69,-41.7 0,-3.9 0.53,-7.5 1.5,-11.1 l -0.03,0 c 0,0 18.69,-69 40.22,-69.4 21.54,-0.4 40.26,69.6 40.26,69.6 l 0,0 c 0.93,3.4 1.43,7.1 1.43,10.9"
         style="fill:#f03937;fill-opacity:1;fill-rule:nonzero;stroke:none"
         id="path172"
         inkscape:connector-curvature="0" /><path
         d="m 8266.25,13800.8 c -10.71,0 -19.39,8.7 -19.39,19.4 0,10.7 8.68,19.4 19.39,19.4 10.71,0 19.39,-8.7 19.39,-19.4 0,-10.7 -8.68,-19.4 -19.39,-19.4 z m 39.64,19.4 c 0,21.9 -17.75,39.6 -39.64,39.6 -21.89,0 -39.64,-17.7 -39.64,-39.6 0,-3.7 0.5,-7.2 1.44,-10.5 l -0.03,0 c 0,0 17.75,-65.6 38.23,-66 20.48,-0.4 38.26,66.1 38.26,66.1 l 0,0 c 0.88,3.3 1.38,6.8 1.38,10.4"
         style="fill:#f03937;fill-opacity:1;fill-rule:nonzero;stroke:none"
         id="path174"
         inkscape:connector-curvature="0" /><path
         d="m 5813.22,12289.7 c 0,-333.6 -270.42,-604 -604.02,-604 -333.59,0 -604.02,270.4 -604.02,604 0,333.6 270.43,604.1 604.02,604.1 333.6,0 604.02,-270.5 604.02,-604.1"
         style="fill:#7ac02b;fill-opacity:1;fill-rule:nonzero;stroke:none"
         id="path298"
         inkscape:connector-curvature="0" /><path
         d="m 4863.93,12129 c -13.38,12.8 -9.1,29.9 0.32,39.4 9.42,9.6 28.4,14.1 40.05,1.8 13.88,-14.6 10.06,-32 0.65,-41.5 -9.42,-9.6 -26.88,-13.3 -41.02,0.3 z m 603.17,524.2 -127.63,-129.3 c -6.75,-6.8 -17.78,-6.9 -24.65,-0.1 l -54.75,54 c -6.83,6.8 -6.92,17.8 -0.14,24.7 l 126.19,127.8 c -72.12,36.2 -162.22,23.8 -221.99,-36.7 -51.08,-51.7 -66.66,-125.2 -46.88,-190.3 l -305.46,-309.4 c -29.08,-29.5 -28.78,-76.9 0.67,-106 l 14.61,-14.4 c 29.46,-29.1 76.91,-28.7 105.95,0.7 l 301.32,305.2 c 68.28,-25 147.85,-9.8 202.25,45.3 61.43,62.2 71.5,156 30.51,228.5"
         style="fill:#373e4b;fill-opacity:1;fill-rule:nonzero;stroke:none"
         id="path300"
         inkscape:connector-curvature="0" /><path
         d="m 5298.57,12483.8 c -6.78,-6.9 -17.81,-7 -24.64,-0.2 l -59.95,59.2 c -6.84,6.7 -6.92,17.7 -0.14,24.6 l 0.76,0.8 c 6.78,6.8 17.81,6.9 24.64,0.1 l 59.95,-59.1 c 6.83,-6.8 6.92,-17.8 0.14,-24.7 l -0.76,-0.7"
         style="fill:#ffffff;fill-opacity:1;fill-rule:nonzero;stroke:none"
         id="path302"
         inkscape:connector-curvature="0" /><path
         d="m 4868.06,12134 c -7.89,7.8 -8.56,22.3 0.06,31 8.63,8.7 23.3,8.4 31.19,0.6 7.89,-7.8 8.63,-22.7 0.03,-31.4 -8.63,-8.7 -23.38,-8 -31.28,-0.2 z m 281.55,282.6 -4.52,4.4 c -16.72,16.5 -45.15,14.9 -63.49,-3.7 l -232.43,-235.4 c -18.31,-18.6 -19.6,-47 -2.85,-63.6 l 4.49,-4.4 c 16.76,-16.5 45.19,-14.9 63.49,3.7 l 232.47,235.4 c 18.3,18.6 19.57,47 2.84,63.6"
         style="fill:#f2574f;fill-opacity:1;fill-rule:nonzero;stroke:none"
         id="path304"
         inkscape:connector-curvature="0" /><path
         d="m 5093.54,11904 c -6.89,6.7 -6.95,17.8 -0.17,24.7 6.8,6.9 17.89,7 24.79,0.2 6.86,-6.8 6.95,-17.9 0.14,-24.8 -6.77,-6.9 -17.89,-6.9 -24.76,-0.1 z m 392.04,249.3 20.37,78.1 c 2.43,9.3 -0.3,19.2 -7.16,26 l -4.96,4.9 -63.11,-63.9 c -5.08,-5.2 -13.38,-5.2 -18.52,-0.2 l -24.32,24.1 c -5.17,5 -5.22,13.3 -0.15,18.5 l 63.11,63.9 -9.44,9.3 c -6.87,6.8 -16.81,9.4 -26.11,6.8 l -77.76,-21.3 c -9.3,-2.6 -16.51,-9.9 -18.95,-19.2 l -20.36,-78.1 c -0.38,-1.5 -0.65,-3 -0.77,-4.5 -3.16,-2 -6.16,-4.5 -8.91,-7.3 l -236.84,-239.9 c -21,-21.3 -20.77,-55.5 0.5,-76.5 l 10.53,-10.4 c 21.28,-21 55.54,-20.8 76.55,0.5 l 236.83,239.9 c 2.44,2.4 4.55,5.1 6.4,7.8 2.14,0.1 4.26,0.4 6.37,1 l 77.75,21.3 c 9.3,2.6 16.52,9.9 18.95,19.2"
         style="fill:#373e4b;fill-opacity:1;fill-rule:nonzero;stroke:none"
         id="path306"
         inkscape:connector-curvature="0" /><path
         d="m 5093.54,11904 c -6.89,6.7 -6.95,17.8 -0.17,24.7 6.8,6.9 17.89,7 24.79,0.2 6.86,-6.8 6.95,-17.9 0.14,-24.8 -6.77,-6.9 -17.89,-6.9 -24.76,-0.1 z m 246.34,249.4 c -12.09,11.9 -31.57,11.8 -43.51,-0.3 l -213.77,-216.6 c -11.94,-12.1 -11.8,-31.5 0.29,-43.5 12.09,-11.9 31.57,-11.8 43.48,0.3 l 213.77,216.6 c 11.95,12 11.83,31.5 -0.26,43.5"
         style="fill:#f2574f;fill-opacity:1;fill-rule:nonzero;stroke:none"
         id="path308"
         inkscape:connector-curvature="0" /><path
         d="m 8641.6,12289.7 c 0,-333.6 -270.43,-604 -604.03,-604 -333.59,0 -604.02,270.4 -604.02,604 0,333.6 270.43,604.1 604.02,604.1 333.6,0 604.03,-270.5 604.03,-604.1"
         style="fill:#ae77c2;fill-opacity:1;fill-rule:nonzero;stroke:none"
         id="path318"
         inkscape:connector-curvature="0" /><path
         d="m 8407.38,12312.4 c 0,-203.8 -165.19,-369 -368.95,-369 -203.74,0 -368.95,165.2 -368.95,369 0,203.7 165.21,368.9 368.95,368.9 203.76,0 368.95,-165.2 368.95,-368.9"
         style="fill:#ffffff;fill-opacity:1;fill-rule:nonzero;stroke:none"
         id="path320"
         inkscape:connector-curvature="0" /><path
         d="m 8038.43,12713.7 c -27.23,0 -54.43,-2.7 -80.86,-8.1 -25.79,-5.3 -51.14,-13.2 -75.38,-23.4 -23.8,-10.1 -46.74,-22.5 -68.19,-37 -21.24,-14.4 -41.22,-30.9 -59.38,-49 -18.16,-18.2 -34.65,-38.2 -48.99,-59.4 -14.5,-21.5 -26.94,-44.4 -37,-68.2 -10.27,-24.2 -18.14,-49.6 -23.42,-75.4 -5.4,-26.4 -8.16,-53.6 -8.16,-80.8 0,-27.2 2.76,-54.5 8.16,-80.9 5.28,-25.8 13.15,-51.1 23.42,-75.4 10.06,-23.8 22.5,-46.7 37,-68.2 14.34,-21.2 30.83,-41.2 48.99,-59.3 18.16,-18.2 38.14,-34.7 59.38,-49 21.45,-14.5 44.39,-27 68.19,-37.1 24.24,-10.2 49.59,-18.1 75.38,-23.4 26.43,-5.4 53.63,-8.1 80.86,-8.1 27.2,0 54.39,2.7 80.86,8.1 25.79,5.3 51.14,13.2 75.37,23.4 23.8,10.1 46.74,22.6 68.22,37.1 21.24,14.3 41.22,30.8 59.38,49 18.16,18.1 34.62,38.1 49,59.3 14.49,21.5 26.94,44.4 37,68.2 10.27,24.3 18.13,49.6 23.41,75.4 5.4,26.4 8.16,53.7 8.16,80.9 0,27.2 -2.76,54.4 -8.16,80.8 -5.28,25.8 -13.14,51.2 -23.41,75.4 -10.06,23.8 -22.51,46.7 -37,68.2 -14.38,21.2 -30.84,41.2 -49,59.4 -18.16,18.1 -38.14,34.6 -59.38,49 -21.48,14.5 -44.42,26.9 -68.22,37 -24.23,10.2 -49.58,18.1 -75.37,23.4 -26.47,5.4 -53.66,8.1 -80.86,8.1 z m 0,-32.4 c 203.76,0 368.95,-165.2 368.95,-368.9 0,-203.8 -165.19,-369 -368.95,-369 -203.74,0 -368.95,165.2 -368.95,369 0,203.7 165.21,368.9 368.95,368.9"
         style="fill:#cb242b;fill-opacity:1;fill-rule:nonzero;stroke:none"
         id="path322"
         inkscape:connector-curvature="0" /><path
         d="m 8149.95,12125.3 -14.32,-8.3 -104.92,181.8 14.32,8.2 104.92,-181.7"
         style="fill:#1e3047;fill-opacity:1;fill-rule:nonzero;stroke:none"
         id="path324"
         inkscape:connector-curvature="0" /><path
         d="m 8038.93,12333.2 0,0 -0.04,0.1 -0.08,0 -122.58,127 c -3.41,4.2 -8.63,6.8 -14.44,6.8 -10.3,0 -18.66,-8.3 -18.66,-18.6 0,-5.4 2.35,-10.3 6.01,-13.7 l 123.06,-127.4 c 0.29,-0.3 0.61,-0.5 0.96,-0.7 3.32,-3.1 7.72,-5 12.59,-5 10.21,0 18.48,8.3 18.48,18.6 0,5 -2.02,9.6 -5.3,12.9"
         style="fill:#1e3047;fill-opacity:1;fill-rule:nonzero;stroke:none"
         id="path326"
         inkscape:connector-curvature="0" /><path
         d="m 8222.3,12350.2 0,0 -0.03,0 -0.14,-0.1 -159.32,-19.8 c -4.9,-0.2 -9.71,-2.5 -12.85,-6.8 -5.6,-7.5 -4.05,-18.1 3.46,-23.7 3.96,-3 8.77,-3.9 13.29,-3.1 l 159.9,19.9 c 0.39,0.1 0.74,0.2 1.09,0.3 4.05,0.8 7.77,2.9 10.42,6.5 5.57,7.4 4.01,18 -3.47,23.5 -3.67,2.8 -8.12,3.8 -12.35,3.3"
         style="fill:#1e3047;fill-opacity:1;fill-rule:nonzero;stroke:none"
         id="path328"
         inkscape:connector-curvature="0" /><path
         d="m 8065.59,12307.3 c 0,-11.8 -9.56,-21.3 -21.36,-21.3 -11.79,0 -21.35,9.5 -21.35,21.3 0,11.8 9.56,21.4 21.35,21.4 11.8,0 21.36,-9.6 21.36,-21.4"
         style="fill:#ffffff;fill-opacity:1;fill-rule:nonzero;stroke:none"
         id="path330"
         inkscape:connector-curvature="0" /><path
         d="m 8044.53,12573.9 0,0 c -5.19,0 -9.45,4.3 -9.45,9.5 l 0,55.8 c 0,5.2 4.26,9.5 9.45,9.5 5.19,0 9.42,-4.3 9.42,-9.5 l 0,-55.8 c 0,-5.2 -4.23,-9.5 -9.42,-9.5"
         style="fill:#1e3047;fill-opacity:1;fill-rule:nonzero;stroke:none"
         id="path332"
         inkscape:connector-curvature="0" /><path
         d="m 8229.2,12492.8 0,0 c -3.7,3.6 -3.7,9.6 -0.03,13.3 l 39.49,39.5 c 3.66,3.7 9.65,3.7 13.35,0 3.67,-3.6 3.67,-9.6 0,-13.3 l -39.49,-39.5 c -3.67,-3.7 -9.66,-3.7 -13.32,0"
         style="fill:#1e3047;fill-opacity:1;fill-rule:nonzero;stroke:none"
         id="path334"
         inkscape:connector-curvature="0" /><path
         d="m 8301.55,12307.3 0,0 c 0,5.2 4.25,9.4 9.45,9.4 l 55.83,0.1 c 5.19,0 9.45,-4.2 9.45,-9.4 0,-5.2 -4.23,-9.5 -9.42,-9.5 l -55.86,0 c -5.2,0 -9.45,4.2 -9.45,9.4"
         style="fill:#1e3047;fill-opacity:1;fill-rule:nonzero;stroke:none"
         id="path336"
         inkscape:connector-curvature="0" /><path
         d="m 8224.77,12128.5 0,0 c 3.66,3.6 9.68,3.6 13.35,0 l 39.54,-39.4 c 3.67,-3.7 3.7,-9.7 0.04,-13.4 -3.67,-3.7 -9.69,-3.7 -13.36,0 l -39.55,39.4 c -3.69,3.7 -3.69,9.7 -0.02,13.4"
         style="fill:#1e3047;fill-opacity:1;fill-rule:nonzero;stroke:none"
         id="path338"
         inkscape:connector-curvature="0" /><path
         d="m 8045.09,12050 0,0 c 5.19,0 9.45,-4.2 9.45,-9.4 l 0.11,-55.9 c 0,-5.2 -4.22,-9.4 -9.42,-9.4 -5.19,0 -9.44,4.2 -9.44,9.4 l -0.12,55.8 c -0.03,5.2 4.22,9.5 9.42,9.5"
         style="fill:#1e3047;fill-opacity:1;fill-rule:nonzero;stroke:none"
         id="path340"
         inkscape:connector-curvature="0" /><path
         d="m 7859.57,12121.1 0,0 c 3.67,-3.7 3.7,-9.7 0.03,-13.4 l -39.37,-39.6 c -3.67,-3.6 -9.69,-3.7 -13.35,0 -3.7,3.7 -3.7,9.7 -0.06,13.4 l 39.4,39.6 c 3.67,3.6 9.66,3.6 13.35,0"
         style="fill:#1e3047;fill-opacity:1;fill-rule:nonzero;stroke:none"
         id="path342"
         inkscape:connector-curvature="0" /><path
         d="m 7778.71,12306.2 0,0 c 0,-5.2 -4.23,-9.5 -9.42,-9.5 l -55.86,-0.2 c -5.16,0 -9.45,4.3 -9.45,9.5 -0.03,5.1 4.22,9.4 9.39,9.4 l 55.86,0.2 c 5.2,0 9.45,-4.2 9.48,-9.4"
         style="fill:#1e3047;fill-opacity:1;fill-rule:nonzero;stroke:none"
         id="path344"
         inkscape:connector-curvature="0" /><path
         d="m 7855.08,12495.1 0,0 c -3.64,-3.7 -9.65,-3.7 -13.35,-0.1 l -39.61,39.4 c -3.69,3.6 -3.73,9.6 -0.06,13.3 3.67,3.7 9.65,3.7 13.35,0.1 l 39.64,-39.4 c 3.67,-3.6 3.7,-9.6 0.03,-13.3"
         style="fill:#1e3047;fill-opacity:1;fill-rule:nonzero;stroke:none"
         id="path346"
         inkscape:connector-curvature="0" /><path
         d="m 10055.8,12289.7 c 0,-333.6 -270.44,-604 -604.03,-604 -333.6,0 -604.03,270.4 -604.03,604 0,333.6 270.43,604.1 604.03,604.1 333.59,0 604.03,-270.5 604.03,-604.1"
         style="fill:#c8e88f;fill-opacity:1;fill-rule:nonzero;stroke:none"
         id="path348"
         inkscape:connector-curvature="0" /><path
         d="m 9451.65,12675.3 c -205.94,0 -372.88,-166.9 -372.88,-372.9 0,-205.9 166.94,-372.8 372.88,-372.8 205.9,0 372.85,166.9 372.85,372.8 0,206 -166.95,372.9 -372.85,372.9"
         style="fill:#2e3d55;fill-opacity:1;fill-rule:nonzero;stroke:none"
         id="path350"
         inkscape:connector-curvature="0" /><path
         d="m 9451.65,12280.4 c -12.18,0 -22.07,9.9 -22.07,22 0,12.2 9.89,22.1 22.07,22.1 12.17,0 22.03,-9.9 22.03,-22.1 0,-12.1 -9.86,-22 -22.03,-22 z m 0,339.9 c -175.57,0 -317.93,-142.3 -317.93,-317.9 0,-175.5 142.36,-317.9 317.93,-317.9 175.57,0 317.9,142.4 317.9,317.9 0,175.6 -142.33,317.9 -317.9,317.9"
         style="fill:#fbce45;fill-opacity:1;fill-rule:nonzero;stroke:none"
         id="path352"
         inkscape:connector-curvature="0" /><path
         d="m 9451.65,12032.7 c -150.25,0 -272.07,121.8 -272.07,272.1 0,150.2 121.82,272 272.07,272 150.25,0 272.04,-121.8 272.04,-272 0,-150.3 -121.79,-272.1 -272.04,-272.1 z m 0,555.9 c -156.79,0 -283.87,-127.1 -283.87,-283.8 0,-156.8 127.08,-283.9 283.87,-283.9 156.76,0 283.86,127.1 283.86,283.9 0,156.7 -127.1,283.8 -283.86,283.8"
         style="fill:#32435b;fill-opacity:1;fill-rule:nonzero;stroke:none"
         id="path354"
         inkscape:connector-curvature="0" /><path
         d="m 9451.65,12202.4 c -55.25,0 -100.05,44.8 -100.05,100 0,55.3 44.8,100.1 100.05,100.1 55.24,0 100.02,-44.8 100.02,-100.1 0,-55.2 -44.78,-100 -100.02,-100 z m 111.87,82.8 62.67,14.9 -62.26,16.7 c -6.39,50.6 -46.24,90.8 -96.7,97.7 l -14.5,61.2 -16.4,-61.1 c -50.52,-6.8 -90.45,-47 -96.94,-97.6 l -62.29,-14.8 62.61,-16.8 c 7.43,-49.1 46.45,-87.9 95.71,-95 l 15.14,-63.8 17.11,63.8 c 49.29,7 88.37,45.7 95.85,94.8"
         style="fill:#32435b;fill-opacity:1;fill-rule:nonzero;stroke:none"
         id="path356"
         inkscape:connector-curvature="0" /><path
         d="m 9477.35,12270.4 -211.07,-117 159.63,181.1 12.12,-15.1 c -5.01,-4 -8.24,-10.1 -8.24,-17.1 0,-11.9 9.71,-21.7 21.71,-21.7 5.22,0 9.98,1.9 13.7,4.9 l 12.15,-15.1"
         style="fill:#f03937;fill-opacity:1;fill-rule:nonzero;stroke:none"
         id="path358"
         inkscape:connector-curvature="0" /><path
         d="m 9425.68,12334.8 211.1,117 -159.67,-181.1 -12.11,15.1 c 5.04,3.9 8.27,10.1 8.27,17 0,12 -9.74,21.7 -21.74,21.7 -5.19,0 -9.98,-1.8 -13.7,-4.8 l -12.15,15.1"
         style="fill:#fffcfc;fill-opacity:1;fill-rule:nonzero;stroke:none"
         id="path360"
         inkscape:connector-curvature="0" /><path
         d="m 9429.85,12302.6 c 0,-12.1 9.86,-22 22,-22 12.15,0 22.01,9.9 22.01,22 0,12.2 -9.86,22 -22.01,22 -12.14,0 -22,-9.8 -22,-22"
         style="fill:#304a5f;fill-opacity:1;fill-rule:nonzero;stroke:none"
         id="path362"
         inkscape:connector-curvature="0" /><path
         d="m 7227.41,10877.1 c 0,-333.6 -270.43,-604 -604.02,-604 -333.6,0 -604.02,270.4 -604.02,604 0,333.6 270.42,604 604.02,604 333.59,0 604.02,-270.4 604.02,-604"
         style="fill:#7ac02b;fill-opacity:1;fill-rule:nonzero;stroke:none"
         id="path490"
         inkscape:connector-curvature="0" /><path
         d="m 7054.89,10973.3 c -13.91,0 -127.8,0.1 -127.8,0.1 l -0.45,-413.9 -603.99,0 -0.38,413.9 c 0,0 -113.87,0 -127.81,0 -13.93,0 -17.28,5.5 -7.24,12.4 l 14.41,9.8 423.19,289.5 423.03,-289.5 14.38,-9.9 c 10.03,-6.8 6.6,-12.4 -7.34,-12.4"
         style="fill:#f9ae33;fill-opacity:1;fill-rule:nonzero;stroke:none"
         id="path492"
         inkscape:connector-curvature="0" /><path
         d="m 7054.89,10973.3 c -1.38,0 -3.81,0 -7.04,0 l -423.03,289.4 -423.19,-289.5 -7.17,0 c -13.93,0 -17.28,5.6 -7.24,12.5 l 437.6,299.4 437.41,-299.4 c 10.03,-6.8 6.6,-12.4 -7.34,-12.4"
         style="fill:#1c2b4e;fill-opacity:1;fill-rule:nonzero;stroke:none"
         id="path494"
         inkscape:connector-curvature="0" /><path
         d="m 6372.06,10818.4 152.684,0 0,120.617 -152.684,0 0,-120.617 z"
         style="fill:#1c2b4e;fill-opacity:1;fill-rule:nonzero;stroke:none"
         id="path496"
         inkscape:connector-curvature="0" /><path
         d="m 6728.54,10818.4 152.684,0 0,120.617 -152.684,0 0,-120.617 z"
         style="fill:#1c2b4e;fill-opacity:1;fill-rule:nonzero;stroke:none"
         id="path498"
         inkscape:connector-curvature="0" /><path
         d="m 6556.46,10558.9 136.516,0 0,196.078 -136.516,0 0,-196.078 z"
         style="fill:#1c2b4e;fill-opacity:1;fill-rule:nonzero;stroke:none"
         id="path500"
         inkscape:connector-curvature="0" /><path
         d="m 6736.43,11071.1 123.434,0 0,161.078 -123.434,0 0,-161.078 z"
         style="fill:#1c2b4e;fill-opacity:1;fill-rule:nonzero;stroke:none"
         id="path502"
         inkscape:connector-curvature="0" /><path
         d="m 7227.41,9464.44 c 0,-333.6 -270.43,-604.02 -604.02,-604.02 -333.6,0 -604.02,270.42 -604.02,604.02 0,333.6 270.42,604.06 604.02,604.06 333.59,0 604.02,-270.46 604.02,-604.06"
         style="fill:#f9b30d;fill-opacity:1;fill-rule:nonzero;stroke:none"
         id="path688"
         inkscape:connector-curvature="0" /><path
         d="m 6407.68,9753.85 c 0,0 -13.58,-81.36 9.77,-156.85 1.64,-5.31 3.11,-10.65 4.4,-16.08 3.2,-13.29 11.33,-42.25 28.31,-76.96 23.42,-47.85 22.77,-88.19 24.94,-104.69 2.17,-16.48 15.49,-108.17 23.45,-144.49 6.16,-28.11 17.78,-70.6 37.4,-117.33 0,0 24.5,-60.09 50.5,-87.65 15.46,-16.37 23.21,-7.8 26.93,1.86 2.58,6.66 3.26,13.87 2.17,20.88 -2.37,15.38 -8.12,51.53 -12.55,68.42 -5.23,20.16 -18.46,84.68 -18.46,84.68 0,0 -11.79,64.87 -11.44,105.45 0.23,25.55 4.31,50.96 7.28,66.28 4.78,24.58 25.37,43.16 50.34,44.89 0.39,0.03 0.8,0.06 1.18,0.06 2.02,0.11 4.02,0.29 5.98,0.61 10.01,1.59 44.75,3.46 50.38,-44.21 0,0 8.65,-27.41 11.79,-78.05 3.11,-50.64 3.11,-67.98 3.11,-67.98 0,0 3.14,-67.28 1.73,-107.18 l 0.36,-70.06 c 0,0 -2.44,-44.04 27.4,-24.97 0,0 24.5,14.47 40.64,68.77 1.67,5.73 3.55,11.42 5.6,17.02 6.95,19.02 23.24,68.25 29.72,127.51 8.34,76.32 10.27,97.62 10.27,120.18 0,22.53 7.63,106.94 16.43,120.62 12.12,18.89 26.85,66.33 37.58,103.1 0,0 21.13,67.77 24.45,104.12 0,0 2.43,57.86 -17.29,86.12 -16.46,23.56 -31.86,18.72 -37.46,23.5 -17.93,15.35 -24.97,44.48 -61.38,44.13 l -58.98,2.64 c -2.46,0.08 -4.95,0.06 -7.42,-0.18 -8.68,-0.76 -28.28,-3.43 -38.35,-12.17 -13.17,-11.45 -51.34,-13.18 -51.34,-13.18 0,0 -35.35,-5.54 -71.44,9.36 -36.06,14.91 -66.57,0 -66.57,0 l -37.47,-2.43 c 0,0 -14.2,-0.41 -25.68,-17.73 -4.19,-6.33 -6.95,-13.46 -8.3,-20.91 -1.94,-10.63 -5.6,-32.45 -7.98,-57.1"
         style="fill:#69c9f1;fill-opacity:1;fill-rule:nonzero;stroke:none"
         id="path690"
         inkscape:connector-curvature="0" /><path
         d="m 11470,8051.78 c 0,-333.6 -270.5,-604.03 -604,-604.03 -333.6,0 -604.1,270.43 -604.1,604.03 0,333.59 270.5,604.05 604.1,604.05 333.5,0 604,-270.46 604,-604.05"
         style="fill:#de343e;fill-opacity:1;fill-rule:nonzero;stroke:none"
         id="path1018"
         inkscape:connector-curvature="0" /><path
         d="m 11287.1,8131.02 0,-13.23 c 0,-108.79 -86.2,-195.99 -195,-195.99 l -70.6,0 44.3,-117.16 -168.7,117.16 -23.2,0 c -13.2,0 -26.1,1.26 -38.6,3.75 -5.9,1.15 -11.2,2.56 -16.9,4.26 -81,23.94 -138.6,98.7 -138.6,187.98 l 0,13.23 c 0,1.62 -0.5,2.73 -0.4,4.35 2.4,106.56 87.4,191.32 194.5,191.32 l 218.2,0 c 108.8,0 195,-86.87 195,-195.67"
         style="fill:#fbce43;fill-opacity:1;fill-rule:nonzero;stroke:none"
         id="path1020"
         inkscape:connector-curvature="0" /><path
         d="m 10829.4,7990.28 0,-8.69 c 0,-18.48 -4.2,-35.29 -11.1,-51.11 -19.7,-45.41 -65.1,-76.16 -118.1,-76.16 l -15.2,0 -109.4,-76.67 -1.4,-1.35 25.6,68.28 3.4,9.74 -46.3,0 c -71.5,0 -129.5,55.8 -129.5,127.27 l 0,8.69 c 0,71.47 58,128.1 129.5,128.1 l 143.3,0 c 71.4,0 129.2,-56.63 129.2,-128.1"
         style="fill:#dddade;fill-opacity:1;fill-rule:nonzero;stroke:none"
         id="path1022"
         inkscape:connector-curvature="0" /><path
         d="m 10834.7,7925.53 c -5.9,1.14 -11,2.58 -16.7,4.25 0.1,0.03 0.1,0.09 0.1,0.12 0.1,-0.03 0.2,-0.06 0.3,-0.09 5.5,-1.64 10.7,-3.02 16.4,-4.17 0,-0.03 -0.1,-0.09 -0.1,-0.11 m -154.9,205.58 c -0.1,1.56 -1,2 -0.9,4.87 l 0.5,0 c 0,-0.2 0,-0.41 0,-0.61 -0.1,-1.59 0.3,-2.7 0.4,-4.26"
         style="fill:#cb343c;fill-opacity:1;fill-rule:nonzero;stroke:none"
         id="path1024"
         inkscape:connector-curvature="0" /><path
         d="m 10834.8,7925.64 c -5.7,1.15 -10.9,2.53 -16.4,4.17 -0.1,0.03 -0.2,0.06 -0.3,0.09 0.6,1.29 1.1,2.58 1.6,3.9 6.1,14.84 9.7,30.6 9.7,47.79 l 0,8.69 c 0,71.47 -57.8,128.1 -129.2,128.1 l -20.4,0 0,12.64 c 0,0.03 0,0.06 0,0.09 -0.1,1.56 -0.5,2.67 -0.4,4.26 0,0.2 0,0.41 0,0.61 l 27.8,0 c 78.4,0 139.8,-63.14 139.8,-141.56 l 0,-9.54 c 0,-21.18 -4,-41.25 -12.2,-59.24"
         style="fill:#e4bb40;fill-opacity:1;fill-rule:nonzero;stroke:none"
         id="path1026"
         inkscape:connector-curvature="0" /><path
         d="m 10819.7,7933.8 c 5.9,14.76 9.7,30.87 9.7,47.79 0,-17.19 -3.6,-32.95 -9.7,-47.79 m 9.7,56.48 c 0,71.47 -57.8,128.1 -129.2,128.1 l -20.4,0 20.4,0 c 71.4,0 129.2,-56.63 129.2,-128.1 l 0,0"
         style="fill:#c8c4c8;fill-opacity:1;fill-rule:nonzero;stroke:none"
         id="path1028"
         inkscape:connector-curvature="0" /><path
         d="m 10561.3,7982.39 c 0,-15.7 -12.7,-28.43 -28.4,-28.43 -15.7,0 -28.5,12.73 -28.5,28.43 0,15.7 12.8,28.43 28.5,28.43 15.7,0 28.4,-12.73 28.4,-28.43"
         style="fill:#30374c;fill-opacity:1;fill-rule:nonzero;stroke:none"
         id="path1030"
         inkscape:connector-curvature="0" /><path
         d="m 10653.4,7982.39 c 0,-15.7 -12.7,-28.43 -28.4,-28.43 -15.7,0 -28.4,12.73 -28.4,28.43 0,15.7 12.7,28.43 28.4,28.43 15.7,0 28.4,-12.73 28.4,-28.43"
         style="fill:#30374c;fill-opacity:1;fill-rule:nonzero;stroke:none"
         id="path1032"
         inkscape:connector-curvature="0" /><path
         d="m 10745.6,7982.39 c 0,-15.7 -12.7,-28.43 -28.4,-28.43 -15.7,0 -28.5,12.73 -28.5,28.43 0,15.7 12.8,28.43 28.5,28.43 15.7,0 28.4,-12.73 28.4,-28.43"
         style="fill:#30374c;fill-opacity:1;fill-rule:nonzero;stroke:none"
         id="path1034"
         inkscape:connector-curvature="0" /><path
         d="m 2984.85,6639.14 c 0,-333.59 -270.43,-604.05 -604.03,-604.05 -333.59,0 -604.03,270.46 -604.03,604.05 0,333.6 270.44,604.02 604.03,604.02 333.6,0 604.03,-270.42 604.03,-604.02"
         style="fill:#cccac6;fill-opacity:1;fill-rule:nonzero;stroke:none"
         id="path1074"
         inkscape:connector-curvature="0" /><path
         d="m 2328.05,6538.57 c -1.23,0.52 -2.47,1.11 -3.69,1.7 -3.74,1.79 -7.39,3.78 -10.92,5.93 -1.76,1.05 -3.51,2.16 -5.21,3.34 -1.71,1.14 -3.39,2.35 -5.04,3.58 -0.82,0.61 -1.64,1.23 -2.45,1.88 -4.67,3.66 -9.09,7.65 -13.21,11.94 -4.12,4.28 -7.95,8.83 -11.45,13.64 -1.4,1.94 -2.75,3.9 -4.04,5.9 -3.88,6.01 -7.28,12.38 -10.13,19.04 -6.64,15.49 -10.32,32.6 -10.32,50.52 0,37.71 16.23,71.59 42.09,95.09 2.28,2.09 4.63,4.08 7.06,5.99 0.81,0.61 1.63,1.26 2.45,1.88 1.65,1.23 3.33,2.4 5.04,3.58 5.12,3.46 10.51,6.57 16.13,9.27 1.87,0.91 3.77,1.76 5.69,2.55 15.37,6.51 32.26,10.12 50,10.12 21.06,0 40.94,-5.07 58.48,-14.05 1.85,-0.97 3.67,-1.94 5.46,-2.99 2.69,-1.53 5.32,-3.17 7.89,-4.9 1.7,-1.18 3.38,-2.35 5.03,-3.58 0.82,-0.62 1.64,-1.27 2.45,-1.88 1.62,-1.29 3.21,-2.58 4.76,-3.93 2.33,-2.03 4.59,-4.14 6.77,-6.31 1.45,-1.44 2.87,-2.93 4.25,-4.46 3.46,-3.78 6.69,-7.8 9.67,-12 1.19,-1.67 2.35,-3.4 3.46,-5.13 1.12,-1.74 2.19,-3.5 3.22,-5.29 1.55,-2.7 3,-5.45 4.35,-8.27 8.12,-16.84 12.67,-35.73 12.67,-55.69 0,-11.09 -1.4,-21.83 -4.05,-32.09 -0.52,-2.06 -1.1,-4.08 -1.72,-6.11 -0.94,-3.02 -1.99,-5.98 -3.14,-8.89 -0.76,-1.93 -1.58,-3.87 -2.44,-5.78 -0.57,-1.26 -1.16,-2.49 -1.78,-3.75 -1.22,-2.47 -2.51,-4.93 -3.89,-7.31 -1.03,-1.79 -2.1,-3.55 -3.22,-5.31 -0.88,-1.38 -1.8,-2.73 -2.74,-4.08 -0.83,-1.17 -1.67,-2.37 -2.54,-3.52 -0.62,-0.82 -1.24,-1.64 -1.88,-2.46 -1.27,-1.61 -2.58,-3.2 -3.93,-4.76 -0.67,-0.79 -1.35,-1.55 -2.04,-2.32 -1.38,-1.49 -2.8,-2.99 -4.25,-4.45 -0.73,-0.71 -1.46,-1.44 -2.21,-2.14 -2.97,-2.85 -6.08,-5.55 -9.32,-8.07 -0.81,-0.65 -1.63,-1.27 -2.45,-1.88 -1.65,-1.23 -3.33,-2.44 -5.03,-3.58 -1.72,-1.18 -3.45,-2.29 -5.22,-3.34 -0.88,-0.56 -1.77,-1.06 -2.67,-1.59 -1.79,-1.03 -3.61,-2.02 -5.46,-2.96 -17.54,-8.98 -37.42,-14.06 -58.48,-14.06 -16.95,0 -33.13,3.29 -47.94,9.25 -1.36,0.55 -2.72,1.11 -4.06,1.73 z m 373.83,183.22 -51.29,0 c -6.96,32.28 -18.39,55.66 -33.51,80.01 l 0.16,0.24 36.28,36.32 c 8.06,8.07 8.06,21.16 0,29.23 l -63.08,63.07 c -8.07,8.07 -21.14,8.07 -29.21,0 l -36.66,-36.26 c -25.16,15.32 -54.14,26.26 -80.55,32.78 l 0,51.52 c 0,11.41 -8.44,21.82 -19.84,21.82 l -89.22,0 c -11.4,0 -22.97,-10.41 -22.97,-21.82 l 0,-51.29 c -29.34,-6.95 -54.33,-18.4 -78.67,-33.51 l 0.41,0.18 -35.98,36.26 c -8.05,8.07 -20.98,8.07 -29.05,0 l -63.01,-63.08 c -8.06,-8.06 -8.02,-21.12 0.04,-29.19 l 36.29,-36.21 c -15.32,-25.14 -26.22,-53.66 -32.74,-80.07 l -51.54,0 c -11.4,0 -21.54,-9.38 -21.54,-20.8 l 0,-89.19 c 0,-11.41 10.14,-19.1 21.54,-19.1 l 51.3,0 c 6.96,-32.27 18.38,-56.27 33.5,-80.6 l -0.16,-0.56 -36.28,-36.47 c -8.06,-8.07 -8.06,-21.24 0,-29.31 l 63.08,-63.11 c 8.07,-8.06 21.14,-8.1 29.2,-0.02 l 34.87,36.26 c 25.16,-15.32 49.4,-26.26 78.74,-32.77 l 0,-51.55 c 0,-11.39 12.05,-20.6 23.45,-20.6 l 89.22,0 c 11.39,0 19.36,9.21 19.36,20.6 l 0,51.28 c 26.41,6.99 56.13,18.4 80.47,33.51 l 0.49,-0.15 36.44,-36.26 c 8.06,-8.07 21.21,-8.07 29.27,0 l 63.13,63.05 c 8.06,8.07 8.08,21.15 0.01,29.22 l -36.26,36.79 c 15.32,25.18 26.25,54.28 32.78,80.69 l 51.53,0 c 11.4,0 20.87,8.16 20.87,19.57 l 0,89.22 c 0,11.39 -9.47,20.3 -20.87,20.3"
         style="fill:#f2574f;fill-opacity:1;fill-rule:nonzero;stroke:none"
         id="path1076"
         inkscape:connector-curvature="0" /><path
         d="m 2684.92,6617.37 c 0,-10.09 -9.81,-17.51 -19.89,-17.51 l -45.6,0 c -5.78,-24.65 -15.44,-49.03 -28.99,-71.3 l 32.1,-32.27 c 7.13,-7.13 7.14,-18.81 0,-25.94 l -55.81,-55.86 c -3.56,-3.58 -8.23,-5.4 -12.9,-5.4 -4.67,0 -9.34,1.79 -12.91,5.34 l -32.04,32.1 -0.04,0.14 c -21.54,-13.38 -45.78,-23.5 -70.43,-29.66 l 0,-45.39 c 0,-10.09 -8.61,-18.28 -18.7,-18.28 l -78.94,0 c -10.09,0 -18.22,8.22 -18.22,18.28 l 0,45.63 c -24.65,5.75 -48.68,15.43 -70.94,28.98 l -32.26,-32.09 c -3.56,-3.59 -8.17,-5.34 -12.84,-5.34 -4.68,0 -9.33,1.75 -12.9,5.34 l -55.8,55.83 c -7.13,7.13 -7.12,18.72 0.01,25.88 l 32.1,32.12 0.15,0.65 c -13.38,21.54 -23.49,44.13 -29.65,71.24 l -45.38,0 c -10.09,0 -16.53,7.01 -16.53,17.07 l 0,78.96 c 0,10.09 6.44,17.37 16.53,17.37 l 45.6,0 c 5.77,24.64 15.44,49.11 28.99,71.35 l -32.08,32.28 c -7.14,7.15 -7.12,18.86 0.01,25.99 l 55.85,55.89 c 3.57,3.55 8.26,5.37 12.96,5.37 4.69,0 9.38,-1.76 12.94,-5.34 l 32.23,-32.07 0.13,-0.14 c 21.54,13.37 46.23,23.5 70.88,29.63 l 0,45.39 c 0,10.09 7.71,18.16 17.8,18.16 l 78.94,0 c 10.09,0 19.12,-8.07 19.12,-18.16 l 0,-45.59 c 24.65,-5.75 48.23,-15.44 70.5,-28.99 l 31.67,32.1 c 3.57,3.57 8.24,5.33 12.91,5.33 4.68,0 9.36,-1.78 12.92,-5.33 l 55.82,-55.84 c 7.14,-7.13 7.14,-18.72 0,-25.85 l -32.1,-32.12 -0.15,-0.77 c 13.38,-21.53 23.5,-44.18 29.66,-71.29 l 45.39,0 c 10.08,0 19.89,-6.87 19.89,-16.96 l 0,-78.93 z m -19.89,135.32 -16.14,0 c -3,9.86 -6.4,16.9 -10.2,24.88 l 11.44,11.71 c 10.89,10.88 16.89,25.52 16.89,40.95 0,15.41 -6,29.99 -16.9,40.88 l -55.82,55.86 c -10.91,10.91 -25.39,16.93 -40.81,16.93 -15.41,0 -29.91,-5.99 -40.81,-16.9 l -0.09,-0.09 -0.09,-0.09 -11.02,-11.18 c -7.73,3.61 -16.23,6.87 -23.62,9.74 l 0,16.23 c 0,31.95 -26.29,57.59 -58.57,57.59 l -78.94,0 c -15.83,0 -31.27,-6.51 -41.88,-18.22 -9.73,-10.71 -15.36,-24.58 -15.36,-39.37 l 0,-16.05 c -7.4,-3.08 -16.48,-6.51 -24.59,-10.38 l -11.51,11.59 c -10.84,10.85 -25.27,16.86 -40.71,16.86 -15.44,0 -29.91,-6.01 -40.81,-16.93 l -55.83,-55.8 c -10.89,-10.88 -16.89,-25.38 -16.91,-40.78 -0.01,-15.44 5.99,-29.93 16.9,-40.84 l 11.44,-11.94 c -3.64,-7.87 -6.93,-14.79 -9.85,-24.65 l -16.2,0 c -31.52,0 -55.97,-24.88 -55.97,-56.8 l 0,-78.96 c 0,-32.13 23.92,-56.5 55.97,-56.5 l 16.11,0 c 3.02,-9.86 6.43,-16.85 10.23,-24.83 l -11.47,-11.71 c -22.48,-22.47 -22.48,-59.2 0.03,-81.71 l 55.81,-55.89 c 10.91,-10.88 25.41,-16.93 40.82,-16.93 15.39,0 29.85,5.99 40.74,16.84 l 11.48,11.62 c 7.99,-3.66 16.92,-7.01 24.32,-10 l 0,-16.2 c 0,-31.86 26.16,-57.71 57.66,-57.71 l 78.94,0 c 32.05,0 58.15,25.85 58.15,57.71 l 0,16.14 c 7.39,2.96 16.04,6.31 23.9,10.09 l 11.26,-11.3 c 10.91,-10.91 25.4,-16.92 40.81,-16.92 15.42,0 29.91,6.01 40.81,16.92 l 55.79,55.81 c 10.91,10.89 16.91,25.41 16.9,40.81 -0.01,15.44 -6.01,29.9 -16.91,40.81 l -11.46,11.86 c 3.65,7.86 6.94,14.73 9.87,24.59 l 16.2,0 c 32.29,0 59.33,25.08 59.33,56.94 l 0,78.93 c 0,31.72 -27.04,56.39 -59.33,56.39"
         style="fill:#2e3749;fill-opacity:1;fill-rule:nonzero;stroke:none"
         id="path1078"
         inkscape:connector-curvature="0" /><path
         d="m 5813.22,5226.48 c 0,-333.59 -270.42,-604.02 -604.02,-604.02 -333.59,0 -604.02,270.43 -604.02,604.02 0,333.6 270.43,604.06 604.02,604.06 333.6,0 604.02,-270.46 604.02,-604.06"
         style="fill:#4fabe4;fill-opacity:1;fill-rule:nonzero;stroke:none"
         id="path1388"
         inkscape:connector-curvature="0" /><path
         d="m 5537.81,5228.92 c 0,-170.82 -138.49,-309.31 -309.31,-309.31 -170.84,0 -309.32,138.49 -309.32,309.31 0,170.84 138.48,309.33 309.32,309.33 170.82,0 309.31,-138.49 309.31,-309.33"
         style="fill:#a4e1f8;fill-opacity:1;fill-rule:nonzero;stroke:none"
         id="path1390"
         inkscape:connector-curvature="0" /><path
         d="m 5430.54,5009.16 c -23.06,-21.3 -49.41,-39.08 -78.22,-52.43 -4.31,-2.03 -8.71,-3.93 -13.14,-5.72 -35.21,-14.38 -73.73,-22.27 -114.14,-22.27 -38.2,0 -74.75,7.1 -108.44,20.01 -4.46,1.73 -8.89,3.55 -13.26,5.46 -28.66,12.61 -55.01,29.51 -78.19,49.93 -63.05,55.49 -102.81,136.75 -102.81,227.3 0,167.18 135.52,302.73 302.7,302.73 167.18,0 302.73,-135.55 302.73,-302.73 0,-87.87 -37.43,-167 -97.23,-222.28 z m 238.3,293.4 c -0.38,14.82 -16.25,22.33 -31.07,21.98 l -66.66,-1.74 c -10.12,41.79 -25.79,73.56 -46.24,104.66 l 0.18,1.26 45.91,48.85 c 10.21,10.74 9.77,27.99 -1,38.2 l -84.05,80.02 c -10.77,10.17 -27.76,9.82 -37.97,-0.95 l -45.13,-48.29 c -33.21,19.07 -62.22,32.57 -104.45,39.96 l 0,0.29 -1.7,66.66 c -0.38,14.82 -14.26,25.12 -29.07,24.74 l -115.93,-2.96 c -14.81,-0.38 -20.07,-11.15 -19.68,-25.97 l 1.7,-66.66 c -41.75,-10.12 -74.73,-25.85 -105.86,-46.3 l -1.85,0.18 -49.14,45.92 c -10.74,10.2 -28.14,9.73 -38.35,-1 l -80.1,-84.09 c -10.21,-10.74 -9.86,-27.73 0.88,-37.94 l 48.33,-47.7 c -19.05,-33.19 -32.52,-63 -39.91,-107.01 l -0.29,0 -66.66,-1.67 c -14.82,-0.38 -22.83,-9.12 -22.44,-23.94 l 2.96,-115.92 c 0.38,-14.82 8.89,-25.15 23.7,-24.76 l 66.66,1.69 c 10.12,-41.78 25.77,-72.23 46.21,-103.33 l -0.2,-0.59 -45.92,-48.52 c -10.21,-10.77 -9.77,-27.85 0.97,-38.06 l 84.09,-79.89 c 10.74,-10.21 27.72,-9.83 37.94,0.94 l 30.45,30.13 18.4,18.25 c 19.45,-11.15 38.7,-20.34 59.79,-27.52 4.25,-1.44 8.86,-2.82 13.26,-4.11 l 0.18,-0.09 c 11.06,-3.23 23.59,-5.9 35.33,-8.1 l 0,-0.29 0.64,-32.89 0.79,-33.8 c 0.41,-14.79 6.81,-27.9 21.66,-27.52 l 115.89,2.96 c 14.82,0.38 27.43,13.97 27.05,28.82 l -0.76,29.54 -0.97,37.09 c 8.01,1.93 15.58,4.11 22.77,6.42 4.52,1.5 8.89,3.03 13.14,4.64 24.32,9.3 44.83,21.06 66.25,35.15 l -0.03,-0.24 12,-11.38 36.24,-34.54 c 10.74,-10.21 27.67,-9.76 37.87,0.97 l 79.84,84.06 c 10.21,10.77 9.77,27.76 -1,37.97 l -48.35,46.24 c 19.07,33.21 32.27,70.39 39.9,105.59 l 0.29,0 66.67,1.79 c 14.81,0.38 30.21,12 29.8,26.82 l -2.96,115.98"
         style="fill:#f1fbfe;fill-opacity:1;fill-rule:nonzero;stroke:none"
         id="path1392"
         inkscape:connector-curvature="0" /><path
         d="m 5319.58,5375.76 c 0,-50.64 -41.05,-91.69 -91.69,-91.69 -50.64,0 -91.69,41.05 -91.69,91.69 0,50.64 41.05,91.69 91.69,91.69 50.64,0 91.69,-41.05 91.69,-91.69"
         style="fill:#2e3d55;fill-opacity:1;fill-rule:nonzero;stroke:none"
         id="path1394"
         inkscape:connector-curvature="0" /><path
         d="m 5430.84,5169.95 c -17.61,104.35 -111.5,100.89 -111.5,100.89 l 0,-1.38 -181.91,0 0,1.38 c 0,0 -93.88,3.46 -111.49,-100.89 l 0,-165.81 c 23.47,-20.42 49.88,-37.32 76.29,-49.93 l 0,180.29 14.66,0 0,-185.75 c 32.28,-12.91 70.45,-20.01 108.65,-20.01 40.41,0 79.13,7.89 114.34,22.27 l 0,183.49 11.74,0 0,-177.77 c 29.34,13.35 55.74,31.13 79.22,52.43 l 0,160.79"
         style="fill:#2e3d55;fill-opacity:1;fill-rule:nonzero;stroke:none"
         id="path1396"
         inkscape:connector-curvature="0" /><path
         d="m 5239.74,5190.25 -24.91,0 -13.9,-186.9 26.37,-26.05 26.35,26.02 -13.91,186.93"
         style="fill:#cb242b;fill-opacity:1;fill-rule:nonzero;stroke:none"
         id="path1398"
         inkscape:connector-curvature="0" /><path
         d="m 5227.3,5245.14 -21.62,-16.31 8.42,-26.85 26.38,0 8.42,26.85 -21.6,16.31"
         style="fill:#cb242b;fill-opacity:1;fill-rule:nonzero;stroke:none"
         id="path1400"
         inkscape:connector-curvature="0" /><path
         d="m 2984.85,2401.19 c 0,-333.6 -270.43,-604.03 -604.03,-604.03 -333.59,0 -604.03,270.43 -604.03,604.03 0,333.59 270.44,604.02 604.03,604.02 333.6,0 604.03,-270.43 604.03,-604.02"
         style="fill:#f46b17;fill-opacity:1;fill-rule:nonzero;stroke:none"
         id="path1756"
         inkscape:connector-curvature="0" /><path
         d="m 2006.05,2614.4 354.16,-298.97 c 10.93,-9.22 27.83,-9.25 38.78,-0.04 l 354.26,297.87 -747.2,1.14"
         style="fill:#ffffff;fill-opacity:1;fill-rule:nonzero;stroke:none"
         id="path1758"
         inkscape:connector-curvature="0" /><path
         d="m 2260.24,2399.84 -254.05,-248.8 0,463.36 254.05,-214.56"
         style="fill:#e7e6e5;fill-opacity:1;fill-rule:nonzero;stroke:none"
         id="path1760"
         inkscape:connector-curvature="0" /><path
         d="m 2500.67,2400.89 252.44,-253.14 -746.92,3.29 254.05,248.8 119.42,-91.34 121.01,92.39"
         style="fill:#f3f3f3;fill-opacity:1;fill-rule:nonzero;stroke:none"
         id="path1762"
         inkscape:connector-curvature="0" /><path
         d="m 2753.25,2613.26 -0.14,-465.51 -252.44,253.14 252.58,212.37"
         style="fill:#e7e6e5;fill-opacity:1;fill-rule:nonzero;stroke:none"
         id="path1764"
         inkscape:connector-curvature="0" /><path
         d="m 4399.04,2401.19 c 0,-333.6 -270.43,-604.03 -604.03,-604.03 -333.6,0 -604.02,270.43 -604.02,604.03 0,333.59 270.42,604.02 604.02,604.02 333.6,0 604.03,-270.43 604.03,-604.02"
         style="fill:#aae3f3;fill-opacity:1;fill-rule:nonzero;stroke:none"
         id="path1766"
         inkscape:connector-curvature="0" /><path
         d="m 4177.72,2411.87 c 0,-211.37 -171.34,-382.71 -382.71,-382.71 -211.36,0 -382.71,171.34 -382.71,382.71 0,211.36 171.35,382.71 382.71,382.71 211.37,0 382.71,-171.35 382.71,-382.71"
         style="fill:#f9ad33;fill-opacity:1;fill-rule:nonzero;stroke:none"
         id="path1768"
         inkscape:connector-curvature="0" /><path
         d="m 4138.99,2411.87 -512.42,-295.84 0,591.67 512.42,-295.83"
         style="fill:#30374c;fill-opacity:1;fill-rule:nonzero;stroke:none"
         id="path1770"
         inkscape:connector-curvature="0" /></g></g></svg>