<?xml version="1.0" encoding="UTF-8" standalone="no"?>
<!-- Created with Inkscape (http://www.inkscape.org/) -->

<svg
   xmlns:dc="http://purl.org/dc/elements/1.1/"
   xmlns:cc="http://creativecommons.org/ns#"
   xmlns:rdf="http://www.w3.org/1999/02/22-rdf-syntax-ns#"
   xmlns:svg="http://www.w3.org/2000/svg"
   xmlns="http://www.w3.org/2000/svg"
   xmlns:sodipodi="http://sodipodi.sourceforge.net/DTD/sodipodi-0.dtd"
   xmlns:inkscape="http://www.inkscape.org/namespaces/inkscape"
   id="svg2"
   version="1.1"
   inkscape:version="0.91 r13725"
   xml:space="preserve"
   width="1000"
   height="1000"
   viewBox="0 0 1000 1000"
   sodipodi:docname="573292.svg"><metadata
     id="metadata8"><rdf:RDF><cc:Work
         rdf:about=""><dc:format>image/svg+xml</dc:format><dc:type
           rdf:resource="http://purl.org/dc/dcmitype/StillImage" /><dc:title></dc:title></cc:Work></rdf:RDF></metadata><defs
     id="defs6" /><sodipodi:namedview
     pagecolor="#ffffff"
     bordercolor="#666666"
     borderopacity="1"
     objecttolerance="10"
     gridtolerance="10"
     guidetolerance="10"
     inkscape:pageopacity="0"
     inkscape:pageshadow="2"
     inkscape:window-width="1680"
     inkscape:window-height="1026"
     id="namedview4"
     showgrid="false"
     inkscape:zoom="0.6675088"
     inkscape:cx="549.38459"
     inkscape:cy="428.27312"
     inkscape:window-x="1600"
     inkscape:window-y="24"
     inkscape:window-maximized="1"
     inkscape:current-layer="g12" /><g
     id="g10"
     inkscape:groupmode="layer"
     inkscape:label="ink_ext_XXXXXX"
     transform="matrix(1.25,0,0,-1.25,0,1000)"><g
       id="g12"
       transform="scale(0.1,0.1)"><path
         d="m 0,0 8000,0 0,8000 L 0,8000 0,0 Z"
         style="fill:#edecec;fill-opacity:1;fill-rule:nonzero;stroke:none"
         id="path14"
         inkscape:connector-curvature="0" /><path
         d="m 3986.17,207.082 4.99,0 0,6.277 c 0,6.582 0.82,11.762 2.48,15.641 1.64,3.871 4.49,6.672 8.44,8.43 3.96,1.75 9.39,2.629 16.29,2.629 12.25,0 18.33,-2.969 18.33,-8.989 0,-1.922 -0.65,-3.578 -1.92,-4.961 -1.27,-1.367 -2.79,-2.07 -4.52,-2.07 -0.8,0 -2.24,0.141 -4.24,0.481 -1.94,0.269 -3.67,0.46 -5.05,0.46 -3.77,0 -6.19,-1.14 -7.29,-3.351 -1.04,-2.219 -1.58,-5.399 -1.58,-9.559 l 0,-4.988 5.1,0 c 8,0 11.97,-2.402 11.97,-7.23 0,-3.391 -1.04,-5.571 -3.18,-6.5 -2.11,-0.911 -5.04,-1.372 -8.79,-1.372 l -5.1,0 0,-55.46 c 0,-4.122 -0.98,-7.278 -2.98,-9.438 -1.95,-2.191 -4.49,-3.281 -7.62,-3.281 -2.96,0 -5.42,1.09 -7.4,3.281 -1.97,2.16 -2.94,5.316 -2.94,9.438 l 0,55.46 -5.76,0 c -3.13,0 -5.52,0.672 -7.22,2.11 -1.68,1.379 -2.53,3.219 -2.53,5.469 0,5.031 3.51,7.523 10.52,7.523"
         style="fill:#100f0d;fill-opacity:1;fill-rule:nonzero;stroke:none"
         id="path16"
         inkscape:connector-curvature="0" /><path
         d="m 4054.68,154.02 0,-17.5 c 0,-4.231 -1.05,-7.418 -3.03,-9.52 -1.97,-2.148 -4.5,-3.199 -7.56,-3.199 -3.05,0 -5.55,1.07 -7.45,3.25 -1.94,2.121 -2.93,5.289 -2.93,9.469 l 0,58.3 c 0,9.41 3.39,14.11 10.18,14.11 3.51,0 6,-1.09 7.55,-3.289 1.53,-2.219 2.38,-5.442 2.54,-9.77 2.48,4.328 5.05,7.551 7.67,9.77 2.66,2.199 6.15,3.289 10.55,3.289 4.43,0 8.68,-1.09 12.82,-3.289 4.13,-2.219 6.22,-5.129 6.22,-8.75 0,-2.551 -0.9,-4.692 -2.66,-6.321 -1.77,-1.691 -3.64,-2.507 -5.69,-2.507 -0.8,0 -2.66,0.488 -5.57,1.449 -2.96,0.91 -5.56,1.379 -7.8,1.379 -3.06,0 -5.56,-0.821 -7.5,-2.391 -1.94,-1.648 -3.47,-4.012 -4.54,-7.16 -1.06,-3.18 -1.8,-6.981 -2.2,-11.34 -0.42,-4.371 -0.6,-9.699 -0.6,-15.98"
         style="fill:#100f0d;fill-opacity:1;fill-rule:nonzero;stroke:none"
         id="path18"
         inkscape:connector-curvature="0" /><path
         d="m 4109.95,173.121 37.96,0 c -0.51,7.141 -2.43,12.5 -5.78,16.039 -3.35,3.57 -7.75,5.328 -13.24,5.328 -5.2,0 -9.51,-1.777 -12.84,-5.398 -3.34,-3.61 -5.39,-8.918 -6.1,-15.969 z m 40.95,-11.902 -40.95,0 c 0.06,-4.739 1,-8.957 2.88,-12.578 1.87,-3.61 4.34,-6.34 7.43,-8.211 3.12,-1.821 6.52,-2.739 10.24,-2.739 2.53,0 4.79,0.27 6.86,0.899 2.07,0.57 4.09,1.492 6.03,2.742 1.94,1.238 3.72,2.578 5.36,4.027 1.63,1.43 3.76,3.371 6.38,5.832 1.08,0.899 2.59,1.379 4.6,1.379 2.14,0 3.87,-0.582 5.21,-1.769 1.34,-1.199 1.99,-2.84 1.99,-4.981 0,-1.91 -0.73,-4.109 -2.19,-6.629 -1.5,-2.562 -3.73,-4.972 -6.74,-7.312 -3,-2.297 -6.75,-4.27 -11.28,-5.758 -4.52,-1.539 -9.72,-2.32 -15.6,-2.32 -13.45,0 -23.89,3.808 -31.34,11.488 -7.48,7.691 -11.23,18.09 -11.23,31.223 0,6.187 0.93,11.937 2.78,17.23 1.83,5.309 4.53,9.809 8.06,13.617 3.53,3.789 7.86,6.692 13.02,8.7 5.16,2.011 10.87,3.023 17.17,3.023 8.19,0 15.21,-1.723 21.05,-5.203 5.85,-3.43 10.27,-7.887 13.16,-13.367 2.91,-5.492 4.37,-11.043 4.37,-16.742 0,-5.231 -1.52,-8.641 -4.54,-10.211 -2.99,-1.547 -7.25,-2.34 -12.72,-2.34"
         style="fill:#100f0d;fill-opacity:1;fill-rule:nonzero;stroke:none"
         id="path20"
         inkscape:connector-curvature="0" /><path
         d="m 4197.02,173.121 37.96,0 c -0.52,7.141 -2.47,12.5 -5.79,16.039 -3.37,3.57 -7.76,5.328 -13.25,5.328 -5.21,0 -9.48,-1.777 -12.83,-5.398 -3.36,-3.61 -5.4,-8.918 -6.09,-15.969 z m 40.95,-11.902 -40.95,0 c 0.04,-4.739 1.01,-8.957 2.87,-12.578 1.86,-3.61 4.35,-6.34 7.42,-8.211 3.1,-1.821 6.52,-2.739 10.26,-2.739 2.49,0 4.79,0.27 6.82,0.899 2.11,0.57 4.09,1.492 6.07,2.742 1.94,1.238 3.71,2.578 5.36,4.027 1.61,1.43 3.74,3.371 6.36,5.832 1.07,0.899 2.61,1.379 4.59,1.379 2.17,0 3.9,-0.582 5.24,-1.769 1.32,-1.199 1.95,-2.84 1.95,-4.981 0,-1.91 -0.71,-4.109 -2.22,-6.629 -1.44,-2.562 -3.67,-4.972 -6.71,-7.312 -2.96,-2.297 -6.76,-4.27 -11.26,-5.758 -4.5,-1.539 -9.73,-2.32 -15.62,-2.32 -13.42,0 -23.87,3.808 -31.34,11.488 -7.47,7.691 -11.21,18.09 -11.21,31.223 0,6.187 0.93,11.937 2.78,17.23 1.85,5.309 4.52,9.809 8.04,13.617 3.53,3.789 7.88,6.692 13.03,8.7 5.17,2.011 10.9,3.023 17.18,3.023 8.16,0 15.19,-1.723 21.09,-5.203 5.82,-3.43 10.22,-7.887 13.12,-13.367 2.89,-5.492 4.37,-11.043 4.37,-16.742 0,-5.231 -1.52,-8.641 -4.52,-10.211 -3.02,-1.547 -7.27,-2.34 -12.72,-2.34"
         style="fill:#100f0d;fill-opacity:1;fill-rule:nonzero;stroke:none"
         id="path22"
         inkscape:connector-curvature="0" /><path
         d="m 4324.84,166.742 c 0,5.539 -0.84,10.278 -2.52,14.227 -1.69,3.98 -4.03,6.992 -7,9.101 -2.98,2.129 -6.32,3.211 -9.96,3.211 -5.74,0 -10.63,-2.289 -14.59,-6.812 -3.97,-4.578 -5.95,-11.258 -5.95,-20.11 0,-8.308 1.96,-14.808 5.91,-19.437 3.94,-4.621 8.79,-6.922 14.63,-6.922 3.49,0 6.73,1 9.67,3 2.99,2.031 5.37,5.051 7.15,9.09 1.78,4.058 2.66,8.941 2.66,14.652 z m -41.03,30.418 0,-2.508 c 3.92,4.86 8.05,8.418 12.3,10.7 4.2,2.277 9.04,3.429 14.4,3.429 6.42,0 12.38,-1.679 17.8,-5 5.42,-3.332 9.69,-8.179 12.83,-14.57 3.16,-6.402 4.75,-13.949 4.75,-22.699 0,-6.43 -0.92,-12.364 -2.74,-17.762 -1.8,-5.41 -4.31,-9.91 -7.47,-13.57 -3.18,-3.621 -6.93,-6.461 -11.24,-8.45 -4.35,-1.929 -8.97,-2.929 -13.93,-2.929 -5.97,0 -11.01,1.211 -15.07,3.621 -4.06,2.359 -7.93,5.918 -11.63,10.539 l 0,-31.422 c 0,-9.1679 -3.36,-13.8007 -10.03,-13.8007 -3.96,0 -6.53,1.1836 -7.84,3.543 -1.24,2.4296 -1.9,5.8397 -1.9,10.4177 l 0,90.352 c 0,3.988 0.86,6.937 2.58,8.941 1.76,1.93 4.16,2.938 7.16,2.938 2.97,0 5.38,-1.008 7.24,-3.02 1.88,-2.031 2.79,-4.918 2.79,-8.75"
         style="fill:#100f0d;fill-opacity:1;fill-rule:nonzero;stroke:none"
         id="path24"
         inkscape:connector-curvature="0" /><path
         d="m 4377.32,197.051 0,-60.531 c 0,-4.18 -1,-7.348 -2.99,-9.469 -2.01,-2.18 -4.53,-3.25 -7.61,-3.25 -3.07,0 -5.53,1.09 -7.46,3.281 -1.92,2.238 -2.9,5.379 -2.9,9.438 l 0,59.929 c 0,4.133 0.98,7.25 2.9,9.321 1.93,2.14 4.39,3.16 7.46,3.16 3.08,0 5.6,-1.02 7.61,-3.16 1.99,-2.071 2.99,-5.02 2.99,-8.719 z m -10.36,21.629 c -2.93,0 -5.4,0.91 -7.47,2.679 -2.07,1.821 -3.13,4.313 -3.13,7.571 0,2.968 1.08,5.422 3.2,7.34 2.13,1.91 4.58,2.878 7.4,2.878 2.73,0 5.11,-0.859 7.22,-2.578 2.08,-1.761 3.14,-4.308 3.14,-7.64 0,-3.219 -1.02,-5.731 -3.07,-7.551 -2.05,-1.789 -4.46,-2.699 -7.29,-2.699"
         style="fill:#100f0d;fill-opacity:1;fill-rule:nonzero;stroke:none"
         id="path26"
         inkscape:connector-curvature="0" /><path
         d="m 4444.8,133.359 -18.45,30.403 -11.36,-10.731 0,-16.66 c 0,-4.031 -1.08,-7.129 -3.2,-9.289 -2.09,-2.191 -4.56,-3.281 -7.33,-3.281 -3.22,0 -5.75,1.07 -7.58,3.25 -1.85,2.121 -2.78,5.289 -2.78,9.469 l 0,89.3 c 0,4.61 0.91,8.16 2.69,10.602 1.79,2.449 4.37,3.637 7.67,3.637 3.25,0 5.77,-1.098 7.66,-3.309 1.92,-2.18 2.87,-5.441 2.87,-9.699 l 0,-50.801 23.53,24.719 c 2.93,3.043 5.12,5.16 6.69,6.281 1.51,1.109 3.38,1.68 5.56,1.68 2.64,0 4.8,-0.84 6.57,-2.489 1.7,-1.66 2.58,-3.75 2.58,-6.242 0,-3.058 -2.83,-7.179 -8.51,-12.277 l -11.12,-10.192 21.49,-33.761 c 1.55,-2.528 2.7,-4.387 3.4,-5.688 0.7,-1.301 1.04,-2.59 1.04,-3.742 0,-3.328 -0.91,-5.93 -2.72,-7.867 -1.82,-1.91 -4.23,-2.871 -7.16,-2.871 -2.57,0 -4.54,0.668 -5.94,2.07 -1.37,1.399 -3.25,3.91 -5.6,7.488"
         style="fill:#100f0d;fill-opacity:1;fill-rule:nonzero;stroke:none"
         id="path28"
         inkscape:connector-curvature="0" /><path
         d="m 4490.28,123.801 c -3.16,0 -5.9,1.039 -8.2,3.09 -2.28,2.011 -3.46,4.879 -3.46,8.578 0,3.121 1.14,5.801 3.31,8.043 2.22,2.258 4.93,3.367 8.15,3.367 3.2,0 5.94,-1.109 8.24,-3.309 2.26,-2.238 3.43,-4.949 3.43,-8.101 0,-3.637 -1.17,-6.52 -3.43,-8.547 -2.3,-2.082 -4.98,-3.121 -8.04,-3.121"
         style="fill:#100f0d;fill-opacity:1;fill-rule:nonzero;stroke:none"
         id="path30"
         inkscape:connector-curvature="0" /><path
         d="m 4594.38,149.719 c 0,-2.59 -0.79,-5.387 -2.35,-8.348 -1.55,-2.969 -3.93,-5.789 -7.14,-8.48 -3.18,-2.672 -7.19,-4.852 -12.08,-6.481 -4.85,-1.629 -10.33,-2.469 -16.38,-2.469 -12.95,0 -23.06,3.789 -30.34,11.309 -7.22,7.551 -10.85,17.672 -10.85,30.34 0,8.621 1.64,16.191 4.98,22.801 3.3,6.578 8.11,11.679 14.41,15.289 6.28,3.609 13.83,5.402 22.52,5.402 5.44,0 10.42,-0.781 14.96,-2.383 4.53,-1.578 8.34,-3.636 11.5,-6.117 3.12,-2.543 5.53,-5.191 7.18,-8.023 1.68,-2.84 2.51,-5.477 2.51,-7.957 0,-2.5 -0.94,-4.61 -2.8,-6.332 -1.87,-1.758 -4.14,-2.641 -6.78,-2.641 -1.76,0 -3.2,0.461 -4.34,1.34 -1.17,0.91 -2.45,2.344 -3.86,4.371 -2.56,3.859 -5.24,6.789 -8.04,8.711 -2.78,1.969 -6.32,2.929 -10.62,2.929 -6.16,0 -11.15,-2.41 -14.95,-7.242 -3.78,-4.816 -5.67,-11.468 -5.67,-19.816 0,-3.934 0.5,-7.582 1.47,-10.883 0.95,-3.269 2.34,-6.09 4.2,-8.41 1.86,-2.328 4.06,-4.09 6.65,-5.297 2.64,-1.23 5.5,-1.812 8.59,-1.812 4.24,0 7.8,0.972 10.79,2.91 3.04,1.941 5.67,4.91 7.96,8.902 1.29,2.348 2.65,4.168 4.12,5.508 1.48,1.32 3.32,2.012 5.46,2.012 2.57,0 4.69,-0.981 6.36,-2.93 1.7,-1.922 2.54,-4.024 2.54,-6.203"
         style="fill:#100f0d;fill-opacity:1;fill-rule:nonzero;stroke:none"
         id="path32"
         inkscape:connector-curvature="0" /><path
         d="m 4663.7,166.359 c 0,8.539 -1.88,15.161 -5.63,19.942 -3.74,4.777 -8.79,7.14 -15.15,7.14 -4.1,0 -7.69,-1.062 -10.82,-3.179 -3.12,-2.114 -5.5,-5.242 -7.2,-9.403 -1.68,-4.14 -2.55,-8.968 -2.55,-14.5 0,-5.488 0.83,-10.23 2.49,-14.308 1.69,-4.129 4.06,-7.262 7.17,-9.422 3.11,-2.16 6.74,-3.258 10.91,-3.258 6.36,0 11.41,2.399 15.15,7.18 3.75,4.781 5.63,11.39 5.63,19.808 z m 21.03,0 c 0,-6.23 -1,-11.988 -2.9,-17.257 -1.98,-5.282 -4.78,-9.801 -8.48,-13.563 -3.64,-3.789 -8.08,-6.68 -13.16,-8.707 -5.15,-1.992 -10.88,-3.031 -17.27,-3.031 -6.34,0 -12.03,1.039 -17.1,3.09 -5.04,2.011 -9.47,4.961 -13.13,8.73 -3.72,3.848 -6.54,8.348 -8.48,13.539 -1.87,5.192 -2.85,10.922 -2.85,17.199 0,6.34 1,12.141 2.91,17.411 1.94,5.281 4.73,9.781 8.39,13.5 3.62,3.742 8.01,6.609 13.16,8.64 5.18,2.012 10.88,3.02 17.1,3.02 6.36,0 12.1,-1.008 17.27,-3.078 5.14,-2.032 9.56,-4.961 13.26,-8.711 3.69,-3.809 6.49,-8.309 8.4,-13.493 1.9,-5.257 2.88,-10.988 2.88,-17.289"
         style="fill:#100f0d;fill-opacity:1;fill-rule:nonzero;stroke:none"
         id="path34"
         inkscape:connector-curvature="0" /><path
         d="m 4764.56,164.809 0,-27.821 c 0,-4.406 -0.98,-7.668 -3.01,-9.906 -1.99,-2.191 -4.61,-3.281 -7.89,-3.281 -3.15,0 -5.75,1.09 -7.67,3.281 -1.98,2.238 -3,5.5 -3,9.906 l 0,33.352 c 0,5.269 -0.17,9.371 -0.5,12.301 -0.38,2.871 -1.36,5.289 -2.93,7.14 -1.57,1.891 -4.1,2.821 -7.52,2.821 -6.85,0 -11.34,-2.34 -13.53,-7.09 -2.16,-4.672 -3.27,-11.422 -3.27,-20.242 l 0,-28.282 c 0,-4.336 -0.98,-7.629 -2.95,-9.867 -1.97,-2.211 -4.57,-3.32 -7.78,-3.32 -3.18,0 -5.76,1.109 -7.79,3.32 -2.01,2.238 -3.05,5.531 -3.05,9.867 l 0,59.903 c 0,3.941 0.92,6.929 2.74,8.961 1.82,2.07 4.22,3.078 7.17,3.078 2.88,0 5.26,-0.989 7.18,-2.871 1.93,-1.918 2.87,-4.559 2.87,-7.95 l 0,-1.968 c 3.66,4.308 7.53,7.519 11.67,9.539 4.15,2.082 8.73,3.101 13.8,3.101 5.26,0 9.81,-1.051 13.58,-3.14 3.78,-2.11 6.88,-5.27 9.35,-9.5 3.54,4.269 7.33,7.449 11.35,9.539 4.07,2.07 8.51,3.101 13.43,3.101 5.73,0 10.67,-1.152 14.81,-3.371 4.13,-2.262 7.21,-5.5 9.24,-9.66 1.82,-3.809 2.69,-9.758 2.69,-17.879 l 0,-40.883 c 0,-4.406 -1,-7.668 -2.96,-9.906 -2,-2.191 -4.63,-3.281 -7.91,-3.281 -3.17,0 -5.77,1.109 -7.78,3.32 -2.04,2.238 -3.02,5.531 -3.02,9.867 l 0,35.211 c 0,4.5 -0.2,8.102 -0.59,10.801 -0.36,2.719 -1.43,5 -3.1,6.84 -1.7,1.832 -4.26,2.762 -7.68,2.762 -2.76,0 -5.37,-0.84 -7.86,-2.473 -2.47,-1.609 -4.4,-3.828 -5.8,-6.57 -1.51,-3.52 -2.29,-9.789 -2.29,-18.75"
         style="fill:#100f0d;fill-opacity:1;fill-rule:nonzero;stroke:none"
         id="path36"
         inkscape:connector-curvature="0" /><path
         d="m 3841.2,116.48 c 0,0 -11.44,1.821 -22.58,14.012 -11.23,12.309 -13.11,25.328 -13.11,25.328 0,0 14.24,-3.351 24.47,-4.488 18.03,-2.043 34.26,-0.902 41.91,-0.082 16.58,1.84 25.4,4.898 28.97,5.781 21.17,5.059 41.53,18.789 41.53,18.789 0,0 2.56,-15.922 -9.4,-33.558 -4.66,-6.891 -13.95,-14.801 -24.65,-20.262 -36.64,-15.621 -67.14,-5.52 -67.14,-5.52"
         style="fill:#100f0d;fill-opacity:1;fill-rule:evenodd;stroke:none"
         id="path38"
         inkscape:connector-curvature="0" /><path
         d="m 3907.05,188.148 c -7.6,-0.457 -14.14,5.254 -14.61,12.821 -0.47,7.523 5.32,14.043 12.9,14.531 7.58,0.5 14.15,-5.27 14.61,-12.789 0.48,-7.551 -5.32,-14.082 -12.9,-14.563 z m -61.63,-15.488 c -12.07,-0.789 -22.45,8.309 -23.2,20.32 -0.75,11.981 8.43,22.372 20.5,23.098 12.07,0.82 22.47,-8.316 23.19,-20.289 0.77,-12.019 -8.42,-22.379 -20.49,-23.129 z m 82.33,34.211 c -3.95,4.758 -17.05,27.25 -43.59,30.481 -6.8,0.828 -42.68,-0.571 -64.2,-20.512 -2.14,-1.988 -13.07,-11.602 -16.7,-29.469 -2.82,-13.812 1.81,-29.379 1.81,-29.379 0,0 23.88,-4.961 41.86,-4.5 28.53,0.707 42.88,3.238 57.79,7.75 21.97,6.668 37.52,17.797 37.52,17.797 0,0 -10.53,23.031 -14.49,27.832"
         style="fill:#100f0d;fill-opacity:1;fill-rule:evenodd;stroke:none"
         id="path40"
         inkscape:connector-curvature="0" /><path
         d="m 3917.42,222.41 6.93,8.32 c 0,0 9.59,-4.71 15.74,-13.578 6.13,-8.832 10.12,-16.933 10.12,-16.933 l -11.44,-6.957 c 0,0 -3.56,8.527 -8.87,15.379 -5.3,6.828 -12.48,13.769 -12.48,13.769"
         style="fill:#100f0d;fill-opacity:1;fill-rule:evenodd;stroke:none"
         id="path42"
         inkscape:connector-curvature="0" /><path
         d="m 3939.19,216.629 c 1.79,1.082 4.81,1.242 4.63,3.793 -0.13,2.5 -1.84,7.5 3.15,9.199 5.03,1.688 2.2,-1.48 0.47,-3.68 -1.72,-2.191 -1.16,-3.543 -0.96,-6.781 0.2,-3.199 -2.06,-4.269 -5.46,-5.84 -3.38,-1.64 -3.62,2.243 -1.83,3.309"
         style="fill:#100f0d;fill-opacity:1;fill-rule:evenodd;stroke:none"
         id="path44"
         inkscape:connector-curvature="0" /><path
         d="m 3812.02,211.52 c 0,0 -8.03,-9.329 -10.06,-17.75 -2.03,-8.45 -1.62,-18.641 -1.62,-18.641 l -11.89,4.101 c 0,0 -0.68,11.68 4.72,21.141 6.03,10.461 13.72,15.168 13.72,15.168 l 5.13,-4.019"
         style="fill:#100f0d;fill-opacity:1;fill-rule:evenodd;stroke:none"
         id="path46"
         inkscape:connector-curvature="0" /><path
         d="m 3794.54,200.91 c -1.93,1.27 -2.12,4.27 -3.64,6.231 -1.53,2.019 -1.91,0.8 -5.4,0.8 -3.5,0.02 -3.59,1.649 -4.58,2.489 -0.98,0.879 -1.45,-2.61 -1.45,-2.61 0,0 0.64,-2.968 4.38,-3.191 3.72,-0.238 3.62,1.601 5.23,-1.75 1.6,-3.367 4.78,-5.938 4.78,-5.938 0,0 2.63,2.711 0.68,3.969"
         style="fill:#100f0d;fill-opacity:1;fill-rule:evenodd;stroke:none"
         id="path48"
         inkscape:connector-curvature="0" /><path
         d="m 3857.61,245.172 c 19.5,4.887 31.69,-0.75 31.69,-0.75 l -1.04,-5.613 c 0,0 -14.26,0.961 -25.55,-0.727 -11.29,-1.613 -16.42,-5.172 -16.42,-5.172 l -2.45,5.602 c 0,0 5.33,4.551 13.77,6.66"
         style="fill:#100f0d;fill-opacity:1;fill-rule:evenodd;stroke:none"
         id="path50"
         inkscape:connector-curvature="0" /><path
         d="m 3863.46,253.191 2.73,0.989 3.62,-9.719 -2.72,-1.012 -3.63,9.742"
         style="fill:#100f0d;fill-opacity:1;fill-rule:evenodd;stroke:none"
         id="path52"
         inkscape:connector-curvature="0" /><path
         d="m 3949.32,235.121 c 2.75,0.168 5.11,-1.922 5.29,-4.691 0.17,-2.731 -1.92,-5.071 -4.68,-5.258 -2.75,-0.172 -5.11,1.918 -5.27,4.656 -0.18,2.742 1.9,5.07 4.66,5.293"
         style="fill:#100f0d;fill-opacity:1;fill-rule:evenodd;stroke:none"
         id="path54"
         inkscape:connector-curvature="0" /><path
         d="m 3778.12,216.27 c 2.75,0.171 5.12,-1.899 5.28,-4.641 0.17,-2.727 -1.91,-5.047 -4.67,-5.258 -2.75,-0.18 -5.11,1.91 -5.3,4.629 -0.16,2.75 1.95,5.078 4.69,5.27"
         style="fill:#100f0d;fill-opacity:1;fill-rule:evenodd;stroke:none"
         id="path56"
         inkscape:connector-curvature="0" /><path
         d="m 3865.83,265.59 c 4.38,0.269 8.16,-3.008 8.43,-7.379 0.28,-4.34 -3.06,-8.102 -7.45,-8.391 -4.39,-0.289 -8.14,3.012 -8.42,7.399 -0.28,4.34 3.06,8.121 7.44,8.371"
         style="fill:#100f0d;fill-opacity:1;fill-rule:evenodd;stroke:none"
         id="path58"
         inkscape:connector-curvature="0" /><path
         d="m 3216.93,169.66 c -7.61,0 -11.38,-8 -11.38,-14.93 0,-6.808 3.77,-14.73 11.38,-14.73 8.01,0 11.48,8.121 11.48,15.25 0,7.121 -3.66,14.41 -11.48,14.41 z m 26.12,-34.328 c 0,-4.902 -3.06,-8.141 -7.34,-8.141 -4.04,0 -6.39,2.219 -7.3,6.129 -2.76,-4.5 -8.42,-6.711 -13.4,-6.711 -14.75,0 -24.09,13.68 -24.09,27.512 0,14.25 7.83,28.961 23.58,28.961 5.07,0 10.05,-1.742 13.91,-5.09 l 0,19.93 c 0,4.859 3.03,8.098 7.3,8.098 4.28,0 7.34,-3.239 7.34,-8.098 l 0,-62.59"
         style="fill:#343434;fill-opacity:1;fill-rule:nonzero;stroke:none"
         id="path60"
         inkscape:connector-curvature="0" /><path
         d="m 3286.12,159.711 c -0.82,6.418 -4.87,11.148 -11.7,11.148 -6.5,0 -10.87,-4.937 -11.57,-11.148 l 23.27,0 z m -22.98,-9.731 c 1.04,-7.218 7.01,-10.589 13.84,-10.589 7.51,0 12.69,5.898 16.56,5.898 3.14,0 5.97,-3.16 5.97,-6.32 0,-6.297 -12.99,-12.36 -23.86,-12.36 -16.47,0 -27.44,11.981 -27.44,28.121 0,14.84 10.78,28.352 26.21,28.352 15.84,0 26.33,-14.434 26.33,-26.621 0,-4.371 -1.94,-6.481 -6.4,-6.481 l -31.21,0"
         style="fill:#343434;fill-opacity:1;fill-rule:nonzero;stroke:none"
         id="path62"
         inkscape:connector-curvature="0" /><path
         d="m 3336.71,166.012 c -2.75,0 -8.33,4.269 -13.11,4.269 -2.64,0 -4.99,-1.222 -4.99,-4.062 0,-6.809 25.4,-5.797 25.4,-22.469 0,-9.738 -8.21,-17.141 -20.82,-17.141 -8.23,0 -20.42,4.653 -20.42,11.25 0,2.243 2.23,6.493 6.3,6.493 5.69,0 8.23,-4.961 15.13,-4.961 4.47,0 5.8,1.429 5.8,4.179 0,6.7 -25.4,5.672 -25.4,22.442 0,10.148 8.23,17.07 19.8,17.07 7.22,0 18.3,-3.371 18.3,-10.582 0,-3.328 -2.55,-6.488 -5.99,-6.488"
         style="fill:#343434;fill-opacity:1;fill-rule:nonzero;stroke:none"
         id="path64"
         inkscape:connector-curvature="0" /><path
         d="m 3348.99,174.332 c 0,4.879 3.05,8.129 7.31,8.129 4.27,0 7.33,-3.25 7.33,-8.129 l 0,-39 c 0,-4.902 -3.06,-8.141 -7.33,-8.141 -4.26,0 -7.31,3.239 -7.31,8.141 l 0,39 z m 15.55,22.059 c 0,-4.602 -3.65,-8.442 -8.24,-8.442 -4.37,0 -8.22,3.981 -8.22,8.442 0,4.16 3.85,8 8.22,8 4.38,0 8.24,-3.731 8.24,-8"
         style="fill:#343434;fill-opacity:1;fill-rule:nonzero;stroke:none"
         id="path66"
         inkscape:connector-curvature="0" /><path
         d="m 3395.62,169.66 c -7.61,0 -11.37,-7.93 -11.37,-14.738 0,-7.813 3.76,-14.922 11.37,-14.922 7.82,0 11.48,7.301 11.48,14.461 0,7.07 -3.47,15.199 -11.48,15.199 z m 26.11,-37.59 c 0,-17.558 -11.48,-26.429 -28.15,-26.429 -5.98,0 -23.05,2.968 -23.05,11 0,2.738 3.04,6.398 5.9,6.398 4.67,0 9.85,-4.559 18.28,-4.559 7.12,0 12.39,4.122 12.39,11.571 l 0,3.441 -0.21,0 c -3.03,-4.461 -8.02,-6.883 -14.71,-6.883 -15.34,0 -22.58,13.493 -22.58,28.012 0,14.75 9.35,28.461 24.09,28.461 4.99,0 10.67,-2.242 13.41,-6.68 0.92,3.836 3.26,6.059 7.32,6.059 4.27,0 7.31,-3.25 7.31,-8.129 l 0,-42.262"
         style="fill:#343434;fill-opacity:1;fill-rule:nonzero;stroke:none"
         id="path68"
         inkscape:connector-curvature="0" /><path
         d="m 3430.06,174.332 c 0,4.879 3.04,8.129 7.3,8.129 3.77,0 6.21,-2.02 6.71,-5.402 2.87,3.992 7.22,6.023 14.13,6.023 11.48,0 20.01,-7.32 20.01,-19.711 l 0,-28.039 c 0,-4.902 -3.02,-8.141 -7.3,-8.141 -4.26,0 -7.33,3.239 -7.33,8.141 l 0,25.5 c 0,6.789 -4.26,10.027 -9.55,10.027 -5.98,0 -9.33,-4.347 -9.33,-10.027 l 0,-25.5 c 0,-4.902 -3.07,-8.141 -7.34,-8.141 -4.26,0 -7.3,3.239 -7.3,8.141 l 0,39"
         style="fill:#343434;fill-opacity:1;fill-rule:nonzero;stroke:none"
         id="path70"
         inkscape:connector-curvature="0" /><path
         d="m 3521.29,159.711 c -0.82,6.418 -4.88,11.148 -11.68,11.148 -6.51,0 -10.89,-4.937 -11.58,-11.148 l 23.26,0 z m -22.96,-9.731 c 1.02,-7.218 7.01,-10.589 13.81,-10.589 7.53,0 12.7,5.898 16.56,5.898 3.15,0 6.01,-3.16 6.01,-6.32 0,-6.297 -13.02,-12.36 -23.88,-12.36 -16.48,0 -27.44,11.981 -27.44,28.121 0,14.84 10.77,28.352 26.22,28.352 15.84,0 26.3,-14.434 26.3,-26.621 0,-4.371 -1.92,-6.481 -6.39,-6.481 l -31.19,0"
         style="fill:#343434;fill-opacity:1;fill-rule:nonzero;stroke:none"
         id="path72"
         inkscape:connector-curvature="0" /><path
         d="m 3564.98,169.66 c -7.63,0 -11.38,-8 -11.38,-14.93 0,-6.808 3.75,-14.73 11.38,-14.73 8.01,0 11.47,8.121 11.47,15.25 0,7.121 -3.65,14.41 -11.47,14.41 z m 26.1,-34.328 c 0,-4.902 -3.05,-8.141 -7.33,-8.141 -4.05,0 -6.39,2.219 -7.3,6.129 -2.75,-4.5 -8.43,-6.711 -13.41,-6.711 -14.73,0 -24.07,13.68 -24.07,27.512 0,14.25 7.82,28.961 23.57,28.961 5.07,0 10.05,-1.742 13.91,-5.09 l 0,19.93 c 0,4.859 3.04,8.098 7.3,8.098 4.28,0 7.33,-3.239 7.33,-8.098 l 0,-62.59"
         style="fill:#343434;fill-opacity:1;fill-rule:nonzero;stroke:none"
         id="path74"
         inkscape:connector-curvature="0" /><path
         d="m 3652.74,140 c 7.62,0 11.38,7.922 11.38,14.73 0,6.93 -3.76,14.93 -11.38,14.93 -7.82,0 -11.48,-7.289 -11.48,-14.41 0,-7.129 3.47,-15.25 11.48,-15.25 z m -26.12,57.922 c 0,4.859 3.07,8.098 7.34,8.098 4.26,0 7.3,-3.239 7.3,-8.098 l 0,-19.93 c 3.87,3.348 8.84,5.09 13.92,5.09 15.75,0 23.57,-14.711 23.57,-28.961 0,-13.832 -9.34,-27.512 -24.09,-27.512 -4.97,0 -10.66,2.211 -13.4,6.711 -0.91,-3.91 -3.24,-6.129 -7.3,-6.129 -4.27,0 -7.34,3.239 -7.34,8.141 l 0,62.59"
         style="fill:#343434;fill-opacity:1;fill-rule:nonzero;stroke:none"
         id="path76"
         inkscape:connector-curvature="0" /><path
         d="m 3681.29,172.43 c -0.41,1.09 -0.72,2.242 -0.72,3.73 0,3.68 3.86,6.301 6.91,6.301 3.55,0 6.1,-1.949 7.33,-5.172 l 10.04,-27.547 10.78,27.547 c 1.21,3.223 3.75,5.172 7.3,5.172 3.07,0 6.91,-2.621 6.91,-6.301 0,-1.488 -0.21,-2.64 -0.69,-3.73 l -24.49,-60.981 c -1.23,-3.039 -3.47,-5.808 -6.91,-5.808 -4.97,0 -7.63,3.168 -7.63,6.308 0,1.442 0.41,2.961 0.91,4.281 l 6.42,15.84 -16.16,40.36"
         style="fill:#343434;fill-opacity:1;fill-rule:nonzero;stroke:none"
         id="path78"
         inkscape:connector-curvature="0" /><path
         d="m 905.133,1656.88 -69.875,61.13 -199.727,-171.19 c 7.25,-6.78 17.02,-10.96 27.852,-10.96 l 483.497,0 c 10.76,0 20.53,4.18 27.77,10.96 l -199.638,171.19 -69.879,-61.13"
         style="fill:#100f0d;fill-opacity:1;fill-rule:nonzero;stroke:none"
         id="path80"
         inkscape:connector-curvature="0" /><path
         d="m 1174.74,1928.29 c -7.26,6.77 -17.02,10.95 -27.86,10.95 l -483.497,0 c -10.754,0 -20.528,-4.18 -27.77,-11.03 l 269.52,-231 269.607,231.08"
         style="fill:#100f0d;fill-opacity:1;fill-rule:nonzero;stroke:none"
         id="path82"
         inkscape:connector-curvature="0" /><path
         d="m 622.77,1903.83 0,-335.11 194.949,165.64 -194.949,169.47"
         style="fill:#100f0d;fill-opacity:1;fill-rule:nonzero;stroke:none"
         id="path84"
         inkscape:connector-curvature="0" /><path
         d="m 992.551,1734.36 194.949,-165.64 0,335.23 -194.949,-169.59"
         style="fill:#100f0d;fill-opacity:1;fill-rule:nonzero;stroke:none"
         id="path86"
         inkscape:connector-curvature="0" /><path
         d="m 1978.67,1636.72 159.21,159.2 -95.53,0 0,191.06 -127.36,0 0.56,-191.06 -96.09,0 159.21,-159.2"
         style="fill:#100f0d;fill-opacity:1;fill-rule:nonzero;stroke:none"
         id="path88"
         inkscape:connector-curvature="0" /><path
         d="m 2106.04,1636.72 0,-63.69 -254.74,0 0,63.69 -63.68,0 0,-127.36 382.1,0 0,127.36 -63.68,0"
         style="fill:#100f0d;fill-opacity:1;fill-rule:nonzero;stroke:none"
         id="path90"
         inkscape:connector-curvature="0" /><path
         d="m 2949.3,1768.54 c 31.62,20.33 52.62,55.72 52.62,96.09 0,63.09 -51.15,114.22 -114.22,114.22 -63.1,0 -114.23,-51.13 -114.23,-114.22 0,-40.37 20.99,-75.76 52.61,-96.09 -74.49,-6.66 -133.1,-69.41 -133.1,-145.62 l 0,-118.56 0.3,-1.87 8.18,-2.54 c 76.94,-24.05 143.81,-32.07 198.85,-32.07 107.48,0 169.78,30.66 173.64,32.59 l 7.63,3.89 0.81,0 0,118.56 c 0,76.19 -58.59,138.94 -133.09,145.62"
         style="fill:#100f0d;fill-opacity:1;fill-rule:nonzero;stroke:none"
         id="path92"
         inkscape:connector-curvature="0" /><path
         d="m 6090.58,3414.83 c 0,-45.02 -37.45,-81.7 -83.45,-81.7 -45.97,0 -83.46,36.68 -83.46,81.7 0,45 37.49,81.6 83.46,81.6 46.02,-0.02 83.45,-36.6 83.45,-81.6 z m 105.27,58.42 -13.14,31.21 c 0,0 30.58,68.96 27.85,71.62 l -40.45,39.51 c -2.82,2.74 -71.81,-28.75 -71.81,-28.75 l -31.84,12.87 c 0,0 -28.11,69.9 -31.98,69.9 l -57.12,0 c -3.95,0 -29.99,-70.07 -29.99,-70.07 l -31.77,-12.87 c 0,0 -70.45,29.92 -73.16,27.26 l -40.41,-39.59 c -2.79,-2.69 29.37,-70.29 29.37,-70.29 l -13.14,-31.17 c 0,0 -71.41,-27.52 -71.41,-31.23 l 0,-55.98 c 0,-3.91 71.59,-29.42 71.59,-29.42 l 13.13,-31.11 c 0,0 -30.56,-68.92 -27.9,-71.58 l 40.47,-39.61 c 2.74,-2.7 71.77,28.81 71.77,28.81 l 31.86,-12.91 c 0,0 28.11,-69.86 32,-69.86 l 57.11,0 c 3.97,0 30,70.07 30,70.07 l 31.88,12.89 c 0,0 70.31,-29.94 73.03,-27.32 l 40.47,39.57 c 2.8,2.75 -29.44,70.31 -29.44,70.31 l 13.11,31.17 c 0,0 71.45,27.56 71.45,31.33 l 0,55.94 c 0.01,3.87 -71.53,29.3 -71.53,29.3"
         style="fill:#100f0d;fill-opacity:1;fill-rule:nonzero;stroke:none"
         id="path124"
         inkscape:connector-curvature="0" /><path
         d="m 3098.89,4202.55 c 0.9,-6.87 -1.2,-12.83 -6.27,-17.9 l -59.52,-59.08 c -2.7,-2.99 -6.2,-5.53 -10.53,-7.61 -4.32,-2.09 -8.58,-3.44 -12.76,-4.03 -0.29,0 -1.19,-0.08 -2.69,-0.23 -1.48,-0.15 -3.42,-0.22 -5.81,-0.22 -5.67,0 -14.85,0.96 -27.53,2.91 -12.68,1.93 -28.2,6.72 -46.54,14.32 -18.36,7.61 -39.17,19.03 -62.45,34.24 -23.27,15.22 -48.05,36.11 -74.31,62.67 -20.89,20.58 -38.19,40.28 -51.92,59.08 -13.72,18.8 -24.76,36.18 -33.12,52.15 -8.36,15.96 -14.62,30.44 -18.8,43.42 -4.18,12.97 -7.01,24.17 -8.5,33.57 -1.5,9.39 -2.1,16.78 -1.8,22.16 0.3,5.36 0.46,8.35 0.46,8.94 0.59,4.18 1.94,8.43 4.03,12.76 2.08,4.33 4.62,7.83 7.6,10.52 l 59.53,59.53 c 4.18,4.18 8.95,6.27 14.33,6.27 3.88,0 7.3,-1.12 10.29,-3.36 2.99,-2.24 5.53,-4.99 7.61,-8.28 l 47.9,-90.86 c 2.68,-4.78 3.43,-9.99 2.23,-15.67 -1.19,-5.66 -3.72,-10.45 -7.61,-14.32 l -21.93,-21.94 c -0.59,-0.59 -1.12,-1.56 -1.57,-2.91 -0.45,-1.34 -0.67,-2.46 -0.67,-3.36 1.2,-6.26 3.88,-13.43 8.06,-21.48 3.58,-7.16 9.1,-15.89 16.56,-26.18 7.46,-10.3 18.06,-22.16 31.79,-35.58 13.42,-13.74 25.35,-24.4 35.8,-32.01 10.44,-7.61 19.17,-13.2 26.19,-16.79 7.01,-3.58 12.38,-5.74 16.12,-6.48 l 5.58,-1.13 c 0.6,0 1.57,0.23 2.91,0.68 1.34,0.45 2.31,0.96 2.91,1.56 l 25.52,25.97 c 5.37,4.76 11.64,7.16 18.79,7.16 5.08,0 9.11,-0.9 12.09,-2.69 l 0.44,0 86.39,-51.03 c 6.27,-3.88 10,-8.79 11.2,-14.77"
         style="fill:#100f0d;fill-opacity:1;fill-rule:nonzero;stroke:none"
         id="path142"
         inkscape:connector-curvature="0" /><path
         d="m 7173.73,4371.6 -7.88,7.85 90.29,90.3 7.85,-7.86 -90.26,-90.29 z m -29.4,29.46 -7.88,7.87 90.29,90.27 7.84,-7.86 -90.25,-90.28 z m 68.24,-248.68 c 10.56,0 19.03,-8.49 19.03,-19.03 0,-10.51 -8.49,-19.06 -19.03,-19.06 -10.47,0 -19,8.59 -19,19.06 0,10.54 8.53,19.03 19,19.03 z m 98.59,347.26 -47.01,47.07 c -6.55,6.51 -17.12,6.51 -23.66,0 -3.77,-3.81 -5.13,-9.01 -4.42,-13.98 -3.53,0 -6.97,-1.37 -10.02,-3.59 l -0.32,0.35 -121.83,-121.8 c 1.16,-10.7 -1.43,-21.63 -7.62,-30.91 l 12.83,-12.98 0.3,0.31 1.23,-1.26 -26.87,-26.84 -88.29,88.18 c 9.93,35.5 0.96,75.21 -26.94,103.16 -27.75,27.62 -66.98,36.7 -102.29,27.11 l 59.81,-59.77 -15.71,-58.57 -58.61,-15.69 -59.76,59.78 c -9.56,-35.3 -0.52,-74.54 27.2,-102.28 29.08,-29.08 70.93,-37.61 107.55,-25.69 l 0.31,-0.32 86.41,-86.33 -82.19,-82.18 -4.49,4.37 -23.02,-18.57 -38.92,-61.35 9.94,-9.95 61.31,38.91 18.69,23.08 -4.45,4.41 82.19,82.18 140.51,-140.53 c 9.72,-9.73 22.53,-14.63 35.23,-14.63 12.79,0 25.49,4.9 35.29,14.63 19.41,19.38 19.41,50.92 0,70.48 l -140.62,140.45 26.36,26.41 11.54,-11.73 c 9.4,6.38 20.4,9.11 31.29,7.92 l 120.15,120.11 1.72,1.68 -0.36,0.36 c 2.27,3.02 3.57,6.47 3.57,9.96 4.99,-0.66 10.14,0.66 13.94,4.49 6.55,6.46 6.55,17.03 0.03,23.55"
         style="fill:#100f0d;fill-opacity:1;fill-rule:nonzero;stroke:none"
         id="path154"
         inkscape:connector-curvature="0" /><path
         d="m 2127.65,6211.03 c 0,-16.48 -13.33,-29.81 -29.79,-29.81 l -119.19,0 c -16.46,0 -29.79,13.33 -29.79,29.81 l 0,119.18 c 0,16.46 13.33,29.79 29.79,29.79 16.46,0 29.8,-13.33 29.8,-29.79 l 0,-89.4 89.39,0 c 16.46,0 29.79,-13.32 29.79,-29.78 z m -148.98,-178.78 c -98.58,0 -178.77,80.18 -178.77,178.78 0,98.57 80.19,178.76 178.77,178.76 98.58,0 178.78,-80.19 178.78,-178.76 0,-98.6 -80.2,-178.78 -178.78,-178.78 z m 0,417.13 c -131.65,0 -238.37,-106.72 -238.37,-238.35 0,-131.65 106.72,-238.37 238.37,-238.37 131.64,0 238.37,106.72 238.37,238.37 0,131.63 -106.73,238.35 -238.37,238.35"
         style="fill:#100f0d;fill-opacity:1;fill-rule:nonzero;stroke:none"
         id="path178"
         inkscape:connector-curvature="0" /><path
         d="m 4034.13,6470.62 c 24.14,0 43.7,-19.57 43.7,-43.7 0,-24.13 -19.56,-43.71 -43.7,-43.71 -24.14,0 -43.71,19.58 -43.71,43.71 0,24.13 19.57,43.7 43.71,43.7"
         style="fill:#161513;fill-opacity:1;fill-rule:nonzero;stroke:none"
         id="path182"
         inkscape:connector-curvature="0" /><path
         d="m 4049.36,6362.38 c -10.89,2.21 -22.73,2.11 -33.43,-0.41 -72.66,-8.5 -96.25,-92.6 -89.59,-156.74 2.89,-27.72 46.6,-28 43.67,0 -2.42,23.37 -1.38,58.64 11.04,83.71 0,-30.46 0,-60.94 0,-91.39 0,-1.09 0.11,-2.09 0.16,-3.13 -0.03,-0.49 -0.15,-0.9 -0.15,-1.42 0,-72.52 -0.13,-145.01 -3.12,-217.47 -1.32,-32.22 48.61,-32.09 49.94,0 2.33,56.79 2.93,113.61 3.07,170.45 2.36,-0.16 4.73,-0.16 7.1,-0.02 0.14,-56.84 0.72,-113.66 3.04,-170.43 1.33,-32.09 51.27,-32.22 49.94,0 -3,72.46 -3.1,144.95 -3.1,217.47 0,2.25 -0.29,4.3 -0.76,6.27 -0.07,31.48 -1.27,63.01 -0.9,94.47 14.86,-25.19 16.23,-63.59 13.65,-88.49 -2.93,-27.98 40.78,-27.71 43.67,0 6.83,65.45 -17.91,151.74 -94.23,157.13"
         style="fill:#161513;fill-opacity:1;fill-rule:nonzero;stroke:none"
         id="path184"
         inkscape:connector-curvature="0" /><path
         d="m 882.219,6992.17 0,35.87 c 0,8.7 -7.047,15.74 -15.754,15.74 -8.699,0 -15.746,-7.04 -15.746,-15.74 l 0,-35.87 c -9.387,-5.46 -15.746,-15.51 -15.746,-27.14 0,-17.37 14.113,-31.49 31.492,-31.49 17.383,0 31.5,14.12 31.5,31.49 0,11.63 -6.367,21.68 -15.746,27.14 z m 125.991,-105.88 c 0,-8.69 -7.07,-15.75 -15.745,-15.75 l -251.996,0 c -8.676,0 -15.746,7.06 -15.746,15.75 l 0,189 c 0,8.69 7.07,15.75 15.746,15.75 l 251.996,0 c 8.675,0 15.745,-7.06 15.745,-15.75 l 0,-189 z m -236.241,330.74 c 0,52.12 42.39,94.51 94.496,94.51 52.109,0 94.504,-42.39 94.504,-94.51 l 0,-94.5 -189,0 0,94.5 z m 220.496,-94.5 0,94.5 c 0,69.47 -56.524,126 -126,126 -69.473,0 -125.996,-56.53 -125.996,-126 l 0,-94.5 c -26.043,0 -47.25,-21.2 -47.25,-47.24 l 0,-189 c 0,-26.07 21.207,-47.26 47.25,-47.26 l 251.996,0 c 26.055,0 47.255,21.19 47.255,47.26 l 0,189 c 0,26.04 -21.2,47.24 -47.255,47.24"
         style="fill:#100f0d;fill-opacity:1;fill-rule:nonzero;stroke:none"
         id="path192"
         inkscape:connector-curvature="0" /><path
         d="m 5253.79,904.582 -0.25,-239.812 -46.25,257.05 c -3.91,14.121 -19.87,13.149 -19.87,13.149 l -392.91,0 0,81.581 459.3,0 0,-111.968 -0.02,0 z m 25.12,-230.203 0.13,367.381 c -0.06,11.29 -9.23,20.45 -20.49,20.45 l -259.12,0 c -7.99,0.2 -14.23,14.9 -14.23,20.55 l 0,2.34 c 0,11.98 -9.78,21.84 -21.83,21.84 l -137.89,0 c -12.01,0 -21.76,-9.85 -21.76,-21.84 l 0,-2.34 c 0,-5.72 -6.31,-20.65 -14.5,-20.65 l 0.23,0 c -11.15,-0.15 -20.2,-9.23 -20.2,-20.43 l 0.09,-106.36 -44.09,0 c 0,0 -19.51,1.051 -12.61,-22.172 l 46.5,-238.769 c 0,-12.027 8.37,-21.738 20.4,-21.738 l 489.33,0 c 12.01,0 10.04,21.738 10.04,21.738"
         style="fill:#100f0d;fill-opacity:1;fill-rule:nonzero;stroke:none"
         id="path236"
         inkscape:connector-curvature="0" /><path
         d="m 5952.81,963.852 c 0,-29.981 24.31,-54.293 54.3,-54.293 29.99,0 54.31,24.312 54.31,54.293 0,30 -24.32,54.298 -54.31,54.298 -29.99,0 -54.3,-24.298 -54.3,-54.298 z m 54.3,-85.821 c -47.39,0 -85.82,38.418 -85.82,85.821 0,47.398 38.43,85.818 85.82,85.818 47.4,0 85.82,-38.42 85.82,-85.818 0,-47.403 -38.42,-85.821 -85.82,-85.821 z m 0,225.939 c -77.38,0 -140.12,-62.73 -140.12,-140.118 0,-140.11 140.12,-308.262 140.12,-308.262 0,0 140.13,168.152 140.13,308.262 0,77.388 -62.74,140.118 -140.13,140.118"
         style="fill:#100f0d;fill-opacity:1;fill-rule:nonzero;stroke:none"
         id="path238"
         inkscape:connector-curvature="0" /><path
         d="m 1818.67,2791.67 320,-213.34 -320,-213.33 0,426.67"
         style="fill:#100f0d;fill-opacity:1;fill-rule:nonzero;stroke:none"
         id="path244"
         inkscape:connector-curvature="0" /><path
         d="m 4208.51,2385.49 c -9.6,0 -17.43,7.82 -17.43,17.44 0,9.65 7.83,17.45 17.43,17.45 9.66,0 17.47,-7.8 17.47,-17.45 0.01,-9.62 -7.79,-17.44 -17.47,-17.44 z m -197.07,282.35 -1.86,1.62 c 9.06,32.54 0.81,68.92 -24.76,94.51 -25.43,25.35 -61.36,33.67 -93.71,24.9 l 54.78,-54.8 -14.36,-53.65 -53.69,-14.38 -54.81,54.77 c -8.71,-32.35 -0.44,-68.31 24.99,-93.72 26.63,-26.66 65,-34.47 98.54,-23.55 l 0.31,-0.29 225.42,-225.41 c 8.92,-8.93 20.59,-13.42 32.27,-13.42 11.71,0 23.34,4.49 32.32,13.42 17.86,17.77 17.86,46.66 0,64.57 l -225.44,225.43"
         style="fill:#100f0d;fill-opacity:1;fill-rule:nonzero;stroke:none"
         id="path246"
         inkscape:connector-curvature="0" /><path
         d="m 2624.48,2709.93 526.4,0 -263.2,-263.19 -263.2,263.19"
         style="fill:#100f0d;fill-opacity:1;fill-rule:nonzero;stroke:none"
         id="path248"
         inkscape:connector-curvature="0" /><path
         d="m 6007.11,2491.06 c 32.12,0 58.18,26.05 58.18,58.18 0,32.11 -26.06,58.19 -58.18,58.19 -32.12,0 -58.18,-26.08 -58.18,-58.19 0,-32.13 26.06,-58.18 58.18,-58.18 z m 0,145.45 c 48.2,0 87.27,-39.06 87.27,-87.27 0,-48.16 -39.07,-87.28 -87.27,-87.28 -48.2,0 -87.28,39.12 -87.28,87.28 0,48.21 39.08,87.27 87.28,87.27 z m -130.91,0 c 8.03,0 14.54,-6.52 14.54,-14.55 0,-8.03 -6.51,-14.53 -14.54,-14.53 -8.03,0 -14.54,6.5 -14.54,14.53 0,8.03 6.51,14.55 14.54,14.55 z m 305.45,29.08 -116.36,0 0,58.18 -116.36,0 0,-58.18 -116.36,0 0,-232.71 349.08,0 0,232.71 z m 29.09,-290.9 -407.26,0 c -16.1,0 -29.1,13.01 -29.1,29.1 l 0,290.9 c 0,16.06 13,29.08 29.1,29.08 l 87.26,0 0,29.11 c 0,16.05 13.01,29.08 29.09,29.08 l 174.55,0 c 16.09,0 29.09,-13.03 29.09,-29.08 l 0,-29.11 87.27,0 c 16.09,0 29.09,-13.02 29.09,-29.08 l 0,-290.9 c 0,-16.09 -13,-29.1 -29.09,-29.1"
         style="fill:#100f0d;fill-opacity:1;fill-rule:nonzero;stroke:none"
         id="path252"
         inkscape:connector-curvature="0" /></g></g></svg>