<?xml version="1.0" encoding="UTF-8" standalone="no"?>
<!-- Created with Inkscape (http://www.inkscape.org/) -->

<svg
   xmlns:dc="http://purl.org/dc/elements/1.1/"
   xmlns:cc="http://creativecommons.org/ns#"
   xmlns:rdf="http://www.w3.org/1999/02/22-rdf-syntax-ns#"
   xmlns:svg="http://www.w3.org/2000/svg"
   xmlns="http://www.w3.org/2000/svg"
   xmlns:sodipodi="http://sodipodi.sourceforge.net/DTD/sodipodi-0.dtd"
   xmlns:inkscape="http://www.inkscape.org/namespaces/inkscape"
   id="svg2"
   version="1.1"
   inkscape:version="0.91 r13725"
   xml:space="preserve"
   width="187.5"
   height="187.5"
   viewBox="0 0 187.5 187.5"
   sodipodi:docname="908.svg"><metadata
     id="metadata8"><rdf:RDF><cc:Work
         rdf:about=""><dc:format>image/svg+xml</dc:format><dc:type
           rdf:resource="http://purl.org/dc/dcmitype/StillImage" /><dc:title /></cc:Work></rdf:RDF></metadata><defs
     id="defs6" /><sodipodi:namedview
     pagecolor="#ffffff"
     bordercolor="#666666"
     borderopacity="1"
     objecttolerance="10"
     gridtolerance="10"
     guidetolerance="10"
     inkscape:pageopacity="0"
     inkscape:pageshadow="2"
     inkscape:window-width="1680"
     inkscape:window-height="1026"
     id="namedview4"
     showgrid="false"
     inkscape:zoom="5.0346667"
     inkscape:cx="80.945832"
     inkscape:cy="96.070995"
     inkscape:window-x="1600"
     inkscape:window-y="24"
     inkscape:window-maximized="1"
     inkscape:current-layer="g12" /><g
     id="g10"
     inkscape:groupmode="layer"
     inkscape:label="ink_ext_XXXXXX"
     transform="matrix(1.25,0,0,-1.25,0,187.5)"><g
       id="g12"
       transform="scale(0.1,0.1)"><path
         d="m 991.953,1399.84 -12.512,12.59 0,-12.27 0.325,-0.32 12.187,0"
         style="fill:#303030;fill-opacity:1;fill-rule:nonzero;stroke:none"
         id="path1024"
         inkscape:connector-curvature="0" /><path
         d="m 980.027,1383.32 1.633,-1.62 -1.633,-1.63 -33.98,0 -1.633,1.63 1.633,1.62 33.98,0 z m 0,-12.98 -33.98,0 -1.633,1.62 c 0,0.9 0.731,1.63 1.633,1.63 l 33.98,0 c 0.903,0 1.633,-0.73 1.633,-1.63 l -1.633,-1.62 z m -8.484,-9.74 -25.879,0 c -0.691,0 -1.25,0.72 -1.25,1.63 l 1.25,1.61 25.879,0 1.23,-1.61 c 0,-0.91 -0.554,-1.63 -1.23,-1.63 z m 4.426,39.56 0,13.98 0.054,0.25 -36.304,0 c -3.313,0 -6.008,-2.69 -6.008,-6.01 l 0,-53.95 c 0,-3.32 2.695,-6.01 6.008,-6.01 l 47.515,0 c 3.313,0 6.008,2.69 6.008,6.01 l 0,42.05 -0.566,-0.12 -12.91,0 c -2.098,0 -3.797,1.71 -3.797,3.8"
         style="fill:#303030;fill-opacity:1;fill-rule:nonzero;stroke:none"
         id="path1026"
         inkscape:connector-curvature="0" /><path
         d="m 457.387,1265.34 0,55.61 -30.782,-23.54 30.579,-32.91 0.203,0.84"
         style="fill:#303030;fill-opacity:1;fill-rule:nonzero;stroke:none"
         id="path1036"
         inkscape:connector-curvature="0" /><path
         d="m 358.137,1327.43 48.992,-37.29 48.891,37.42 c -0.954,0.93 -2.297,1.56 -3.856,1.56 l -90.07,0 c -1.614,0 -3.008,-0.69 -3.957,-1.69"
         style="fill:#303030;fill-opacity:1;fill-rule:nonzero;stroke:none"
         id="path1038"
         inkscape:connector-curvature="0" /><path
         d="m 356.879,1320.76 0,-55.42 0.234,-1 30.621,32.94 -30.855,23.48"
         style="fill:#303030;fill-opacity:1;fill-rule:nonzero;stroke:none"
         id="path1040"
         inkscape:connector-curvature="0" /><path
         d="m 454.398,1261.27 -31.179,33.55 -14.235,-10.91 -1.843,-0.62 -1.848,0.62 -14.172,10.78 -31.148,-33.5 2.121,-0.4 90.07,0 2.234,0.48"
         style="fill:#303030;fill-opacity:1;fill-rule:nonzero;stroke:none"
         id="path1042"
         inkscape:connector-curvature="0" /><path
         d="m 567.266,1296.3 24.226,19.22 c 2.024,1.59 4.985,1.27 6.606,-0.77 1.597,-2.03 1.265,-4.98 -0.774,-6.6 l -19.558,-15.51 19.547,-15.34 c 2.042,-1.59 2.406,-4.55 0.792,-6.59 -0.917,-1.17 -2.304,-1.8 -3.691,-1.8 -1.016,0 -2.043,0.33 -2.898,1.01 l -24.243,19.01 c -1.121,0.88 -1.785,2.24 -1.793,3.68 0,1.43 0.665,2.8 1.786,3.69 z m 21.25,-41.93 c 21.191,0 38.359,17.17 38.359,38.36 0,21.18 -17.168,38.36 -38.359,38.36 -21.18,0 -38.348,-17.18 -38.348,-38.36 0,-21.19 17.168,-38.36 38.348,-38.36"
         style="fill:#303030;fill-opacity:1;fill-rule:nonzero;stroke:none"
         id="path1054"
         inkscape:connector-curvature="0" /><path
         d="m 327.637,767.703 c 0,8.453 -6.875,15.328 -15.328,15.328 -8.454,0 -15.329,-6.875 -15.329,-15.328 0,-8.445 6.875,-15.32 15.329,-15.32 8.453,0 15.328,6.875 15.328,15.32"
         style="fill:#303030;fill-opacity:1;fill-rule:nonzero;stroke:none"
         id="path1058"
         inkscape:connector-curvature="0" /><path
         d="m 284.957,767.703 c 0,15.086 12.273,27.356 27.352,27.356 15.078,0 27.355,-12.27 27.355,-27.356 0,-15.074 -12.277,-27.351 -27.355,-27.351 -15.079,0 -27.352,12.277 -27.352,27.351 z m 62.098,0.52 c 0,17.746 -18.817,33.179 -34.836,33.179 -16.031,0 -34.852,-15.433 -34.852,-33.179 0,-17.063 34.852,-73.301 34.852,-73.301 0,0 34.836,56.238 34.836,73.301"
         style="fill:#303030;fill-opacity:1;fill-rule:nonzero;stroke:none"
         id="path1060"
         inkscape:connector-curvature="0" /><path
         d="m 634.254,1416.16 c 0,10.72 8.684,19.41 19.398,19.41 10.711,0 19.411,-8.69 19.411,-19.41 0,-10.71 -8.7,-19.41 -19.411,-19.41 -10.714,0 -19.398,8.7 -19.398,19.41 z m 51.09,-1.06 c 0,16.13 -17.117,30.17 -31.692,30.17 -14.57,0 -31.679,-14.04 -31.679,-30.17 0,-15.53 31.679,-66.68 31.679,-66.68 0,0 31.692,51.15 31.692,66.68"
         style="fill:#303030;fill-opacity:1;fill-rule:nonzero;stroke:none"
         id="path1062"
         inkscape:connector-curvature="0" /><path
         d="m 1004.41,848.852 26.69,50.89 19.66,-6.457 -18.59,-40.558 -4.72,-10.309 -23.04,6.434 z m 93.61,50.128 c -0.7,-1.441 -1.43,-2.882 -2.16,-4.332 l 11.48,-2.718 -18.15,-55.438 -26.35,9.863 7.33,20.731 2.94,8.477 c -0.91,1.531 -1.97,3.32 -3.09,5.3 l -4.72,-13.457 -7.17,-20.359 -25.42,-4.367 22.9,49.961 7.14,1.925 c -0.73,1.418 -1.47,2.879 -2.14,4.313 l -6.5,-1.766 -25.31,8.309 -31.222,-59.52 27.902,-7.793 3.15,-0.879 1.72,0.305 29.29,5.028 32.49,-12.157 21.29,65.063 -15.4,3.511"
         style="fill:#303030;fill-opacity:1;fill-rule:nonzero;stroke:none"
         id="path1066"
         inkscape:connector-curvature="0" /><path
         d="m 1079.31,929.223 c 6.74,0 12.2,-5.469 12.2,-12.211 0,-6.758 -5.46,-12.231 -12.2,-12.231 -6.75,0 -12.22,5.473 -12.22,12.231 0,6.742 5.47,12.211 12.22,12.211 z m -13.99,-29.758 c 0.71,-1.43 1.44,-2.883 2.17,-4.324 1.53,-2.946 3.12,-5.848 4.62,-8.5 1.08,-1.953 2.12,-3.754 3.07,-5.368 2.41,-4.156 4.13,-6.925 4.13,-6.925 0,0 6.32,10.207 11.84,20.867 0.74,1.441 1.48,2.898 2.18,4.332 3.32,6.801 5.94,13.258 5.94,16.793 0,10.164 -10.79,18.988 -19.96,18.988 -9.18,0 -19.96,-8.824 -19.96,-18.988 0,-3.543 2.63,-10.035 5.97,-16.875"
         style="fill:#303030;fill-opacity:1;fill-rule:nonzero;stroke:none"
         id="path1068"
         inkscape:connector-curvature="0" /><path
         d="m 898.02,178.309 -18.262,-10.61 4.453,20.641 -15.742,14.09 21.011,2.16 8.54,19.308 8.523,-19.308 21.016,-2.16 -15.735,-14.09 4.465,-20.641 -18.269,10.61 z m 44.695,29.031 -31.785,3.269 -12.91,29.231 -12.915,-29.231 -31.785,-3.269 23.797,-21.309 -6.734,-31.242 27.637,16.082 27.632,-16.082 -6.746,31.242 23.809,21.309"
         style="fill:#303030;fill-opacity:1;fill-rule:nonzero;stroke:none"
         id="path1078"
         inkscape:connector-curvature="0" /><path
         d="m 286.891,905.68 -25.332,0 0,-32.008 c 0,-5.742 -4.934,-10.414 -11,-10.414 l -33.579,0 0,-0.531 c 0,-3.622 3.219,-6.551 7.204,-6.551 l 48.859,0 13.195,-14.379 -1.125,14.379 1.778,0 c 3.972,0 7.195,2.929 7.195,6.551 l 0,36.406 c 0,3.621 -3.223,6.547 -7.195,6.547"
         style="fill:#303030;fill-opacity:1;fill-rule:nonzero;stroke:none"
         id="path1080"
         inkscape:connector-curvature="0" /><path
         d="m 250.559,867.758 c 3.586,0 6.496,2.64 6.496,5.914 l 0,32.894 c 0,3.27 -2.91,5.918 -6.496,5.918 l -56.657,0 c -3.593,0 -6.504,-2.648 -6.504,-5.918 l 0,-32.894 c 0,-3.274 2.911,-5.914 6.504,-5.914 l 1.602,0 -1.012,-12.992 11.918,12.992 44.149,0"
         style="fill:#303030;fill-opacity:1;fill-rule:nonzero;stroke:none"
         id="path1082"
         inkscape:connector-curvature="0" /><path
         d="m 1228.42,910.676 10.55,10.554 -2.31,8.594 -8.76,-8.769 -7.38,7.383 8.76,8.765 -8.6,2.309 -10.55,-10.563 2.07,-7.699 -27.82,-27.82 -7.71,2.062 -10.57,-10.554 2.31,-8.598 8.78,8.762 7.37,-7.383 -8.77,-8.766 8.6,-2.312 10.56,10.562 -2.06,7.707 27.81,27.82 7.72,-2.054"
         style="fill:#303030;fill-opacity:1;fill-rule:nonzero;stroke:none"
         id="path1090"
         inkscape:connector-curvature="0" /><path
         d="m 467.816,243.309 c -12.855,0 -23.312,10.461 -23.312,23.312 0,12.859 10.457,23.328 23.312,23.328 12.86,0 23.317,-10.469 23.317,-23.328 0,-12.851 -10.457,-23.312 -23.317,-23.312 z m 36.954,10 17.578,6.441 -0.004,14.082 -17.703,6.469 c -0.387,1.039 -0.813,2.039 -1.274,3.039 l 7.879,16.98 -9.957,9.95 -17.105,-7.93 c -0.996,0.449 -2.004,0.871 -3.039,1.23 l -6.45,17.59 -14.066,0 -6.492,-17.711 c -1.032,-0.39 -2.032,-0.801 -3.024,-1.269 l -16.988,7.879 -9.945,-9.957 7.929,-17.102 c -0.453,-1 -0.863,-2.012 -1.242,-3.059 l -17.574,-6.429 0,-14.082 17.703,-6.481 c 0.387,-1.039 0.813,-2.039 1.274,-3.019 l -7.875,-16.989 9.96,-9.953 17.094,7.934 c 0.992,-0.461 2.02,-0.871 3.055,-1.242 l 6.434,-17.571 14.078,0 6.484,17.692 c 1.027,0.398 2.047,0.82 3.027,1.281 l 16.989,-7.871 9.945,9.937 -7.938,17.102 c 0.465,1.012 0.872,2.031 1.247,3.059"
         style="fill:#303030;fill-opacity:1;fill-rule:nonzero;stroke:none"
         id="path1092"
         inkscape:connector-curvature="0" /><path
         d="m 170.855,735.09 58.137,0 5.395,-39.797 0,48.555 -57.653,0 0,9.433 -18.644,0 0,-8.75 8.156,0 4.609,-9.441"
         style="fill:#303030;fill-opacity:1;fill-rule:nonzero;stroke:none"
         id="path1124"
         inkscape:connector-curvature="0" /><path
         d="m 168.43,731.211 -4.606,9.434 -15.086,0 10.957,-57.891 72.461,0 -6.558,48.457 -57.168,0"
         style="fill:#303030;fill-opacity:1;fill-rule:nonzero;stroke:none"
         id="path1126"
         inkscape:connector-curvature="0" /><path
         d="m 583.027,122.41 -11.488,-11.57 c -6.68,3.949 -12.32,9.492 -16.422,16.32 -4.137,6.879 -6.387,14.488 -6.711,22.281 l 16.266,6.52 -7.731,28.219 c 0,0 -22.765,-5.86 -26.492,-16.61 -4.332,-17.34 -1.644,-35.332 7.574,-50.679 9.207,-15.34 23.832,-26.1527 41.2,-30.4926 11.504,-2.1679 26.785,17.8826 26.785,17.8826 l -22.981,18.129"
         style="fill:#303030;fill-opacity:1;fill-rule:nonzero;stroke:none"
         id="path1146"
         inkscape:connector-curvature="0" /><path
         d="m 737.91,190.379 0,0"
         style="fill:#303030;fill-opacity:1;fill-rule:nonzero;stroke:none"
         id="path1150"
         inkscape:connector-curvature="0" /><path
         d="m 812.078,190.379 0,0"
         style="fill:#303030;fill-opacity:1;fill-rule:nonzero;stroke:none"
         id="path1152"
         inkscape:connector-curvature="0" /><path
         d="m 801.074,202.809 -6.101,0 0,-3.547 c 0,-2.114 -2.075,-3.852 -4.614,-3.852 -2.539,0 -4.605,1.738 -4.605,3.852 l 0,3.547 -21.508,0 0,-3.547 c 0,-2.114 -2.09,-3.852 -4.629,-3.852 -2.539,0 -4.597,1.738 -4.597,3.852 l 0,3.547 -6.102,0 c -6.074,0 -11.008,-4.911 -11.008,-10.989 l 74.168,0 c 0,6.078 -4.922,10.989 -11.004,10.989"
         style="fill:#303030;fill-opacity:1;fill-rule:nonzero;stroke:none"
         id="path1154"
         inkscape:connector-curvature="0" /><path
         d="m 753.738,140.391 c 1.438,-0.922 4.778,-2.371 8.282,-2.371 6.503,0 8.539,4.16 8.476,7.261 -0.058,5.25 -4.781,7.489 -9.676,7.489 l -2.824,0 0,3.8 2.824,0 c 3.692,0 8.34,1.91 8.34,6.352 0,2.988 -1.894,5.629 -6.555,5.629 -2.988,0 -5.886,-1.321 -7.488,-2.481 l -1.328,3.711 c 1.953,1.43 5.762,2.867 9.805,2.867 7.363,0 10.703,-4.378 10.703,-8.929 0,-3.867 -2.285,-7.149 -6.926,-8.821 l 0,-0.109 c 4.641,-0.918 8.371,-4.379 8.371,-9.617 0,-6 -4.668,-11.231 -13.652,-11.231 -4.219,0 -7.902,1.321 -9.735,2.52 l 1.383,3.93 z m 36.582,31.629 4.336,0 0,-37.45 -4.91,0 0,32.719 -0.117,0 -6.492,-3.508 -0.989,3.86 8.172,4.379 z m -52.41,15.539 0,-68.539 74.168,0 0,68.539 -74.168,0"
         style="fill:#303030;fill-opacity:1;fill-rule:nonzero;stroke:none"
         id="path1156"
         inkscape:connector-curvature="0" /><path
         d="m 757.004,199.262 c 0,-1 1.211,-1.852 2.613,-1.852 1.438,0 2.629,0.852 2.629,1.852 l 0,10.988 c 0,1.012 -1.191,1.859 -2.629,1.859 -1.402,0 -2.613,-0.847 -2.613,-1.859 l 0,-10.988"
         style="fill:#303030;fill-opacity:1;fill-rule:nonzero;stroke:none"
         id="path1158"
         inkscape:connector-curvature="0" /><path
         d="m 787.754,199.262 c 0,-1 1.191,-1.852 2.605,-1.852 1.418,0 2.629,0.852 2.629,1.852 l 0,10.988 c 0,1.012 -1.211,1.859 -2.629,1.859 -1.414,0 -2.605,-0.847 -2.605,-1.859 l 0,-10.988"
         style="fill:#303030;fill-opacity:1;fill-rule:nonzero;stroke:none"
         id="path1160"
         inkscape:connector-curvature="0" /><path
         d="m 1290.21,747.828 8.62,0 0,-29.586 37.6,0 0,29.586 8.59,0 -27.4,19.813 -27.41,-19.813"
         style="fill:#303030;fill-opacity:1;fill-rule:nonzero;stroke:none"
         id="path1170"
         inkscape:connector-curvature="0" /><path
         d="m 1351.43,745.836 -1.66,-0.965 -9.48,0 0,-28.094 c 0,-0.832 -0.86,-1.484 -1.94,-1.484 l -41.46,0 c -1.07,0 -1.94,0.652 -1.94,1.484 l 0,28.094 -9.46,0 -1.67,0.965 0.49,1.621 32.12,23.242 2.38,0 32.14,-23.242 0.48,-1.621 z m -33.8,42.699 c -26.78,0 -48.49,-21.711 -48.49,-48.484 0,-26.781 21.71,-48.488 48.49,-48.488 26.77,0 48.48,21.707 48.48,48.488 0,26.773 -21.71,48.484 -48.48,48.484"
         style="fill:#303030;fill-opacity:1;fill-rule:nonzero;stroke:none"
         id="path1172"
         inkscape:connector-curvature="0" /><path
         d="m 240.742,1120.71 c -8.637,0 -15.648,7 -15.648,15.65 0,8.64 7.011,15.65 15.648,15.65 8.645,0 15.653,-7.01 15.653,-15.65 0,-8.65 -7.008,-15.65 -15.653,-15.65 z m 43.969,8.76 c 0,24.28 -19.688,43.97 -43.969,43.97 -24.277,0 -43.965,-19.69 -43.965,-43.97 0,-13.64 6.211,-25.83 15.961,-33.9 4.746,12.09 15.485,20.56 28.004,20.56 12.52,0 23.262,-8.47 28.008,-20.56 9.746,8.07 15.961,20.26 15.961,33.9"
         style="fill:#303030;fill-opacity:1;fill-rule:nonzero;stroke:none"
         id="path1174"
         inkscape:connector-curvature="0" /><path
         d="m 1099.27,1117.07 c -12.37,0 -22.41,10.06 -22.41,22.41 0,3.84 0.96,7.43 2.65,10.59 3.79,7.04 11.22,11.83 19.76,11.83 8.53,0 15.96,-4.79 19.75,-11.83 1.69,-3.16 2.66,-6.75 2.66,-10.59 0,-12.35 -10.06,-22.41 -22.41,-22.41 z m -27.15,37.46 -11.38,0 0,6.51 11.38,0 0,-6.51 z m 48.18,12.85 -8.34,11.58 -25.39,0 -8.34,-11.58 -21.93,0 0,-55.78 85.94,0 0,55.78 -21.94,0"
         style="fill:#303030;fill-opacity:1;fill-rule:nonzero;stroke:none"
         id="path1180"
         inkscape:connector-curvature="0" /><path
         d="m 1099.27,1157.91 c -7.94,0 -14.71,-5.06 -17.3,-12.11 -0.72,-1.97 -1.13,-4.09 -1.13,-6.32 0,-10.16 8.26,-18.42 18.43,-18.42 10.16,0 18.43,8.26 18.43,18.42 0,2.23 -0.41,4.35 -1.14,6.32 -2.59,7.05 -9.35,12.11 -17.29,12.11"
         style="fill:#303030;fill-opacity:1;fill-rule:nonzero;stroke:none"
         id="path1182"
         inkscape:connector-curvature="0" /><path
         d="m 1134.46,1173.44 -6.5,0 -2.11,-4.59 10.72,0 -2.11,4.59"
         style="fill:#303030;fill-opacity:1;fill-rule:nonzero;stroke:none"
         id="path1184"
         inkscape:connector-curvature="0" /><path
         d="M 350.98,320.07 334.723,294 302.27,345.988 273.883,300.5 l 0,61.121 92.734,0 0,-66.601 -15.637,25.05 z m -82.234,46.68 0,-100.121 103.008,0 0,100.121 -103.008,0"
         style="fill:#303030;fill-opacity:1;fill-rule:nonzero;stroke:none"
         id="path1200"
         inkscape:connector-curvature="0" /></g></g></svg>