<?xml version="1.0" encoding="UTF-8" standalone="no"?>
<!-- Created with Inkscape (http://www.inkscape.org/) -->

<svg
   xmlns:dc="http://purl.org/dc/elements/1.1/"
   xmlns:cc="http://creativecommons.org/ns#"
   xmlns:rdf="http://www.w3.org/1999/02/22-rdf-syntax-ns#"
   xmlns:svg="http://www.w3.org/2000/svg"
   xmlns="http://www.w3.org/2000/svg"
   xmlns:sodipodi="http://sodipodi.sourceforge.net/DTD/sodipodi-0.dtd"
   xmlns:inkscape="http://www.inkscape.org/namespaces/inkscape"
   id="svg2"
   version="1.1"
   inkscape:version="0.91 r13725"
   xml:space="preserve"
   width="6250"
   height="6250"
   viewBox="0 0 6250 6250"
   sodipodi:docname="488.svg"><metadata
     id="metadata8"><rdf:RDF><cc:Work
         rdf:about=""><dc:format>image/svg+xml</dc:format><dc:type
           rdf:resource="http://purl.org/dc/dcmitype/StillImage" /><dc:title></dc:title></cc:Work></rdf:RDF></metadata><defs
     id="defs6" /><sodipodi:namedview
     pagecolor="#ffffff"
     bordercolor="#666666"
     borderopacity="1"
     objecttolerance="10"
     gridtolerance="10"
     guidetolerance="10"
     inkscape:pageopacity="0"
     inkscape:pageshadow="2"
     inkscape:window-width="1680"
     inkscape:window-height="1026"
     id="namedview4"
     showgrid="false"
     inkscape:zoom="0.10680141"
     inkscape:cx="3693.2392"
     inkscape:cy="3168.077"
     inkscape:window-x="1600"
     inkscape:window-y="24"
     inkscape:window-maximized="1"
     inkscape:current-layer="g12" /><g
     id="g10"
     inkscape:groupmode="layer"
     inkscape:label="ink_ext_XXXXXX"
     transform="matrix(1.25,0,0,-1.25,0,6250)"><g
       id="g12"
       transform="scale(0.340832,0.340832)"><path
         d="m 3621.32,13588.3 c 0,-400.8 -324.86,-725.6 -725.6,-725.6 -400.74,0 -725.61,324.8 -725.61,725.6 0,400.7 324.87,725.6 725.61,725.6 400.74,0 725.6,-324.9 725.6,-725.6"
         style="fill:#ce4620;fill-opacity:1;fill-rule:nonzero;stroke:none"
         id="path22"
         inkscape:connector-curvature="0" /><path
         d="m 8980.15,13588.3 c 0,-400.8 -324.85,-725.6 -725.6,-725.6 -400.76,0 -725.61,324.8 -725.61,725.6 0,400.7 324.85,725.6 725.61,725.6 400.75,0 725.6,-324.9 725.6,-725.6"
         style="fill:#6b2e98;fill-opacity:1;fill-rule:nonzero;stroke:none"
         id="path28"
         inkscape:connector-curvature="0" /><path
         d="m 10766.4,13588.3 c 0,-400.8 -324.8,-725.6 -725.6,-725.6 -400.73,0 -725.59,324.8 -725.59,725.6 0,400.7 324.86,725.6 725.59,725.6 400.8,0 725.6,-324.9 725.6,-725.6"
         style="fill:#44949b;fill-opacity:1;fill-rule:nonzero;stroke:none"
         id="path30"
         inkscape:connector-curvature="0" /><path
         d="m 5407.6,11809.2 c 0,-400.8 -324.85,-725.6 -725.61,-725.6 -400.73,0 -725.61,324.8 -725.61,725.6 0,400.7 324.88,725.6 725.61,725.6 400.76,0 725.61,-324.9 725.61,-725.6"
         style="fill:#44949b;fill-opacity:1;fill-rule:nonzero;stroke:none"
         id="path40"
         inkscape:connector-curvature="0" /><path
         d="m 8980.15,11809.2 c 0,-400.8 -324.85,-725.6 -725.6,-725.6 -400.76,0 -725.61,324.8 -725.61,725.6 0,400.7 324.85,725.6 725.61,725.6 400.75,0 725.6,-324.9 725.6,-725.6"
         style="fill:#52ad81;fill-opacity:1;fill-rule:nonzero;stroke:none"
         id="path44"
         inkscape:connector-curvature="0" /><path
         d="m 1835.06,10030.1 c 0,-400.74 -324.87,-725.59 -725.61,-725.59 -400.747,0 -725.614,324.85 -725.614,725.59 0,400.8 324.867,725.6 725.614,725.6 400.74,0 725.61,-324.8 725.61,-725.6"
         style="fill:#ce4620;fill-opacity:1;fill-rule:nonzero;stroke:none"
         id="path52"
         inkscape:connector-curvature="0" /><path
         d="m 5407.6,10030.1 c 0,-400.74 -324.85,-725.59 -725.61,-725.59 -400.73,0 -725.61,324.85 -725.61,725.59 0,400.8 324.88,725.6 725.61,725.6 400.76,0 725.61,-324.8 725.61,-725.6"
         style="fill:#de9415;fill-opacity:1;fill-rule:nonzero;stroke:none"
         id="path56"
         inkscape:connector-curvature="0" /><path
         d="m 8980.15,10030.1 c 0,-400.74 -324.85,-725.59 -725.6,-725.59 -400.76,0 -725.61,324.85 -725.61,725.59 0,400.8 324.85,725.6 725.61,725.6 400.75,0 725.6,-324.8 725.6,-725.6"
         style="fill:#44949b;fill-opacity:1;fill-rule:nonzero;stroke:none"
         id="path60"
         inkscape:connector-curvature="0" /><path
         d="m 10766.4,10030.1 c 0,-400.74 -324.8,-725.59 -725.6,-725.59 -400.73,0 -725.59,324.85 -725.59,725.59 0,400.8 324.86,725.6 725.59,725.6 400.8,0 725.6,-324.8 725.6,-725.6"
         style="fill:#ce4620;fill-opacity:1;fill-rule:nonzero;stroke:none"
         id="path62"
         inkscape:connector-curvature="0" /><path
         d="m 1835.06,8251.02 c 0,-400.72 -324.87,-725.6 -725.61,-725.6 -400.747,0 -725.614,324.88 -725.614,725.6 0,400.76 324.867,725.61 725.614,725.61 400.74,0 725.61,-324.85 725.61,-725.61"
         style="fill:#6b2e98;fill-opacity:1;fill-rule:nonzero;stroke:none"
         id="path68"
         inkscape:connector-curvature="0" /><path
         d="m 12552.7,8251.02 c 0,-400.72 -324.9,-725.6 -725.6,-725.6 -400.8,0 -725.6,324.88 -725.6,725.6 0,400.76 324.8,725.61 725.6,725.61 400.7,0 725.6,-324.85 725.6,-725.61"
         style="fill:#44949b;fill-opacity:1;fill-rule:nonzero;stroke:none"
         id="path80"
         inkscape:connector-curvature="0" /><path
         d="m 5407.6,6471.96 c 0,-400.75 -324.85,-725.6 -725.61,-725.6 -400.73,0 -725.61,324.85 -725.61,725.6 0,400.73 324.88,725.61 725.61,725.61 400.76,0 725.61,-324.88 725.61,-725.61"
         style="fill:#6b2e98;fill-opacity:1;fill-rule:nonzero;stroke:none"
         id="path88"
         inkscape:connector-curvature="0" /><path
         d="m 7193.88,6471.96 c 0,-400.75 -324.86,-725.6 -725.61,-725.6 -400.76,0 -725.61,324.85 -725.61,725.6 0,400.73 324.85,725.61 725.61,725.61 400.75,0 725.61,-324.88 725.61,-725.61"
         style="fill:#44949b;fill-opacity:1;fill-rule:nonzero;stroke:none"
         id="path90"
         inkscape:connector-curvature="0" /><path
         d="m 8980.15,6471.96 c 0,-400.75 -324.85,-725.6 -725.6,-725.6 -400.76,0 -725.61,324.85 -725.61,725.6 0,400.73 324.85,725.61 725.61,725.61 400.75,0 725.6,-324.88 725.6,-725.61"
         style="fill:#ce4620;fill-opacity:1;fill-rule:nonzero;stroke:none"
         id="path92"
         inkscape:connector-curvature="0" /><path
         d="m 1835.06,4692.88 c 0,-400.76 -324.87,-725.61 -725.61,-725.61 -400.747,0 -725.614,324.85 -725.614,725.61 0,400.75 324.867,725.6 725.614,725.6 400.74,0 725.61,-324.85 725.61,-725.6"
         style="fill:#44949b;fill-opacity:1;fill-rule:nonzero;stroke:none"
         id="path100"
         inkscape:connector-curvature="0" /><path
         d="m 5407.6,4692.88 c 0,-400.76 -324.85,-725.61 -725.61,-725.61 -400.73,0 -725.61,324.85 -725.61,725.61 0,400.75 324.88,725.6 725.61,725.6 400.76,0 725.61,-324.85 725.61,-725.6"
         style="fill:#52ad81;fill-opacity:1;fill-rule:nonzero;stroke:none"
         id="path104"
         inkscape:connector-curvature="0" /><path
         d="m 7193.88,4692.88 c 0,-400.76 -324.86,-725.61 -725.61,-725.61 -400.76,0 -725.61,324.85 -725.61,725.61 0,400.75 324.85,725.6 725.61,725.6 400.75,0 725.61,-324.85 725.61,-725.6"
         style="fill:#de9415;fill-opacity:1;fill-rule:nonzero;stroke:none"
         id="path106"
         inkscape:connector-curvature="0" /><path
         d="m 8980.15,4692.88 c 0,-400.76 -324.85,-725.61 -725.6,-725.61 -400.76,0 -725.61,324.85 -725.61,725.61 0,400.75 324.85,725.6 725.61,725.6 400.75,0 725.6,-324.85 725.6,-725.6"
         style="fill:#6b2e98;fill-opacity:1;fill-rule:nonzero;stroke:none"
         id="path108"
         inkscape:connector-curvature="0" /><path
         d="m 8980.15,2913.79 c 0,-400.73 -324.85,-725.61 -725.6,-725.61 -400.76,0 -725.61,324.88 -725.61,725.61 0,400.75 324.85,725.63 725.61,725.63 400.75,0 725.6,-324.88 725.6,-725.63"
         style="fill:#52ad81;fill-opacity:1;fill-rule:nonzero;stroke:none"
         id="path124"
         inkscape:connector-curvature="0" /><path
         d="m 3621.32,1134.73 c 0,-400.761 -324.86,-725.613 -725.6,-725.613 -400.74,0 -725.61,324.852 -725.61,725.613 0,400.72 324.87,725.6 725.61,725.6 400.74,0 725.6,-324.88 725.6,-725.6"
         style="fill:#52ad81;fill-opacity:1;fill-rule:nonzero;stroke:none"
         id="path134"
         inkscape:connector-curvature="0" /><path
         d="m 7193.88,1134.73 c 0,-400.761 -324.86,-725.613 -725.61,-725.613 -400.76,0 -725.61,324.852 -725.61,725.613 0,400.72 324.85,725.6 725.61,725.6 400.75,0 725.61,-324.88 725.61,-725.6"
         style="fill:#6b2e98;fill-opacity:1;fill-rule:nonzero;stroke:none"
         id="path138"
         inkscape:connector-curvature="0" /><path
         d="m 8705.18,13854.2 0,-531.4 c 0,-46.1 -37.14,-87.5 -83.33,-87.5 l -733.67,0 c -46.18,0 -83.74,41.4 -83.74,87.5 l 0,531.4 c 0,46.2 37.56,79.4 83.74,79.4 l 80.57,0 0,-48.2 c 0,-33 25.73,-60 58.68,-60 32.95,0 58.68,27 58.68,60 l 0,48.2 337.41,0 0,-48.2 c 0,-33 25.69,-60 58.7,-60 32.95,0 58.66,27 58.66,60 l 0,48.2 80.97,0 c 46.19,0 83.33,-33.2 83.33,-79.4"
         style="fill:#ffffff;fill-opacity:1;fill-rule:nonzero;stroke:none"
         id="path172"
         inkscape:connector-curvature="0" /><path
         d="m 7874.74,13313.9 760.551,0 0,378.48 -760.551,0 0,-378.48 z"
         style="fill:#6b2e98;fill-opacity:1;fill-rule:nonzero;stroke:none"
         id="path174"
         inkscape:connector-curvature="0" /><path
         d="m 7927.67,13521.8 112.605,0 0,112.598 -112.605,0 0,-112.598 z"
         style="fill:#ffffff;fill-opacity:1;fill-rule:nonzero;stroke:none"
         id="path176"
         inkscape:connector-curvature="0" /><path
         d="m 8108.38,13521.8 112.605,0 0,112.598 -112.605,0 0,-112.598 z"
         style="fill:#ffffff;fill-opacity:1;fill-rule:nonzero;stroke:none"
         id="path178"
         inkscape:connector-curvature="0" /><path
         d="m 8289.08,13521.8 112.578,0 0,112.598 -112.578,0 0,-112.598 z"
         style="fill:#ffffff;fill-opacity:1;fill-rule:nonzero;stroke:none"
         id="path180"
         inkscape:connector-curvature="0" /><path
         d="m 8469.75,13521.8 112.605,0 0,112.598 -112.605,0 0,-112.598 z"
         style="fill:#ffffff;fill-opacity:1;fill-rule:nonzero;stroke:none"
         id="path182"
         inkscape:connector-curvature="0" /><path
         d="m 7927.67,13362.7 112.605,0 0,112.598 -112.605,0 0,-112.598 z"
         style="fill:#ffffff;fill-opacity:1;fill-rule:nonzero;stroke:none"
         id="path184"
         inkscape:connector-curvature="0" /><path
         d="m 8108.38,13362.7 112.605,0 0,112.598 -112.605,0 0,-112.598 z"
         style="fill:#ffffff;fill-opacity:1;fill-rule:nonzero;stroke:none"
         id="path186"
         inkscape:connector-curvature="0" /><path
         d="m 8289.08,13362.7 112.578,0 0,112.598 -112.578,0 0,-112.598 z"
         style="fill:#ffffff;fill-opacity:1;fill-rule:nonzero;stroke:none"
         id="path188"
         inkscape:connector-curvature="0" /><path
         d="m 8469.75,13362.7 112.605,0 0,112.598 -112.605,0 0,-112.598 z"
         style="fill:#ffffff;fill-opacity:1;fill-rule:nonzero;stroke:none"
         id="path190"
         inkscape:connector-curvature="0" /><path
         d="m 8031,13853.8 -7.16,0 c -16.72,0 -30.36,13.7 -30.36,30.4 l 0,71 c 0,16.7 13.64,30.4 30.36,30.4 l 7.16,0 c 16.7,0 30.37,-13.7 30.37,-30.4 l 0,-71 c 0,-16.7 -13.67,-30.4 -30.37,-30.4"
         style="fill:#ffffff;fill-opacity:1;fill-rule:nonzero;stroke:none"
         id="path192"
         inkscape:connector-curvature="0" /><path
         d="m 8484.69,13853.8 -7.16,0 c -16.69,0 -30.37,13.7 -30.37,30.4 l 0,71 c 0,16.7 13.68,30.4 30.37,30.4 l 7.16,0 c 16.72,0 30.36,-13.7 30.36,-30.4 l 0,-71 c 0,-16.7 -13.64,-30.4 -30.36,-30.4"
         style="fill:#ffffff;fill-opacity:1;fill-rule:nonzero;stroke:none"
         id="path194"
         inkscape:connector-curvature="0" /><path
         d="m 6918.37,4896.73 0,-531.41 c 0,-46.18 -37.14,-87.55 -83.32,-87.55 l -733.68,0 c -46.18,0 -83.74,41.37 -83.74,87.55 l 0,531.41 c 0,46.18 37.56,79.33 83.74,79.33 l 80.57,0 0,-48.14 c 0,-33.01 25.73,-59.97 58.68,-59.97 32.95,0 58.68,26.96 58.68,59.97 l 0,48.14 337.41,0 0,-48.14 c 0,-33.01 25.7,-59.97 58.71,-59.97 32.95,0 58.65,26.96 58.65,59.97 l 0,48.14 80.98,0 c 46.18,0 83.32,-33.15 83.32,-79.33"
         style="fill:#ffffff;fill-opacity:1;fill-rule:nonzero;stroke:none"
         id="path196"
         inkscape:connector-curvature="0" /><path
         d="m 6087.93,4356.38 760.551,0 0,378.484 -760.551,0 0,-378.484 z"
         style="fill:#de9415;fill-opacity:1;fill-rule:nonzero;stroke:none"
         id="path198"
         inkscape:connector-curvature="0" /><path
         d="m 6244.49,4886.9 -9.71,0 c -22.59,0 -41.08,18.48 -41.08,41.08 l 0,96.17 c 0,22.6 18.49,41.08 41.08,41.08 l 9.71,0 c 22.59,0 41.08,-18.48 41.08,-41.08 l 0,-96.17 c 0,-22.6 -18.49,-41.08 -41.08,-41.08"
         style="fill:#ffffff;fill-opacity:1;fill-rule:nonzero;stroke:none"
         id="path200"
         inkscape:connector-curvature="0" /><path
         d="m 6700.17,4886.9 -9.68,0 c -22.62,0 -41.11,18.48 -41.11,41.08 l 0,96.17 c 0,22.6 18.49,41.08 41.11,41.08 l 9.68,0 c 22.59,0 41.11,-18.48 41.11,-41.08 l 0,-96.17 c 0,-22.6 -18.52,-41.08 -41.11,-41.08"
         style="fill:#ffffff;fill-opacity:1;fill-rule:nonzero;stroke:none"
         id="path202"
         inkscape:connector-curvature="0" /><path
         d="m 2882.06,14024.4 c 232.88,-0.6 421.62,-189.9 420.95,-422.2 -0.67,-232.9 -190.1,-421.7 -422.3,-421 -233.02,0.8 -421.54,189.9 -420.87,422.3 0.67,233 189.71,421.5 422.22,420.9"
         style="fill:#ffffff;fill-opacity:1;fill-rule:nonzero;stroke:none"
         id="path214"
         inkscape:connector-curvature="0" /><path
         d="m 2881.32,13956.5 c -194.92,-0.1 -352.72,-157.4 -353.64,-352.6 -0.91,-195.3 158.02,-354.7 353.72,-354.7 194.9,0 352.75,157.4 353.6,352.6 0.85,195.4 -158.09,354.8 -353.68,354.7"
         style="fill:#ce4620;fill-opacity:1;fill-rule:nonzero;stroke:none"
         id="path216"
         inkscape:connector-curvature="0" /><path
         d="m 3109.51,13728.2 c -60.5,-59.1 -121.03,-118.1 -182.6,-178.3 -8.93,14.4 -21.99,24.4 -12.27,44.6 7.61,15.9 -4.79,39.1 -22.13,40.7 -22.18,2.1 -24.73,18.1 -33.56,33.7 83.79,21.7 165.92,43 248.04,64.3 0.85,-1.7 1.67,-3.3 2.52,-5"
         style="fill:#ffffff;fill-opacity:1;fill-rule:nonzero;stroke:none"
         id="path218"
         inkscape:connector-curvature="0" /><path
         d="m 2653.01,13477.1 c 60.68,59.3 121.36,118.5 183.12,178.9 9.31,-15 21.25,-25.5 11.83,-45.5 -7.47,-15.8 5.49,-38.6 22.89,-40.3 22.19,-2.1 24.63,-18.1 32.52,-33.6 -83.59,-21.7 -165.69,-42.9 -247.78,-64.2 -0.86,1.6 -1.72,3.1 -2.58,4.7"
         style="fill:#ffffff;fill-opacity:1;fill-rule:nonzero;stroke:none"
         id="path220"
         inkscape:connector-curvature="0" /><path
         d="m 2881.42,13876.5 0,0 c -4.9,0 -8.91,4.1 -8.91,9 l 0,25.4 c 0,4.9 4.01,8.9 8.91,8.9 l 0,0 c 4.9,0 8.91,-4 8.91,-8.9 l 0,-25.4 c 0,-4.9 -4.01,-9 -8.91,-9"
         style="fill:#ffffff;fill-opacity:1;fill-rule:nonzero;stroke:none"
         id="path222"
         inkscape:connector-curvature="0" /><path
         d="m 3074.42,13794.4 0,0 c -3.46,3.4 -3.46,9.1 0,12.6 l 17.99,18 c 3.46,3.4 9.15,3.4 12.61,0 l 0,0 c 3.46,-3.5 3.46,-9.2 0,-12.6 l -18.01,-18 c -3.46,-3.5 -9.13,-3.5 -12.59,0"
         style="fill:#ffffff;fill-opacity:1;fill-rule:nonzero;stroke:none"
         id="path224"
         inkscape:connector-curvature="0" /><path
         d="m 3152.79,13599.8 0,0 c 0,4.9 3.99,8.9 8.89,8.9 l 25.46,0 c 4.91,0 8.9,-4 8.9,-8.9 l 0,0 c 0,-4.9 -3.99,-8.9 -8.9,-8.9 l -25.46,0 c -4.9,0 -8.89,4 -8.89,8.9"
         style="fill:#ffffff;fill-opacity:1;fill-rule:nonzero;stroke:none"
         id="path226"
         inkscape:connector-curvature="0" /><path
         d="m 3070.61,13406.8 0,0 c 3.46,3.5 9.12,3.5 12.59,0 l 18.01,-18 c 3.46,-3.5 3.46,-9.1 0,-12.6 l 0,0 c -3.46,-3.5 -9.16,-3.5 -12.62,0 l -17.98,18 c -3.47,3.5 -3.47,9.1 0,12.6"
         style="fill:#ffffff;fill-opacity:1;fill-rule:nonzero;stroke:none"
         id="path228"
         inkscape:connector-curvature="0" /><path
         d="m 2876.03,13328.4 0,0 c 4.9,0 8.91,-4 8.91,-8.9 l 0,-25.4 c 0,-4.9 -4.01,-8.9 -8.91,-8.9 l 0,0 c -4.9,0 -8.91,4 -8.91,8.9 l 0,25.4 c 0,4.9 4.01,8.9 8.91,8.9"
         style="fill:#ffffff;fill-opacity:1;fill-rule:nonzero;stroke:none"
         id="path230"
         inkscape:connector-curvature="0" /><path
         d="m 2683.03,13410.6 0,0 c 3.47,-3.5 3.47,-9.1 0,-12.6 l -17.99,-18 c -3.47,-3.5 -9.14,-3.5 -12.61,0 l 0,0 c -3.46,3.5 -3.46,9.1 0,12.6 l 18,18 c 3.46,3.5 9.13,3.5 12.6,0"
         style="fill:#ffffff;fill-opacity:1;fill-rule:nonzero;stroke:none"
         id="path232"
         inkscape:connector-curvature="0" /><path
         d="m 2604.67,13605.2 0,0 c 0,-4.9 -4.01,-8.9 -8.91,-8.9 l -25.45,0 c -4.9,0 -8.91,4 -8.91,8.9 l 0,0 c 0,4.9 4.01,8.9 8.91,8.9 l 25.45,0 c 4.9,0 8.91,-4 8.91,-8.9"
         style="fill:#ffffff;fill-opacity:1;fill-rule:nonzero;stroke:none"
         id="path234"
         inkscape:connector-curvature="0" /><path
         d="m 2686.84,13798.2 0,0 c -3.46,-3.5 -9.13,-3.5 -12.6,0 l -17.99,18 c -3.47,3.4 -3.47,9.1 0,12.6 l 0,0 c 3.46,3.4 9.13,3.4 12.6,0 l 17.99,-18 c 3.47,-3.5 3.47,-9.2 0,-12.6"
         style="fill:#ffffff;fill-opacity:1;fill-rule:nonzero;stroke:none"
         id="path236"
         inkscape:connector-curvature="0" /><path
         d="m 4519.89,12246.5 c 24.26,-9.2 33.94,-29.6 39.22,-52.6 10.51,-45.9 20.43,-92 30.31,-138 1.5,-7 1.91,-14.3 2.03,-21.4 0.32,-22.1 -10.01,-37 -30.84,-44.5 -14.52,-5.2 -29.16,-10.2 -43.92,-14.7 -14.32,-4.3 -22.24,-14.2 -25.65,-28 -4.51,-18.5 -3.96,-36.8 2.29,-55.1 35.42,-103.8 96.8,-189.8 179.51,-260.9 16.81,-14.4 35.85,-26.6 54.98,-37.9 12.14,-7.3 26.76,-8.8 41.13,-7.3 10.27,1 18.69,5.6 24.71,14.4 8.09,11.9 16.52,23.5 24.7,35.3 16.58,24 35.89,30.3 62.96,18.7 14.64,-6.2 28.5,-14.4 42.52,-22 26.41,-14.4 52.72,-28.9 79.01,-43.6 6.72,-3.7 13.32,-7.7 19.75,-12 17.66,-11.7 31.83,-25.9 33.68,-48.6 -0.85,-5.8 -1.7,-11.6 -2.52,-17.4 -5.81,-13.3 -10.62,-27.2 -17.61,-39.8 -31.04,-56.1 -77.98,-90.3 -141.94,-99.5 -12.77,-1.8 -25.88,-1.3 -38.82,-1.8 -10.03,1.4 -20.07,2.9 -30.1,4.4 -11.91,3.6 -24,6.9 -35.74,11.1 -58.89,21.3 -108.65,57.1 -154.94,98.2 -55.48,49.2 -103.57,105.2 -148.17,164.2 -54.66,72.3 -104.19,147.7 -140.01,231.4 -19.92,46.5 -34.98,94.4 -38.79,145.2 -1.11,14.8 -0.79,29.7 -1.11,44.5 1.43,10 2.9,20.1 4.34,30.1 0.85,2.2 1.88,4.4 2.49,6.7 19.78,73.3 68.01,117.9 140.45,136.9 15.7,4.1 32.39,4.5 48.65,6.6 5.81,-0.9 11.62,-1.7 17.43,-2.6"
         style="fill:#ffffff;fill-opacity:1;fill-rule:nonzero;stroke:none"
         id="path240"
         inkscape:connector-curvature="0" /><path
         d="m 1020.44,5152.31 c 19.47,-17.13 21.4,-39.64 18.26,-63.08 -6.25,-46.68 -13.09,-93.27 -19.98,-139.87 -1.04,-7.07 -3.21,-14.02 -5.61,-20.77 -7.43,-20.74 -22.34,-31.13 -44.462,-30.83 -15.437,0.2 -30.89,0.64 -46.296,1.64 -14.922,0.97 -25.813,-5.52 -33.821,-17.25 -10.726,-15.73 -16.605,-33.04 -17.172,-52.38 -3.214,-109.61 24.114,-211.68 76.668,-307.22 10.688,-19.42 24.266,-37.49 38.18,-54.86 8.852,-11.03 22.013,-17.57 35.983,-21.21 10,-2.64 19.47,-1.32 28.17,4.81 11.76,8.27 23.73,16.23 35.54,24.44 23.93,16.63 44.21,15.73 65.53,-4.58 11.52,-10.97 21.64,-23.44 32.1,-35.5 19.7,-22.74 39.23,-45.59 58.71,-68.51 5,-5.87 9.78,-11.94 14.3,-18.19 12.42,-17.16 20.71,-35.44 14.48,-57.33 -2.82,-5.16 -5.65,-10.3 -8.47,-15.43 -10.1,-10.42 -19.45,-21.71 -30.42,-31.1 -48.76,-41.66 -104.7,-57.21 -167.81,-43.39 -12.6,2.78 -24.68,7.86 -37,11.88 -8.89,4.9 -17.77,9.77 -26.66,14.64 -9.867,7.66 -20.047,14.93 -29.555,23 -47.695,40.55 -81.75,91.51 -110.707,146.23 -34.695,65.55 -60.125,134.82 -81.214,205.73 -25.825,86.88 -45.762,174.9 -50.004,265.82 -2.36,50.53 0.336,100.67 14.558,149.55 4.141,14.26 9.672,28.08 14.567,42.1 4.879,8.89 9.754,17.78 14.633,26.67 1.566,1.76 3.292,3.43 4.667,5.34 44.235,61.82 105.02,86.58 179.516,79.02 16.164,-1.65 31.934,-7.16 47.879,-10.92 5.15,-2.82 10.29,-5.63 15.44,-8.45"
         style="fill:#ffffff;fill-opacity:1;fill-rule:nonzero;stroke:none"
         id="path242"
         inkscape:connector-curvature="0" /><path
         d="m 7852.82,11836.5 c 0,174 179.86,315 401.73,315 221.86,0 401.72,-141 401.72,-315 0,-158.7 -149.78,-289.9 -344.51,-311.7 l 89.72,-158.5 -171.82,155.9 c -210.25,10.1 -376.84,146.9 -376.84,314.3"
         style="fill:#ffffff;fill-opacity:1;fill-rule:nonzero;stroke:none"
         id="path296"
         inkscape:connector-curvature="0" /><path
         d="m 8359.29,11838.6 c 0,-25.8 20.92,-46.7 46.74,-46.7 25.82,0 46.74,20.9 46.74,46.7 0,25.8 -20.92,46.7 -46.74,46.7 -25.82,0 -46.74,-20.9 -46.74,-46.7"
         style="fill:#52ad81;fill-opacity:1;fill-rule:nonzero;stroke:none"
         id="path298"
         inkscape:connector-curvature="0" /><path
         d="m 8207.81,11838.6 c 0,-25.8 20.92,-46.7 46.74,-46.7 25.81,0 46.74,20.9 46.74,46.7 0,25.8 -20.93,46.7 -46.74,46.7 -25.82,0 -46.74,-20.9 -46.74,-46.7"
         style="fill:#52ad81;fill-opacity:1;fill-rule:nonzero;stroke:none"
         id="path300"
         inkscape:connector-curvature="0" /><path
         d="m 8056.32,11838.6 c 0,-25.8 20.92,-46.7 46.74,-46.7 25.79,0 46.74,20.9 46.74,46.7 0,25.8 -20.95,46.7 -46.74,46.7 -25.82,0 -46.74,-20.9 -46.74,-46.7"
         style="fill:#52ad81;fill-opacity:1;fill-rule:nonzero;stroke:none"
         id="path302"
         inkscape:connector-curvature="0" /><path
         d="m 9599.79,13634.2 c 7.12,8.4 13.7,17.5 21.47,25 55.1,53 110.44,105.8 165.74,158.6 42.34,40.4 84.82,80.6 127.19,121 28.14,26.7 56.01,53.9 84.33,80.5 24.98,23.3 59.98,23.2 84.98,-0.4 42.8,-40.6 85.3,-81.6 128,-122.5 0.8,-0.8 1.8,-1.4 3.9,-3 0.3,3.8 0.6,6.6 0.6,9.3 0,35.3 0,70.5 0.1,105.8 0,20 5.4,26.2 22.6,26.2 31.7,0 63.4,0 95.1,0 16.2,0 22,-6.7 22,-25.4 0,-80.5 0.1,-160.9 -0.1,-241.4 0,-6.6 1.8,-11 6.1,-15.1 36.2,-34.1 72.4,-68.4 108.3,-102.9 4.5,-4.4 7.9,-10.4 11.7,-15.7 0,-3.7 0,-7.5 0,-11.3 -11.5,-16.2 -22.9,-32.5 -34.5,-48.6 -10,-13.8 -19,-15.1 -31.3,-3.4 -32.9,31.2 -65.5,62.7 -98.3,94 -28.8,27.6 -57.7,55 -86.5,82.6 -29.7,28.4 -59.5,56.7 -89.2,85.2 -32.1,30.6 -64.1,61.3 -96,92.1 -3.8,3.6 -6.4,3.7 -10.3,0 -29.2,-28.3 -58.52,-56.4 -87.86,-84.4 -29.19,-27.9 -58.41,-55.8 -87.61,-83.6 -29.36,-28.1 -58.73,-56.1 -88.1,-84.2 -32.77,-31.3 -65.55,-62.6 -98.32,-93.9 -3.79,-3.6 -7.45,-7.4 -11.47,-10.7 -9.21,-7.5 -17.64,-6.9 -25.03,2.9 -12.85,17 -25.06,34.6 -37.52,52 0,3.8 0,7.6 0,11.3"
         style="fill:#ffffff;fill-opacity:1;fill-rule:nonzero;stroke:none"
         id="path304"
         inkscape:connector-curvature="0" /><path
         d="m 10110.8,13232.7 c 0,80.1 0,159.6 0,239.7 -3.1,0.2 -5.4,0.4 -7.7,0.4 -41.5,0 -83.1,-0.1 -124.65,0.2 -6.22,0.1 -7.93,-1.9 -7.9,-9 0.24,-73.5 0.15,-147 0.15,-220.5 0,-3.4 0,-6.9 0,-11.4 -3.29,0 -5.78,0 -8.27,0 -65.78,0 -131.54,0 -197.29,0 -25.35,0 -39.28,15.8 -39.31,44.8 -0.06,96.7 0.03,193.4 -0.15,290 -0.03,7.3 2.32,11.7 7.13,16.2 48.62,45.6 97,91.6 145.5,137.4 42.69,40.3 85.47,80.6 128.19,120.9 11.4,10.7 22.6,21.6 34.3,32.7 17.2,-16.3 34,-32.2 50.8,-48 49.1,-46.3 98.1,-92.6 147.2,-139 37.6,-35.5 75.2,-71 112.7,-106.8 2.3,-2.2 4.1,-6.8 4.1,-10.2 0.2,-99.1 0.3,-198.2 0.1,-297.3 -0.1,-23.9 -14.4,-40.5 -35.1,-40.6 -68.5,-0.3 -137.1,-0.1 -205.7,-0.1 -0.9,0 -1.8,0.3 -4.1,0.6"
         style="fill:#ffffff;fill-opacity:1;fill-rule:nonzero;stroke:none"
         id="path306"
         inkscape:connector-curvature="0" /><path
         d="m 1461.79,10078 c 0,-194.55 -352.34,-514.33 -352.34,-514.33 0,0 -352.345,319.78 -352.345,514.33 0,194.6 157.75,352.4 352.345,352.4 194.59,0 352.34,-157.8 352.34,-352.4"
         style="fill:#ffffff;fill-opacity:1;fill-rule:nonzero;stroke:none"
         id="path356"
         inkscape:connector-curvature="0" /><path
         d="m 1361.57,10092.2 c 0,-139.25 -112.88,-252.12 -252.12,-252.12 -139.243,0 -252.122,112.87 -252.122,252.12 0,139.2 112.879,252.1 252.122,252.1 139.24,0 252.12,-112.9 252.12,-252.1"
         style="fill:#ce4620;fill-opacity:1;fill-rule:nonzero;stroke:none"
         id="path358"
         inkscape:connector-curvature="0" /><path
         d="m 6258.75,4411.62 0,37.94 34.65,31.33 c 58.53,52.38 86.99,82.48 87.81,113.81 0,21.83 -13.2,39.17 -44.12,39.17 -23.09,0 -43.28,-11.56 -57.3,-22.27 l -17.72,44.95 c 20.18,15.26 51.52,27.61 87.81,27.61 60.62,0 94.01,-35.44 94.01,-84.12 0,-44.95 -32.57,-80.8 -71.33,-115.45 l -24.73,-20.6 0,-0.82 101.01,0 0,-51.55 -190.09,0"
         style="fill:#ffffff;fill-opacity:1;fill-rule:nonzero;stroke:none"
         id="path426"
         inkscape:connector-curvature="0" /><path
         d="m 6666.55,4628.09 -103.92,0 -5.79,-41.22 c 5.79,0.82 10.74,0.82 17.34,0.82 25.56,0 51.53,-5.78 70.51,-19.39 20.19,-13.62 32.57,-35.85 32.57,-67.19 0,-49.91 -42.9,-94.04 -115.05,-94.04 -32.56,0 -59.79,7.43 -74.64,15.26 l 11.15,47 c 11.94,-5.75 36.3,-13.17 60.62,-13.17 25.96,0 53.6,12.35 53.6,40.81 0,27.61 -21.85,44.54 -75.46,44.54 -14.85,0 -25.14,-0.82 -36.29,-2.49 l 17.72,140.62 147.64,0 0,-51.55"
         style="fill:#ffffff;fill-opacity:1;fill-rule:nonzero;stroke:none"
         id="path428"
         inkscape:connector-curvature="0" /><path
         d="m 4705.64,9481.28 -53.17,0 c -116.39,0 -211.63,95.21 -211.63,211.6 l 0,228.18 476.43,0 0,-228.18 c 0,-116.39 -95.24,-211.6 -211.63,-211.6"
         style="fill:#ffffff;fill-opacity:1;fill-rule:nonzero;stroke:none"
         id="path430"
         inkscape:connector-curvature="0" /><path
         d="m 4710.86,10295.4 -19.4,0 0,-62.7 c 14.68,-4.6 35.22,-24.5 35.22,-48.2 l 0,-139.9 c 0,-23.8 -20.54,-43.7 -35.22,-48.28 l 0,-61.8 228.86,0 0,154.38 c 0,113.5 -95.94,206.5 -209.46,206.5 z m -63.61,0 c -113.52,0 -205.17,-93 -205.17,-206.5 l 0,-154.38 228.85,0 0,61.36 c -26.41,3.57 -41.08,24.02 -41.08,48.72 l 0,139.9 c 0,24.6 14.67,45.1 41.08,48.6 l 0,62.3 -23.68,0 z m -17.4,-264.1 0,143.8"
         style="fill:#ffffff;fill-opacity:1;fill-rule:nonzero;stroke:none"
         id="path432"
         inkscape:connector-curvature="0" /><path
         d="m 4712,10184.5 0,-139.9 c 0,-2.8 0.33,-5.4 -0.26,-8 -0.15,-0.6 0.03,-1.1 -0.12,-1.7 -0.17,-0.5 -0.17,-1.1 -0.35,-1.6 -0.09,-0.3 -0.12,-0.5 -0.2,-0.8 -0.21,-0.6 -0.39,-1.1 -0.59,-1.6 -0.12,-0.3 -0.21,-0.5 -0.32,-0.8 -0.24,-0.5 -0.5,-1 -0.74,-1.5 -0.64,-1.3 -1.38,-2.5 -2.17,-3.7 -0.61,-0.9 -1.29,-1.8 -1.99,-2.6 -0.38,-0.5 -0.74,-0.9 -1.12,-1.3 -4.28,-4.7 -9.83,-8.3 -16.1,-10.1 -3.15,-0.9 -6.46,-1.4 -9.86,-1.4 -2.56,0 -4.29,0.3 -6.66,0.8 -15.85,3.4 -27,17.4 -27,34.3 l 0,139.9 c 0,16.8 11.15,30.9 27,34.2 2.37,0.5 4.48,0.8 7.01,0.8 3.43,0 6.54,-0.5 9.68,-1.4 6.28,-1.8 11.74,-5.3 16.02,-10.1 0.38,-0.4 0.7,-0.8 1.06,-1.2 0.73,-0.9 1.37,-1.8 1.99,-2.7 0.79,-1.2 1.5,-2.4 2.14,-3.7 0.27,-0.5 0.5,-1 0.74,-1.5 0.11,-0.3 0.23,-0.5 0.35,-0.8 0.23,-0.5 0.44,-1 0.62,-1.6 0.11,-0.2 0.2,-0.5 0.29,-0.8 0.17,-0.5 0.35,-1.1 0.53,-1.6 0.14,-0.6 -0.36,-1.1 -0.21,-1.7 0.59,-2.6 0.26,-5.2 0.26,-7.9"
         style="fill:#ffffff;fill-opacity:1;fill-rule:nonzero;stroke:none"
         id="path434"
         inkscape:connector-curvature="0" /><path
         d="m 4656.14,10294.6 c 0,0 32.57,66.1 22.8,117.7 l -10.3,38.5 c -1.61,5.9 -3.52,11.8 -5.69,17.6 l -14.38,37.8 c -0.97,3 -2.02,6 -3.25,8.9 -6.75,16.1 -7.96,40.7 -3.18,60.4 3.79,15.5 13,31.6 27.32,43.6 1.47,1.2 4.99,4.2 6.4,5.5 5.89,5.3 22.56,18.7 47.27,22.6 l 17.25,-26.9 c 0,0 -54.67,-7.8 -61.97,-58.2 -2.08,-14.2 -0.03,-28.6 5.61,-42.2 10.35,-25.2 34.29,-85.8 37.61,-116.1 0,0 8.12,-51.1 -23.36,-109.2 l -42.13,0"
         style="fill:#ffffff;fill-opacity:1;fill-rule:nonzero;stroke:none"
         id="path436"
         inkscape:connector-curvature="0" /><path
         d="m 8675.84,10090 0,-290.32 c 0,-40.93 -30.16,-73.47 -71.12,-73.47 l -699.26,0 c -40.96,0 -71.68,32.54 -71.68,73.47 l 0,290.32 373.24,0 c -7.22,-11.7 -13.27,-21.4 -18.08,-32.8 -5.84,-13.8 -9.68,-28.5 -11.53,-43.3 -0.82,-6.6 -1.23,-13.6 -1.23,-20.46 0,-8.92 0.7,-17.81 2.11,-26.46 0.21,-1.32 0.44,-2.7 0.71,-4.03 0.11,-0.67 -0.89,-1.34 -0.74,-2.02 0.79,-3.96 1.73,-7.89 1.73,-11.79 l 0,0 c 0,-1.3 1.85,-2.59 2.26,-3.88 0.41,-1.29 1.38,-2.58 1.82,-3.84 1.29,-3.84 3.2,-6.9 4.78,-10.65 2.56,-6.04 6.34,-13.85 9.22,-16.78 l -0.03,0 c 1.43,-5.87 3.11,-6.34 4.9,-9.07 2.14,-3.26 2.99,-6.81 5.36,-9.92 0.8,-1.02 1.03,-2.29 1.03,-3.28 l 0,-0.09 c 0,-1.03 5.87,-2.06 5.87,-3.05 l 0,-0.03 c 0,-1 0,-2 0,-2.96 l 0,0 c 2.93,-1.47 3.67,-2.94 5.02,-4.35 0.91,-0.97 3.78,-1.9 3.78,-2.84 l 0,0 c 0,-2.32 4.58,-4.58 7.02,-6.75 1.46,-1.29 2.9,-2.55 4.39,-3.81 1.03,-0.83 2,-1.65 3.03,-2.44 1.02,-0.82 2.02,-1.61 3.08,-2.38 0.53,-0.41 1.03,-0.79 1.55,-1.17 6.31,-4.58 12.94,-8.71 19.87,-12.35 0.55,-0.3 1.14,-0.62 1.73,-0.91 1.14,-0.59 2.31,-1.18 3.49,-1.73 2.38,-1.15 4.75,-2.2 7.16,-3.23 20.07,-8.48 41.31,-12.79 63.23,-12.79 21.88,0 43.15,4.31 63.2,12.79 19.36,8.19 36.7,19.89 51.6,34.77 14.91,14.9 26.61,32.27 34.8,51.61 8.48,20.04 12.76,41.31 12.76,63.22 0,21.87 -4.28,43.97 -12.76,63.97 -4.84,11.4 -10.88,21.1 -18.07,32.8 l 205.76,0"
         style="fill:#ffffff;fill-opacity:1;fill-rule:nonzero;stroke:none"
         id="path438"
         inkscape:connector-curvature="0" /><path
         d="m 8675.84,10202.5 0,-94.9 -218.64,0 c -1.27,0 -2.52,0.9 -3.85,2.2 -14.9,14.9 -32.24,25.7 -51.6,33.9 -20.05,8.5 -41.32,12.3 -63.2,12.3 -21.92,0 -43.19,-4.5 -63.23,-13 -19.34,-8.1 -36.71,-18.2 -51.58,-33.1 -1.32,-1.3 -2.58,-2.3 -3.85,-2.3 l -386.11,0 0,94.9 c 0,39.4 29.17,72.4 68.54,72.4 l 705.54,0 c 39.37,0 67.98,-33 67.98,-72.4"
         style="fill:#ffffff;fill-opacity:1;fill-rule:nonzero;stroke:none"
         id="path440"
         inkscape:connector-curvature="0" /><path
         d="m 8459.69,9992.79 c 0,-3.16 -0.12,-6.27 -0.35,-9.36 -3.96,-52.13 -40.7,-95.12 -89.7,-108.38 -1.43,-0.38 -2.9,-0.76 -4.37,-1.11 -0.99,-0.21 -1.99,-0.44 -2.96,-0.65 -1,-0.2 -1.99,-0.38 -2.99,-0.56 -4.52,-0.82 -9.1,-1.37 -13.76,-1.67 -1.03,-0.06 -2.08,-0.11 -3.14,-0.15 -1.56,-0.05 -3.11,-0.08 -4.7,-0.08 -64.22,0 -116.83,49.61 -121.64,112.6 -0.23,3.09 -0.35,6.23 -0.35,9.39 0,3 0.12,5.96 0.32,8.88 1.24,17.2 6.02,33.3 13.65,47.8 0.26,0.5 0.41,1 0.7,1.5 0.79,1.5 2.4,3 2.4,4.4 l 0,0 c 0,1.4 1.85,2.9 2.79,4.3 0.59,0.9 1.26,1.8 1.91,2.7 6.72,9.7 14.82,18.3 23.97,25.7 7.72,6.1 16.19,11.4 25.26,15.6 15.49,7.1 32.77,11.1 50.99,11.1 18.19,0 35.48,-4 50.97,-11.1 1.14,-0.6 2.26,-1.1 3.37,-1.6 7.81,-3.9 15.14,-8.6 21.86,-14 0.03,-0.1 0.06,-0.1 0.09,-0.1 9.12,-7.3 17.16,-15.9 23.88,-25.6 0.62,-0.9 0.59,-1.8 1.2,-2.7 0.94,-1.4 2.03,-2.9 2.03,-4.3 l 0,0 c 5.87,-1.4 2.38,-2.9 3.17,-4.4 0.26,-0.5 0.88,-1 1.14,-1.5 7.6,-14.5 12.56,-30.6 13.79,-47.8 0.21,-2.92 0.47,-5.91 0.47,-8.91"
         style="fill:#ffffff;fill-opacity:1;fill-rule:nonzero;stroke:none"
         id="path442"
         inkscape:connector-curvature="0" /><path
         d="m 8413.92,10089.1 c -6.72,5.4 -14.05,10.6 -21.86,14.5 7.81,-3.9 15.14,-10.6 21.86,-13.6 l 0.09,0 c -0.03,0 -0.06,-0.9 -0.09,-0.9"
         style="fill:#ffffff;fill-opacity:1;fill-rule:nonzero;stroke:none"
         id="path444"
         inkscape:connector-curvature="0" /><path
         d="m 8172.3,10336.5 -185.31,0 -92.68,-91 370.68,0 -92.69,91"
         style="fill:#ffffff;fill-opacity:1;fill-rule:nonzero;stroke:none"
         id="path446"
         inkscape:connector-curvature="0" /><path
         d="m 7920.77,10032.2 c 0,-12.6 -10.15,-22.7 -22.65,-22.7 -12.49,0 -22.65,10.1 -22.65,22.7 0,12.5 10.16,22.6 22.65,22.6 12.5,0 22.65,-10.1 22.65,-22.6"
         style="fill:#44949b;fill-opacity:1;fill-rule:nonzero;stroke:none"
         id="path448"
         inkscape:connector-curvature="0" /><path
         d="m 10461,10220.8 c 0,9.7 -8.8,17.7 -19.4,17.7 l -794.87,0 c -10.98,0 -19.98,-8.2 -19.98,-18.2 l 0,-127.5 834.25,0 0,128"
         style="fill:#ffffff;fill-opacity:1;fill-rule:nonzero;stroke:none"
         id="path460"
         inkscape:connector-curvature="0" /><path
         d="m 9626.75,10061.3 0,-297.89 c 0,-42.33 37.14,-76.96 82.5,-76.96 l 669.85,0 c 45,0 81.9,34.39 81.9,76.44 l 0,298.41 -834.25,0"
         style="fill:#ffffff;fill-opacity:1;fill-rule:nonzero;stroke:none"
         id="path462"
         inkscape:connector-curvature="0" /><path
         d="m 9884.77,10260.2 c 11.79,64.5 79.89,114.8 162.13,114.8 82.3,0 150.4,-50.3 162.2,-114.8 l -324.33,0 z m 158.73,169.6 c -115.9,0 -211.84,-87.4 -228.45,-178.4 l 456.85,0 c -16.7,91 -112.6,178.4 -228.4,178.4"
         style="fill:#ffffff;fill-opacity:1;fill-rule:nonzero;stroke:none"
         id="path464"
         inkscape:connector-curvature="0" /><path
         d="m 9796.92,9859.62 -15.67,0 c -13.32,0 -24.26,10.92 -24.26,24.24 l 0,108.73 c 0,13.31 10.94,24.31 24.26,24.31 l 15.67,0 c 13.35,0 24.26,-11 24.26,-24.31 l 0,-108.73 c 0,-13.32 -10.91,-24.24 -24.26,-24.24"
         style="fill:#ce4620;fill-opacity:1;fill-rule:nonzero;stroke:none"
         id="path466"
         inkscape:connector-curvature="0" /><path
         d="m 10306.5,9859.62 -15.7,0 c -13.3,0 -24.2,10.92 -24.2,24.24 l 0,108.73 c 0,13.31 10.9,24.31 24.2,24.31 l 15.7,0 c 13.3,0 24.2,-11 24.2,-24.31 l 0,-108.73 c 0,-13.32 -10.9,-24.24 -24.2,-24.24"
         style="fill:#ce4620;fill-opacity:1;fill-rule:nonzero;stroke:none"
         id="path468"
         inkscape:connector-curvature="0" /><path
         d="m 1025.27,8387.84 c -0.3,35.64 -0.86,70.59 -0.57,106.21 0.31,38.43 24.4,70.36 60.07,81.48 35.53,11.09 73.77,-1.94 95.77,-32.57 9.75,-13.62 15.6,-28.93 15.55,-45.74 -0.13,-43.19 -0.76,-85.03 -1.2,-128.19 -0.01,-0.82 -0.22,-1.58 -0.41,-1.58 l 130.08,0 c -0.13,0 -0.32,3.05 -0.31,5.1 0.2,38.56 0.44,76.43 0.62,114.99 0.32,68.77 -24.87,125.86 -77.42,170.49 -30.68,26.05 -66.47,40.31 -106.47,45.89 -6.81,0.97 -13.64,1.26 -20.46,1.26 -6.71,0 -13.41,0 -20.12,0 -6.41,0 -12.85,-0.27 -19.21,-1.32 -87.569,-14.56 -145.67,-63.79 -175.155,-147.02 -8.023,-22.66 -10.133,-46.27 -9.996,-70.27 0.215,-38.59 0.426,-75.61 0.637,-114.16 0.012,-1.94 0.004,-4.96 0.004,-4.96 l 129.57,0 c -0.35,2.73 -0.92,13.29 -0.98,20.39"
         style="fill:#ffffff;fill-opacity:1;fill-rule:nonzero;stroke:none"
         id="path562"
         inkscape:connector-curvature="0" /><path
         d="m 1429.34,8293.1 c 0,61.44 -49.82,111.26 -111.27,111.26 l -417.242,0 c -61.453,0 -111.269,-49.82 -111.269,-111.26 l 0,-354.11 c 0,-61.46 49.816,-111.28 111.269,-111.28 l 417.242,0 c 61.45,0 111.27,49.82 111.27,111.28 l 0,354.11"
         style="fill:#ffffff;fill-opacity:1;fill-rule:nonzero;stroke:none"
         id="path564"
         inkscape:connector-curvature="0" /><path
         d="m 1155.75,8077.8 0,-119.76 c 0,-24.53 -19.68,-44.57 -44.2,-44.57 -24.51,0 -44.19,20.04 -44.19,44.57 l 0,119.76 c -33.68,16.37 -56.98,50.11 -56.98,89.11 0,55.01 43.65,99.61 98.67,99.61 55.02,0 100.69,-44.6 100.69,-99.61 0,-39 -24.53,-72.74 -53.99,-89.11"
         style="fill:#6b2e98;fill-opacity:1;fill-rule:nonzero;stroke:none"
         id="path566"
         inkscape:connector-curvature="0" /><path
         d="m 12264.8,8246.71 c 0,-240.35 -194.9,-435.2 -435.2,-435.2 -240.3,0 -435.2,194.85 -435.2,435.2 0,240.33 194.9,435.17 435.2,435.17 240.3,0 435.2,-194.84 435.2,-435.17"
         style="fill:#ffffff;fill-opacity:1;fill-rule:nonzero;stroke:none"
         id="path618"
         inkscape:connector-curvature="0" /><path
         d="m 12174.6,8246.71 c 0,-190.56 -154.4,-345.01 -345,-345.01 -190.5,0 -345,154.45 -345,345.01 0,190.54 154.5,345.01 345,345.01 190.6,0 345,-154.47 345,-345.01"
         style="fill:#44949b;fill-opacity:1;fill-rule:nonzero;stroke:none"
         id="path620"
         inkscape:connector-curvature="0" /><path
         d="m 11867.4,8246.71 187.5,181.7 -217.6,-146.49 30.1,-35.21"
         style="fill:#ffffff;fill-opacity:1;fill-rule:nonzero;stroke:none"
         id="path622"
         inkscape:connector-curvature="0" /><path
         d="m 11789.5,8239.05 -116,97.38 142.1,-57.97 -26.1,-39.41"
         style="fill:#ffffff;fill-opacity:1;fill-rule:nonzero;stroke:none"
         id="path624"
         inkscape:connector-curvature="0" /><path
         d="m 12012.9,8054.09 -170.6,166.89 4.3,4.46 170.7,-166.89 -4.4,-4.46"
         style="fill:#ffffff;fill-opacity:1;fill-rule:nonzero;stroke:none"
         id="path626"
         inkscape:connector-curvature="0" /><path
         d="m 11825.1,8556.39 14.023,0 0,35.3281 -14.023,0 0,-35.3281 z"
         style="fill:#ffffff;fill-opacity:1;fill-rule:nonzero;stroke:none"
         id="path628"
         inkscape:connector-curvature="0" /><path
         d="m 11989.3,8525.38 -5.5,3.2 12.1,20.89 5.5,-3.17 -12.1,-20.92"
         style="fill:#ffffff;fill-opacity:1;fill-rule:nonzero;stroke:none"
         id="path630"
         inkscape:connector-curvature="0" /><path
         d="m 12107.4,8407.93 -3.2,5.52 20.9,12.03 3.2,-5.52 -20.9,-12.03"
         style="fill:#ffffff;fill-opacity:1;fill-rule:nonzero;stroke:none"
         id="path632"
         inkscape:connector-curvature="0" /><path
         d="m 12107.6,8086.43 3.2,5.48 20.9,-12.11 -3.2,-5.52 -20.9,12.15"
         style="fill:#ffffff;fill-opacity:1;fill-rule:nonzero;stroke:none"
         id="path634"
         inkscape:connector-curvature="0" /><path
         d="m 11990.1,7968.66 5.5,3.16 11.9,-20.94 -5.5,-3.17 -11.9,20.95"
         style="fill:#ffffff;fill-opacity:1;fill-rule:nonzero;stroke:none"
         id="path636"
         inkscape:connector-curvature="0" /><path
         d="m 11668.5,7968.86 5.5,-3.23 -12.2,-20.83 -5.5,3.2 12.2,20.86"
         style="fill:#ffffff;fill-opacity:1;fill-rule:nonzero;stroke:none"
         id="path638"
         inkscape:connector-curvature="0" /><path
         d="m 11551.1,8086.96 3.1,-5.55 -20.9,-11.91 -3.2,5.51 21,11.95"
         style="fill:#ffffff;fill-opacity:1;fill-rule:nonzero;stroke:none"
         id="path640"
         inkscape:connector-curvature="0" /><path
         d="m 11552.3,8408.49 -3.3,-5.48 -20.8,12.26 3.3,5.49 20.8,-12.27"
         style="fill:#ffffff;fill-opacity:1;fill-rule:nonzero;stroke:none"
         id="path642"
         inkscape:connector-curvature="0" /><path
         d="m 11670.7,8525.44 -5.6,-3.14 -11.8,21.04 5.5,3.14 11.9,-21.04"
         style="fill:#ffffff;fill-opacity:1;fill-rule:nonzero;stroke:none"
         id="path644"
         inkscape:connector-curvature="0" /><path
         d="m 11825.1,7901.7 14.023,0 0,35.2969 -14.023,0 0,-35.2969 z"
         style="fill:#ffffff;fill-opacity:1;fill-rule:nonzero;stroke:none"
         id="path646"
         inkscape:connector-curvature="0" /><path
         d="m 12139.3,8239.7 35.297,0 0,13.9961 -35.297,0 0,-13.9961 z"
         style="fill:#ffffff;fill-opacity:1;fill-rule:nonzero;stroke:none"
         id="path648"
         inkscape:connector-curvature="0" /><path
         d="m 11484.6,8239.7 35.324,0 0,13.9961 -35.324,0 0,-13.9961 z"
         style="fill:#ffffff;fill-opacity:1;fill-rule:nonzero;stroke:none"
         id="path650"
         inkscape:connector-curvature="0" /><path
         d="m 11869.3,8246.71 c 0,-21.94 -17.8,-39.73 -39.7,-39.73 -21.9,0 -39.7,17.79 -39.7,39.73 0,21.92 17.8,39.7 39.7,39.7 21.9,0 39.7,-17.78 39.7,-39.7"
         style="fill:#ffffff;fill-opacity:1;fill-rule:nonzero;stroke:none"
         id="path652"
         inkscape:connector-curvature="0" /><path
         d="m 11856.4,8246.71 c 0,-14.78 -12,-26.76 -26.8,-26.76 -14.8,0 -26.7,11.98 -26.7,26.76 0,14.76 11.9,26.73 26.7,26.73 14.8,0 26.8,-11.97 26.8,-26.73"
         style="fill:#ffffff;fill-opacity:1;fill-rule:nonzero;stroke:none"
         id="path654"
         inkscape:connector-curvature="0" /><path
         d="m 1343.21,4597.9 163.78,94.53 c 21.52,12.41 21.52,32.75 0.01,45.19 l -163.76,94.56 c -21.51,12.44 -39.12,2.26 -39.12,-22.59 l -0.01,-28.96 -172.14,0.03 c -36.22,0 -65.58,-29.37 -65.58,-65.57 0,-36.21 29.35,-65.58 65.56,-65.58 l 172.14,-0.03 0,-28.99 c -0.01,-24.82 17.6,-35 39.12,-22.59"
         style="fill:#ffffff;fill-opacity:1;fill-rule:nonzero;stroke:none"
         id="path668"
         inkscape:connector-curvature="0" /><path
         d="m 4594.5,5152.31 c 19.45,-17.13 21.39,-39.64 18.25,-63.08 -6.25,-46.68 -13.09,-93.27 -19.98,-139.87 -1.03,-7.07 -3.2,-14.02 -5.61,-20.77 -7.42,-20.74 -22.36,-31.13 -44.48,-30.83 -15.43,0.2 -30.86,0.64 -46.27,1.64 -14.93,0.97 -25.82,-5.52 -33.82,-17.25 -10.74,-15.73 -16.61,-33.04 -17.2,-52.38 -3.19,-109.61 24.12,-211.68 76.7,-307.22 10.68,-19.42 24.26,-37.49 38.17,-54.86 8.86,-11.03 22,-17.57 35.97,-21.21 10,-2.64 19.48,-1.32 28.16,4.81 11.77,8.27 23.74,16.23 35.57,24.44 23.91,16.63 44.18,15.73 65.51,-4.58 11.53,-10.97 21.66,-23.44 32.1,-35.5 19.72,-22.74 39.23,-45.59 58.71,-68.51 5.02,-5.87 9.77,-11.94 14.32,-18.19 12.41,-17.16 20.71,-35.44 14.46,-57.33 -2.81,-5.16 -5.63,-10.3 -8.48,-15.43 -10.09,-10.42 -19.42,-21.71 -30.39,-31.1 -48.77,-41.66 -104.72,-57.21 -167.83,-43.39 -12.59,2.78 -24.67,7.86 -37,11.88 -8.89,4.9 -17.78,9.77 -26.67,14.64 -9.85,7.66 -20.04,14.93 -29.54,23 -47.68,40.55 -81.74,91.51 -110.7,146.23 -34.71,65.55 -60.12,134.82 -81.22,205.73 -25.82,86.88 -45.77,174.9 -49.99,265.82 -2.38,50.53 0.32,100.67 14.55,149.55 4.14,14.26 9.66,28.08 14.55,42.1 4.87,8.89 9.77,17.78 14.64,26.67 1.56,1.76 3.29,3.43 4.67,5.34 44.24,61.82 105.01,86.58 179.53,79.02 16.14,-1.65 31.93,-7.16 47.89,-10.92 5.13,-2.82 10.26,-5.63 15.43,-8.45"
         style="fill:#ffffff;fill-opacity:1;fill-rule:nonzero;stroke:none"
         id="path672"
         inkscape:connector-curvature="0" /><path
         d="m 4521.97,6589.5 129.12,-223.75 c 16.96,-29.39 44.75,-29.39 61.73,-0.03 l 129.19,223.72 c 16.99,29.4 3.11,53.46 -30.84,53.46 l -39.6,0 0.05,235.16 c 0,49.47 -40.1,89.57 -89.57,89.6 -49.47,0 -89.58,-40.11 -89.58,-89.57 l -0.06,-235.16 -39.57,0 c -33.95,0 -47.83,-24.03 -30.87,-53.43"
         style="fill:#ffffff;fill-opacity:1;fill-rule:nonzero;stroke:none"
         id="path682"
         inkscape:connector-curvature="0" /><path
         d="m 4974.71,6069.71 -585.44,0 c -29.73,0 -54.05,24.33 -54.05,54.05 l 0,42.01 c 0,29.75 24.32,54.05 54.05,54.05 l 585.44,0 c 29.75,0 54.05,-24.3 54.05,-54.05 l 0,-42.01 c 0,-29.72 -24.3,-54.05 -54.05,-54.05"
         style="fill:#ffffff;fill-opacity:1;fill-rule:nonzero;stroke:none"
         id="path688"
         inkscape:connector-curvature="0" /><path
         d="m 4335.22,6121.61 0,279.73 c 0,21.33 17.46,38.79 38.79,38.79 l 72.56,0 c 21.32,0 38.78,-17.46 38.78,-38.79 l 0,-279.73 c 0,-21.32 -17.46,-38.78 -38.78,-38.78 l -72.56,0 c -21.33,0 -38.79,17.46 -38.79,38.78"
         style="fill:#ffffff;fill-opacity:1;fill-rule:nonzero;stroke:none"
         id="path690"
         inkscape:connector-curvature="0" /><path
         d="m 4878.66,6121.61 0,279.73 c 0,21.33 17.45,38.79 38.78,38.79 l 72.53,0 c 21.33,0 38.79,-17.46 38.79,-38.79 l 0,-279.73 c 0,-21.32 -17.46,-38.78 -38.79,-38.78 l -72.53,0 c -21.33,0 -38.78,17.46 -38.78,38.78"
         style="fill:#ffffff;fill-opacity:1;fill-rule:nonzero;stroke:none"
         id="path692"
         inkscape:connector-curvature="0" /><path
         d="M 6628.05,6721.85 6498.9,6945.6 c -16.96,29.4 -44.72,29.4 -61.7,0 l -129.22,-223.69 c -16.96,-29.4 -3.08,-53.46 30.87,-53.46 l 39.58,0 -0.03,-235.16 c 0,-49.46 40.11,-89.6 89.57,-89.6 49.47,0 89.58,40.11 89.58,89.58 l 0.03,235.16 39.61,0 c 33.94,-0.04 47.82,24.02 30.86,53.42"
         style="fill:#ffffff;fill-opacity:1;fill-rule:nonzero;stroke:none"
         id="path694"
         inkscape:connector-curvature="0" /><path
         d="m 6760.73,6069.71 -585.45,0 c -29.72,0 -54.05,24.33 -54.05,54.05 l 0,42.01 c 0,29.75 24.33,54.05 54.05,54.05 l 585.45,0 c 29.72,0 54.04,-24.3 54.04,-54.05 l 0,-42.01 c 0,-29.72 -24.32,-54.05 -54.04,-54.05"
         style="fill:#ffffff;fill-opacity:1;fill-rule:nonzero;stroke:none"
         id="path696"
         inkscape:connector-curvature="0" /><path
         d="m 6121.23,6121.61 0,279.73 c 0,21.33 17.46,38.79 38.79,38.79 l 72.53,0 c 21.33,0 38.79,-17.46 38.79,-38.79 l 0,-279.73 c 0,-21.32 -17.46,-38.78 -38.79,-38.78 l -72.53,0 c -21.33,0 -38.79,17.46 -38.79,38.78"
         style="fill:#ffffff;fill-opacity:1;fill-rule:nonzero;stroke:none"
         id="path698"
         inkscape:connector-curvature="0" /><path
         d="m 6664.67,6121.61 0,279.73 c 0,21.33 17.46,38.79 38.79,38.79 l 72.52,0 c 21.34,0 38.79,-17.46 38.79,-38.79 l 0,-279.73 c 0,-21.32 -17.45,-38.78 -38.79,-38.78 l -72.52,0 c -21.33,0 -38.79,17.46 -38.79,38.78"
         style="fill:#ffffff;fill-opacity:1;fill-rule:nonzero;stroke:none"
         id="path700"
         inkscape:connector-curvature="0" /><path
         d="m 8003.13,6654.37 c 9.68,12.33 21.86,23.03 36.3,31.34 17.95,10.29 37.34,15.69 56.68,16.63 2.02,0.09 4.08,0.15 6.1,0.15 1.03,0 2.02,-0.03 3.05,-0.06 2.03,-0.03 4.05,-0.14 6.08,-0.29 2.02,-0.15 4.02,-0.33 6.04,-0.59 1,-0.12 2,-0.23 3,-0.38 3.98,-0.59 7.98,-1.38 11.88,-2.32 0.99,-0.26 1.96,-0.5 2.93,-0.76 1.97,-0.53 3.9,-1.12 5.81,-1.73 0.97,-0.3 1.91,-0.62 2.88,-0.97 1.9,-0.65 3.78,-1.35 5.66,-2.11 0.94,-0.39 1.87,-0.77 2.78,-1.18 1.32,-0.56 2.62,-1.17 3.91,-1.76 1.47,-0.7 2.9,-1.41 4.34,-2.14 1.79,-0.94 3.58,-1.91 5.34,-2.93 2.32,-1.38 4.63,-2.82 6.89,-4.35 1.12,-0.76 2.24,-1.52 3.35,-2.31 1.64,-1.21 3.28,-2.44 4.9,-3.73 2.4,-1.91 4.75,-3.93 7.01,-6.04 1.53,-1.41 2.99,-2.85 4.46,-4.35 7.28,-7.45 13.73,-15.93 19.13,-25.38 9.77,-16.98 15.14,-35.29 16.46,-53.63 0.23,-3.05 0.32,-6.1 0.32,-9.15 0,-2.03 -0.03,-4.05 -0.14,-6.08 -0.09,-2.02 -0.24,-4.05 -0.44,-6.04 -0.5,-5.05 -1.3,-10.03 -2.35,-14.96 -0.44,-1.97 -0.94,-3.94 -1.47,-5.9 -0.79,-2.9 -1.67,-5.81 -2.67,-8.66 -0.67,-1.9 -1.38,-3.81 -2.14,-5.69 -0.38,-0.94 -0.76,-1.85 -1.15,-2.79 -0.82,-1.85 -1.67,-3.69 -2.55,-5.51 -1.35,-2.73 -2.75,-5.4 -4.31,-8.04 -1.03,-1.76 -2.08,-3.49 -3.2,-5.2 -10.53,-16.22 -24.99,-30.27 -42.92,-40.57 -15.11,-8.69 -31.25,-13.88 -47.53,-15.85 -2.03,-0.26 -4.08,-0.47 -6.11,-0.61 -6.1,-0.44 -12.2,-0.41 -18.27,0.03 -2.03,0.15 -4.02,0.32 -6.05,0.58 -1,0.12 -1.99,0.24 -2.99,0.39 -3,0.44 -5.99,0.99 -8.95,1.64 -33.51,7.36 -63.9,28.31 -82.33,60.41 -8.8,15.29 -13.99,31.63 -15.93,48.09 -0.82,7.04 -1.05,14.14 -0.68,21.15 0.12,2.35 0.3,4.67 0.56,6.99 0.62,5.83 1.65,11.58 3.05,17.25 1.44,5.63 3.23,11.2 5.43,16.63 0.38,0.91 0.76,1.85 1.17,2.79 0.8,1.85 1.65,3.7 2.53,5.52 0.88,1.81 1.82,3.6 2.81,5.39 1.94,3.55 4.08,7.02 6.4,10.39 0.73,1.09 1.53,2.17 2.32,3.26 0.85,1.14 1.7,2.29 2.61,3.43 z m 415.42,52.11 -43.62,75.96 c -5.58,9.74 -20.07,11.15 -29.78,5.58 l -43.69,-25.09 -0.17,-0.12 c -18.23,18.84 -41.93,38.58 -67.28,52.52 l 12.99,48.91 c 2.94,10.8 -3.46,21.95 -14.25,24.85 l -84.56,22.89 c -10.8,2.93 -21.92,-3.44 -24.82,-14.27 l -13.09,-48.58 0.09,-0.12 c -28.11,0.97 -53.11,-0.44 -84.06,-10.33 l -25.09,43.69 c -5.57,9.71 -19.07,13.5 -28.78,7.92 l -75.96,-43.63 c -9.71,-5.57 -8.75,-16.57 -3.17,-26.25 l 25.09,-43.72 0.12,-0.18 c -24.36,-21.38 -40.23,-42.86 -54.17,-68.21 l -50.55,12.03 c -10.8,2.93 -21.92,-3.49 -24.85,-14.29 l -22.86,-84.62 c -2.93,-10.79 3.5,-22 14.32,-24.91 l 48.7,-13.29 0.36,-0.29 c -0.97,-28.14 0.91,-53.93 10.76,-84.85 l -43.65,-25.09 c -9.71,-5.57 -11.15,-15.58 -5.58,-25.29 l 43.63,-75.99 c 5.58,-9.71 14.2,-12.23 23.91,-6.66 l 43.69,25.09 0.21,0.11 c 21.36,-24.32 42.42,-39.4 67.77,-53.34 l -12.47,-49.73 c -2.93,-10.82 3.52,-21.91 14.35,-24.85 l 84.7,-22.77 c 10.8,-2.93 22.21,3.61 25.15,14.41 l 13.67,48.94 1.12,0.85 c 28.13,-0.97 55.59,1.85 86.52,11.74 l 25.09,-43.7 c 5.57,-9.71 13.2,-14.6 22.91,-9.03 l 75.96,43.63 c 9.71,5.57 14.61,17.66 9.04,27.37 l -25.09,43.69 -0.12,0.2 c 24.35,21.36 37.8,41.47 51.73,66.81 l 48.09,-13.41 c 10.83,-2.93 21.92,3.49 24.85,14.32 l 22.83,84.65 c 2.9,10.83 -3.58,22.12 -14.38,25.02 l -48.82,13.5 -0.62,0.74 c 0.97,28.13 -1.38,54.77 -11.26,85.7 l 43.68,25.08 c 9.72,5.58 16.99,16.7 11.41,26.41"
         style="fill:#ffffff;fill-opacity:1;fill-rule:nonzero;stroke:none"
         id="path702"
         inkscape:connector-curvature="0" /><path
         d="m 8454.41,6266.26 c 2.7,9.45 7.22,18.58 13.64,26.82 7.95,10.24 17.93,17.98 28.93,23.12 1.18,0.55 2.35,1.05 3.52,1.55 0.59,0.24 1.18,0.47 1.79,0.71 1.17,0.44 2.38,0.85 3.58,1.26 1.2,0.38 2.44,0.76 3.64,1.08 0.62,0.18 1.23,0.33 1.85,0.5 2.46,0.62 4.96,1.09 7.45,1.47 0.62,0.09 1.26,0.18 1.88,0.27 1.26,0.14 2.52,0.29 3.78,0.37 0.62,0.06 1.26,0.09 1.88,0.13 1.29,0.05 2.55,0.11 3.81,0.11 0.65,0 1.27,0 1.91,0 0.88,-0.03 1.79,-0.06 2.67,-0.11 1.03,-0.07 2.03,-0.13 3.03,-0.21 1.26,-0.12 2.52,-0.27 3.81,-0.44 1.67,-0.24 3.34,-0.53 5.01,-0.88 0.83,-0.18 1.68,-0.35 2.5,-0.56 1.26,-0.29 2.49,-0.61 3.73,-1 1.84,-0.52 3.69,-1.14 5.51,-1.82 1.24,-0.47 2.44,-0.97 3.61,-1.46 6.02,-2.62 11.77,-5.99 17.17,-10.19 9.71,-7.53 17.16,-16.89 22.29,-27.22 0.85,-1.71 1.65,-3.46 2.35,-5.22 0.5,-1.18 0.94,-2.38 1.38,-3.58 0.41,-1.21 0.82,-2.41 1.17,-3.61 0.91,-3.05 1.65,-6.14 2.2,-9.24 0.21,-1.27 0.38,-2.5 0.56,-3.76 0.24,-1.91 0.41,-3.79 0.5,-5.69 0.06,-1.27 0.12,-2.53 0.12,-3.79 0,-0.64 0,-1.26 -0.03,-1.91 -0.03,-1.26 -0.06,-2.52 -0.15,-3.81 -0.14,-1.88 -0.32,-3.78 -0.59,-5.69 -0.17,-1.26 -0.38,-2.52 -0.61,-3.76 -2.29,-11.94 -7.34,-23.53 -15.29,-33.77 -6.72,-8.62 -14.85,-15.49 -23.82,-20.5 -1.12,-0.62 -2.26,-1.24 -3.4,-1.79 -3.44,-1.71 -6.99,-3.18 -10.6,-4.35 -1.23,-0.38 -2.43,-0.76 -3.67,-1.08 -0.61,-0.18 -1.23,-0.33 -1.81,-0.5 -1.85,-0.44 -3.73,-0.85 -5.61,-1.17 -21.18,-3.7 -43.8,1.23 -62.14,15.49 -8.75,6.77 -15.64,15.02 -20.68,24.14 -2.17,3.88 -3.97,7.96 -5.43,12.09 -0.47,1.41 -0.94,2.79 -1.35,4.2 -1,3.55 -1.79,7.13 -2.29,10.74 -0.53,3.63 -0.79,7.27 -0.82,10.94 0,0.65 0,1.26 0,1.91 0.03,1.26 0.09,2.52 0.17,3.81 0.09,1.26 0.21,2.52 0.35,3.78 0.3,2.53 0.71,5.05 1.24,7.57 0.17,0.8 0.38,1.62 0.56,2.44 0.23,0.88 0.47,1.73 0.7,2.61 z m 228.76,129.01 -43.36,33.74 c -5.58,4.31 -14.29,1.67 -18.6,-3.87 l -19.42,-24.94 -0.09,-0.12 c -15.02,6.6 -33.48,12.44 -51.52,14.49 l -4.08,31.49 c -0.89,6.98 -7.22,11.91 -14.21,11.06 l -54.51,-6.84 c -6.98,-0.85 -11.88,-7.19 -11.03,-14.17 l 3.96,-31.31 0.09,-0.05 c -16.55,-6.14 -30.72,-12.88 -46.33,-26 l -24.97,19.43 c -5.54,4.28 -14.26,3.28 -18.57,-2.27 l -33.74,-43.39 c -4.31,-5.54 -1.15,-11.68 4.4,-15.99 l 24.97,-19.39 0.12,-0.09 c -9.07,-18.19 -13.18,-34.44 -15.23,-52.49 l -32.21,-5.02 c -6.96,-0.88 -11.92,-7.24 -11.04,-14.2 l 6.84,-54.57 c 0.88,-6.95 7.27,-11.91 14.26,-11.06 l 31.42,3.87 0.27,-0.09 c 6.13,-16.54 13.34,-31.07 26.43,-46.68 l -19.39,-24.97 c -4.32,-5.54 -2.76,-11.67 2.78,-15.98 l 43.4,-33.75 c 5.54,-4.31 11.15,-3.72 15.46,1.82 l 19.39,24.97 0.09,0.12 c 18.19,-9.07 34.01,-12.79 52.02,-14.88 l 4.61,-31.83 c 0.88,-6.95 7.25,-11.88 14.23,-11.01 l 54.6,6.93 c 6.95,0.85 12.03,7.36 11.15,14.35 l -3.7,31.65 0.47,0.74 c 16.55,6.13 31.81,14.29 47.41,27.41 l 24.94,-19.4 c 5.55,-4.31 11.15,-5.37 15.47,0.18 l 33.74,43.39 c 4.31,5.54 4.28,13.73 -1.26,18.04 l -24.97,19.4 -0.12,0.08 c 9.07,18.2 12.06,33.07 14.14,51.09 l 31.1,3.63 c 6.99,0.89 11.88,7.28 11.03,14.23 l -6.89,54.58 c -0.85,6.98 -7.31,12 -14.29,11.11 l -31.54,-3.78 -0.53,0.3 c -6.13,16.54 -13.85,31.45 -26.93,47.06 l 19.39,24.94 c 4.31,5.54 5.9,13.73 0.35,18.04"
         style="fill:#ffffff;fill-opacity:1;fill-rule:nonzero;stroke:none"
         id="path704"
         inkscape:connector-curvature="0" /><path
         d="m 4907.79,4470.95 c -2.14,0.59 -4.28,1.08 -6.4,1.73 -23.62,7.39 -31.62,36.55 -15.16,55.16 10.03,11.32 20.65,22.24 29.95,34.15 33.36,42.54 55.16,90.54 66.16,143.5 6.05,29.11 8.39,58.53 6.78,88.17 -4.28,77.78 -31.01,146.93 -80.86,206.93 -7.04,8.48 -14.94,16.23 -22.21,24.47 -15.32,17.34 -9.16,44.69 12.09,53.67 3.08,1.32 6.42,1.99 9.65,2.96 2.55,0 5.08,0 7.63,0 0.67,-0.24 1.35,-0.56 2.05,-0.67 6.93,-1.36 12.97,-4.44 17.99,-9.45 35.24,-35.27 63.43,-75.46 84.2,-120.8 21.39,-46.68 33.89,-95.61 37.15,-146.87 0.29,-4.76 0.73,-9.48 1.11,-14.2 0,-8.92 0,-17.84 0,-26.73 -0.17,-1.26 -0.49,-2.5 -0.55,-3.73 -0.94,-25.14 -4.11,-49.99 -9.72,-74.52 -17.86,-78.02 -54.86,-145.53 -111.05,-202.54 -5.51,-5.63 -11.97,-9.36 -19.77,-10.62 -0.5,-0.08 -0.94,-0.41 -1.41,-0.61 -2.55,0 -5.08,0 -7.63,0"
         style="fill:#ffffff;fill-opacity:1;fill-rule:nonzero;stroke:none"
         id="path706"
         inkscape:connector-curvature="0" /><path
         d="m 4937.19,4781.89 c -1.5,-91.16 -31.31,-164.86 -91.16,-226.15 -9.54,-9.77 -21.15,-13.26 -34.3,-9.45 -12.73,3.67 -20.83,12.41 -23.68,25.38 -2.69,12.21 0.85,22.86 9.54,31.75 10.74,10.91 20.48,22.62 29.05,35.32 19.89,29.49 32.77,61.79 38.7,96.89 3.57,21.24 4.45,42.6 2.29,63.98 -5.73,56.54 -28.08,105.57 -67.34,146.76 -5.49,5.78 -10.36,11.71 -12.21,19.69 -3.34,14.44 3.08,29.55 15.96,37.08 12.85,7.55 29.34,5.93 40.05,-4.43 17.93,-17.3 33.21,-36.82 46.3,-58 22.65,-36.62 37.18,-76.26 43.13,-118.89 2.11,-15.08 2.82,-30.36 3.67,-39.93"
         style="fill:#ffffff;fill-opacity:1;fill-rule:nonzero;stroke:none"
         id="path708"
         inkscape:connector-curvature="0" /><path
         d="m 4813.46,4771.95 c -0.73,-47.89 -18.98,-92.98 -55.6,-130.45 -13.32,-13.61 -34.5,-13.94 -48.03,-0.91 -13.4,12.88 -14.11,34.15 -1.03,47.77 17.02,17.69 29.05,38.05 33.81,62.23 8.12,41.45 -1.88,78.13 -30.16,109.61 -5.32,5.9 -10.33,11.74 -12.15,19.75 -3.26,14.37 3.05,29.37 15.78,36.88 12.85,7.6 29.26,6.16 40.08,-4.14 14.35,-13.61 25.88,-29.4 35.12,-46.86 14.82,-27.99 22.01,-57.85 22.18,-93.88"
         style="fill:#ffffff;fill-opacity:1;fill-rule:nonzero;stroke:none"
         id="path710"
         inkscape:connector-curvature="0" /><path
         d="m 7919.6,4960.31 c 0,20.71 3.35,24.06 23.5,24.09 48.38,0.03 96.76,0.35 145.15,-0.44 6.48,-0.09 14.37,-4.67 18.95,-9.66 7.16,-7.77 12.06,-17.63 17.84,-26.67 10.59,-16.66 25.14,-23.76 45.42,-23.67 122.17,0.58 244.72,0.29 366.9,0.29 24.87,0 26.99,-1.76 26.99,-26.43 0,-10.16 0,-21.51 0,-33.25 -8.81,0 -15.85,0 -22.19,0 -175.42,0 -350.87,0.5 -526.3,0.5 -32.68,0 -46.94,-11.91 -52.84,-43.95 -13.08,-71.3 -26.4,-142.42 -42.48,-213.68 -0.33,4.22 -0.91,8.47 -0.91,12.67 -0.06,113.37 -0.09,226.83 -0.03,340.2 z m 676.64,-92.89 c 0,12.44 -0.03,25.47 -0.2,38.49 -0.42,29.2 -15.79,46.33 -44.66,49.82 -5.78,0.71 -11.74,0.77 -17.58,0.77 -119.76,0.02 -239.53,0.26 -359.3,-0.3 -13.05,-0.06 -21.73,3.84 -26.9,15.17 -16.52,36.15 -43.69,49.38 -83.53,46.01 -38.85,-3.26 -77.78,-1.24 -116.89,-0.53 -26.14,0.47 -45.92,-7.69 -57.65,-32.45 0,-195.61 0,-391.19 0,-586.8 14.67,-25.3 37.81,-29.84 65.42,-29.72 185.14,0.73 370.1,0.38 555.26,0.38 35.97,0 50.18,13.52 56.57,49.11 17.52,97.82 35.86,195.49 53.96,293.23 5.31,28.72 11.12,57.42 16.64,86.11 0.37,2.05 0.32,3.87 3.25,5.78 0,10.77 0,21.51 0,32.27 -17.6,24.21 -17.9,24.91 -44.39,32.66"
         style="fill:#ffffff;fill-opacity:1;fill-rule:nonzero;stroke:none"
         id="path798"
         inkscape:connector-curvature="0" /><path
         d="m 8563.58,4865.57 c -8.77,0 -15.08,0 -21.42,0 -175.42,0 -350.87,0 -526.3,0 -32.68,0 -46.94,-12.18 -52.84,-44.21 -13.08,-71.27 -26.4,-142.51 -42.48,-213.78 -0.33,4.2 -0.91,8.4 -0.91,12.59 -0.06,113.37 -0.09,226.77 -0.03,340.14 0,20.71 3.35,24.06 23.5,24.09 48.38,0.03 96.76,0.35 145.15,-0.44 6.48,-0.09 14.37,-4.67 18.95,-9.66 7.16,-7.77 12.06,-17.63 17.84,-26.67 10.59,-16.66 25.14,-23.76 45.42,-23.67 122.17,0.58 244.34,0.29 366.51,0.29 24.88,0 26.61,-1.76 26.61,-26.43 0,-10.16 0,-20.34 0,-32.25"
         style="fill:#6b2e98;fill-opacity:1;fill-rule:nonzero;stroke:none"
         id="path800"
         inkscape:connector-curvature="0" /><path
         d="m 8636.96,2637.34 -763.66,0 c -31.95,0 -58.09,26.14 -58.09,58.1 l 0,493.99 c 0,0.21 0.17,0.39 0.38,0.39 l 878.44,0 c 0.2,0 0.38,-0.18 0.38,-0.39 l 0,-494.64 c 0,-31.6 -25.85,-57.45 -57.45,-57.45"
         style="fill:#52ad81;fill-opacity:1;fill-rule:nonzero;stroke:none"
         id="path954"
         inkscape:connector-curvature="0" /><path
         d="m 7815.12,3190.4 416.81,-308.45 c 12.87,-9.5 32.74,-9.54 45.65,-0.03 l 416.92,307.31 -879.38,1.17"
         style="fill:#ffffff;fill-opacity:1;fill-rule:nonzero;stroke:none"
         id="path956"
         inkscape:connector-curvature="0" /><path
         d="m 8111.13,2935.96 -290.02,-270.6 c -4.7,7.87 -7.87,16.93 -7.87,26.56 l 0,463.92 297.89,-219.88"
         style="fill:#ffffff;fill-opacity:1;fill-rule:nonzero;stroke:none"
         id="path958"
         inkscape:connector-curvature="0" /><path
         d="m 8371.29,2916.6 292.02,-272.77 c -8.13,-4.02 -17.43,-6.16 -27.29,-6.16 l -762.43,0 c -9,0 -17.51,1.73 -25.14,5.13 l 291.67,272.51 114.69,-84.94 116.48,86.23"
         style="fill:#ffffff;fill-opacity:1;fill-rule:nonzero;stroke:none"
         id="path960"
         inkscape:connector-curvature="0" /><path
         d="m 8696.38,3155.87 0,-463.95 c 0,-8.83 -3.23,-17.2 -7.22,-24.56 l -288.38,269.96 295.6,218.55"
         style="fill:#ffffff;fill-opacity:1;fill-rule:nonzero;stroke:none"
         id="path962"
         inkscape:connector-curvature="0" /><path
         d="m 2964.63,1229.84 c -9.09,2.27 -20.48,4.55 -35.28,4.55 -75.11,0 -134.29,-73.96 -134.29,-161.6 0,-43.25 19.35,-70.56 56.9,-70.56 42.11,0 86.5,53.48 96.74,119.5 l 15.93,108.11 z m 101.28,-470.02 c -68.27,-30.722 -127.45,-40.961 -208.25,-40.961 -188.92,0 -355.07,135.434 -355.07,358.481 0,232.16 168.43,433.58 425.62,433.58 200.31,0 343.7,-137.69 343.7,-328.87 0,-166.15 -93.33,-270.866 -216.24,-270.866 -53.48,0 -92.18,27.316 -97.88,87.64 l -2.25,0 c -35.29,-58.035 -86.5,-87.64 -146.82,-87.64 -73.97,0 -127.46,54.632 -127.46,147.936 0,138.86 102.42,265.17 266.29,265.17 50.09,0 106.98,-12.53 135.44,-28.46 l -34.15,-210.51 c -11.36,-67.16 -3.41,-97.882 28.46,-99.027 48.93,-1.145 110.4,61.467 110.4,192.327 0,147.96 -95.61,262.88 -272,262.88 -174.13,0 -326.62,-136.54 -326.62,-353.93 0,-190.031 121.77,-298.148 291.34,-298.148 58.04,0 119.48,12.5 165.01,36.414 l 20.48,-66.016"
         style="fill:#ffffff;fill-opacity:1;fill-rule:nonzero;stroke:none"
         id="path980"
         inkscape:connector-curvature="0" /><path
         d="m 6124.37,895.016 c 9.83,12.558 27.02,16.461 38.44,8.773 l 51.64,-34.945 c 11.38,-7.715 12.64,-24.114 2.82,-36.645 l -70.95,-90.57 c 47.85,-6.633 102.95,9.887 147.58,48.848 10.56,9.242 19.98,19.25 28.17,29.781 0.11,0.117 0.2,0.207 0.29,0.293 5.6,6.281 10,13.203 13.5,20.156 3.6,7.16 5.92,14.731 7.33,22.125 l 0,0 c 0.65,5.191 1.5,9.652 1.47,14.492 1.29,13.379 3.43,32.864 5.89,44.598 4.08,19.246 17.87,44.832 17.87,44.832 l 129.72,113.316 0.23,-0.24 128.13,111.58 c 0,0 31.36,24.41 62.79,25.17 31.42,0.8 56.3,-0.91 56.3,-0.91 l 0,0.03 c 15.26,-1.29 31.66,2.47 46.5,10.74 8.86,4.93 16.87,11.21 24.09,19.25 0.03,0.03 0.03,0.03 0.03,0.03 60.5,56.01 79.75,137.25 49.17,195.28 l -71.11,-90.51 c -9.86,-12.53 -27.06,-16.43 -38.44,-8.71 l -51.61,35.03 c -11.36,7.72 -12.62,24.12 -2.76,36.64 l 71.09,90.46 c -47.85,6.69 -102.98,-9.71 -147.67,-48.62 -10.56,-9.24 -20,-19.22 -28.22,-29.75 -0.09,-0.11 -0.18,-0.2 -0.27,-0.29 -5.63,-6.28 -10.03,-13.18 -13.55,-20.13 -3.61,-7.16 -5.96,-14.73 -7.34,-22.09 l 0,-0.03 c -0.67,-5.19 -1.52,-9.62 -1.49,-14.46 -1.32,-13.41 -3.49,-32.86 -5.99,-44.6 -4.07,-19.25 -17.92,-44.8 -17.92,-44.8 l -130.01,-113.23 -0.23,0.24 -127.95,-111.79 c 0,0 -31.37,-24.47 -62.76,-25.29 -31.43,-0.82 -56.31,0.85 -56.31,0.85 l 0,-0.03 c -15.25,1.27 -31.66,-2.52 -46.5,-10.82 -8.86,-4.93 -16.84,-11.24 -24.03,-19.281 -0.03,-0.027 -0.03,-0.027 -0.06,-0.027 -60.41,-56.098 -79.51,-137.371 -48.85,-195.348 l 70.97,90.602"
         style="fill:#ffffff;fill-opacity:1;fill-rule:nonzero;stroke:none"
         id="path1000"
         inkscape:connector-curvature="0" /><path
         d="m 6181.94,1559.25 8.01,-7.08 66.45,-59.82 c 19.37,-17.31 25.41,-40.72 20.72,-60.58 l 299.82,-339.94 -38.96,-36.12 -300.15,340.32 c -20.01,-2.5 -42.66,6.22 -57.42,26.76 l -49.29,75.22 -5.9,9.01 56.72,52.23"
         style="fill:#ffffff;fill-opacity:1;fill-rule:nonzero;stroke:none"
         id="path1002"
         inkscape:connector-curvature="0" /><path
         d="m 6562.92,1097.34 23.29,21.45 c 5.46,5.02 14.47,4.58 20.6,-2.4 l 2.82,-3.2 c 0.35,-0.38 0.53,-0.94 0.82,-1.35 0.12,-0.15 0.12,-0.38 0.23,-0.53 0.18,-0.26 0.33,-0.56 0.5,-0.82 0.12,-0.2 0.24,-0.38 0.36,-0.59 0.11,-0.2 0.23,-0.47 0.38,-0.67 0.12,-0.24 0.23,-0.44 0.35,-0.68 0,-0.03 0.03,-0.09 0.03,-0.11 0.35,-0.68 0.64,-1.35 0.88,-2.03 0.03,-0.09 0.05,-0.14 0.09,-0.2 0.11,-0.35 0.23,-0.71 0.32,-1.06 l 0,0 c 0.03,-0.06 0.03,-0.09 0.03,-0.15 0.06,-0.17 0.09,-0.35 0.15,-0.52 l 0.35,-0.42 c 0.02,-0.08 0.47,-0.67 0.43,-0.73 l 3.2,2.96 c 3.09,2.82 8.07,2.85 11.54,-1.05 l 228,-258.869 c 27.1,-30.777 30.66,-75.578 6.57,-97.762 l -28.17,-25.933 c -24.08,-22.184 -67.13,-13.735 -94.24,17.047 l -228.03,258.863 c -3.43,3.934 -3.08,8.834 0,11.644 l 4.64,4.29 0.03,0.03 c -0.09,-0.09 -0.86,0.56 -1.12,0.67 -0.11,0.03 -0.38,0.27 -0.5,0.33 -0.29,0.11 -0.64,0.32 -0.91,0.47 -0.14,0.05 -0.32,0.17 -0.47,0.26 -0.32,0.18 -0.7,0.38 -1.02,0.59 -0.3,0.17 -0.59,0.35 -0.86,0.52 -0.17,0.12 -0.35,0.27 -0.49,0.39 -0.27,0.17 -0.5,0.35 -0.74,0.52 -0.14,0.15 -0.29,0.27 -0.46,0.39 -0.24,0.23 -0.5,0.44 -0.74,0.67 -0.15,0.12 0,0.47 -0.12,0.59 -0.38,0.35 -0.46,0.96 -0.82,1.37 l -2.81,3.2 c -5.78,6.55 -6.43,14.38 -1.97,19.46 l 13.85,12.85 8.42,7.77 -0.03,0.03 35.47,32.89 0.15,-0.18"
         style="fill:#ffffff;fill-opacity:1;fill-rule:nonzero;stroke:none"
         id="path1004"
         inkscape:connector-curvature="0" /><path
         d="m 6821.29,796.555 c 6.86,-7.778 17.48,-9.422 23.59,-3.817 6.07,5.606 5.6,16.606 -1.27,24.383 l -207.78,235.889 c -6.84,7.78 -17.46,9.39 -23.56,3.79 -6.07,-5.61 -5.61,-16.58 1.23,-24.35 l 207.79,-235.895"
         style="fill:#6b2e98;fill-opacity:1;fill-rule:nonzero;stroke:none"
         id="path1006"
         inkscape:connector-curvature="0" /><path
         d="m 6771.05,750.285 c 6.84,-7.777 17.14,-9.715 23.22,-4.109 6.1,5.601 5.28,16.254 -1.59,24.027 L 6584.89,1006.1 c -6.83,7.78 -17.13,9.74 -23.2,4.13 -6.11,-5.6 -5.28,-16.277 1.58,-24.023 l 207.78,-235.922"
         style="fill:#6b2e98;fill-opacity:1;fill-rule:nonzero;stroke:none"
         id="path1008"
         inkscape:connector-curvature="0" /></g></g></svg>