<?xml version="1.0" encoding="UTF-8" standalone="no"?>
<!-- Created with Inkscape (http://www.inkscape.org/) -->

<svg
   xmlns:dc="http://purl.org/dc/elements/1.1/"
   xmlns:cc="http://creativecommons.org/ns#"
   xmlns:rdf="http://www.w3.org/1999/02/22-rdf-syntax-ns#"
   xmlns:svg="http://www.w3.org/2000/svg"
   xmlns="http://www.w3.org/2000/svg"
   xmlns:sodipodi="http://sodipodi.sourceforge.net/DTD/sodipodi-0.dtd"
   xmlns:inkscape="http://www.inkscape.org/namespaces/inkscape"
   id="svg2"
   version="1.1"
   inkscape:version="0.91 r13725"
   xml:space="preserve"
   width="1500"
   height="1500"
   viewBox="0 0 1500 1500"
   sodipodi:docname="O4YIMU1.svg"><metadata
     id="metadata8"><rdf:RDF><cc:Work
         rdf:about=""><dc:format>image/svg+xml</dc:format><dc:type
           rdf:resource="http://purl.org/dc/dcmitype/StillImage" /><dc:title></dc:title></cc:Work></rdf:RDF></metadata><defs
     id="defs6" /><sodipodi:namedview
     pagecolor="#ffffff"
     bordercolor="#666666"
     borderopacity="1"
     objecttolerance="10"
     gridtolerance="10"
     guidetolerance="10"
     inkscape:pageopacity="0"
     inkscape:pageshadow="2"
     inkscape:window-width="1680"
     inkscape:window-height="1026"
     id="namedview4"
     showgrid="false"
     inkscape:zoom="0.44500587"
     inkscape:cx="776.54577"
     inkscape:cy="895.10339"
     inkscape:window-x="1600"
     inkscape:window-y="24"
     inkscape:window-maximized="1"
     inkscape:current-layer="g12" /><g
     id="g10"
     inkscape:groupmode="layer"
     inkscape:label="ink_ext_XXXXXX"
     transform="matrix(1.25,0,0,-1.25,0,1500)"><g
       id="g12"
       transform="scale(0.1,0.1)"><path
         d="m 0,0 12000,0 0,12000 L 0,12000 0,0 Z"
         style="fill:#4d4d4d;fill-opacity:1;fill-rule:nonzero;stroke:none"
         id="path14"
         inkscape:connector-curvature="0" /><path
         d="m 9750.92,2270.4 c -282.35,0 -513.36,231.01 -513.36,513.36 0,282.36 231.01,513.37 513.36,513.37 282.38,0 513.38,-231.01 513.38,-513.37 0,-282.35 -231,-513.36 -513.38,-513.36"
         style="fill:#ffffff;fill-opacity:1;fill-rule:nonzero;stroke:none"
         id="path22"
         inkscape:connector-curvature="0" /><path
         d="m 3326.63,9765.4 c -282.35,0 -513.36,231.02 -513.36,513.4 0,282.3 231.01,513.4 513.36,513.4 282.35,0 513.37,-231.1 513.37,-513.4 0,-282.38 -231.02,-513.4 -513.37,-513.4"
         style="fill:#ffffff;fill-opacity:1;fill-rule:nonzero;stroke:none"
         id="path48"
         inkscape:connector-curvature="0" /><path
         d="m 4397.35,9765.4 c -282.35,0 -513.37,231.02 -513.37,513.4 0,282.3 231.02,513.4 513.37,513.4 282.35,0 513.36,-231.1 513.36,-513.4 0,-282.38 -231.01,-513.4 -513.36,-513.4"
         style="fill:#ffffff;fill-opacity:1;fill-rule:nonzero;stroke:none"
         id="path50"
         inkscape:connector-curvature="0" /><path
         d="m 7609.5,6553.27 c -282.35,0 -513.36,231.02 -513.36,513.36 0,282.35 231.01,513.37 513.36,513.37 282.36,0 513.36,-231.02 513.36,-513.37 0,-282.34 -231,-513.36 -513.36,-513.36"
         style="fill:#ffffff;fill-opacity:1;fill-rule:nonzero;stroke:none"
         id="path80"
         inkscape:connector-curvature="0" /><path
         d="m 6538.78,7623.98 c -282.35,0 -513.37,231.02 -513.37,513.37 0,282.34 231.02,513.36 513.37,513.36 282.34,0 513.37,-231.02 513.37,-513.36 0,-282.35 -231.03,-513.37 -513.37,-513.37"
         style="fill:#ffffff;fill-opacity:1;fill-rule:nonzero;stroke:none"
         id="path90"
         inkscape:connector-curvature="0" /><path
         d="m 6538.78,4411.82 c -282.35,0 -513.37,231.01 -513.37,513.36 0,282.36 231.02,513.37 513.37,513.37 282.34,0 513.37,-231.01 513.37,-513.37 0,-282.35 -231.03,-513.36 -513.37,-513.36"
         style="fill:#ffffff;fill-opacity:1;fill-rule:nonzero;stroke:none"
         id="path94"
         inkscape:connector-curvature="0" /><path
         d="m 6538.78,6553.27 c -282.35,0 -513.37,231.02 -513.37,513.36 0,282.35 231.02,513.37 513.37,513.37 282.34,0 513.37,-231.02 513.37,-513.37 0,-282.34 -231.03,-513.36 -513.37,-513.36"
         style="fill:#ffffff;fill-opacity:1;fill-rule:nonzero;stroke:none"
         id="path98"
         inkscape:connector-curvature="0" /><path
         d="m 5468.07,5482.54 c -282.36,0 -513.37,231.02 -513.37,513.38 0,282.35 231.01,513.37 513.37,513.37 282.34,0 513.36,-231.02 513.36,-513.37 0,-282.36 -231.02,-513.38 -513.36,-513.38"
         style="fill:#ffffff;fill-opacity:1;fill-rule:nonzero;stroke:none"
         id="path104"
         inkscape:connector-curvature="0" /><path
         d="m 8680.22,7623.98 c -282.36,0 -513.37,231.02 -513.37,513.37 0,282.34 231.01,513.36 513.37,513.36 282.35,0 513.36,-231.02 513.36,-513.36 0,-282.35 -231.01,-513.37 -513.36,-513.37"
         style="fill:#ffffff;fill-opacity:1;fill-rule:nonzero;stroke:none"
         id="path108"
         inkscape:connector-curvature="0" /><path
         d="m 8680.22,6553.27 c -282.36,0 -513.37,231.02 -513.37,513.36 0,282.35 231.01,513.37 513.37,513.37 282.35,0 513.36,-231.02 513.36,-513.37 0,-282.34 -231.01,-513.36 -513.36,-513.36"
         style="fill:#ffffff;fill-opacity:1;fill-rule:nonzero;stroke:none"
         id="path110"
         inkscape:connector-curvature="0" /><path
         d="m 7609.5,8694.69 c -282.35,0 -513.36,231.02 -513.36,513.37 0,282.35 231.01,513.37 513.36,513.37 282.36,0 513.36,-231.02 513.36,-513.37 0,-282.35 -231,-513.37 -513.36,-513.37"
         style="fill:#ffffff;fill-opacity:1;fill-rule:nonzero;stroke:none"
         id="path118"
         inkscape:connector-curvature="0" /><path
         d="m 8680.22,8694.69 c -282.36,0 -513.37,231.02 -513.37,513.37 0,282.35 231.01,513.37 513.37,513.37 282.35,0 513.36,-231.02 513.36,-513.37 0,-282.35 -231.01,-513.37 -513.36,-513.37"
         style="fill:#ffffff;fill-opacity:1;fill-rule:nonzero;stroke:none"
         id="path120"
         inkscape:connector-curvature="0" /><path
         d="m 5468.07,3341.1 c -282.36,0 -513.37,231.02 -513.37,513.38 0,282.34 231.01,513.36 513.37,513.36 282.34,0 513.36,-231.02 513.36,-513.36 0,-282.36 -231.02,-513.38 -513.36,-513.38"
         style="fill:#ffffff;fill-opacity:1;fill-rule:nonzero;stroke:none"
         id="path124"
         inkscape:connector-curvature="0" /><path
         d="m 1185.19,8694.69 c -282.346,0 -513.362,231.02 -513.362,513.37 0,282.35 231.016,513.37 513.362,513.37 282.35,0 513.37,-231.02 513.37,-513.37 0,-282.35 -231.02,-513.37 -513.37,-513.37"
         style="fill:#ffffff;fill-opacity:1;fill-rule:nonzero;stroke:none"
         id="path140"
         inkscape:connector-curvature="0" /><path
         d="m 1185.19,9765.4 c -282.346,0 -513.362,231.02 -513.362,513.4 0,282.3 231.016,513.4 513.362,513.4 282.35,0 513.37,-231.1 513.37,-513.4 0,-282.38 -231.02,-513.4 -513.37,-513.4"
         style="fill:#ffffff;fill-opacity:1;fill-rule:nonzero;stroke:none"
         id="path142"
         inkscape:connector-curvature="0" /><path
         d="m 1185.19,7623.98 c -282.346,0 -513.362,231.02 -513.362,513.37 0,282.34 231.016,513.36 513.362,513.36 282.35,0 513.37,-231.02 513.37,-513.36 0,-282.35 -231.02,-513.37 -513.37,-513.37"
         style="fill:#ffffff;fill-opacity:1;fill-rule:nonzero;stroke:none"
         id="path144"
         inkscape:connector-curvature="0" /><path
         d="m 1185.19,4411.82 c -282.346,0 -513.362,231.01 -513.362,513.36 0,282.36 231.016,513.37 513.362,513.37 282.35,0 513.37,-231.01 513.37,-513.37 0,-282.35 -231.02,-513.36 -513.37,-513.36"
         style="fill:#ffffff;fill-opacity:1;fill-rule:nonzero;stroke:none"
         id="path148"
         inkscape:connector-curvature="0" /><path
         d="m 1185.19,6553.27 c -282.346,0 -513.362,231.02 -513.362,513.36 0,282.35 231.016,513.37 513.362,513.37 282.35,0 513.37,-231.02 513.37,-513.37 0,-282.34 -231.02,-513.36 -513.37,-513.36"
         style="fill:#ffffff;fill-opacity:1;fill-rule:nonzero;stroke:none"
         id="path150"
         inkscape:connector-curvature="0" /><path
         d="m 2255.91,1199.7 c -282.35,0 -513.37,231 -513.37,513.3 0,282.4 231.02,513.41 513.37,513.41 282.36,0 513.38,-231.01 513.38,-513.41 0,-282.3 -231.02,-513.3 -513.38,-513.3"
         style="fill:#ffffff;fill-opacity:1;fill-rule:nonzero;stroke:none"
         id="path182"
         inkscape:connector-curvature="0" /><path
         d="m 4397.35,1199.7 c -282.35,0 -513.37,231 -513.37,513.3 0,282.4 231.02,513.41 513.37,513.41 282.35,0 513.36,-231.01 513.36,-513.41 0,-282.3 -231.01,-513.3 -513.36,-513.3"
         style="fill:#ffffff;fill-opacity:1;fill-rule:nonzero;stroke:none"
         id="path184"
         inkscape:connector-curvature="0" /><path
         d="m 5468.07,10836.1 c -282.36,0 -513.37,231 -513.37,513.4 0,282.3 231.01,513.4 513.37,513.4 282.34,0 513.36,-231.1 513.36,-513.4 0,-282.4 -231.02,-513.4 -513.36,-513.4"
         style="fill:#ffffff;fill-opacity:1;fill-rule:nonzero;stroke:none"
         id="path186"
         inkscape:connector-curvature="0" /><path
         d="m 7609.5,10836.1 c -282.35,0 -513.36,231 -513.36,513.4 0,282.3 231.01,513.4 513.36,513.4 282.36,0 513.36,-231.1 513.36,-513.4 0,-282.4 -231,-513.4 -513.36,-513.4"
         style="fill:#ffffff;fill-opacity:1;fill-rule:nonzero;stroke:none"
         id="path190"
         inkscape:connector-curvature="0" /><path
         d="m 4397.35,10836.1 c -282.35,0 -513.37,231 -513.37,513.4 0,282.3 231.02,513.4 513.37,513.4 282.35,0 513.36,-231.1 513.36,-513.4 0,-282.4 -231.01,-513.4 -513.36,-513.4"
         style="fill:#ffffff;fill-opacity:1;fill-rule:nonzero;stroke:none"
         id="path198"
         inkscape:connector-curvature="0" /><path
         d="m 8476.2,9200.4 0,239.69 207.6,-119.84 207.56,-119.85 -207.56,-119.83 -207.6,-119.85 0,239.68"
         style="fill:#4d4d4d;fill-opacity:1;fill-rule:nonzero;stroke:none"
         id="path216"
         inkscape:connector-curvature="0" /><path
         d="m 3491,10389.2 -207.5,119.8 0,-112.1 -300.95,0 0,-255 300.95,0 0,-112.1 207.5,119.8 207.51,119.8 -207.51,119.8"
         style="fill:#4d4d4d;fill-opacity:1;fill-rule:nonzero;stroke:none"
         id="path218"
         inkscape:connector-curvature="0" /><path
         d="m 7353.44,6935.27 109.47,0 0,-111.86 206.96,119.51 206.97,119.5 -206.97,119.48 -206.96,119.52 0,-111.87 -109.47,0 0,-254.28"
         style="fill:#4d4d4d;fill-opacity:1;fill-rule:nonzero;stroke:none"
         id="path220"
         inkscape:connector-curvature="0" /><path
         d="m 1203.21,9109.46 -250.065,0 125.025,170.52 125.04,170.52 125.06,-170.52 125.04,-170.52 -250.1,0"
         style="fill:#4d4d4d;fill-opacity:1;fill-rule:nonzero;stroke:none"
         id="path222"
         inkscape:connector-curvature="0" /><path
         d="m 953.145,8950.31 500.164,0 0,121.258 -500.164,0 0,-121.258 z"
         style="fill:#4d4d4d;fill-opacity:1;fill-rule:nonzero;stroke:none"
         id="path224"
         inkscape:connector-curvature="0" /><path
         d="m 4484.43,11175.6 -150.52,0 0,128.3 150.52,0 0,-128.3 z m 192.38,160.4 -133.81,120.6 -133.83,120.6 -133.81,-120.6 -133.82,-120.6 63.27,0 0,-236.4 408.83,0 0,236.4 63.17,0"
         style="fill:#4d4d4d;fill-opacity:1;fill-rule:nonzero;stroke:none"
         id="path226"
         inkscape:connector-curvature="0" /><path
         d="m 6572.22,6955.32 0,-55.75 -51.46,0 0,55.75 c -14.74,8.68 -24.64,24.84 -24.64,43.21 0,27.82 22.54,50.47 50.36,50.47 27.83,0 50.47,-22.65 50.47,-50.47 0,-18.37 -9.9,-34.53 -24.73,-43.21 z m -101.75,267.11 c 0,5.63 2.14,11.26 6.44,15.55 4.29,4.3 9.92,6.44 15.54,6.44 l 108.13,0 c 5.63,0 11.26,-2.14 15.55,-6.44 4.3,-4.29 6.44,-9.92 6.44,-15.55 l 0,-106.58 -152.1,0 0,106.58 z m 210.75,-106.58 0,119.41 c 0,16.89 -6.45,33.77 -19.33,46.65 -12.88,12.89 -29.76,19.33 -46.65,19.33 l -137.45,0 c -16.88,0 -33.77,-6.44 -46.64,-19.33 -12.9,-12.88 -19.34,-29.76 -19.34,-46.65 l 0,-119.41 -69.74,0 0,-292.27 408.83,0 0,292.27 -69.68,0"
         style="fill:#4d4d4d;fill-opacity:1;fill-rule:nonzero;stroke:none"
         id="path228"
         inkscape:connector-curvature="0" /><path
         d="m 7747.93,11458.2 -207.51,119.8 0,-153.3 -58.08,33.5 -207.52,119.8 0,-479.2 207.52,119.8 58.08,33.5 0,-153.3 207.51,119.8 207.53,119.8 -207.53,119.8"
         style="fill:#4d4d4d;fill-opacity:1;fill-rule:nonzero;stroke:none"
         id="path242"
         inkscape:connector-curvature="0" /><path
         d="m 908.199,10269.4 0,239.5 207.441,-119.7 207.45,-119.8 -207.45,-119.8 -207.441,-119.7 0,239.5"
         style="fill:#4d4d4d;fill-opacity:1;fill-rule:nonzero;stroke:none"
         id="path244"
         inkscape:connector-curvature="0" /><path
         d="m 1350.74,10029.9 147.512,0 0,479.059 -147.512,0 0,-479.059 z"
         style="fill:#4d4d4d;fill-opacity:1;fill-rule:nonzero;stroke:none"
         id="path246"
         inkscape:connector-curvature="0" /><path
         d="m 9667.64,3027.42 0,-73 -74.59,0 79.7,-138.05 79.68,-138.04 79.71,138.04 79.69,138.05 -74.59,0 0,73 -169.6,0"
         style="fill:#4d4d4d;fill-opacity:1;fill-rule:nonzero;stroke:none"
         id="path288"
         inkscape:connector-curvature="0" /><path
         d="m 9942.11,2683.81 0,-60.39 -379.33,0 0,60.39 -78.01,0 0,-138.39 535.33,0 0,138.39 -77.99,0"
         style="fill:#4d4d4d;fill-opacity:1;fill-rule:nonzero;stroke:none"
         id="path290"
         inkscape:connector-curvature="0" /><path
         d="m 1288.99,6950.97 0,73.84 75.47,0 -80.63,139.64 -80.62,139.64 -80.62,-139.64 -80.6,-139.64 75.47,0 0,-73.84 171.53,0"
         style="fill:#4d4d4d;fill-opacity:1;fill-rule:nonzero;stroke:none"
         id="path292"
         inkscape:connector-curvature="0" /><path
         d="m 1393.43,6959.51 0,-60.55 -380.41,0 0,60.55 -78.219,0 0,-138.78 536.849,0 0,138.78 -78.22,0"
         style="fill:#4d4d4d;fill-opacity:1;fill-rule:nonzero;stroke:none"
         id="path294"
         inkscape:connector-curvature="0" /><path
         d="m 5622.26,11444.9 144.46,136 -130.98,0 -13.48,-12.7 -144.44,-136 -144.45,136 -13.47,12.7 -130.97,0 144.44,-136 144.45,-136.1 144.44,136.1"
         style="fill:#4d4d4d;fill-opacity:1;fill-rule:nonzero;stroke:none"
         id="path296"
         inkscape:connector-curvature="0" /><path
         d="m 5622.26,11232 144.46,136 -130.98,0 -13.48,-12.7 -144.44,-136 -144.45,136 -13.47,12.7 -130.97,0 144.44,-136 144.45,-136.1 144.44,136.1"
         style="fill:#4d4d4d;fill-opacity:1;fill-rule:nonzero;stroke:none"
         id="path298"
         inkscape:connector-curvature="0" /><path
         d="m 1258.67,8131.4 82.82,82.83 c 15.11,-25.07 23.03,-53.45 23.03,-82.83 0,-29.38 -7.92,-57.76 -23.03,-82.82 l -82.82,82.82 z m -55.44,-55.44 82.82,-82.82 c -25.07,-15.12 -53.45,-23.05 -82.82,-23.05 -29.39,0 -57.77,7.93 -82.84,23.05 l 82.84,82.82 z m -55.46,55.44 -82.82,-82.82 c -15.11,25.06 -23.04,53.44 -23.04,82.82 0,29.38 7.93,57.76 23.05,82.83 l 82.81,-82.83 z m 55.46,55.46 -82.83,82.81 c 25.08,15.11 53.44,23.04 82.83,23.04 29.37,0 57.75,-7.93 82.81,-23.04 l -82.81,-82.81 z m 188.88,91.64 c -12.16,15.58 -26.22,29.65 -41.81,41.8 -42.55,33.18 -93.4,50.72 -147.07,50.72 -53.69,0 -104.55,-17.54 -147.1,-50.72 -15.59,-12.17 -29.66,-26.23 -41.8,-41.81 -33.182,-42.56 -50.721,-93.42 -50.721,-147.09 0,-53.68 17.528,-104.54 50.711,-147.08 12.15,-15.6 26.22,-29.67 41.81,-41.82 42.55,-33.18 93.41,-50.71 147.1,-50.71 53.67,0 104.53,17.53 147.09,50.71 15.58,12.15 29.63,26.22 41.79,41.82 33.18,42.55 50.73,93.41 50.73,147.08 0,53.67 -17.55,104.53 -50.73,147.1"
         style="fill:#4d4d4d;fill-opacity:1;fill-rule:nonzero;stroke:none"
         id="path330"
         inkscape:connector-curvature="0" /><path
         d="m 6485.3,8131.41 0,92.06 79.71,-46.03 79.73,-46.03 -79.73,-46.03 -79.71,-46.03 0,92.06"
         style="fill:#4d4d4d;fill-opacity:1;fill-rule:nonzero;stroke:none"
         id="path352"
         inkscape:connector-curvature="0" /><path
         d="m 6707.79,8131.41 c 0,-88.94 -72.36,-161.3 -161.31,-161.3 -88.93,0 -161.29,72.36 -161.29,161.3 0,88.94 72.36,161.3 161.29,161.3 88.95,0 161.31,-72.36 161.31,-161.3 z m -400.93,0 c 0,-132.13 107.49,-239.62 239.62,-239.62 132.14,0 239.64,107.49 239.64,239.62 0,132.14 -107.5,239.62 -239.64,239.62 -132.13,0 -239.62,-107.48 -239.62,-239.62"
         style="fill:#4d4d4d;fill-opacity:1;fill-rule:nonzero;stroke:none"
         id="path354"
         inkscape:connector-curvature="0" /><path
         d="m 1430.16,5136.11 -548.281,0 0,-0.72 273.611,-192.56 47.89,-33.7 47.9,33.7 273.29,192.33 0,0.95 -94.41,0"
         style="fill:#4d4d4d;fill-opacity:1;fill-rule:nonzero;stroke:none"
         id="path370"
         inkscape:connector-curvature="0" /><path
         d="m 1269.85,4924.26 273.3,-192.34 0,384.67 -273.3,-192.33"
         style="fill:#4d4d4d;fill-opacity:1;fill-rule:nonzero;stroke:none"
         id="path372"
         inkscape:connector-curvature="0" /><path
         d="m 863.309,5116.81 0,-385.12 273.611,192.57 -273.611,192.55"
         style="fill:#4d4d4d;fill-opacity:1;fill-rule:nonzero;stroke:none"
         id="path374"
         inkscape:connector-curvature="0" /><path
         d="m 1251.28,4905.67 -47.9,-33.69 -47.89,33.69 -273.611,-192.55 0,-0.4 642.691,0 0,0.63 -273.29,192.32"
         style="fill:#4d4d4d;fill-opacity:1;fill-rule:nonzero;stroke:none"
         id="path376"
         inkscape:connector-curvature="0" /><path
         d="m 8732,8488.49 -48.05,33.83 -48.06,-33.83 -274.6,-193.24 0,-1.45 274.6,-193.26 48.06,33.83 48.05,-33.83 274.27,193.04 0,1.88 -274.27,193.03"
         style="fill:#4d4d4d;fill-opacity:1;fill-rule:nonzero;stroke:none"
         id="path378"
         inkscape:connector-curvature="0" /><path
         d="m 8750.16,8082.38 274.28,-193.01 0,386.03 -274.28,-193.02"
         style="fill:#4d4d4d;fill-opacity:1;fill-rule:nonzero;stroke:none"
         id="path380"
         inkscape:connector-curvature="0" /><path
         d="m 8343.13,8275.64 0,-386.5 274.6,193.24 -274.6,193.26"
         style="fill:#4d4d4d;fill-opacity:1;fill-rule:nonzero;stroke:none"
         id="path382"
         inkscape:connector-curvature="0" /><path
         d="m 8732,8064.23 -48.05,33.82 -48.06,-33.82 -274.6,-193.25 0,-0.4 644.98,0 0,0.64 -274.27,193.01"
         style="fill:#4d4d4d;fill-opacity:1;fill-rule:nonzero;stroke:none"
         id="path384"
         inkscape:connector-curvature="0" /><path
         d="m 7850.51,9052.26 -148.21,148.17 148.18,148.21 -87.18,87.14 -148.16,-148.2 -148.22,148.18 -87.16,-87.17 148.24,-148.18 -148.19,-148.22 87.17,-87.15 148.17,148.21 148.21,-148.16 87.15,87.17"
         style="fill:#4d4d4d;fill-opacity:1;fill-rule:nonzero;stroke:none"
         id="path402"
         inkscape:connector-curvature="0" /><path
         d="m 4513.09,10237.2 -0.87,-2.9 c -7.16,-20.8 -20.23,-39 -37.83,-52 l -2.53,-1.9 c -17.93,-12.7 -39.26,-19.6 -61.14,-19.9 l -3.08,0 c -21.99,0.3 -43.33,7.2 -61.25,19.9 l -2.42,1.9 c -17.59,13 -30.78,31.2 -37.82,52 l -0.99,2.9 c -6.49,20.9 -6.49,43.4 0,64.4 l 0.99,2.8 c 7.04,20.8 20.23,38.9 37.82,52.1 l 2.42,1.8 c 17.92,12.6 39.26,19.6 61.25,19.9 l 3.08,0 c 21.88,-0.3 43.21,-7.3 61.14,-19.9 l 2.53,-1.8 c 17.6,-13.2 30.67,-31.3 37.83,-52.1 l 0.87,-2.8 c 6.49,-21 6.49,-43.5 0,-64.4 z m 101.5,57.2 31.1,21.2 -18.02,55.3 -37.6,-1 -29.36,40.4 12.52,35.5 -46.94,34.2 -29.9,-22.9 -47.51,15.5 -10.67,36 -58.16,0 -10.57,-36 -47.61,-15.5 -29.79,22.9 -47.08,-34.2 12.66,-35.5 -29.48,-40.4 -37.6,1 -17.93,-55.3 31.01,-21.2 0,-50 -31.01,-21.3 17.93,-55.4 37.6,1.1 29.48,-40.4 -12.66,-35.4 47.08,-34.2 29.79,22.9 47.61,-15.5 10.57,-36 58.16,0 10.67,36 47.51,15.5 29.9,-22.9 46.94,34.2 -12.52,35.4 29.36,40.4 37.6,-1.1 18.02,55.4 -31.1,21.3 0,50"
         style="fill:#4d4d4d;fill-opacity:1;fill-rule:nonzero;stroke:none"
         id="path412"
         inkscape:connector-curvature="0" /><path
         d="m 5456.43,5911.33 -0.64,-2.2 c -5.4,-15.73 -15.4,-29.47 -28.72,-39.48 l -1.97,-1.43 c -13.64,-9.56 -29.79,-14.85 -46.42,-15.06 l -2.3,0 c -16.7,0.21 -32.87,5.5 -46.51,15.06 l -1.87,1.43 c -13.4,10.01 -23.41,23.75 -28.8,39.48 l -0.67,2.2 c -4.93,15.94 -4.93,32.98 0,48.92 l 0.67,2.21 c 5.39,15.72 15.4,29.57 28.8,39.58 l 1.87,1.32 c 13.64,9.57 29.81,14.85 46.51,15.05 l 2.3,0 c 16.63,-0.2 32.78,-5.48 46.42,-15.05 l 1.97,-1.32 c 13.32,-10.01 23.32,-23.86 28.72,-39.58 l 0.64,-2.21 c 4.97,-15.94 4.97,-32.98 0,-48.92 z m 77.08,43.43 23.54,16.17 -13.64,42 -28.48,-0.77 -22.31,30.68 9.56,26.95 -35.74,25.94 -22.64,-17.38 -36.18,11.66 -8.04,27.49 -44.19,0 -8.04,-27.49 -36.16,-11.66 -22.55,17.38 -35.74,-25.94 9.58,-26.95 -22.34,-30.68 -28.59,0.77 -13.63,-42 23.54,-16.17 0,-37.93 -23.54,-16.18 13.63,-41.99 28.59,0.76 22.34,-30.68 -9.58,-26.93 35.74,-25.95 22.55,17.36 36.16,-11.66 8.04,-27.36 44.19,0 8.04,27.36 36.18,11.66 22.64,-17.36 35.74,25.95 -9.56,26.93 22.31,30.68 28.48,-0.76 13.64,41.99 -23.54,16.18 0,37.93"
         style="fill:#4d4d4d;fill-opacity:1;fill-rule:nonzero;stroke:none"
         id="path414"
         inkscape:connector-curvature="0" /><path
         d="m 5679.87,6082.64 -0.53,-1.54 c -3.76,-11.1 -10.79,-20.89 -20.26,-27.82 l -1.3,-0.99 c -9.56,-6.82 -21.01,-10.44 -32.78,-10.67 l -1.52,0 c -11.77,0.23 -23.22,3.85 -32.78,10.67 l -1.32,0.99 c -9.35,6.93 -16.37,16.72 -20.24,27.82 l -0.43,1.54 c -3.52,11.22 -3.52,23.2 0,34.43 l 0.43,1.52 c 3.87,11.12 10.89,20.78 20.24,27.83 l 1.32,0.98 c 9.56,6.72 21.01,10.46 32.78,10.56 l 1.52,0 c 11.77,-0.1 23.22,-3.84 32.78,-10.56 l 1.3,-0.98 c 9.47,-7.05 16.5,-16.71 20.26,-27.83 l 0.53,-1.52 c 3.42,-11.23 3.42,-23.21 0,-34.43 z m 51.7,11.22 26.15,13.84 -5.38,30.37 -29.26,4.06 -12.75,22.1 11.12,27.38 -23.64,19.91 -25.09,-15.73 -23.96,8.69 -9.13,28.15 -30.78,0 -9.13,-28.15 -23.96,-8.69 -25.09,15.73 -23.64,-19.91 11.1,-27.38 -12.74,-22.1 -29.25,-4.06 -5.39,-30.37 26.16,-13.84 4.4,-25.18 -19.78,-21.89 15.38,-26.71 28.93,6.15 19.56,-16.38 -1.09,-29.58 29.03,-10.56 18.15,23.31 25.5,0 18.14,-23.31 29.04,10.56 -1.1,29.58 19.57,16.38 28.93,-6.15 15.38,26.71 -19.78,21.89 4.4,25.18"
         style="fill:#4d4d4d;fill-opacity:1;fill-rule:nonzero;stroke:none"
         id="path416"
         inkscape:connector-curvature="0" /><path
         d="m 2271.82,1621.8 c -22.76,0 -45.18,2.3 -66.75,7 l -11.42,2.4 -55.97,-53.4 9,70.1 -13.08,7.3 c -50.9,28.1 -80.15,69.2 -80.15,112.6 0,80.6 97.98,146.1 218.37,146.1 120.5,0 218.49,-65.5 218.49,-146.1 0,-80.5 -97.99,-146 -218.49,-146 z m 0,336.1 c -144.71,0 -262.35,-85.3 -262.35,-190.1 0,-55.9 32.53,-107.4 89.83,-143.5 l -15.18,-147.4 123.14,106.6 c 21.14,-3.9 42.79,-5.7 64.56,-5.7 144.71,0 262.47,85.2 262.47,190 0,104.8 -117.76,190.1 -262.47,190.1"
         style="fill:#4d4d4d;fill-opacity:1;fill-rule:nonzero;stroke:none"
         id="path444"
         inkscape:connector-curvature="0" /><path
         d="m 5737.44,3737.86 -9.12,-5.06 6.27,-49.04 -39.16,37.4 -7.91,-1.77 c -15.07,-3.3 -30.79,-4.95 -46.74,-4.95 -11.21,0 -22.11,0.76 -32.54,2.43 -2.75,0.31 -5.5,0.77 -8.14,1.33 -3.3,0.53 -6.49,1.19 -9.68,1.97 -3.08,0.77 -6.04,1.52 -9,2.3 -0.12,0.1 -0.23,0.1 -0.23,0.1 -3.08,0.89 -6.05,1.88 -9.02,2.86 -5.94,1.99 -11.65,4.19 -17.04,6.72 -2.75,1.21 -5.4,2.54 -7.93,3.85 -2.63,1.31 -5.15,2.74 -7.58,4.19 -1.87,1.09 -3.63,2.18 -5.39,3.39 -0.31,0.17 -0.56,0.38 -0.84,0.59 4.36,-2.91 8.94,-5.66 13.81,-8.17 -5.02,2.6 -9.74,5.43 -14.2,8.43 -0.17,0.14 -0.36,0.24 -0.53,0.37 -0.22,0.13 -0.41,0.28 -0.62,0.41 -4.37,3.01 -8.52,6.17 -12.35,9.47 3.69,-3.24 7.71,-6.27 11.92,-9.17 -0.46,0.31 -0.93,0.62 -1.36,0.93 -1.43,0.98 -2.86,2.1 -4.29,3.09 l 0,0.11 c -0.34,0.22 -0.77,0.53 -1.1,0.76 -1.76,1.43 -3.52,2.86 -5.17,4.28 -1.77,1.55 -3.52,3.2 -5.17,4.86 -0.22,0.31 -0.55,0.53 -0.76,0.87 -1.76,1.77 -3.41,3.51 -4.96,5.27 -1.2,1.33 -2.3,2.75 -3.41,4.18 -1.1,1.43 -2.09,2.76 -3.08,4.17 -0.11,0.13 -0.11,0.24 -0.21,0.24 -0.99,1.41 -1.87,2.86 -2.75,4.4 -0.88,1.42 -1.76,2.97 -2.54,4.49 -0.54,1.01 -1.09,2.1 -1.53,3.09 -0.65,1.42 -1.32,2.96 -1.87,4.41 -0.44,0.99 -0.77,1.97 -1.11,2.96 -0.42,1.31 -0.88,2.53 -1.2,3.73 -0.44,1.66 -0.88,3.32 -1.21,4.95 -0.44,2.32 -0.87,4.72 -1.09,7.05 -0.34,2.42 -0.45,4.82 -0.45,7.25 0,1.76 0.11,3.52 0.22,5.28 0.11,1.63 0.33,3.29 0.56,4.83 0,0.22 0,0.33 0,0.33 0.21,1.32 0.43,2.53 0.76,3.86 0.77,3.74 1.88,7.47 3.29,11.11 0.56,1.62 1.34,3.29 2.1,4.82 1.43,3.19 3.08,6.38 5.06,9.35 0.88,1.55 1.97,2.96 3.07,4.51 1,1.44 2.1,2.86 3.2,4.19 1.2,1.53 2.52,3.07 3.84,4.51 1.21,1.41 2.65,2.85 4.07,4.17 0.88,0.98 1.77,1.87 2.75,2.64 1.11,1.2 2.42,2.19 3.63,3.31 0.77,0.64 1.53,1.3 2.31,1.96 2.08,1.67 4.18,3.19 6.27,4.73 4.51,3.19 9.34,6.28 14.52,9.13 3.74,2.09 7.58,3.95 11.64,5.82 2.87,1.34 5.84,2.54 8.91,3.74 2.64,0.99 5.5,2.11 8.25,2.98 1.1,0.33 2.2,0.75 3.31,0.99 2.85,0.99 5.81,1.87 8.78,2.62 2.64,0.67 5.28,1.33 7.93,1.89 3.41,0.87 6.81,1.53 10.22,2.09 2.42,0.43 4.83,0.77 7.26,1.09 2.42,0.33 4.95,0.67 7.47,0.89 2.97,0.32 5.95,0.56 8.91,0.76 4.73,0.33 9.45,0.43 14.29,0.43 84.12,0 152.63,-45.84 152.63,-102.03 0,-30.45 -20.45,-59.06 -55.97,-78.74 z m -358.46,42.79 c -21.46,0 -42.68,2.18 -63.02,6.59 l -10.78,2.3 -52.66,-50.37 8.46,66.11 -12.42,6.81 c -47.95,26.61 -75.54,65.31 -75.54,106.22 0,75.98 92.36,137.77 205.96,137.77 101.38,0 185.94,-49.24 202.75,-113.91 -72.13,-17.8 -124.25,-67.42 -124.25,-125.57 0,-8.46 1.11,-16.71 3.19,-24.75 -25.07,-7.25 -52.67,-11.2 -81.69,-11.2 z m 445.11,35.95 c 0,73.13 -82.24,132.72 -183.31,132.72 -6.04,0 -12.1,-0.21 -17.91,-0.66 -19.92,84.44 -121.73,148.9 -243.89,148.9 -136.47,0 -247.41,-80.39 -247.41,-179.25 0,-52.68 30.66,-101.28 84.66,-135.26 l -14.18,-138.97 116.12,100.49 c 19.79,-3.63 40.23,-5.5 60.81,-5.5 35.51,0 69.38,5.5 99.95,15.28 30.89,-41.99 91.81,-70.59 161.85,-70.59 15.29,0 30.47,1.32 45.09,3.95 l 86.11,-74.43 -10.57,103.03 c 40.03,25.19 62.68,61.24 62.68,100.29"
         style="fill:#4d4d4d;fill-opacity:1;fill-rule:nonzero;stroke:none"
         id="path446"
         inkscape:connector-curvature="0" /><path
         d="m 6441.79,4685.06 -165.99,322.24 96.73,49.83 124.29,-241.28 229.5,347.92 90.84,-59.91 -276.24,-418.8 -99.13,0"
         style="fill:#4d4d4d;fill-opacity:1;fill-rule:nonzero;stroke:none"
         id="path466"
         inkscape:connector-curvature="0" /><path
         d="m 8812.99,7174.87 c 0,-71.37 -57.84,-129.2 -129.2,-129.2 -71.37,0 -129.21,57.83 -129.21,129.2 0,71.36 57.84,129.21 129.21,129.21 71.36,0 129.2,-57.85 129.2,-129.21"
         style="fill:#4d4d4d;fill-opacity:1;fill-rule:nonzero;stroke:none"
         id="path552"
         inkscape:connector-curvature="0" /><path
         d="m 8683.79,7010.82 c -37.83,0 -72.98,11.21 -102.56,30.29 -36.03,-52.24 -59.46,-131.3 -60.69,-220.37 l 326.5,0 c -1.25,89.06 -24.67,168.11 -60.69,220.35 -29.58,-19.06 -64.74,-30.27 -102.56,-30.27"
         style="fill:#4d4d4d;fill-opacity:1;fill-rule:nonzero;stroke:none"
         id="path554"
         inkscape:connector-curvature="0" /><path
         d="m 4543.61,1781.7 c 8.33,27.1 12.46,54.9 7,83.4 -1.87,9.7 -4.91,19.4 -9.44,29 -8.12,17.3 -22.14,28.9 -40.79,32.9 -3.15,0.7 -6.44,1.2 -9.73,1.6 10.48,1 20.75,0.9 30.05,-1.1 14.79,-3.2 25.88,-12.5 32.32,-26.1 3.56,-7.6 5.99,-15.3 7.45,-23 6.4,-33.5 -3.86,-65.5 -16.86,-96.7 z m 55.57,110.2 c -1.81,9.6 -4.86,19.1 -9.26,28.5 -8,17 -21.74,28.4 -40.08,32.4 -30.95,6.7 -71.08,-3.6 -100.17,-14.1 -41.68,-15 -89.1,4.7 -131.11,12.2 -34.84,6.3 -73.09,6.1 -90.33,-30.5 -4.42,-9.4 -7.41,-18.9 -9.24,-28.5 -10.22,-53.5 16.37,-108.6 37.07,-157 7.2,-16.8 16.07,-33.5 22.53,-50.7 15.02,-39.9 22.47,-82.5 25,-124.9 1.93,-32.8 3.74,-79.4 49.87,-79.4 17.85,0 -17.46,121.8 19.87,162 12.84,13.9 24.87,19.6 35.75,19.8 10.89,-0.2 22.96,-5.9 35.76,-19.8 37.31,-40.2 2.06,-162 19.85,-162 46.13,0 47.98,46.6 49.93,79.4 1.39,24 2.39,51.6 10.69,74.3 7.57,20.7 14.18,41.8 21.44,62.7 21.63,62.2 65.67,126.5 52.43,195.6"
         style="fill:#4d4d4d;fill-opacity:1;fill-rule:nonzero;stroke:none"
         id="path602"
         inkscape:connector-curvature="0" /><path
         d="m 0,141.5 12000,0 0,931.699 -12000,0 L 0,141.5 Z"
         style="fill:#ffffff;fill-opacity:1;fill-rule:nonzero;stroke:none"
         id="path716"
         inkscape:connector-curvature="0" /><path
         d="m 2238.43,288.199 0,448.801 -69.94,0 0,102 99.08,52.402 133.08,0 0,-603.203 -162.22,0"
         style="fill:#4d4d4d;fill-opacity:1;fill-rule:nonzero;stroke:none"
         id="path718"
         inkscape:connector-curvature="0" /><path
         d="m 2747.43,600 c 0,98.102 0,158.301 -54.4,158.301 -51.49,0 -51.49,-60.199 -51.49,-158.301 l 0,-14.598 c 0,-112.703 0,-172.902 55.38,-172.902 50.51,0 50.51,59.301 50.51,172.902 l 0,14.598 z m -54.4,-321.5 c -171.94,0 -208.85,111.699 -208.85,311.801 0,201.101 35.94,310.801 208.85,310.801 174.85,0 209.83,-109.7 209.83,-310.801 0,-200.102 -34.98,-311.801 -209.83,-311.801"
         style="fill:#4d4d4d;fill-opacity:1;fill-rule:nonzero;stroke:none"
         id="path720"
         inkscape:connector-curvature="0" /><path
         d="m 3206.89,600 c 0,98.102 0,158.301 -54.4,158.301 C 3101,758.301 3101,698.102 3101,600 l 0,-14.598 c 0,-112.703 0,-172.902 55.37,-172.902 50.52,0 50.52,59.301 50.52,172.902 l 0,14.598 z m -54.4,-321.5 c -171.94,0 -208.85,111.699 -208.85,311.801 0,201.101 35.94,310.801 208.85,310.801 174.85,0 209.82,-109.7 209.82,-310.801 0,-200.102 -34.97,-311.801 -209.82,-311.801"
         style="fill:#4d4d4d;fill-opacity:1;fill-rule:nonzero;stroke:none"
         id="path722"
         inkscape:connector-curvature="0" /><path
         d="m 3902.38,487.301 0,404.101 167.08,0 0,-413.8 c 0,-142.801 -81.6,-199.102 -225.37,-199.102 -141.83,0 -216.62,57.301 -216.62,197.102 l 0,415.8 169.99,0 0,-405.101 c 0,-39.801 14.57,-59.199 53.43,-59.199 39.83,0 51.49,19.398 51.49,60.199"
         style="fill:#4d4d4d;fill-opacity:1;fill-rule:nonzero;stroke:none"
         id="path724"
         inkscape:connector-curvature="0" /><path
         d="m 4435.67,288.199 -125.31,280.703 -7.77,0 0,-280.703 -147.66,0 0,603.203 164.17,0 119.48,-289.504 7.77,0 0,289.504 148.63,0 0,-603.203 -159.31,0"
         style="fill:#4d4d4d;fill-opacity:1;fill-rule:nonzero;stroke:none"
         id="path726"
         inkscape:connector-curvature="0" /><path
         d="m 4690.15,288.199 165.137,0 0,603.203 -165.137,0 0,-603.203 z"
         style="fill:#4d4d4d;fill-opacity:1;fill-rule:nonzero;stroke:none"
         id="path728"
         inkscape:connector-curvature="0" /><path
         d="m 5284.64,288.199 -256.45,0 -108.8,603.203 183.6,0 52.45,-395.402 16.52,0 39.82,395.402 174.86,0 -102,-603.203"
         style="fill:#4d4d4d;fill-opacity:1;fill-rule:nonzero;stroke:none"
         id="path730"
         inkscape:connector-curvature="0" /><path
         d="m 5441.01,288.199 0,603.203 336.11,0 -9.72,-148.601 -160.27,0 0,-90.301 138.91,0 0,-128.301 -138.91,0 0,-100 169.99,0 -9.72,-136 -326.39,0"
         style="fill:#4d4d4d;fill-opacity:1;fill-rule:nonzero;stroke:none"
         id="path732"
         inkscape:connector-curvature="0" /><path
         d="m 6022.88,743.801 -26.23,0 0,-136 25.25,0 c 33.03,0 46.63,14.5 46.63,69.898 0,48.602 -14.57,66.102 -45.65,66.102 z m 155.42,-199.199 80.63,-256.403 -179.71,0 -60.23,217.602 -22.34,0 0,-217.602 -163.2,0 0,603.203 225.37,0 c 128.22,0 187.48,-56.3 187.48,-191.3 0,-74.801 -22.34,-117.602 -68,-155.5"
         style="fill:#4d4d4d;fill-opacity:1;fill-rule:nonzero;stroke:none"
         id="path734"
         inkscape:connector-curvature="0" /><path
         d="m 6655.23,883.602 -19.42,-155.403 c -54.39,12.602 -100.05,22.403 -132.11,22.403 -28.17,0 -45.66,-11.7 -45.66,-37 0,-54.403 211.76,-59.204 211.76,-241.801 0,-121.5 -66.04,-193.301 -192.32,-193.301 -70.92,0 -121.43,10.602 -174.86,28.102 l 10.68,144.8 c 67.03,-19.504 107.83,-30.101 148.63,-30.101 25.25,0 36.91,11.601 36.91,35.898 0,69.903 -212.74,62.199 -212.74,252.602 0,113.597 69.95,191.301 189.43,191.301 60.23,0 128.23,-7.704 179.7,-17.5"
         style="fill:#4d4d4d;fill-opacity:1;fill-rule:nonzero;stroke:none"
         id="path736"
         inkscape:connector-curvature="0" /><path
         d="m 6928.18,712.699 -6.8,0 -34.01,-215.699 74.8,0 -33.99,215.699 z m 70.91,-424.5 -18.46,95.199 -114.62,0 -18.46,-95.199 -154.45,0 110.74,603.203 246.73,0 110.74,-603.203 -162.22,0"
         style="fill:#4d4d4d;fill-opacity:1;fill-rule:nonzero;stroke:none"
         id="path738"
         inkscape:connector-curvature="0" /><path
         d="m 7211.8,288.199 0,603.203 166.12,0 0,-468.203 150.56,0 -9.71,-135 -306.97,0"
         style="fill:#4d4d4d;fill-opacity:1;fill-rule:nonzero;stroke:none"
         id="path740"
         inkscape:connector-curvature="0" /><path
         d="m 7777.13,288.199 165.141,0 0,603.203 -165.141,0 0,-603.203 z"
         style="fill:#4d4d4d;fill-opacity:1;fill-rule:nonzero;stroke:none"
         id="path742"
         inkscape:connector-curvature="0" /><path
         d="m 8369.69,443.602 25.25,-137 c -47.6,-17.5 -96.16,-28.102 -154.45,-28.102 -159.31,0 -222.45,110.699 -222.45,306 0,197.102 63.14,316.602 236.05,316.602 51.48,0 102.97,-13.602 140.85,-31.102 L 8368.71,719.5 C 8325,734 8291,744.699 8262.83,744.699 c -58.28,0 -75.76,-49.5 -75.76,-161.199 0,-109.801 17.48,-158.398 78.68,-158.398 25.25,0 63.14,7.8 103.94,18.5"
         style="fill:#4d4d4d;fill-opacity:1;fill-rule:nonzero;stroke:none"
         id="path744"
         inkscape:connector-curvature="0" /><path
         d="m 8585.32,596.102 0,-23.301 c 0,-125.301 12.63,-153.5 72.86,-153.5 56.34,0 67.02,29.097 67.02,144.801 l 0,31 c 0,114.699 -10.68,152.5 -72.85,152.5 -58.29,0 -67.03,-39.801 -67.03,-151.5 z M 8892.29,599 c 0,-217.598 -68,-320.5 -239.94,-320.5 -170,0 -236.05,104.898 -236.05,313.699 0,216.602 68,308.903 238.97,308.903 171.94,0 237.02,-94.204 237.02,-302.102"
         style="fill:#4d4d4d;fill-opacity:1;fill-rule:nonzero;stroke:none"
         id="path746"
         inkscape:connector-curvature="0" /><path
         d="m 9239.06,288.199 -125.31,280.703 -7.77,0 0,-280.703 -147.65,0 0,603.203 164.16,0 119.49,-289.504 7.76,0 0,289.504 148.63,0 0,-603.203 -159.31,0"
         style="fill:#4d4d4d;fill-opacity:1;fill-rule:nonzero;stroke:none"
         id="path748"
         inkscape:connector-curvature="0" /><path
         d="m 9825.77,883.602 -19.43,-155.403 c -54.4,12.602 -100.06,22.403 -132.12,22.403 -28.16,0 -45.65,-11.7 -45.65,-37 0,-54.403 211.77,-59.204 211.77,-241.801 0,-121.5 -66.06,-193.301 -192.34,-193.301 -70.91,0 -121.43,10.602 -174.86,28.102 l 10.7,144.8 c 67.02,-19.504 107.82,-30.101 148.61,-30.101 25.27,0 36.92,11.601 36.92,35.898 0,69.903 -212.73,62.199 -212.73,252.602 0,113.597 69.93,191.301 189.42,191.301 60.22,0 128.22,-7.704 179.71,-17.5"
         style="fill:#4d4d4d;fill-opacity:1;fill-rule:nonzero;stroke:none"
         id="path750"
         inkscape:connector-curvature="0" /></g></g></svg>