<?xml version="1.0" encoding="UTF-8" standalone="no"?>
<!-- Created with Inkscape (http://www.inkscape.org/) -->

<svg
   xmlns:dc="http://purl.org/dc/elements/1.1/"
   xmlns:cc="http://creativecommons.org/ns#"
   xmlns:rdf="http://www.w3.org/1999/02/22-rdf-syntax-ns#"
   xmlns:svg="http://www.w3.org/2000/svg"
   xmlns="http://www.w3.org/2000/svg"
   xmlns:sodipodi="http://sodipodi.sourceforge.net/DTD/sodipodi-0.dtd"
   xmlns:inkscape="http://www.inkscape.org/namespaces/inkscape"
   id="svg2"
   version="1.1"
   inkscape:version="0.91 r13725"
   xml:space="preserve"
   width="2500"
   height="2500"
   viewBox="0 0 2500 2500"
   sodipodi:docname="648.svg"><metadata
     id="metadata8"><rdf:RDF><cc:Work
         rdf:about=""><dc:format>image/svg+xml</dc:format><dc:type
           rdf:resource="http://purl.org/dc/dcmitype/StillImage" /><dc:title></dc:title></cc:Work></rdf:RDF></metadata><defs
     id="defs6" /><sodipodi:namedview
     pagecolor="#ffffff"
     bordercolor="#666666"
     borderopacity="1"
     objecttolerance="10"
     gridtolerance="10"
     guidetolerance="10"
     inkscape:pageopacity="0"
     inkscape:pageshadow="2"
     inkscape:window-width="1680"
     inkscape:window-height="1026"
     id="namedview4"
     showgrid="false"
     inkscape:zoom="0.26700352"
     inkscape:cx="1825.9669"
     inkscape:cy="1276.9886"
     inkscape:window-x="1600"
     inkscape:window-y="24"
     inkscape:window-maximized="1"
     inkscape:current-layer="g10" /><g
     id="g10"
     inkscape:groupmode="layer"
     inkscape:label="ink_ext_XXXXXX"
     transform="matrix(1.25,0,0,-1.25,0,2500)"><g
       id="g12"
       transform="scale(0.136333,0.136333)"><path
         d="m 2535.04,13881.3 c 0,-12.3 -10.04,-22.3 -22.32,-22.3 l -31.96,0 c -12.27,0 -22.33,10 -22.33,22.3 l 0,42.7 c 0,12.2 10.06,22.3 22.33,22.3 l 31.96,0 c 12.28,0 22.32,-10.1 22.32,-22.3 l 0,-42.7 z m 0,-115.8 c 0,-12.3 -10.04,-22.3 -22.32,-22.3 l -31.96,0 c -12.27,0 -22.33,10 -22.33,22.3 l 0,46.2 c 0,12.3 10.06,22.3 22.33,22.3 l 31.96,0 c 12.28,0 22.32,-10 22.32,-22.3 l 0,-46.2 z m -101.55,115.8 c 0,-12.3 -10.05,-22.3 -22.33,-22.3 l -31.96,0 c -12.27,0 -22.32,10 -22.32,22.3 l 0,42.7 c 0,12.2 10.05,22.3 22.32,22.3 l 31.96,0 c 12.28,0 22.33,-10.1 22.33,-22.3 l 0,-42.7 z m 0,-115.8 c 0,-12.3 -10.05,-22.3 -22.33,-22.3 l -31.96,0 c -12.27,0 -22.32,10 -22.32,22.3 l 0,46.2 c 0,12.3 10.05,22.3 22.32,22.3 l 31.96,0 c 12.28,0 22.33,-10 22.33,-22.3 l 0,-46.2 z m -336.85,115.8 c 0,-12.3 -10.03,-22.3 -22.32,-22.3 l -31.95,0 c -12.28,0 -22.33,10 -22.33,22.3 l 0,42.7 c 0,12.2 10.05,22.3 22.33,22.3 l 31.95,0 c 12.29,0 22.32,-10.1 22.32,-22.3 l 0,-42.7 z m 0,-115.8 c 0,-12.3 -10.03,-22.3 -22.32,-22.3 l -31.95,0 c -12.28,0 -22.33,10 -22.33,22.3 l 0,46.2 c 0,12.3 10.05,22.3 22.33,22.3 l 31.95,0 c 12.29,0 22.32,-10 22.32,-22.3 l 0,-46.2 z m -101.54,115.8 c 0,-12.3 -10.06,-22.3 -22.34,-22.3 l -31.95,0 c -12.28,0 -22.33,10 -22.33,22.3 l 0,42.7 c 0,12.2 10.05,22.3 22.33,22.3 l 31.95,0 c 12.28,0 22.34,-10.1 22.34,-22.3 l 0,-42.7 z m 0,-115.8 c 0,-12.3 -10.06,-22.3 -22.34,-22.3 l -31.95,0 c -12.28,0 -22.33,10 -22.33,22.3 l 0,46.2 c 0,12.3 10.05,22.3 22.33,22.3 l 31.95,0 c 12.28,0 22.34,-10 22.34,-22.3 l 0,-46.2 z m 601.2,298.8 -739.09,0 c -12.28,0 -22.34,-10 -22.34,-22.3 l 0,-426.2 c 0,-12.3 10.06,-22.4 22.34,-22.4 l 262.6,0 c 12.28,0 22.33,10.1 22.33,22.4 l 0,195.9 c 0,12.3 0,27.9 0,34.8 0,6.9 0,16.1 0,20.6 0,4.4 10.04,8 22.32,8 l 124.61,0 c 12.27,0 22.32,-3.6 22.32,-8 0,-4.5 0,-13.7 0,-20.6 0,-6.9 0,-22.5 0,-34.8 l 0,-195.9 c 0,-12.3 10.04,-22.4 22.33,-22.4 l 262.58,0 c 12.3,0 22.34,10.1 22.34,22.4 l 0,426.2 c 0,12.3 -10.04,22.3 -22.34,22.3"
         style="fill:#3a4145;fill-opacity:1;fill-rule:nonzero;stroke:none"
         id="path22"
         inkscape:connector-curvature="0" /><path
         d="m 1857.21,14105.5 739.09,0 c 12.3,0 14.4,6.2 4.66,13.7 l -356.53,275.5 c -4.86,3.7 -11.27,5.6 -17.66,5.6 -6.42,0 -12.82,-1.9 -17.68,-5.6 l -149.41,-115.5 c -3.35,-2.6 -6.48,-3.8 -9.16,-3.8 -5.1,0 -8.5,4.5 -8.5,12.5 l 0,89.2 c 0,12.3 -10.07,22.3 -22.33,22.3 l -65.14,0 c -12.28,0 -22.34,-10 -22.34,-22.3 l 0,-174 c 0,-12.3 -7.94,-28.5 -17.64,-36 l -62.02,-47.9 c -9.72,-7.5 -7.62,-13.7 4.66,-13.7"
         style="fill:#3a4145;fill-opacity:1;fill-rule:nonzero;stroke:none"
         id="path24"
         inkscape:connector-curvature="0" /><path
         d="m 5067.19,12532.5 c 38.04,-90.5 110.54,-139.7 158.9,-139.7 47.5,0 114.08,47.6 152.66,136.9 9.36,21.7 17.47,49.4 23.11,76.5 6.3,21.6 9.78,49.1 9.78,84.2 0,92.8 -83.07,171 -185.55,171 -102.42,0 -185.51,-78.2 -185.51,-171 0,-24.5 1.51,-45.3 4.31,-62.9 3.75,-32.2 11.01,-68.4 22.3,-95"
         style="fill:#3a4145;fill-opacity:1;fill-rule:nonzero;stroke:none"
         id="path30"
         inkscape:connector-curvature="0" /><path
         d="m 5554.16,12268.2 c -37.09,39.6 -141.36,29.7 -192.91,56.9 -22.92,-42.8 -23.23,-113.3 -61.27,-113.3 -1.62,0 -3.32,0.1 -5.09,0.4 -57.33,8.6 -28.67,154.8 -68.8,154.8 -40.13,0 -11.47,-146.2 -68.8,-154.8 -1.77,-0.3 -3.46,-0.4 -5.1,-0.4 -38.04,0 -38.35,70.5 -61.26,113.3 -51.52,-27.2 -155.79,-17.3 -192.75,-56.9 -20.1,-21.5 -30.53,-154.6 -30.53,-213.7 l 716.87,0 c 0,59.1 -10.38,192.2 -30.36,213.7"
         style="fill:#3a4145;fill-opacity:1;fill-rule:nonzero;stroke:none"
         id="path32"
         inkscape:connector-curvature="0" /><path
         d="m 10625.8,6666.49 c 8,7.99 19.3,21.78 25.3,36.31 20.4,50.24 11.1,59.92 11.1,59.92 -13.5,29.05 -42.2,67.78 -80.3,105.85 -38.1,38.07 -76.8,66.75 -105.8,80.24 0,0 -47.1,14.53 -82.4,-20.97 -0.2,0.07 0,0 -0.4,-0.37 0,-0.08 -0.1,-0.08 -0.1,-0.08 l 0,-0.07 c -4.9,-4.84 -9.3,-9.75 -13.6,-14.59 l 246.2,-246.24"
         style="fill:#3a4145;fill-opacity:1;fill-rule:nonzero;stroke:none"
         id="path44"
         inkscape:connector-curvature="0" /><path
         d="m 11127.3,6297.61 c -13.4,28.98 -42.1,67.7 -80.2,105.77 -38.1,38.07 -76.9,66.82 -105.8,80.25 0,0 -9.7,9.39 -59.9,-11.15 -14.5,-5.87 -28.4,-17.31 -36.4,-25.23 l 246.3,-246.17 c 4.8,4.18 9.7,8.73 14.6,13.57 l 0,0 c 0,0 0,0.08 0.1,0.15 0.4,0.36 0.4,0.22 0.4,0.36 35.5,35.36 20.9,82.45 20.9,82.45"
         style="fill:#3a4145;fill-opacity:1;fill-rule:nonzero;stroke:none"
         id="path46"
         inkscape:connector-curvature="0" /><path
         d="m 10818.8,6411.96 c -7.8,-10.48 -20.1,-14.81 -34.9,-14.81 -44.8,0 -111.8,40.12 -139.9,68.21 -37.4,37.41 -95.8,143.33 -53.5,174.87 2.3,1.47 4.8,2.93 7.2,4.55 l -239.6,239.63 c -36.1,-54.79 -34.7,-98.51 -34.7,-98.51 0,0 -6.2,-198.92 218,-423.08 212.3,-212.35 401.9,-217.92 421.3,-217.92 1.1,0 1.7,0 1.7,0 0,0 0.3,0 0.8,0 5.9,0 47.1,1.24 97.7,34.69 l -239.6,239.56 c -1.5,-2.42 -3.1,-4.84 -4.5,-7.19"
         style="fill:#3a4145;fill-opacity:1;fill-rule:nonzero;stroke:none"
         id="path48"
         inkscape:connector-curvature="0" /><path
         d="m 6743.75,9155.85 c -189.98,0 -344,154.01 -344,343.97 0,189.97 154.02,343.98 344,343.98 189.97,0 343.97,-154.01 343.97,-343.98 0,-189.96 -154,-343.97 -343.97,-343.97 z m 0,747.39 c -222.82,0 -403.43,-180.61 -403.43,-403.42 0,-222.8 180.61,-403.43 403.43,-403.43 222.79,0 403.41,180.63 403.41,403.43 0,222.81 -180.62,403.42 -403.41,403.42"
         style="fill:#3a4145;fill-opacity:1;fill-rule:nonzero;stroke:none"
         id="path52"
         inkscape:connector-curvature="0" /><path
         d="m 6743.75,9322.43 c -8.74,0 -15.8,-5.88 -15.8,-13.16 l 0,-57.73 c 0,-7.28 7.06,-13.16 15.8,-13.16 8.71,0 15.79,5.88 15.79,13.16 l 0,57.73 c 0,7.28 -7.08,13.16 -15.79,13.16"
         style="fill:#3a4145;fill-opacity:1;fill-rule:nonzero;stroke:none"
         id="path54"
         inkscape:connector-curvature="0" /><path
         d="m 6743.75,9677.21 c 8.71,0 15.79,5.89 15.79,13.16 l 0,57.74 c 0,7.27 -7.08,13.16 -15.79,13.16 -8.74,0 -15.8,-5.89 -15.8,-13.16 l 0,-57.74 c 0,-7.27 7.06,-13.16 15.8,-13.16"
         style="fill:#3a4145;fill-opacity:1;fill-rule:nonzero;stroke:none"
         id="path56"
         inkscape:connector-curvature="0" /><path
         d="m 6992.03,9515.61 -57.74,0 c -7.27,0 -13.17,-7.07 -13.17,-15.79 0,-8.73 5.9,-15.8 13.17,-15.8 l 57.74,0 c 7.26,0 13.15,7.07 13.15,15.8 0,8.72 -5.89,15.79 -13.15,15.79"
         style="fill:#3a4145;fill-opacity:1;fill-rule:nonzero;stroke:none"
         id="path58"
         inkscape:connector-curvature="0" /><path
         d="m 6553.18,9515.61 -57.72,0 c -7.26,0 -13.17,-7.07 -13.17,-15.79 0,-8.73 5.91,-15.8 13.17,-15.8 l 57.72,0 c 7.28,0 13.17,7.07 13.17,15.8 0,8.72 -5.89,15.79 -13.17,15.79"
         style="fill:#3a4145;fill-opacity:1;fill-rule:nonzero;stroke:none"
         id="path60"
         inkscape:connector-curvature="0" /><path
         d="m 6743.75,9196.37 c -167.35,0 -303.46,136.12 -303.46,303.45 0,167.32 136.11,303.45 303.46,303.45 167.32,0 303.44,-136.13 303.44,-303.45 0,-167.33 -136.12,-303.45 -303.44,-303.45 z m 0,626.11 c -177.93,0 -322.68,-144.75 -322.68,-322.66 0,-177.92 144.75,-322.66 322.68,-322.66 177.9,0 322.65,144.74 322.65,322.66 0,177.91 -144.75,322.66 -322.65,322.66"
         style="fill:#3a4145;fill-opacity:1;fill-rule:nonzero;stroke:none"
         id="path62"
         inkscape:connector-curvature="0" /><path
         d="m 6862.67,9629.68 -80.69,-164.89 -1.34,1.23 0,-3.09 -16.16,16.14 c 5.31,5.31 8.61,12.65 8.61,20.75 0,16.21 -13.15,29.35 -29.34,29.35 -8.11,0 -15.45,-3.29 -20.76,-8.6 l -15.5,15.5 155.18,93.61 z m -171.94,-81.29 -111.87,-228.56 215.11,129.76 2.79,1.67 111.86,228.56 -215.12,-129.77 -2.77,-1.66"
         style="fill:#3a4145;fill-opacity:1;fill-rule:nonzero;stroke:none"
         id="path64"
         inkscape:connector-curvature="0" /><path
         d="m 11838.3,14140.3 c 0,61.6 50,111.6 111.7,111.6 61.6,0 111.5,-50 111.5,-111.6 0,-61.6 -49.9,-111.6 -111.5,-111.6 -61.7,0 -111.7,50 -111.7,111.6 z m 661.2,0 c 0,61.6 50,111.6 111.6,111.6 61.7,0 111.6,-50 111.6,-111.6 0,-61.6 -49.9,-111.6 -111.6,-111.6 -61.6,0 -111.6,50 -111.6,111.6 z m -330.6,0 c 0,61.6 50,111.6 111.7,111.6 61.6,0 111.5,-50 111.5,-111.6 0,-61.6 -49.9,-111.6 -111.5,-111.6 -61.7,0 -111.7,50 -111.7,111.6 z m 768.1,-121.2 c 18.9,33.8 30.3,72.1 32,112.8 0.2,3.7 0.3,7.3 0.3,10.8 0,0 0,0 0,0 0,0 0,0 0,0 0,142.3 -117.9,257.6 -263.2,257.6 l -425.4,0 c -0.1,0 -0.2,0 -0.3,0 l -425.4,0 c -145.4,0 -263.2,-115.3 -263.2,-257.6 0,0 0,0 0,0 0,0 0,0 0,0 0,0 0,0 0,-0.1 0.1,-142.2 117.9,-257.4 263.2,-257.4 l 584.9,0 c 0,-90.3 0,-215.6 0,-249 0,-50.6 52.9,-54.9 87.5,-20.2 33.1,33.1 279.7,261.4 361.4,341.5 2.8,2.6 5.5,5.3 8.1,8 0.6,0.6 1.3,1.2 1.8,1.8 0.5,0.4 0.9,1 1.4,1.5 0.4,0.4 0.8,0.8 1.3,1.3 14.2,14.8 26,31.4 35.6,49"
         style="fill:#3a4145;fill-opacity:1;fill-rule:nonzero;stroke:none"
         id="path66"
         inkscape:connector-curvature="0" /><path
         d="m 8744.35,14230.3 0,-546.4 328.46,273.2 -328.46,273.2"
         style="fill:#3a4145;fill-opacity:1;fill-rule:nonzero;stroke:none"
         id="path68"
         inkscape:connector-curvature="0" /><path
         d="m 9762.3,14400.3 -930.74,0 c -42.91,0 -78.85,-31.4 -85.89,-72.4 l 434.16,-361.1 72.39,-60.2 c 24.58,-20.5 64.84,-20.5 89.42,0 l 76.06,63.2 430.57,358.1 c -7.12,41 -42.99,72.4 -85.97,72.4"
         style="fill:#3a4145;fill-opacity:1;fill-rule:nonzero;stroke:none"
         id="path70"
         inkscape:connector-curvature="0" /><path
         d="m 9849.59,13683.9 0,546.4 -328.54,-273.2 328.54,-273.2"
         style="fill:#3a4145;fill-opacity:1;fill-rule:nonzero;stroke:none"
         id="path72"
         inkscape:connector-curvature="0" /><path
         d="m 9400.46,13856.8 -58.82,-48.9 c -24.58,-20.4 -64.84,-20.4 -89.42,0 l -75.84,63.1 -44.23,36.8 -354.94,-295.1 c 14.89,-12 33.81,-19.3 54.35,-19.3 l 930.74,0 c 20.54,0 39.46,7.3 54.42,19.3 l -355.01,295.1 -61.25,-51"
         style="fill:#3a4145;fill-opacity:1;fill-rule:nonzero;stroke:none"
         id="path74"
         inkscape:connector-curvature="0" /><path
         d="m 3714.39,6671.55 c 0,49.58 -40.18,89.71 -89.7,89.71 -49.55,0 -89.71,-40.13 -89.71,-89.71 0,-49.51 40.16,-89.71 89.71,-89.71 49.52,0 89.7,40.2 89.7,89.71"
         style="fill:#3a4145;fill-opacity:1;fill-rule:nonzero;stroke:none"
         id="path86"
         inkscape:connector-curvature="0" /><path
         d="m 3705.62,6238.57 c -20.6,-21.79 -38.39,-39.1 -50.74,-50.69 -8.58,-8.07 -18.91,-12.32 -29.88,-12.32 -7.96,0 -19.95,2.34 -31.77,13.49 -12.09,11.37 -29.39,28.24 -49.49,49.52 -42.79,-8.95 -71.25,-24.87 -71.25,-42.91 0,-28.02 68.14,-50.76 152.2,-50.76 84.03,0 152.17,22.74 152.17,50.76 0,18.04 -28.45,33.96 -71.24,42.91"
         style="fill:#3a4145;fill-opacity:1;fill-rule:nonzero;stroke:none"
         id="path88"
         inkscape:connector-curvature="0" /><path
         d="m 3475.9,6671.55 c 0,82.15 66.6,148.75 148.79,148.75 82.14,0 148.76,-66.6 148.76,-148.75 0,-82.15 -66.62,-148.75 -148.76,-148.75 -82.19,0 -148.79,66.6 -148.79,148.75 z m 99.15,-428 c 0.01,0 0.02,0 0.03,0 1.78,-1.83 3.51,-3.59 5.21,-5.35 0.28,-0.29 0.55,-0.52 0.84,-0.81 1.37,-1.39 2.71,-2.78 4.03,-4.1 0.41,-0.45 0.81,-0.81 1.22,-1.25 1.23,-1.25 2.46,-2.42 3.65,-3.6 0.33,-0.37 0.64,-0.66 0.97,-0.95 3,-3.01 5.83,-5.79 8.5,-8.36 0.36,-0.37 0.7,-0.74 1.05,-1.03 0.91,-0.96 1.82,-1.76 2.7,-2.64 0.43,-0.44 0.87,-0.81 1.29,-1.25 0.83,-0.8 1.61,-1.54 2.38,-2.27 0.37,-0.37 0.73,-0.73 1.1,-1.03 1.07,-1.03 2.11,-2.05 3.09,-2.93 1.1,-1.03 2.23,-1.98 3.36,-2.72 0.35,-0.29 0.74,-0.44 1.11,-0.65 0.75,-0.52 1.51,-0.96 2.26,-1.33 0.46,-0.22 0.92,-0.29 1.39,-0.51 0.67,-0.22 1.36,-0.51 2.05,-0.66 0.48,-0.15 0.96,-0.22 1.45,-0.22 0.65,-0.15 1.31,-0.22 1.96,-0.29 0.11,0 0.22,0 0.31,0 0.51,0 1.01,0.07 1.51,0.14 0.46,0.08 0.92,0.08 1.37,0.15 0.64,0.15 1.27,0.37 1.91,0.51 0.41,0.15 0.83,0.3 1.24,0.44 0.7,0.3 1.4,0.74 2.06,1.11 0.33,0.21 0.68,0.36 1.01,0.51 0.99,0.73 1.98,1.46 2.94,2.42 1.02,0.95 2.1,1.91 3.21,3 0.23,0.23 0.48,0.44 0.7,0.66 0.99,0.96 2.02,1.91 3.07,2.94 0.2,0.15 0.38,0.37 0.59,0.59 3.95,3.73 8.4,8.06 13.3,12.98 0.05,0 0.11,0.07 0.16,0.15 4.86,4.76 10.11,10.12 15.74,15.91 0.16,0.15 0.31,0.3 0.48,0.44 0,0 0,0 0,0 79.56,82.01 226.85,256.22 226.85,421.84 0,158.14 -129.93,286.36 -276.45,286.36 -146.53,0 -276.48,-128.22 -276.48,-286.36 0,-165.62 147.28,-339.76 226.84,-421.84 l 0,0"
         style="fill:#3a4145;fill-opacity:1;fill-rule:nonzero;stroke:none"
         id="path90"
         inkscape:connector-curvature="0" /><path
         d="m 12667.4,12273.9 -288.2,0 c 65.6,35.3 110.2,104.5 110.2,184.1 0,79.6 -44.6,148.8 -110.2,184 l 288.2,0 0,-368.1 z m -386.8,58.8 c -69.2,0 -125.3,56.1 -125.3,125.3 0,69.2 56.1,125.2 125.3,125.2 69.1,0 125.2,-56 125.2,-125.2 0,-69.2 -56.1,-125.3 -125.2,-125.3 z m -386.9,-58.8 0,368.1 288.2,0 c -65.6,-35.2 -110.2,-104.4 -110.2,-184 0,-79.6 44.6,-148.8 110.2,-184.1 l -288.2,0 z m 109.1,513.2 c 24.4,0 44.2,-19.8 44.2,-44.3 0,-24.4 -19.8,-44.2 -44.2,-44.2 -24.5,0 -44.3,19.8 -44.3,44.2 0,24.5 19.8,44.3 44.3,44.3 z m 426.4,-89.1 198.9,0 0,-13.3 -198.9,0 0,13.3 z m 0,22.2 198.9,0 0,-13.3 -198.9,0 0,13.3 z m 0,22.1 198.9,0 0,-13.2 -198.9,0 0,13.2 z m 0,22.2 198.9,0 0,-13.3 -198.9,0 0,13.3 z m 0,22.2 198.9,0 0,-13.3 -198.9,0 0,13.3 z m 188.3,74.7 -673.9,0 c -36.5,0 -66.5,-29.9 -66.5,-66.4 l 0,-674 c 0,-36.5 30,-66.5 66.5,-66.5 l 673.9,0 c 36.6,0 66.5,30 66.5,66.5 l 0,674 c 0,36.5 -29.9,66.4 -66.5,66.4"
         style="fill:#3a4145;fill-opacity:1;fill-rule:nonzero;stroke:none"
         id="path92"
         inkscape:connector-curvature="0" /><path
         d="m 5578.23,6608.69 0,-206.63 c 0,-22.74 -18.61,-41.37 -41.36,-41.37 l -419.74,0 c -22.76,0 -41.37,18.63 -41.37,41.37 l 0,284.31 c 0,22.74 18.61,41.36 41.37,41.36 l 419.74,0 c 22.75,0 41.36,-18.62 41.36,-41.36 l 0,-77.68 z m 1.45,170.32 -505.37,0 c -27.4,0 -49.81,-22.45 -49.81,-49.81 l 0,-505.45 c 0,-27.36 22.41,-49.81 49.81,-49.81 l 505.37,0 c 27.41,0 49.83,22.45 49.83,49.81 l 0,505.45 c 0,27.36 -22.42,49.81 -49.83,49.81"
         style="fill:#3a4145;fill-opacity:1;fill-rule:nonzero;stroke:none"
         id="path102"
         inkscape:connector-curvature="0" /><path
         d="m 5003.99,6339.64 0,77.24 -11.22,-2.5 c -22.22,-4.84 -44.37,9.39 -49.23,31.62 l -17.46,80.17 -2.81,12.91 -19.98,91.54 -3.74,17.24 -16.54,75.84 c -4.83,22.23 9.38,44.45 31.62,49.29 l 410.11,89.34 c 22.22,4.84 44.37,-9.38 49.22,-31.61 l 7.56,-34.62 52.49,0 -19.06,87.43 c -5.84,26.77 -32.51,43.86 -59.29,38 l -493.79,-107.61 c -26.77,-5.79 -43.91,-32.49 -38.07,-59.26 l 19.91,-91.32 4.53,-20.77 58.76,-269.63 3.38,-15.55 21.04,-96.53 c 5.83,-26.77 32.51,-43.86 59.28,-38.07 l 15.52,3.38 c -1.45,4.69 -2.23,9.61 -2.23,14.67 l 0,98.8"
         style="fill:#3a4145;fill-opacity:1;fill-rule:nonzero;stroke:none"
         id="path104"
         inkscape:connector-curvature="0" /><path
         d="m 7912.41,6294.46 c -140.17,0 -253.86,113.69 -253.86,253.86 0,140.17 113.69,253.87 253.86,253.87 140.17,0 253.87,-113.7 253.87,-253.87 0,-140.17 -113.7,-253.86 -253.87,-253.86 z m 336.97,657.29 -673.94,0 c -36.53,0 -66.46,-29.86 -66.46,-66.46 l 0,-673.94 c 0,-36.53 29.93,-66.45 66.46,-66.45 l 673.94,0 c 36.6,0 66.46,29.92 66.46,66.45 l 0,673.94 c 0,36.6 -29.86,66.46 -66.46,66.46"
         style="fill:#3a4145;fill-opacity:1;fill-rule:nonzero;stroke:none"
         id="path108"
         inkscape:connector-curvature="0" /><path
         d="m 8051.92,6569.74 -194.37,112.22 c -20.4,11.81 -37.12,2.13 -37.12,-21.34 l 0,-224.52 c 0,-23.55 16.72,-33.16 37.12,-21.42 l 194.37,112.22 c 20.4,11.81 20.4,31.03 0,42.84"
         style="fill:#3a4145;fill-opacity:1;fill-rule:nonzero;stroke:none"
         id="path110"
         inkscape:connector-curvature="0" /><path
         d="m 2542.15,6210.4 -69.01,183.01 -492.77,0 -69.01,-183.01 253.32,0 c -0.49,-2.94 -0.92,-5.94 -0.92,-8.95 0,-31.25 25.33,-56.55 56.58,-56.55 31.24,0 56.58,25.3 56.58,56.55 0,3.01 -0.42,6.01 -0.88,8.95 l 266.11,0"
         style="fill:#3a4145;fill-opacity:1;fill-rule:nonzero;stroke:none"
         id="path124"
         inkscape:connector-curvature="0" /><path
         d="m 2220.34,6846.56 c -8.59,0 -17.05,-1.24 -25.39,-3.22 1.69,51.27 18.31,79.14 25.39,79.14 7.12,0 23.73,-27.87 25.42,-79.14 -8.37,1.98 -16.83,3.22 -25.42,3.22 z m 54.88,-14.15 c 0.01,0.95 0.1,1.9 0.1,2.86 0,57.87 -18.86,116.48 -54.98,116.48 -36.1,0 -54.98,-58.61 -54.98,-116.48 0,-0.96 0.13,-1.91 0.13,-2.86 -89.05,-45.26 -158.19,-197.75 -174.89,-389.34 l 459.49,0 c -16.7,191.59 -85.85,344.08 -174.87,389.34"
         style="fill:#3a4145;fill-opacity:1;fill-rule:nonzero;stroke:none"
         id="path126"
         inkscape:connector-curvature="0" /><path
         d="m 7699.77,9322.06 c -69.32,0 -125.5,56.16 -125.5,125.47 0,69.29 56.18,125.47 125.5,125.47 69.32,0 125.43,-56.18 125.43,-125.47 0,-69.31 -56.11,-125.47 -125.43,-125.47 z m 0,300.5 c -96.75,0 -175.09,-78.37 -175.09,-175.03 0,-96.73 78.34,-175.08 175.09,-175.08 96.75,0 175.01,78.35 175.01,175.08 0,96.66 -78.26,175.03 -175.01,175.03"
         style="fill:#3a4145;fill-opacity:1;fill-rule:nonzero;stroke:none"
         id="path128"
         inkscape:connector-curvature="0" /><path
         d="m 7699.77,9223.95 c -123.52,0 -223.57,100.07 -223.57,223.58 0,123.52 100.05,223.56 223.57,223.56 123.52,0 223.57,-100.04 223.57,-223.56 0,-123.51 -100.05,-223.58 -223.57,-223.58 z m 298.61,314 24.13,52.74 -34.55,59.88 -56.04,5.29 c -5.94,6.68 -12.25,13.07 -18.7,19.16 l -5.51,57.9 -59.92,34.54 -51.05,-23.37 c -8.51,2.76 -17.24,5.23 -25.97,7.27 l -33.59,47.3 -69.17,0 -32.64,-45.84 c -8.73,-1.83 -17.53,-4.08 -26.11,-6.63 l -52.74,24.11 -59.86,-34.55 -5.28,-56.09 c -6.6,-5.95 -13.06,-12.19 -19.14,-18.73 l -57.88,-5.44 -34.62,-59.93 23.4,-51.09 c -2.78,-8.51 -5.21,-17.19 -7.26,-25.97 l -47.24,-33.61 0,-69.16 45.77,-32.56 c 1.84,-8.78 4.04,-17.57 6.68,-26.12 l -24.13,-52.77 34.62,-59.86 56.04,-5.3 c 5.94,-6.61 12.17,-12.99 18.63,-19.09 l 5.57,-57.9 59.86,-34.61 51.05,23.36 c 8.51,-2.76 17.23,-5.23 25.97,-7.26 l 33.59,-47.23 69.24,0 32.49,45.78 c 8.88,1.89 17.61,4.07 26.19,6.68 l 52.74,-24.17 59.85,34.63 5.28,56.08 c 6.68,5.95 13.06,12.2 19.15,18.67 l 57.95,5.51 34.54,59.93 -23.4,51.03 c 2.79,8.54 5.21,17.17 7.27,25.95 l 47.3,33.6 0,69.24 -45.84,32.49 c -1.83,8.86 -4.1,17.57 -6.67,26.14"
         style="fill:#3a4145;fill-opacity:1;fill-rule:nonzero;stroke:none"
         id="path130"
         inkscape:connector-curvature="0" /><path
         d="m 8236.18,9577.41 c -47.31,0 -85.82,38.39 -85.82,85.77 0,47.41 38.51,85.77 85.82,85.77 47.38,0 85.75,-38.36 85.75,-85.77 0,-47.38 -38.37,-85.77 -85.75,-85.77 z m 0,205.44 c -66.02,0 -119.64,-53.55 -119.64,-119.67 0,-66.1 53.62,-119.65 119.64,-119.65 66.16,0 119.71,53.55 119.71,119.65 0,66.12 -53.55,119.67 -119.71,119.67"
         style="fill:#3a4145;fill-opacity:1;fill-rule:nonzero;stroke:none"
         id="path132"
         inkscape:connector-curvature="0" /><path
         d="m 8236.18,9510.36 c -84.36,0 -152.86,68.44 -152.86,152.82 0,84.4 68.5,152.83 152.86,152.83 84.43,0 152.86,-68.43 152.86,-152.83 0,-84.38 -68.43,-152.82 -152.86,-152.82 z m 240,127.3 0,47.22 -31.25,22.28 c -1.32,6.02 -2.86,11.97 -4.55,17.86 l 16.44,36.06 -23.55,40.94 -38.43,3.61 c -4.04,4.57 -8.29,8.93 -12.77,13.07 l -3.74,39.55 -40.93,23.64 -34.91,-15.95 c -5.8,1.89 -11.74,3.54 -17.68,4.92 l -23.03,32.38 -47.24,0 -22.3,-31.36 c -6.09,-1.23 -12.03,-2.83 -17.82,-4.57 l -36.09,16.55 -40.93,-23.66 -3.6,-38.31 c -4.54,-4.09 -8.94,-8.35 -13.12,-12.86 l -39.54,-3.69 -23.62,-40.93 15.99,-34.96 c -1.98,-5.83 -3.59,-11.77 -5.06,-17.73 l -32.27,-22.99 0,-47.24 31.39,-22.28 c 1.18,-6.09 2.72,-12.04 4.55,-17.85 l -16.58,-36.07 23.69,-40.92 38.29,-3.63 c 4.04,-4.49 8.36,-8.93 12.77,-13.06 l 3.74,-39.56 41,-23.63 34.91,15.97 c 5.8,-1.91 11.74,-3.58 17.76,-5.02 l 22.95,-32.23 47.31,0 22.23,31.3 c 6.01,1.22 12.03,2.75 17.82,4.57 l 36.02,-16.57 40.93,23.65 3.67,38.34 c 4.54,4.07 8.87,8.34 13.12,12.83 l 39.54,3.71 23.62,40.92 -15.99,34.9 c 1.98,5.87 3.59,11.77 4.99,17.78 l 32.27,23.02"
         style="fill:#3a4145;fill-opacity:1;fill-rule:nonzero;stroke:none"
         id="path134"
         inkscape:connector-curvature="0" /><path
         d="m 8145.37,7824 c -55.53,-49.84 -127.12,-82.2 -206.04,-88.26 l 0,52.51 c 0,14.82 -12.1,26.95 -26.92,26.95 -14.82,0 -26.92,-12.13 -26.92,-26.95 l 0,-52.51 c -9.09,0.69 -18.11,1.82 -26.99,3.2 -149.56,23.26 -267.8,141.51 -291.05,291.07 -1.4,8.88 -2.5,17.85 -3.23,26.94 l 52.52,0 c 14.81,0 26.99,12.14 26.99,26.94 0,14.82 -12.18,26.94 -26.99,26.94 l -52.52,0 c 6.09,78.92 38.44,150.48 88.31,206.03 58.31,65.02 140.61,108.13 232.96,115.21 l 0,-52.52 c 0,-14.8 12.1,-26.94 26.92,-26.94 14.82,0 26.92,12.14 26.92,26.94 l 0,52.52 c 171.27,-13.16 308.07,-149.97 321.28,-321.24 l -52.52,0 c -14.82,0 -27,-12.12 -27,-26.94 0,-14.8 12.18,-26.94 27,-26.94 l 52.52,0 c -7.12,-92.34 -50.25,-174.62 -115.24,-232.95 z m -232.96,663.33 c -118.09,0 -224.45,-50.99 -298.31,-132.11 -65.28,-71.7 -105.12,-166.95 -105.12,-271.33 0,-222.45 180.96,-403.41 403.43,-403.41 104.38,0 199.66,39.85 271.39,105.16 81.06,73.84 132.04,180.19 132.04,298.25 0,222.46 -180.96,403.44 -403.43,403.44"
         style="fill:#3a4145;fill-opacity:1;fill-rule:nonzero;stroke:none"
         id="path248"
         inkscape:connector-curvature="0" /><path
         d="m 8195.76,8213.04 c -3.22,6.74 -11.29,9.55 -17.97,6.34 l -232.81,-111.67 c -7.41,10.06 -19.14,16.63 -32.57,16.63 -15.7,0 -29.19,-9.05 -35.87,-22.13 l -126.97,36.45 c -7.18,2.05 -14.59,-2.08 -16.64,-9.25 -2.06,-7.14 2.05,-14.6 9.24,-16.69 l 110.97,-31.84 19.88,-5.69 c 3.96,-18.14 20.1,-31.68 39.39,-31.68 4.04,0 7.85,0.76 11.52,1.85 10.41,3.13 19.07,10.34 24.05,19.88 2.57,4.93 4.26,10.37 4.63,16.24 l 216.45,103.84 20.39,9.75 c 6.68,3.24 9.54,11.29 6.31,17.97"
         style="fill:#3a4145;fill-opacity:1;fill-rule:nonzero;stroke:none"
         id="path250"
         inkscape:connector-curvature="0" /><path
         d="m 2325.34,3573.46 c -10.29,-26.11 -28.66,-56.03 -55.63,-76.79 -29.02,-22.37 -67.99,-34.04 -117.65,-18.63 -27.7,8.51 -47.22,31.83 -53.49,64.1 -7.29,37.41 4.39,78.2 30.25,110.99 7.34,9.31 15.77,18.04 25.31,25.82 54.2,44.15 108.75,55.74 151.07,55.74 18.7,0 35.03,-2.2 47.85,-4.92 -7.42,-39.75 -19.35,-104.45 -27.71,-156.31 z m 269.37,206.27 c -25.26,89.92 -84.41,155.79 -171.09,190.48 -124.78,49.96 -278.22,34.11 -390.93,-40.12 -27.73,-18.26 -52.53,-39.82 -74.4,-64.11 -69.81,-77.45 -109.06,-183.59 -112.18,-307.99 -3.59,-143.62 56.44,-257.17 169.12,-319.66 55.54,-30.81 120.22,-46.06 184.63,-46.06 59.53,0 118.84,13.05 170.45,38.94 11.42,5.73 22.47,12.04 33.05,19 l -45.33,68.88 c -84.39,-55.6 -211.74,-59.2 -302.83,-8.66 -59.77,33.16 -130.25,102.69 -126.66,245.58 2.99,120.37 42.05,199.66 87.67,251.44 20.18,22.96 41.65,40.49 61.85,53.84 90.86,59.78 214.45,72.47 314.96,32.42 62.83,-25.16 104.01,-71 122.31,-136.28 25.68,-91.54 -1.35,-193.43 -41.32,-246.75 -10.55,-14.09 -21.15,-24.87 -30.85,-31.84 -10.71,-7.63 -20.34,-10.56 -27.61,-7.77 -11.03,4.18 -18.09,19.36 -17.48,27.5 0.89,10.86 3.59,30.15 7.32,53.55 0.97,2.72 1.83,5.43 2.71,8.22 l -1.34,0.44 c 10.24,62.93 26.53,150.36 34.11,189.75 l 6.18,32.06 -29.8,13.27 c -6.6,3.01 -163.18,70.93 -315.18,-52.95 -12.05,-9.84 -22.93,-20.62 -32.67,-31.98 -44.74,-52.52 -64.36,-119.93 -51.75,-184.55 12.1,-62.13 53.28,-109.66 110.15,-127.19 81.16,-24.87 151.98,-3.16 203.66,42.1 12.64,-21.34 31.99,-38.66 55.06,-47.31 19.41,-7.34 64.07,-16.21 115.09,26.18 12.51,10.35 25.37,23.77 38.35,41.08 61.73,82.3 84.25,213.3 54.75,318.49"
         style="fill:#3a4145;fill-opacity:1;fill-rule:nonzero;stroke:none"
         id="path254"
         inkscape:connector-curvature="0" /><path
         d="m 3952.51,9538.26 -616.64,355.97 c -33.87,19.58 -61.97,6.14 -65.94,-29.48 -0.32,-2.84 -0.53,-5.76 -0.53,-8.89 l 0,-712.11 c 0,-42.18 29.91,-59.44 66.44,-38.37 l 604.9,349.32 11.81,6.8 c 36.54,21.07 36.54,55.62 -0.04,76.76"
         style="fill:#3a4145;fill-opacity:1;fill-rule:nonzero;stroke:none"
         id="path270"
         inkscape:connector-curvature="0" /><path
         d="m 6003.64,732.766 108.75,-108.852 c 29.94,-29.926 78.97,-78.996 108.91,-108.922 l 108.84,-108.781 c 29.87,-29.852 78.74,-29.926 108.7,-0.219 0.07,0.074 0.14,0.149 0.22,0.219 l 108.75,108.781 c 29.94,29.926 78.98,78.996 108.92,108.922 l 108.83,108.852 c 10.04,10.05 22.3,22.3 35.2,35.207 21.92,21.933 45.67,45.699 64.6,64.625 3.14,3.152 6.27,6.234 9.1,9.093 l 108.77,108.778 c 29.93,29.929 29.93,78.921 0,108.921 l -108.77,108.78 c -29.92,29.93 -78.97,29.93 -108.9,0 l -108.83,-108.78 c -2.25,-2.27 -4.79,-4.84 -7.23,-7.26 -19.41,-19.43 -44.35,-44.37 -67.2,-67.185 -5,-4.988 -9.83,-9.832 -14.52,-14.523 -7.17,-7.192 -14.01,-14.012 -19.97,-19.953 L 6439.06,841.691 c -0.04,-0.074 -0.1,-0.074 -0.15,-0.148 -29.95,-29.777 -78.87,-29.777 -108.77,0.148 L 6221.3,950.469 c -29.94,29.929 -78.97,29.929 -108.91,0 l -38.5,-38.508 -70.25,-70.27 c -29.95,-29.925 -29.95,-78.996 0,-108.925"
         style="fill:#3a4145;fill-opacity:1;fill-rule:nonzero;stroke:none"
         id="path276"
         inkscape:connector-curvature="0" /><path
         d="m 10776,5005.18 16.1,29.93 28.6,53.1 c 0,0.23 0.1,0.45 0.2,0.59 l 190.5,190.64 27.6,27.58 39,20.83 14.4,7.7 30.8,46.51 -23.4,23.39 -47.1,-30.22 -8,-15.03 -20.6,-38.36 -27.5,-27.51 -26.7,-26.77 -163.9,-163.86 0,0 c -0.2,-0.08 -0.4,-0.15 -0.6,-0.3 l -83,-44.67 c -18.1,-9.68 -44.8,-29.56 -59.4,-44.08 l -23.3,-23.26 -4.3,-4.32 -0.8,-0.81 -293.2,-293.18 c 0,0 0,-0.07 -0.1,-0.07 -14.4,-14.53 -14.4,-38.37 0.1,-52.89 l 15.9,-15.92 c 14.5,-14.52 38.4,-14.52 52.9,0 0.1,0 0.1,0 0.1,0 l 193,193.06 101,101.01 27.5,27.57 c 14.6,14.45 34.4,41.23 44.2,59.34"
         style="fill:#3a4145;fill-opacity:1;fill-rule:nonzero;stroke:none"
         id="path278"
         inkscape:connector-curvature="0" /><path
         d="m 11077.4,4658.9 c -4.8,-4.84 -10.3,-8.66 -16.2,-11.44 -22.1,-10.64 -49.5,-6.9 -67.9,11.44 -18.3,18.26 -21.9,45.62 -11.3,67.7 1.1,2.13 2.1,4.26 3.3,6.31 l 18,18.04 c 14,8.88 31,11.37 46.6,7.48 10,-2.56 19.6,-7.63 27.5,-15.47 7.9,-8 13,-17.6 15.5,-27.8 4.9,-19.51 -0.3,-41.08 -15.5,-56.26 z m 25.2,109.14 c -21.2,21.13 -49.8,30.15 -77.4,27.22 l -217.5,217.63 -10.9,-20.39 c -2.5,-4.62 -5.5,-9.69 -9,-14.89 -10.7,-16.58 -25.2,-34.99 -36.8,-46.73 l -21.7,-21.56 211.3,-211.25 c 0.4,-13.43 3.6,-26.77 9.7,-39.1 4.5,-9.09 10.3,-17.67 17.9,-25.23 7.6,-7.56 16.1,-13.5 25.2,-17.97 29.8,-14.67 65.7,-12.84 93.9,5.57 5.4,3.52 10.5,7.63 15.3,12.4 37,37.04 37,97.26 0,134.3"
         style="fill:#3a4145;fill-opacity:1;fill-rule:nonzero;stroke:none"
         id="path280"
         inkscape:connector-curvature="0" /><path
         d="m 10569,5118.73 34.7,-83.77 22.8,-22.81 21.6,21.71 c 11.8,11.67 30.2,26.04 46.7,36.75 5.2,3.38 10.3,6.46 14.8,8.88 l 20.5,11 -35.4,35.43 -81.6,33.67 84.7,146.26 -142.7,107.01 -84.8,-12.17 20.4,-20.69 68.9,-69.68 -14.8,-59.41 -27.7,-27.58 -4.2,-4.26 -27.6,-27.58 0,0 -59.4,-14.89 -90.3,89.42 -6.9,-48.05 -5.3,-36.82 107,-142.67 138.6,80.25"
         style="fill:#3a4145;fill-opacity:1;fill-rule:nonzero;stroke:none"
         id="path282"
         inkscape:connector-curvature="0" /><path
         d="m 8826.72,875.801 c -4.7,-10.27 -7.34,-21.567 -7.34,-33.524 l 0,-110.242 c 0,-44.89 36.75,-81.64 81.64,-81.64 l 400.64,0 -40.86,-40.782 -16.94,-17.019 c -31.76,-31.688 -31.76,-83.692 0,-115.453 l 69.61,-69.606 c 31.62,-31.617 83.4,-31.687 115.23,-0.222 0,0.074 0.08,0.148 0.15,0.222 l 127.56,127.625 9.31,9.317 c 19.95,19.953 47.97,48.046 73.94,73.937 0.36,0.367 0.66,0.66 1.02,1.027 14.82,14.817 28.98,28.973 40.49,40.489 l 29.12,29.047 40.42,40.414 c 31.76,31.761 31.76,83.769 0,115.457 l -69.54,69.609 c -31.76,31.758 -83.76,83.691 -115.45,115.453 l -136.87,136.94 c -31.69,31.69 -83.69,31.69 -115.38,0 l -69.61,-69.61 c -0.07,-0.07 -0.07,-0.07 -0.15,-0.14 -31.61,-31.76 -31.53,-83.62 0.15,-115.311 l 57.8,-57.801 -400.64,0 c -33,0 -61.47,-19.875 -74.3,-48.187"
         style="fill:#3a4145;fill-opacity:1;fill-rule:nonzero;stroke:none"
         id="path288"
         inkscape:connector-curvature="0" /><path
         d="m 12521.4,965.211 c -55.9,55.899 -128.5,89.709 -205.6,97.629 l 56,56.04 c 20.9,20.91 22.4,49.58 3.4,63.82 -19,14.23 -51.7,8.73 -72.6,-12.11 l -56.3,-56.33 c -20.9,-20.9 -55.8,-49.58 -77.5,-63.81 -8.2,-5.29 -13.2,-11.89 -15.3,-18.78 -3.4,-11.52 1.6,-23.99 15.3,-32.861 21.7,-14.231 56.6,-42.985 77.4,-63.891 l 56.4,-56.258 c 16.3,-16.355 39.8,-23.18 58.4,-18.633 5.2,1.25 10,3.375 14.2,6.457 18.2,13.645 17.6,40.637 -0.9,61.246 -0.8,0.879 -1.6,1.762 -2.5,2.641 l -50.6,50.613 c 53.8,-8.437 103.8,-33.375 143.2,-72.765 49.1,-49.145 76.2,-114.426 76.2,-183.887 0,-69.391 -27.1,-134.746 -76.2,-183.816 -4.5,-4.473 -9.2,-8.727 -13.9,-12.836 -102,-88.239 -256.9,-84.059 -353.8,12.836 -101.4,101.371 -101.4,266.336 0,367.777 l -57,56.918 c -9.1,-9.02 -17.5,-18.555 -25.3,-28.383 -48.2,-60.148 -74.4,-134.23 -74.4,-212.422 -0.1,-91.027 35.3,-176.554 99.7,-240.808 64.3,-64.403 149.9,-99.832 240.9,-99.832 84.5,0 164.5,30.734 227,86.773 4.7,4.184 9.3,8.512 13.8,13.059 64.3,64.254 99.7,149.781 99.7,240.734 0,90.953 -35.4,176.551 -99.7,240.879"
         style="fill:#3a4145;fill-opacity:1;fill-rule:nonzero;stroke:none"
         id="path290"
         inkscape:connector-curvature="0" /><path
         d="m 955.809,8119.75 -329.875,0 0,124.48 c 0,37.3 12.613,71.65 33.613,99.31 30.156,39.74 77.754,65.58 131.379,65.58 90.894,0 164.883,-74.01 164.883,-164.89 l 0,-124.48 z m -113.516,-321.27 -102.785,0 27.301,106.89 c -19.637,9.18 -33.278,28.93 -33.278,52 0,31.72 25.672,57.34 57.344,57.34 31.723,0 57.469,-25.62 57.469,-57.34 0,-23.07 -13.781,-42.82 -33.344,-52 l 27.293,-106.89 z m -51.367,685.19 c -74.188,0 -140.598,-33.89 -184.578,-86.99 -34.317,-41.44 -54.973,-94.58 -54.973,-152.45 l 0,-124.48 -133.84,0 0,-435.61 746.735,0 0,435.61 -133.84,0 0,124.48 c 0,132.04 -107.473,239.44 -239.504,239.44"
         style="fill:#3a4145;fill-opacity:1;fill-rule:nonzero;stroke:none"
         id="path292"
         inkscape:connector-curvature="0" /><path
         d="m 1237.57,3509.21 c -70.43,-35.06 -181.19,-80.68 -311.187,-101.44 -7.375,-1.18 -14.723,-2.42 -22.219,-3.38 17.656,8.88 34.086,19.95 49.18,32.57 57.626,48.27 94.546,121.54 94.546,203.84 0,7.7 -0.35,15.33 -1,22.81 -2.01,23.25 -7.01,45.62 -14.49,66.75 118.3,-61.1 210.68,-150.07 253.46,-195.62 -12.75,-7.26 -29.1,-15.99 -48.29,-25.53 z M 628.074,3640.8 c 0,92.06 72.813,166.65 162.582,166.65 89.778,0 162.578,-74.59 162.578,-166.65 0,-92.05 -72.8,-166.72 -162.578,-166.72 -89.769,0 -162.582,74.67 -162.582,166.72 z m -75.707,-201.27 c -115.512,40.34 -206.801,99.24 -253.273,132.84 -1.34,0.95 -2.86,1.98 -4.129,2.93 44.039,39.68 138.219,116.04 258.68,167.46 -12.938,-31.32 -20.235,-65.8 -20.235,-101.96 0,-101 55.344,-188.58 136.613,-232.89 -41.253,7.63 -80.652,18.71 -117.656,31.62 z m 809.423,108.63 c -10.35,12.76 -257.87,313.28 -571.134,313.28 -311.691,0 -558.996,-254.53 -569.383,-265.38 l -22.238,-23.33 -2.351,-2.42 26.941,-23.1 c 10.367,-8.88 257.145,-217.34 567.031,-217.34 271.524,0 494.714,126.16 550.674,160.64 7.48,4.69 12.09,7.7 13.31,8.51 l 30.48,20.39 -23.33,28.75"
         style="fill:#3a4145;fill-opacity:1;fill-rule:nonzero;stroke:none"
         id="path296"
         inkscape:connector-curvature="0" /><path
         d="m 790.656,3729.77 c -47.922,0 -86.789,-39.9 -86.789,-88.97 0,-49.14 38.867,-89.05 86.789,-89.05 47.91,0 86.785,39.91 86.785,89.05 0,49.07 -38.875,88.97 -86.785,88.97"
         style="fill:#3a4145;fill-opacity:1;fill-rule:nonzero;stroke:none"
         id="path298"
         inkscape:connector-curvature="0" /><path
         d="m 8165.1,787.191 119.86,119.856 c 41.15,41.148 41.15,108.483 0,149.703 l -102.99,102.99 c -41.22,41.15 -108.56,41.15 -149.7,0 l -119.86,-119.86 -119.85,119.86 c -41.15,41.15 -108.49,41.15 -149.64,0 l -103.05,-102.99 c -41.15,-41.22 -41.15,-108.555 0,-149.703 L 7659.72,787.191 7539.87,667.34 c -41.15,-41.152 -41.15,-108.485 0,-149.707 l 103.05,-102.985 c 41.15,-41.148 108.49,-41.148 149.64,0 L 7912.41,534.5 8032.27,414.648 c 41.14,-41.148 108.48,-41.148 149.7,0 l 102.99,102.985 c 41.15,41.222 41.15,108.555 0,149.707 L 8165.1,787.191"
         style="fill:#3a4145;fill-opacity:1;fill-rule:nonzero;stroke:none"
         id="path686"
         inkscape:connector-curvature="0" /><path
         d="m 5798.38,14339.4 -100.93,-566 -68.79,390.2 c -6.02,34.1 -37.63,60.9 -71.95,60.9 l -532.21,0 c -13.32,0 -27.1,11.8 -29.48,25.3 l -4.64,26.4 c -5.72,32.4 -34.46,58.1 -66.69,60.6 4.41,11.3 16.43,20.4 28.09,20.4 l 832.31,0 c 4.93,0 8.91,-1.7 11.5,-4.7 2.71,-3.3 3.7,-7.9 2.79,-13.1 z m -126.5,-698.1 c -2.59,-3.1 -6.57,-4.7 -11.5,-4.7 l -868.77,0 c -13.34,0 -27.12,11.8 -29.49,25.3 l -108.32,614.3 c -0.92,5.2 0.07,9.8 2.77,13 2.6,3.1 6.57,4.8 11.51,4.8 l 250.35,0 c 13.33,0 27.11,-11.9 29.49,-25.3 l 4.64,-26.4 c 6.03,-34.2 37.63,-60.9 71.94,-60.9 l 532.21,0 c 13.34,0 27.11,-11.8 29.49,-25.3 l 88.46,-501.7 c 0.93,-5.2 -0.07,-9.9 -2.78,-13.1 z m 156.74,738.9 c -10.73,12.8 -26.96,20.1 -44.53,20.1 l -832.31,0 c -34.32,0 -65.92,-26.8 -71.93,-60.8 l -0.43,-2.4 -211.34,0 c -17.56,0 -33.81,-7.4 -44.54,-20.2 -10.87,-12.9 -15.33,-30.5 -12.2,-48.2 l 108.32,-614.3 c 6.02,-34.2 37.63,-61 71.95,-61 l 868.77,0 c 17.57,0 33.8,7.4 44.53,20.2 6.63,7.9 10.82,17.5 12.42,27.8 l 0.35,-0.1 123.14,690.6 c 3.13,17.7 -1.32,35.3 -12.2,48.3"
         style="fill:#3a4145;fill-opacity:1;fill-rule:nonzero;stroke:none"
         id="path702"
         inkscape:connector-curvature="0" /></g></g></svg>