<?xml version="1.0" encoding="UTF-8" standalone="no"?>
<!-- Created with Inkscape (http://www.inkscape.org/) -->

<svg
   xmlns:dc="http://purl.org/dc/elements/1.1/"
   xmlns:cc="http://creativecommons.org/ns#"
   xmlns:rdf="http://www.w3.org/1999/02/22-rdf-syntax-ns#"
   xmlns:svg="http://www.w3.org/2000/svg"
   xmlns="http://www.w3.org/2000/svg"
   xmlns:sodipodi="http://sodipodi.sourceforge.net/DTD/sodipodi-0.dtd"
   xmlns:inkscape="http://www.inkscape.org/namespaces/inkscape"
   id="svg2"
   version="1.1"
   inkscape:version="0.91 r13725"
   xml:space="preserve"
   width="1000"
   height="1000"
   viewBox="0 0 1000 1000"
   sodipodi:docname="571011 (4).svg"><metadata
     id="metadata8"><rdf:RDF><cc:Work
         rdf:about=""><dc:format>image/svg+xml</dc:format><dc:type
           rdf:resource="http://purl.org/dc/dcmitype/StillImage" /><dc:title></dc:title></cc:Work></rdf:RDF></metadata><defs
     id="defs6"><linearGradient
       x1="0"
       y1="0"
       x2="1"
       y2="0"
       gradientUnits="userSpaceOnUse"
       gradientTransform="matrix(-3.497e-4,8000,8000,3.497e-4,4000,0)"
       spreadMethod="pad"
       id="linearGradient14"><stop
         style="stop-opacity:1;stop-color:#1f1618"
         offset="0"
         id="stop16" /><stop
         style="stop-opacity:1;stop-color:#413d48"
         offset="0.950549"
         id="stop18" /><stop
         style="stop-opacity:1;stop-color:#413d48"
         offset="1"
         id="stop20" /></linearGradient><clipPath
       clipPathUnits="userSpaceOnUse"
       id="clipPath442"><path
         d="m 0,6047.52 1952.47,0 0,1952.48 L 0,8000 0,6047.52 Z"
         id="path444"
         inkscape:connector-curvature="0" /></clipPath></defs><sodipodi:namedview
     pagecolor="#ffffff"
     bordercolor="#666666"
     borderopacity="1"
     objecttolerance="10"
     gridtolerance="10"
     guidetolerance="10"
     inkscape:pageopacity="0"
     inkscape:pageshadow="2"
     inkscape:window-width="1680"
     inkscape:window-height="1026"
     id="namedview4"
     showgrid="false"
     inkscape:zoom="0.944"
     inkscape:cx="467.69152"
     inkscape:cy="477.3931"
     inkscape:window-x="1600"
     inkscape:window-y="24"
     inkscape:window-maximized="1"
     inkscape:current-layer="g12" /><g
     id="g10"
     inkscape:groupmode="layer"
     inkscape:label="ink_ext_XXXXXX"
     transform="matrix(1.25,0,0,-1.25,0,1000)"><g
       id="g12"
       transform="scale(0.1,0.1)"><path
         d="m 0,0 8000,0 0,8000 L 0,8000 0,0 Z"
         style="fill:url(#linearGradient14);fill-opacity:1;fill-rule:nonzero;stroke:none"
         id="path22"
         inkscape:connector-curvature="0" /><path
         d="m 7097.48,6793.15 c 65.23,0 118.13,-52.89 118.13,-118.12 0,-65.24 -52.9,-118.13 -118.13,-118.13 -65.23,0 -118.13,52.89 -118.13,118.13 0,65.23 52.9,118.12 118.13,118.12 z m -300.06,-265.28 600.11,0 0,295.34 -600.11,0 0,-295.34"
         style="fill:#d0cfd2;fill-opacity:1;fill-rule:nonzero;stroke:none"
         id="path122"
         inkscape:connector-curvature="0" /><path
         d="m 6797.42,6477.6 600.109,0 0,34.5586 -600.109,0 0,-34.5586 z"
         style="fill:#d0cfd2;fill-opacity:1;fill-rule:nonzero;stroke:none"
         id="path124"
         inkscape:connector-curvature="0" /><path
         d="m 6797.42,6838.93 600.11,0 0,34.56 -176.6,0 -28.9,69.12 -189.11,0 -28.9,-69.12 -176.6,0 0,-34.56"
         style="fill:#d0cfd2;fill-opacity:1;fill-rule:nonzero;stroke:none"
         id="path126"
         inkscape:connector-curvature="0" /><path
         d="m 7097.48,6604.03 c 39.14,0 71,31.85 71,71 0,39.15 -31.86,71.01 -71,71.01 -39.15,0 -71.01,-31.86 -71.01,-71.01 0,-39.15 31.86,-71 71.01,-71"
         style="fill:#d0cfd2;fill-opacity:1;fill-rule:nonzero;stroke:none"
         id="path128"
         inkscape:connector-curvature="0" /><path
         d="m 4195.01,5587.23 0,-119.39 512.14,0 0,122.54 -47.13,0 0,-75.41 -417.88,0 0,72.26 -47.13,0"
         style="fill:#d0cfd2;fill-opacity:1;fill-rule:nonzero;stroke:none"
         id="path144"
         inkscape:connector-curvature="0" /><path
         d="m 4468.42,5562.47 121.57,184.34 -42.2,-0.03 c -0.15,211.6 -206.28,237.79 -206.28,237.79 0,0 47.12,-65.99 47.25,-237.91 l -42.2,-0.03 121.86,-184.16"
         style="fill:#d0cfd2;fill-opacity:1;fill-rule:nonzero;stroke:none"
         id="path146"
         inkscape:connector-curvature="0" /><path
         d="m 5078.96,5587.24 0,-119.4 512.12,0 0,122.54 -47.12,0 0,-75.41 -417.88,0 0,72.27 -47.12,0"
         style="fill:#d0cfd2;fill-opacity:1;fill-rule:nonzero;stroke:none"
         id="path148"
         inkscape:connector-curvature="0" /><path
         d="m 5417.06,5800.27 42.2,-0.03 -121.57,184.33 -121.86,-184.15 42.2,-0.03 c -0.13,-171.92 -47.25,-237.91 -47.25,-237.91 0,0 206.12,26.18 206.28,237.79"
         style="fill:#d0cfd2;fill-opacity:1;fill-rule:nonzero;stroke:none"
         id="path150"
         inkscape:connector-curvature="0" /><path
         d="m 880.625,4039.75 c -155.48,0 -281.633,-126.49 -281.633,-281.97 0,-155.48 125.528,-281.97 282.629,-281.97 l 0,94.26 c -103.683,0 -188.367,84.21 -188.367,187.71 0,103.51 83.531,187.71 187.039,187.71 101.395,0 184.207,-80.82 187.547,-181.43 l -46.44,0 93.23,-130.95 93.23,130.95 -45.68,0 c -3.34,152.59 -128.19,275.69 -281.555,275.69"
         style="fill:#d0cfd2;fill-opacity:1;fill-rule:nonzero;stroke:none"
         id="path216"
         inkscape:connector-curvature="0" /><path
         d="m 5181.46,1878.84 0,136.59 c 0,9.36 7.6,16.97 16.97,16.97 l 273.18,0 c 9.36,0 16.96,-7.61 16.96,-16.97 l 0,-136.59 -307.11,0 z m 175.2,-232.72 -43.29,0 0,74.93 c -2.5,1.21 -4.86,2.63 -7.12,4.22 -12.79,9.04 -21.19,23.89 -21.19,40.75 0,27.59 22.37,49.96 49.97,49.96 27.58,0 49.94,-22.37 49.94,-49.96 0,-16.86 -8.39,-31.71 -21.19,-40.75 -2.26,-1.59 -4.62,-3.01 -7.12,-4.22 l 0,-74.93 z m 196.73,369.31 c 0,45.1 -36.69,81.78 -81.78,81.78 l -273.18,0 c -45.1,0 -81.78,-36.68 -81.78,-81.78 l 0,-136.59 -55.44,0 0,-290.58 547.62,0 0,290.58 -55.44,0 0,136.59"
         style="fill:#d0cfd2;fill-opacity:1;fill-rule:nonzero;stroke:none"
         id="path296"
         inkscape:connector-curvature="0" /><path
         d="m 3977.97,319.41 6.83,0 0,8.66 c 0,8.981 1.12,16.141 3.4,21.442 2.25,5.289 6.16,9.136 11.59,11.578 5.42,2.39 12.89,3.601 22.34,3.601 16.82,0 25.14,-4.062 25.14,-12.363 0,-2.609 -0.88,-4.937 -2.66,-6.777 -1.7,-1.91 -3.79,-2.84 -6.17,-2.84 -1.12,0 -3.07,0.168 -5.84,0.629 -2.62,0.41 -5.02,0.66 -6.9,0.66 -5.17,0 -8.47,-1.551 -10.02,-4.641 -1.4,-2.988 -2.16,-7.371 -2.16,-13.089 l 0,-6.86 7.01,0 c 10.95,0 16.38,-3.238 16.38,-9.89 0,-4.649 -1.38,-7.629 -4.31,-8.918 -2.91,-1.25 -6.94,-1.883 -12.07,-1.883 l -7.01,0 0,-76.067 c 0,-5.664 -1.33,-9.961 -4.11,-12.902 -2.65,-3.031 -6.11,-4.539 -10.41,-4.539 -4.08,0 -7.42,1.508 -10.17,4.539 -2.68,2.941 -4.03,7.238 -4.03,12.902 l 0,76.067 -7.89,0 c -4.31,0 -7.57,0.922 -9.9,2.871 -2.32,1.902 -3.47,4.43 -3.47,7.551 0,6.879 4.8,10.269 14.43,10.269"
         style="fill:#d0cfd2;fill-opacity:1;fill-rule:nonzero;stroke:none"
         id="path372"
         inkscape:connector-curvature="0" /><path
         d="m 4071.95,246.641 0,-23.989 c 0,-5.793 -1.48,-10.152 -4.16,-13.062 -2.73,-2.942 -6.17,-4.379 -10.37,-4.379 -4.22,0 -7.6,1.437 -10.23,4.469 -2.64,2.922 -3.99,7.218 -3.99,12.972 l 0,79.95 c 0,12.918 4.65,19.386 13.95,19.386 4.8,0 8.2,-1.508 10.33,-4.508 2.09,-3.058 3.24,-7.5 3.5,-13.398 3.41,5.898 6.91,10.34 10.52,13.398 3.66,3 8.44,4.508 14.48,4.508 6.07,0 11.87,-1.508 17.56,-4.508 5.7,-3.058 8.53,-7.089 8.53,-12.011 0,-3.528 -1.23,-6.43 -3.59,-8.68 -2.46,-2.301 -5.06,-3.437 -7.84,-3.437 -1.11,0 -3.65,0.66 -7.67,1.98 -4.04,1.25 -7.6,1.898 -10.67,1.898 -4.19,0 -7.65,-1.101 -10.27,-3.281 -2.69,-2.238 -4.78,-5.5 -6.27,-9.847 -1.42,-4.352 -2.42,-9.532 -3.01,-15.5 -0.56,-6.043 -0.8,-13.332 -0.8,-21.961"
         style="fill:#d0cfd2;fill-opacity:1;fill-rule:nonzero;stroke:none"
         id="path374"
         inkscape:connector-curvature="0" /><path
         d="m 4147.75,272.859 52.07,0 c -0.72,9.801 -3.32,17.141 -7.93,22.012 -4.62,4.859 -10.62,7.27 -18.16,7.27 -7.15,0 -13.03,-2.411 -17.62,-7.352 -4.59,-5 -7.38,-12.289 -8.36,-21.93 m 56.18,-16.308 -56.18,0 c 0.1,-6.539 1.37,-12.332 3.93,-17.27 2.58,-4.941 6,-8.699 10.23,-11.261 4.26,-2.528 8.91,-3.778 14.03,-3.778 3.45,0 6.58,0.41 9.43,1.25 2.81,0.75 5.59,2.047 8.24,3.778 2.68,1.722 5.1,3.511 7.35,5.519 2.24,1.961 5.17,4.621 8.73,7.992 1.52,1.25 3.61,1.899 6.31,1.899 2.96,0 5.33,-0.801 7.18,-2.461 1.84,-1.598 2.72,-3.848 2.72,-6.84 0,-2.598 -1,-5.598 -2.97,-9.09 -2.09,-3.519 -5.14,-6.769 -9.26,-9.98 -4.14,-3.168 -9.29,-5.879 -15.47,-7.957 -6.21,-2.09 -13.36,-3.141 -21.4,-3.141 -18.5,0 -32.82,5.219 -43.03,15.769 -10.22,10.551 -15.37,24.782 -15.37,42.79 0,8.48 1.27,16.382 3.83,23.671 2.48,7.309 6.19,13.45 11.05,18.688 4.81,5.152 10.74,9.133 17.85,11.902 7.07,2.75 14.92,4.141 23.56,4.141 11.21,0 20.82,-2.352 28.86,-7.113 7.99,-4.739 14.09,-10.84 18.03,-18.329 3.99,-7.531 6,-15.191 6,-22.98 0,-7.148 -2.09,-11.852 -6.23,-13.98 -4.12,-2.168 -9.92,-3.219 -17.42,-3.219"
         style="fill:#d0cfd2;fill-opacity:1;fill-rule:nonzero;stroke:none"
         id="path376"
         inkscape:connector-curvature="0" /><path
         d="m 4267.19,272.859 52.03,0 c -0.68,9.801 -3.36,17.141 -7.91,22.012 -4.65,4.859 -10.65,7.27 -18.17,7.27 -7.16,0 -13,-2.411 -17.63,-7.352 -4.57,-5 -7.4,-12.289 -8.32,-21.93 m 56.15,-16.308 -56.15,0 c 0.06,-6.539 1.38,-12.332 3.92,-17.27 2.54,-4.941 5.98,-8.699 10.2,-11.261 4.24,-2.528 8.92,-3.778 14.06,-3.778 3.42,0 6.58,0.41 9.38,1.25 2.85,0.75 5.58,2.047 8.28,3.778 2.67,1.722 5.1,3.511 7.36,5.519 2.19,1.961 5.16,4.621 8.71,7.992 1.51,1.25 3.61,1.899 6.31,1.899 2.99,0 5.33,-0.801 7.21,-2.461 1.79,-1.598 2.67,-3.848 2.67,-6.84 0,-2.598 -1.01,-5.598 -3.04,-9.09 -1.96,-3.519 -5.04,-6.769 -9.2,-9.98 -4.1,-3.168 -9.28,-5.879 -15.43,-7.957 -6.19,-2.09 -13.38,-3.141 -21.45,-3.141 -18.44,0 -32.75,5.219 -43.03,15.769 -10.21,10.551 -15.35,24.782 -15.35,42.79 0,8.48 1.27,16.382 3.83,23.671 2.5,7.309 6.17,13.45 11.02,18.688 4.82,5.152 10.78,9.133 17.89,11.902 7.07,2.75 14.94,4.141 23.55,4.141 11.19,0 20.8,-2.352 28.95,-7.113 7.97,-4.739 14,-10.84 17.95,-18.329 3.96,-7.531 6.03,-15.191 6.03,-22.98 0,-7.148 -2.11,-11.852 -6.21,-13.98 -4.16,-2.168 -9.96,-3.219 -17.46,-3.219"
         style="fill:#d0cfd2;fill-opacity:1;fill-rule:nonzero;stroke:none"
         id="path378"
         inkscape:connector-curvature="0" /><path
         d="m 4442.52,264.121 c 0,7.578 -1.17,14.07 -3.5,19.469 -2.3,5.5 -5.5,9.59 -9.61,12.539 -4.04,2.91 -8.63,4.363 -13.63,4.363 -7.89,0 -14.57,-3.113 -20,-9.351 -5.45,-6.25 -8.18,-15.411 -8.18,-27.582 0,-11.379 2.71,-20.278 8.12,-26.68 5.41,-6.297 12.05,-9.481 20.06,-9.481 4.77,0 9.2,1.422 13.28,4.133 4.08,2.809 7.35,6.93 9.77,12.5 2.46,5.528 3.69,12.27 3.69,20.09 m -56.29,41.719 0,-3.449 c 5.37,6.629 11.02,11.539 16.9,14.668 5.7,3.113 12.34,4.73 19.7,4.73 8.81,0 17.01,-2.309 24.44,-6.867 7.44,-4.602 13.26,-11.203 17.57,-20.012 4.34,-8.789 6.51,-19.129 6.51,-31.14 0,-8.801 -1.25,-16.911 -3.71,-24.36 -2.48,-7.379 -5.96,-13.578 -10.28,-18.57 -4.37,-4.981 -9.49,-8.91 -15.39,-11.598 -5.99,-2.691 -12.3,-4.031 -19.14,-4.031 -8.18,0 -15.1,1.648 -20.64,4.969 -5.59,3.211 -10.88,8.129 -15.96,14.472 l 0,-43.101 c 0,-12.61 -4.63,-18.922 -13.77,-18.922 -5.43,0 -8.94,1.59 -10.76,4.851 -1.68,3.301 -2.58,8 -2.58,14.29 l 0,123.902 c 0,5.469 1.17,9.547 3.54,12.238 2.38,2.672 5.66,4.078 9.8,4.078 4.08,0 7.36,-1.406 9.9,-4.168 2.62,-2.8 3.87,-6.75 3.87,-11.98"
         style="fill:#d0cfd2;fill-opacity:1;fill-rule:nonzero;stroke:none"
         id="path380"
         inkscape:connector-curvature="0" /><path
         d="m 4514.47,305.672 0,-83.02 c 0,-5.754 -1.36,-10.05 -4.1,-12.972 -2.75,-3.032 -6.21,-4.469 -10.41,-4.469 -4.24,0 -7.58,1.508 -10.27,4.539 -2.58,3.051 -3.95,7.309 -3.95,12.902 l 0,82.219 c 0,5.609 1.37,9.899 3.95,12.738 2.69,2.973 6.03,4.379 10.27,4.379 4.2,0 7.66,-1.406 10.41,-4.379 2.74,-2.839 4.1,-6.879 4.1,-11.937 m -14.22,29.699 c -4.02,0 -7.4,1.25 -10.21,3.629 -2.85,2.539 -4.3,5.949 -4.3,10.398 0,4.082 1.47,7.454 4.4,10.051 2.89,2.641 6.29,3.992 10.11,3.992 3.77,0 7.04,-1.211 9.91,-3.582 2.87,-2.418 4.31,-5.89 4.31,-10.461 0,-4.398 -1.4,-7.859 -4.2,-10.347 -2.81,-2.43 -6.11,-3.68 -10.02,-3.68"
         style="fill:#d0cfd2;fill-opacity:1;fill-rule:nonzero;stroke:none"
         id="path382"
         inkscape:connector-curvature="0" /><path
         d="m 4607.03,218.309 -25.29,41.703 -15.61,-14.723 0,-22.859 c 0,-5.532 -1.44,-9.739 -4.39,-12.68 -2.83,-3.031 -6.25,-4.539 -10.02,-4.539 -4.43,0 -7.89,1.437 -10.43,4.469 -2.48,2.922 -3.79,7.218 -3.79,12.972 l 0,122.5 c 0,6.336 1.25,11.2 3.67,14.508 2.48,3.371 6.02,5.031 10.55,5.031 4.41,0 7.89,-1.511 10.49,-4.582 2.61,-2.957 3.92,-7.429 3.92,-13.296 l 0,-69.661 32.29,33.887 c 4.02,4.18 7.03,7.082 9.16,8.633 2.13,1.5 4.65,2.316 7.63,2.316 3.62,0 6.59,-1.156 9.05,-3.418 2.34,-2.3 3.53,-5.14 3.53,-8.59 0,-4.14 -3.9,-9.839 -11.66,-16.839 l -15.25,-13.942 29.43,-46.328 c 2.13,-3.441 3.75,-6.031 4.69,-7.832 0.94,-1.758 1.45,-3.519 1.45,-5.109 0,-4.578 -1.25,-8.129 -3.77,-10.801 -2.5,-2.617 -5.82,-3.918 -9.83,-3.918 -3.49,0 -6.21,0.891 -8.1,2.852 -1.9,1.929 -4.52,5.328 -7.72,10.246"
         style="fill:#d0cfd2;fill-opacity:1;fill-rule:nonzero;stroke:none"
         id="path384"
         inkscape:connector-curvature="0" /><path
         d="m 4669.41,205.211 c -4.35,0 -8.06,1.391 -11.23,4.211 -3.14,2.769 -4.74,6.726 -4.74,11.808 0,4.262 1.54,7.95 4.55,11.012 3.03,3.09 6.74,4.598 11.13,4.598 4.42,0 8.18,-1.508 11.35,-4.52 3.08,-3.05 4.69,-6.781 4.69,-11.09 0,-5.039 -1.61,-8.929 -4.69,-11.742 -3.17,-2.886 -6.86,-4.277 -11.06,-4.277"
         style="fill:#d0cfd2;fill-opacity:1;fill-rule:nonzero;stroke:none"
         id="path386"
         inkscape:connector-curvature="0" /><path
         d="m 4812.23,240.781 c 0,-3.601 -1.1,-7.41 -3.23,-11.461 -2.12,-4.121 -5.41,-7.929 -9.82,-11.66 -4.36,-3.68 -9.86,-6.621 -16.54,-8.89 -6.66,-2.219 -14.16,-3.379 -22.48,-3.379 -17.78,0 -31.64,5.199 -41.61,15.539 -9.92,10.351 -14.92,24.211 -14.92,41.582 0,11.859 2.27,22.23 6.88,31.297 4.51,8.992 11.11,16.011 19.74,20.961 8.62,4.972 18.97,7.402 30.92,7.402 7.44,0 14.26,-1.102 20.51,-3.25 6.21,-2.152 11.43,-4.992 15.78,-8.391 4.26,-3.511 7.58,-7.129 9.84,-10.98 2.29,-3.93 3.4,-7.551 3.4,-10.973 0,-3.379 -1.25,-6.316 -3.81,-8.68 -2.57,-2.406 -5.7,-3.617 -9.27,-3.617 -2.42,0 -4.42,0.66 -6,1.867 -1.58,1.25 -3.36,3.223 -5.31,5.954 -3.52,5.347 -7.15,9.339 -11,11.976 -3.79,2.711 -8.65,4.024 -14.55,4.024 -8.44,0 -15.33,-3.313 -20.51,-9.961 -5.17,-6.59 -7.79,-15.731 -7.79,-27.161 0,-5.378 0.7,-10.421 2.03,-14.898 1.27,-4.504 3.22,-8.371 5.76,-11.594 2.54,-3.156 5.57,-5.547 9.13,-7.218 3.61,-1.731 7.53,-2.528 11.79,-2.528 5.78,0 10.71,1.379 14.79,4.039 4.18,2.668 7.77,6.739 10.93,12.188 1.74,3.211 3.6,5.742 5.61,7.543 2.03,1.789 4.53,2.758 7.48,2.758 3.54,0 6.45,-1.348 8.73,-4.008 2.33,-2.621 3.52,-5.543 3.52,-8.481"
         style="fill:#d0cfd2;fill-opacity:1;fill-rule:nonzero;stroke:none"
         id="path388"
         inkscape:connector-curvature="0" /><path
         d="m 4907.27,263.559 c 0,11.722 -2.58,20.793 -7.72,27.332 -5.14,6.578 -12.07,9.839 -20.76,9.839 -5.63,0 -10.55,-1.429 -14.84,-4.351 -4.3,-2.938 -7.54,-7.18 -9.89,-12.918 -2.28,-5.68 -3.45,-12.301 -3.45,-19.902 0,-7.528 1.11,-14 3.39,-19.629 2.33,-5.61 5.55,-9.942 9.83,-12.899 4.28,-2.961 9.24,-4.5 14.96,-4.5 8.69,0 15.62,3.278 20.76,9.86 5.14,6.578 7.72,15.621 7.72,27.168 m 28.84,0 c 0,-8.539 -1.36,-16.399 -3.92,-23.649 -2.76,-7.219 -6.56,-13.461 -11.64,-18.57 -5.02,-5.238 -11.12,-9.199 -18.05,-11.961 -7.09,-2.777 -14.96,-4.168 -23.71,-4.168 -8.67,0 -16.52,1.391 -23.46,4.211 -6.89,2.769 -12.97,6.82 -18.03,12.019 -5.09,5.258 -8.92,11.43 -11.62,18.52 -2.54,7.148 -3.9,15.008 -3.9,23.598 0,8.691 1.4,16.679 3.98,23.933 2.68,7.258 6.53,13.399 11.51,18.477 5,5.101 10.97,9.09 18.06,11.851 7.11,2.762 14.94,4.168 23.46,4.168 8.69,0 16.58,-1.406 23.71,-4.218 7.03,-2.801 13.07,-6.829 18.16,-11.93 5.08,-5.289 8.91,-11.43 11.55,-18.551 2.58,-7.18 3.9,-15.078 3.9,-23.73"
         style="fill:#d0cfd2;fill-opacity:1;fill-rule:nonzero;stroke:none"
         id="path390"
         inkscape:connector-curvature="0" /><path
         d="m 5045.61,261.461 0,-38.18 c 0,-6.031 -1.31,-10.48 -4.07,-13.531 -2.77,-3.031 -6.33,-4.539 -10.84,-4.539 -4.33,0 -7.91,1.508 -10.52,4.539 -2.74,3.051 -4.11,7.5 -4.11,13.531 l 0,45.77 c 0,7.23 -0.23,12.859 -0.72,16.89 -0.51,3.899 -1.85,7.2 -4,9.797 -2.19,2.551 -5.65,3.852 -10.31,3.852 -9.44,0 -15.59,-3.211 -18.56,-9.75 -2.95,-6.379 -4.49,-15.68 -4.49,-27.781 l 0,-38.778 c 0,-5.929 -1.37,-10.441 -4.03,-13.492 -2.73,-3.07 -6.28,-4.578 -10.68,-4.578 -4.35,0 -7.93,1.508 -10.7,4.578 -2.78,3.051 -4.18,7.563 -4.18,13.492 l 0,82.188 c 0,5.351 1.29,9.5 3.73,12.301 2.56,2.812 5.82,4.218 9.86,4.218 3.95,0 7.21,-1.367 9.87,-3.957 2.61,-2.609 3.9,-6.242 3.9,-10.89 l 0,-2.719 c 5.04,5.898 10.35,10.348 16.02,13.098 5.72,2.851 11.97,4.269 18.96,4.269 7.21,0 13.4,-1.469 18.58,-4.309 5.19,-2.921 9.45,-7.289 12.83,-13.058 4.88,5.848 10.08,10.258 15.6,13.098 5.55,2.8 11.68,4.269 18.4,4.269 7.83,0 14.65,-1.617 20.33,-4.68 5.65,-3.05 9.87,-7.539 12.68,-13.179 2.48,-5.25 3.67,-13.43 3.67,-24.571 l 0,-56.078 c 0,-6.031 -1.37,-10.48 -4.08,-13.531 -2.7,-3.031 -6.35,-4.539 -10.84,-4.539 -4.36,0 -7.89,1.508 -10.66,4.578 -2.78,3.051 -4.16,7.563 -4.16,13.492 l 0,48.328 c 0,6.172 -0.28,11.102 -0.79,14.84 -0.52,3.692 -1.93,6.813 -4.23,9.34 -2.35,2.5 -5.88,3.801 -10.55,3.801 -3.77,0 -7.38,-1.211 -10.78,-3.418 -3.4,-2.223 -6.06,-5.281 -7.99,-8.981 -2.05,-4.89 -3.14,-13.441 -3.14,-25.73"
         style="fill:#d0cfd2;fill-opacity:1;fill-rule:nonzero;stroke:none"
         id="path392"
         inkscape:connector-curvature="0" /><path
         d="m 3779.12,195.172 c 0,0 -15.68,2.508 -30.98,19.219 -15.39,16.89 -17.98,34.73 -17.98,34.73 0,0 19.53,-4.582 33.55,-6.152 24.75,-2.797 47.01,-1.25 57.5,-0.09 22.74,2.512 34.83,6.68 39.75,7.883 29.02,6.988 56.93,25.769 56.93,25.769 0,0 3.54,-21.801 -12.85,-46 -6.41,-9.441 -19.16,-20.293 -33.83,-27.781 -50.27,-21.441 -92.09,-7.578 -92.09,-7.578"
         style="fill:#d0cfd2;fill-opacity:1;fill-rule:evenodd;stroke:none"
         id="path394"
         inkscape:connector-curvature="0" /><path
         d="m 3869.43,293.441 c -10.41,-0.589 -19.37,7.239 -20.04,17.598 -0.64,10.332 7.31,19.293 17.7,19.93 10.39,0.703 19.41,-7.199 20.04,-17.5 0.66,-10.367 -7.31,-19.348 -17.7,-20.028 m -84.53,-21.23 c -16.54,-1.051 -30.78,11.379 -31.81,27.891 -1.02,16.41 11.58,30.66 28.1,31.668 16.56,1.128 30.84,-11.399 31.82,-27.809 1.05,-16.469 -11.56,-30.711 -28.11,-31.75 m 112.91,46.91 c -5.37,6.539 -23.38,37.359 -59.78,41.859 -9.3,1.11 -58.54,-0.82 -88.07,-28.121 -2.91,-2.777 -17.91,-15.929 -22.87,-40.468 -3.89,-18.93 2.46,-40.262 2.46,-40.262 0,0 32.75,-6.84 57.42,-6.188 39.12,0.957 58.83,4.43 79.28,10.61 30.12,9.109 51.46,24.398 51.46,24.398 0,0 -14.47,31.59 -19.9,38.172"
         style="fill:#d0cfd2;fill-opacity:1;fill-rule:evenodd;stroke:none"
         id="path396"
         inkscape:connector-curvature="0" /><path
         d="m 3883.67,340.469 9.51,11.41 c 0,0 13.13,-6.488 21.59,-18.629 8.39,-12.129 13.88,-23.219 13.88,-23.219 l -15.7,-9.539 c 0,0 -4.86,11.699 -12.17,21.09 -7.28,9.34 -17.11,18.887 -17.11,18.887"
         style="fill:#d0cfd2;fill-opacity:1;fill-rule:evenodd;stroke:none"
         id="path398"
         inkscape:connector-curvature="0" /><path
         d="m 3913.52,332.539 c 2.46,1.449 6.6,1.711 6.34,5.172 -0.17,3.469 -2.52,10.309 4.34,12.648 6.89,2.321 3.01,-2.05 0.64,-5.058 -2.36,-3.012 -1.6,-4.871 -1.3,-9.289 0.25,-4.383 -2.84,-5.883 -7.49,-8.051 -4.66,-2.191 -5.01,3.109 -2.53,4.578"
         style="fill:#d0cfd2;fill-opacity:1;fill-rule:evenodd;stroke:none"
         id="path400"
         inkscape:connector-curvature="0" /><path
         d="m 3739.1,325.531 c 0,0 -11.01,-12.793 -13.83,-24.34 -2.77,-11.601 -2.2,-25.55 -2.2,-25.55 l -16.29,5.609 c 0,0 -0.94,16.039 6.48,28.969 8.24,14.39 18.79,20.801 18.79,20.801 l 7.05,-5.489"
         style="fill:#d0cfd2;fill-opacity:1;fill-rule:evenodd;stroke:none"
         id="path402"
         inkscape:connector-curvature="0" /><path
         d="m 3715.12,310.992 c -2.66,1.707 -2.91,5.828 -5,8.539 -2.09,2.758 -2.62,1.09 -7.41,1.09 -4.78,0 -4.92,2.277 -6.26,3.438 -1.37,1.211 -2.02,-3.637 -2.02,-3.637 0,0 0.88,-4.063 6.02,-4.363 5.1,-0.289 4.98,2.222 7.17,-2.387 2.2,-4.652 6.56,-8.152 6.56,-8.152 0,0 3.61,3.71 0.94,5.472"
         style="fill:#d0cfd2;fill-opacity:1;fill-rule:evenodd;stroke:none"
         id="path404"
         inkscape:connector-curvature="0" /><path
         d="m 3801.62,371.691 c 26.74,6.7 43.46,-1.011 43.46,-1.011 l -1.43,-7.7 c 0,0 -19.53,1.301 -35.04,-1 -15.47,-2.23 -22.52,-7.128 -22.52,-7.128 l -3.36,7.679 c 0,0 7.33,6.258 18.89,9.16"
         style="fill:#d0cfd2;fill-opacity:1;fill-rule:evenodd;stroke:none"
         id="path406"
         inkscape:connector-curvature="0" /><path
         d="m 3809.63,382.672 3.77,1.359 4.96,-13.312 -3.73,-1.43 -5,13.383"
         style="fill:#d0cfd2;fill-opacity:1;fill-rule:evenodd;stroke:none"
         id="path408"
         inkscape:connector-curvature="0" /><path
         d="m 3927.42,357.898 c 3.77,0.211 7.01,-2.668 7.23,-6.41 0.27,-3.777 -2.6,-6.988 -6.39,-7.238 -3.79,-0.25 -7.03,2.641 -7.24,6.359 -0.26,3.782 2.61,7 6.4,7.289"
         style="fill:#d0cfd2;fill-opacity:1;fill-rule:evenodd;stroke:none"
         id="path410"
         inkscape:connector-curvature="0" /><path
         d="m 3692.6,332.039 c 3.75,0.25 7.01,-2.617 7.26,-6.379 0.22,-3.738 -2.63,-6.93 -6.44,-7.168 -3.75,-0.262 -6.99,2.578 -7.25,6.317 -0.23,3.761 2.66,6.961 6.43,7.23"
         style="fill:#d0cfd2;fill-opacity:1;fill-rule:evenodd;stroke:none"
         id="path412"
         inkscape:connector-curvature="0" /><path
         d="m 3812.91,399.711 c 6,0.34 11.19,-4.141 11.56,-10.16 0.35,-5.922 -4.22,-11.11 -10.23,-11.5 -6.02,-0.41 -11.15,4.121 -11.54,10.129 -0.41,6 4.18,11.172 10.21,11.531"
         style="fill:#d0cfd2;fill-opacity:1;fill-rule:evenodd;stroke:none"
         id="path414"
         inkscape:connector-curvature="0" /><path
         d="m 2922.85,268.102 c -10.45,0 -15.62,-10.942 -15.62,-20.43 0,-9.352 5.17,-20.274 15.62,-20.274 10.98,0 15.72,11.161 15.72,20.973 0,9.731 -5,19.731 -15.72,19.731 m 35.82,-47.071 c 0,-6.73 -4.22,-11.152 -10.08,-11.152 -5.52,0 -8.75,3.012 -10.02,8.371 -3.77,-6.148 -11.54,-9.168 -18.37,-9.168 -20.22,0 -33.03,18.707 -33.03,37.699 0,19.571 10.72,39.75 32.34,39.75 6.95,0 13.77,-2.429 19.06,-6.992 l 0,27.34 c 0,6.672 4.18,11.101 10.02,11.101 5.86,0 10.08,-4.429 10.08,-11.101 l 0,-85.848"
         style="fill:#d0cfd2;fill-opacity:1;fill-rule:nonzero;stroke:none"
         id="path416"
         inkscape:connector-curvature="0" /><path
         d="m 3017.73,254.469 c -1.09,8.801 -6.68,15.301 -16.03,15.301 -8.91,0 -14.92,-6.79 -15.88,-15.301 l 31.91,0 z m -31.52,-13.391 c 1.45,-9.848 9.63,-14.496 19.02,-14.496 10.28,0 17.37,8.047 22.7,8.047 4.3,0 8.16,-4.258 8.16,-8.637 0,-8.64 -17.79,-16.91 -32.71,-16.91 -22.6,0 -37.62,16.41 -37.62,38.59 0,20.34 14.77,38.859 35.94,38.859 21.74,0 36.09,-19.769 36.09,-36.519 0,-5.981 -2.65,-8.934 -8.77,-8.934 l -42.81,0"
         style="fill:#d0cfd2;fill-opacity:1;fill-rule:nonzero;stroke:none"
         id="path418"
         inkscape:connector-curvature="0" /><path
         d="m 3087.15,263.109 c -3.77,0 -11.43,5.891 -17.99,5.891 -3.61,0 -6.84,-1.699 -6.84,-5.641 0,-9.339 34.85,-7.929 34.85,-30.777 0,-13.352 -11.27,-23.5 -28.6,-23.5 -11.27,0 -27.98,6.359 -27.98,15.406 0,3.051 3.06,8.883 8.63,8.883 7.81,0 11.29,-6.789 20.74,-6.789 6.15,0 7.97,1.977 7.97,5.738 0,9.211 -34.82,7.801 -34.82,30.789 0,13.922 11.28,23.422 27.18,23.422 9.87,0 25.06,-4.621 25.06,-14.531 0,-4.559 -3.47,-8.891 -8.2,-8.891"
         style="fill:#d0cfd2;fill-opacity:1;fill-rule:nonzero;stroke:none"
         id="path420"
         inkscape:connector-curvature="0" /><path
         d="m 3103.98,274.5 c 0,6.699 4.18,11.191 10.04,11.191 5.84,0 10.02,-4.492 10.02,-11.191 l 0,-53.469 c 0,-6.73 -4.18,-11.152 -10.02,-11.152 -5.86,0 -10.04,4.422 -10.04,11.152 l 0,53.469 z m 21.33,30.27 c 0,-6.29 -5,-11.59 -11.29,-11.59 -5.99,0 -11.29,5.449 -11.29,11.59 0,5.71 5.3,11 11.29,11 5.98,0 11.29,-5.129 11.29,-11"
         style="fill:#d0cfd2;fill-opacity:1;fill-rule:nonzero;stroke:none"
         id="path422"
         inkscape:connector-curvature="0" /><path
         d="m 3167.93,268.102 c -10.43,0 -15.57,-10.84 -15.57,-20.192 0,-10.73 5.14,-20.512 15.57,-20.512 10.72,0 15.76,10.082 15.76,19.852 0,9.699 -4.73,20.852 -15.76,20.852 m 35.84,-51.543 c 0,-24.11 -15.76,-36.278 -38.61,-36.278 -8.21,0 -31.64,4.09 -31.64,15.078 0,3.743 4.18,8.782 8.12,8.782 6.39,0 13.5,-6.219 25.06,-6.219 9.78,0 16.99,5.617 16.99,15.879 l 0,4.719 -0.27,0 c -4.16,-6.129 -11.02,-9.438 -20.2,-9.438 -21.03,0 -30.95,18.457 -30.95,38.418 0,20.199 12.79,39.031 33.02,39.031 6.86,0 14.61,-3.07 18.4,-9.179 1.27,5.25 4.45,8.339 10.04,8.339 5.84,0 10.04,-4.492 10.04,-11.191 l 0,-57.941"
         style="fill:#d0cfd2;fill-opacity:1;fill-rule:nonzero;stroke:none"
         id="path424"
         inkscape:connector-curvature="0" /><path
         d="m 3215.18,274.5 c 0,6.699 4.16,11.191 10.03,11.191 5.14,0 8.52,-2.781 9.18,-7.453 3.93,5.473 9.89,8.293 19.38,8.293 15.74,0 27.44,-10.051 27.44,-27.019 l 0,-38.481 c 0,-6.73 -4.12,-11.152 -10,-11.152 -5.82,0 -10.06,4.422 -10.06,11.152 l 0,34.949 c 0,9.34 -5.82,13.79 -13.08,13.79 -8.25,0 -12.82,-6 -12.82,-13.79 l 0,-34.949 c 0,-6.73 -4.2,-11.152 -10.04,-11.152 -5.87,0 -10.03,4.422 -10.03,11.152 l 0,53.469"
         style="fill:#d0cfd2;fill-opacity:1;fill-rule:nonzero;stroke:none"
         id="path426"
         inkscape:connector-curvature="0" /><path
         d="m 3340.31,254.469 c -1.11,8.801 -6.7,15.301 -16.03,15.301 -8.93,0 -14.94,-6.79 -15.88,-15.301 l 31.91,0 z m -31.5,-13.391 c 1.4,-9.848 9.61,-14.496 18.96,-14.496 10.34,0 17.43,8.047 22.7,8.047 4.33,0 8.26,-4.258 8.26,-8.637 0,-8.64 -17.87,-16.91 -32.77,-16.91 -22.6,0 -37.62,16.41 -37.62,38.59 0,20.34 14.77,38.859 35.94,38.859 21.76,0 36.09,-19.769 36.09,-36.519 0,-5.981 -2.66,-8.934 -8.77,-8.934 l -42.79,0"
         style="fill:#d0cfd2;fill-opacity:1;fill-rule:nonzero;stroke:none"
         id="path428"
         inkscape:connector-curvature="0" /><path
         d="m 3400.23,268.102 c -10.46,0 -15.6,-10.942 -15.6,-20.43 0,-9.352 5.14,-20.274 15.6,-20.274 10.98,0 15.75,11.161 15.75,20.973 0,9.731 -5.02,19.731 -15.75,19.731 m 35.81,-47.071 c 0,-6.73 -4.2,-11.152 -10.06,-11.152 -5.55,0 -8.73,3.012 -10,8.371 -3.79,-6.148 -11.57,-9.168 -18.4,-9.168 -20.2,0 -33.01,18.707 -33.01,37.699 0,19.571 10.72,39.75 32.34,39.75 6.94,0 13.77,-2.429 19.07,-6.992 l 0,27.34 c 0,6.672 4.18,11.101 10,11.101 5.86,0 10.06,-4.429 10.06,-11.101 l 0,-85.848"
         style="fill:#d0cfd2;fill-opacity:1;fill-rule:nonzero;stroke:none"
         id="path430"
         inkscape:connector-curvature="0" /><path
         d="m 3520.63,227.398 c 10.44,0 15.58,10.922 15.58,20.274 0,9.488 -5.14,20.43 -15.58,20.43 -10.73,0 -15.75,-10 -15.75,-19.731 0,-9.812 4.77,-20.973 15.75,-20.973 m -35.84,79.481 c 0,6.672 4.21,11.101 10.07,11.101 5.86,0 10.02,-4.429 10.02,-11.101 l 0,-27.34 c 5.32,4.563 12.11,6.992 19.08,6.992 21.61,0 32.33,-20.179 32.33,-39.75 0,-18.992 -12.79,-37.699 -33.03,-37.699 -6.83,0 -14.63,3.02 -18.38,9.168 -1.27,-5.359 -4.45,-8.371 -10.02,-8.371 -5.86,0 -10.07,4.422 -10.07,11.152 l 0,85.848"
         style="fill:#d0cfd2;fill-opacity:1;fill-rule:nonzero;stroke:none"
         id="path432"
         inkscape:connector-curvature="0" /><path
         d="m 3559.79,271.898 c -0.57,1.512 -1,3.063 -1,5.133 0,5.059 5.29,8.66 9.49,8.66 4.85,0 8.34,-2.679 10.04,-7.089 l 13.75,-37.821 14.81,37.821 c 1.67,4.41 5.13,7.089 10.03,7.089 4.18,0 9.46,-3.601 9.46,-8.66 0,-2.07 -0.28,-3.621 -0.96,-5.133 l -33.59,-83.636 c -1.64,-4.153 -4.73,-7.981 -9.48,-7.981 -6.81,0 -10.43,4.379 -10.43,8.641 0,2.027 0.57,4.078 1.22,5.879 l 8.8,21.758 -22.14,55.339"
         style="fill:#d0cfd2;fill-opacity:1;fill-rule:nonzero;stroke:none"
         id="path434"
         inkscape:connector-curvature="0" /><g
         id="g438"><g
           id="g440"
           clip-path="url(#clipPath442)"><path
             d="m 211.16,6967.29 c -13.75,-13.75 -17.832,-21.38 11.836,-51.04 25.473,-25.47 33.734,-26.36 49.649,-10.44 15.019,15.02 14.652,24.57 -10.426,49.65 -29.035,29.03 -36.926,25.97 -51.059,11.83"
             style="fill:#d0cfd2;fill-opacity:1;fill-rule:nonzero;stroke:none"
             id="path446"
             inkscape:connector-curvature="0" /><path
             d="m 939.578,7607.62 c -15.152,15.15 -22.781,16.67 -28.515,10.94 -6.739,-6.74 -10.45,-13.75 -11.833,-19.99 l 33.473,-33.48 c 6.496,2.93 12.231,7.14 18.457,13.38 5.61,5.6 5.61,11.96 -11.582,29.15"
             style="fill:#d0cfd2;fill-opacity:1;fill-rule:nonzero;stroke:none"
             id="path448"
             inkscape:connector-curvature="0" /><path
             d="m 764.309,7473.59 c -10.571,-10.56 -10.825,-15.15 8.14,-34.12 17.446,-17.44 22.68,-15.52 32.094,-6.11 10.059,10.06 11.719,14.27 -6.113,32.09 -18.965,18.97 -23.418,18.84 -34.121,8.14"
             style="fill:#d0cfd2;fill-opacity:1;fill-rule:nonzero;stroke:none"
             id="path450"
             inkscape:connector-curvature="0" /><path
             d="m 539.668,7229.86 c -8.523,8.53 -11.316,8.78 -19.855,0.25 -9.422,-9.42 -12.352,-13.37 2.414,-27.88 l 16.933,16.93 c 3.692,3.7 3.82,7.38 0.508,10.7"
             style="fill:#d0cfd2;fill-opacity:1;fill-rule:nonzero;stroke:none"
             id="path452"
             inkscape:connector-curvature="0" /><path
             d="m 868.816,7536.86 c -15.156,15.14 -22.793,16.66 -28.511,10.93 -6.75,-6.74 -10.45,-13.74 -11.848,-19.98 l 33.484,-33.49 c 6.489,2.94 12.219,7.14 18.457,13.38 5.61,5.6 5.61,11.97 -11.582,29.16"
             style="fill:#d0cfd2;fill-opacity:1;fill-rule:nonzero;stroke:none"
             id="path454"
             inkscape:connector-curvature="0" /><path
             d="m 1174.05,7706.62 -19.1,-19.1 c -11.97,-11.97 -27.37,-14.9 -40.74,-1.53 l -8.54,8.54 -0.25,12.22 c -5.61,-1.54 -13.24,0 -19.61,6.37 -5.34,5.34 -7.89,12.72 -4.2,19.98 -9.16,-2.04 -19.34,4.58 -26.09,11.33 -16.17,16.17 -15.92,32.21 -0.64,47.49 l 41.13,41.12 10.56,-10.56 -5.22,-9.81 c 4.07,-1.78 7.76,-2.67 15.79,-10.69 9.8,-9.8 18.71,-26.87 -0.39,-45.96 l -15.66,-15.66 c -2.04,-2.04 -5.08,-5.09 -2.15,-8.02 3.04,-3.06 5.72,-1.15 8.52,1.65 l 20.75,20.75 c 12.23,12.22 26.36,13.62 39.98,0.01 l 7.39,-7.39 c 9.67,-9.68 15.14,-24.06 -1.53,-40.74 z m -102.22,-33.47 -45.33,45.33 c -6.62,6.62 -12.21,6.11 -16.67,1.65 -7.12,-7.13 -9.18,-12.98 -10.443,-22.15 l 48.633,-48.63 -17.81,-17.83 -67.612,67.61 14.257,14.25 10.821,-3.69 c 1.535,9.94 2.676,19.49 12.984,29.8 15.8,15.78 31.07,9.42 43.93,-3.44 l 45.07,-45.07 -17.83,-17.83 z m -70.9,-70.9 -67.602,67.61 17.817,17.82 67.605,-67.61 -17.82,-17.82 z m -36.02,-104.76 -101.972,101.98 14.652,14.64 9.793,-3.7 c 0.887,7.52 4.972,20 12.976,28.02 16.684,16.68 36.036,8.02 56.289,-12.23 19.602,-19.6 31.821,-38.44 13.11,-57.16 -5.735,-5.72 -15.918,-12.86 -24.824,-16.17 l 37.671,-37.68 -17.695,-17.7 z m -70.762,-70.77 -101.968,101.98 14.629,14.64 9.8,-3.69 c 0.903,7.52 4.961,19.99 12.993,28.01 16.675,16.68 36.035,8.02 56.277,-12.23 19.601,-19.6 31.824,-38.44 13.105,-57.15 -5.73,-5.73 -15.91,-12.87 -24.812,-16.18 l 37.676,-37.68 -17.7,-17.7 z m -75.222,-7.74 c -23.289,-23.3 -40.11,-21.52 -64.285,2.67 -27.637,27.63 -27.383,43.42 -4.59,66.21 23.301,23.3 39.336,22.28 66.211,-4.59 25.078,-25.08 26.343,-40.61 2.664,-64.29 z m -58.797,-57.52 -45.332,45.32 c -6.621,6.62 -12.082,6.23 -16.66,1.65 -7.129,-7.13 -9.184,-12.98 -10.449,-22.15 l 48.628,-48.64 -17.82,-17.82 -99.695,99.69 17.691,17.7 39.36,-39.35 c 1.519,9.68 2.793,19.61 13.101,29.93 15.793,15.78 31.074,9.42 43.93,-3.44 l 45.078,-45.07 -17.832,-17.82 z m -76.367,-78.41 c -15.918,-15.91 -27.375,-25.34 -39.844,-32.21 l -14.008,14 c 5.61,4.59 22.024,19.23 33.867,31.07 5.344,5.34 10.571,12.34 3.442,19.48 l -4.985,4.96 c -5.332,5.35 -10.3,7.26 -17.183,0.38 l -14.258,-14.25 c -22.531,-22.54 -40.605,-7.52 -48.762,0.63 l -8.015,8.02 c -18.457,18.46 -12.856,34.76 1.152,49.27 13.102,13.63 30.176,27.12 39.727,32.34 l 14,-14.01 c -8.922,-7.38 -27.887,-25.33 -32.469,-29.91 -7.903,-7.64 -11.848,-12.61 -3.172,-21.27 l 4.566,-4.58 c 7.383,-7.38 11.723,-6.11 18.852,1.02 l 14.766,14.77 c 18.335,18.33 36.406,7.64 46.726,-2.68 l 6.238,-6.23 c 21.133,-21.14 11.953,-38.2 -0.64,-50.8 z M 566.66,7166.71 c -17.195,-17.19 -32.219,-12.35 -57.043,12.47 -29.019,29.03 -25.84,42.15 -4.449,63.54 19.605,19.6 30.801,26.48 53.223,4.08 12.089,-12.1 10.437,-23.69 -1.782,-35.91 l -21.519,-21.52 c 12.09,-12.1 17.437,-8.27 27.105,1.4 10.317,10.32 15.41,15.15 23.442,26.23 l 12.09,-12.1 c -5.989,-13.11 -20.5,-27.62 -31.067,-38.19 z m -50.265,-49 -45.332,45.33 c -6.622,6.62 -12.208,6.11 -16.668,1.65 -7.129,-7.13 -9.168,-12.98 -10.442,-22.15 l 48.637,-48.63 -17.832,-17.82 -67.602,67.6 14.262,14.26 10.816,-3.7 c 1.528,9.94 2.676,19.48 12.993,29.8 15.781,15.79 31.062,9.42 43.921,-3.44 l 45.071,-45.07 -17.824,-17.83 z m -70.915,-70.9 -67.597,67.6 17.832,17.82 67.598,-67.6 -17.833,-17.82 z m -22.011,-22.01 c -11.074,-11.08 -23.547,-11.34 -41.504,6.62 l -75.625,75.63 17.832,17.83 72.832,-72.84 c 9.793,-9.8 14.258,-9.68 19.082,-7.38 0,0 10.309,4.97 11.211,5.86 l 10.945,-10.95 -14.773,-14.77 z m -45.801,-45.82 -45.332,45.33 c -6.621,6.62 -12.207,6.11 -16.672,1.65 -7.129,-7.13 -9.172,-12.98 -10.437,-22.15 l 48.628,-48.63 -17.832,-17.83 -67.593,67.61 14.258,14.25 10.82,-3.69 c 1.519,9.94 2.676,19.48 12.984,29.8 15.781,15.79 31.067,9.42 43.93,-3.44 l 45.066,-45.07 -17.82,-17.83 z m -88.598,-89.61 c -22.91,-22.91 -41.504,-33.34 -83.894,9.05 -43.66,43.67 -31.824,63.91 -10.442,85.3 22.036,22.02 41.645,33.23 85.293,-10.44 41.133,-41.12 31.977,-60.99 9.043,-83.91 z m 66.66,252.04 13.364,13.36 c 1.914,1.91 4.336,1.28 6.109,-0.51 l 11.215,-11.2 c 1.91,-1.91 1.902,-3.94 0.113,-5.72 l -13.355,-13.38 c -1.789,-1.78 -4.211,-1.91 -5.988,-0.13 l -11.204,11.21 c -2.039,2.03 -2.293,4.33 -0.254,6.37 z m 555.43,555.44 13.383,13.36 c 1.902,1.92 4.336,1.27 6.109,-0.51 l 11.203,-11.2 c 1.907,-1.91 1.907,-3.95 0.125,-5.73 l -13.375,-13.37 c -1.781,-1.78 -4.203,-1.9 -5.976,-0.12 l -11.191,11.2 c -2.051,2.04 -2.305,4.33 -0.278,6.37 z m 655.7,849.28 -2101.294,-2101.31 295.313,-295.31 2101.291,2101.32 -295.31,295.3"
             style="fill:#d0cfd2;fill-opacity:1;fill-rule:nonzero;stroke:none"
             id="path456"
             inkscape:connector-curvature="0" /><path
             d="m 1151.14,7736.41 c -3.83,3.82 -7.77,4.45 -12.87,-0.38 l -13.75,-13.75 c -2.55,-2.55 -5.72,-4.97 -5.72,-4.97 l 11.19,-11.2 c 6.76,-6.75 10.96,-4.08 15.54,0.51 l 10.44,10.43 c 6.49,6.5 4.08,10.45 0.13,14.4 l -4.96,4.96"
             style="fill:#d0cfd2;fill-opacity:1;fill-rule:nonzero;stroke:none"
             id="path458"
             inkscape:connector-curvature="0" /><path
             d="m 1097.28,7786.19 c -7.27,6.75 -12.09,7.26 -18.46,0.89 l -6.76,-6.75 c -7.25,-7.25 -3.81,-12.99 1.27,-18.07 6.25,-6.24 12.36,-8.53 18.59,-2.3 l 7.13,7.13 c 6.75,6.75 4.34,12.98 -1.77,19.1"
             style="fill:#d0cfd2;fill-opacity:1;fill-rule:nonzero;stroke:none"
             id="path460"
             inkscape:connector-curvature="0" /></g></g></g></g></svg>