<?xml version="1.0" encoding="UTF-8" standalone="no"?>
<!-- Created with Inkscape (http://www.inkscape.org/) -->

<svg
   xmlns:dc="http://purl.org/dc/elements/1.1/"
   xmlns:cc="http://creativecommons.org/ns#"
   xmlns:rdf="http://www.w3.org/1999/02/22-rdf-syntax-ns#"
   xmlns:svg="http://www.w3.org/2000/svg"
   xmlns="http://www.w3.org/2000/svg"
   xmlns:sodipodi="http://sodipodi.sourceforge.net/DTD/sodipodi-0.dtd"
   xmlns:inkscape="http://www.inkscape.org/namespaces/inkscape"
   id="svg2"
   version="1.1"
   inkscape:version="0.91 r13725"
   xml:space="preserve"
   width="1000"
   height="1000"
   viewBox="0 0 1000 1000"
   sodipodi:docname="571011 (1).svg"><metadata
     id="metadata8"><rdf:RDF><cc:Work
         rdf:about=""><dc:format>image/svg+xml</dc:format><dc:type
           rdf:resource="http://purl.org/dc/dcmitype/StillImage" /><dc:title></dc:title></cc:Work></rdf:RDF></metadata><defs
     id="defs6"><linearGradient
       x1="0"
       y1="0"
       x2="1"
       y2="0"
       gradientUnits="userSpaceOnUse"
       gradientTransform="matrix(-3.497e-4,8000,8000,3.497e-4,4000,0)"
       spreadMethod="pad"
       id="linearGradient14"><stop
         style="stop-opacity:1;stop-color:#1f1618"
         offset="0"
         id="stop16" /><stop
         style="stop-opacity:1;stop-color:#413d48"
         offset="0.950549"
         id="stop18" /><stop
         style="stop-opacity:1;stop-color:#413d48"
         offset="1"
         id="stop20" /></linearGradient><clipPath
       clipPathUnits="userSpaceOnUse"
       id="clipPath430"><path
         d="m 0,6047.52 1952.48,0 0,1952.48 L 0,8000 0,6047.52 Z"
         id="path432"
         inkscape:connector-curvature="0" /></clipPath></defs><sodipodi:namedview
     pagecolor="#ffffff"
     bordercolor="#666666"
     borderopacity="1"
     objecttolerance="10"
     gridtolerance="10"
     guidetolerance="10"
     inkscape:pageopacity="0"
     inkscape:pageshadow="2"
     inkscape:window-width="1680"
     inkscape:window-height="1026"
     id="namedview4"
     showgrid="false"
     inkscape:zoom="0.944"
     inkscape:cx="496.65136"
     inkscape:cy="462.86488"
     inkscape:window-x="1600"
     inkscape:window-y="24"
     inkscape:window-maximized="1"
     inkscape:current-layer="g12" /><g
     id="g10"
     inkscape:groupmode="layer"
     inkscape:label="ink_ext_XXXXXX"
     transform="matrix(1.25,0,0,-1.25,0,1000)"><g
       id="g12"
       transform="scale(0.1,0.1)"><path
         d="m 0,0 8000,0 0,8000 L 0,8000 0,0 Z"
         style="fill:url(#linearGradient14);fill-opacity:1;fill-rule:nonzero;stroke:none"
         id="path22"
         inkscape:connector-curvature="0" /><path
         d="m 6034.01,5737.81 0,-29.3 -67.54,0 0,29.3 67.54,0 z m 10.94,160.14 47.76,-47.77 -20.73,-20.72 -47.77,47.76 20.74,20.73 z m 113.3,-115.41 43.62,-42.22 79.6,78.21 20.55,-20.91 -100,-98.24 -64.14,62.1 20.37,21.06 z m 26.1,173.15 29.29,0 0,-67.56 -29.29,0 0,67.56 z m 141.66,-338.82 47.79,-47.77 -20.72,-20.72 -47.78,47.77 20.71,20.72 z m 27.07,281.08 20.72,-20.73 -47.79,-47.76 -20.71,20.72 47.78,47.77 z m 78.45,-160.14 0,-29.3 -67.56,0 0,29.3 67.56,0 z m -217.89,-247.18 -29.29,0 0,67.56 29.29,0 0,-67.56 z m -168.69,57.75 -20.74,20.72 47.77,47.77 20.73,-20.73 -47.76,-47.76 z m 154.06,-79.24 c 140.3,0 254.03,113.73 254.03,254.01 0,140.31 -113.73,254.04 -254.03,254.04 -140.29,0 -254.02,-113.73 -254.02,-254.04 0,-140.28 113.73,-254.01 254.02,-254.01"
         style="fill:#d0cfd2;fill-opacity:1;fill-rule:nonzero;stroke:none"
         id="path24"
         inkscape:connector-curvature="0" /><path
         d="m 2624.89,5565.13 c -67.99,0 -123.11,55.12 -123.11,123.1 0,67.99 55.12,123.1 123.11,123.1 67.98,0 123.1,-55.11 123.1,-123.1 0,-67.98 -55.12,-123.1 -123.1,-123.1 z m 230.07,274.54 -136.32,0 -21.95,69.86 -143.62,0 -21.94,-69.86 -136.34,0 0,-302.87 460.17,0 0,302.87"
         style="fill:#d0cfd2;fill-opacity:1;fill-rule:nonzero;stroke:none"
         id="path72"
         inkscape:connector-curvature="0" /><path
         d="m 2624.89,5767.37 c -43.64,0 -79.15,-35.5 -79.15,-79.14 0,-43.64 35.51,-79.14 79.15,-79.14 43.64,0 79.13,35.5 79.13,79.14 0,43.64 -35.49,79.14 -79.13,79.14"
         style="fill:#d0cfd2;fill-opacity:1;fill-rule:nonzero;stroke:none"
         id="path74"
         inkscape:connector-curvature="0" /><path
         d="m 1031.4,5591.14 0,275.19 c 0,78.01 -48.74,132.5 -118.545,132.5 l -53.925,0 c -69.235,0 -115.75,-53.25 -115.75,-132.5 0,0 0,-306.24 0,-306.33 0,-60.57 49.32,-112.5 110.175,-112.45 0.778,-0.02 1.547,-0.05 2.325,-0.05 61.093,0 110.929,48.96 112.5,109.69 l 0,213.84 c 0,44.84 -33.899,79.97 -77.168,79.97 l -8.375,0 c -42.399,0 -74.371,-34.38 -74.371,-79.97 l 0,-177.57 41.836,0 0,177.57 c 0,18.98 10.058,38.13 32.535,38.13 l 8.371,0 c 20.144,0 35.332,-16.39 35.332,-38.13 l 0,-211.03 c 0,-38.97 -31.699,-70.67 -70.664,-70.67 -20.903,0 -39.699,9.13 -52.645,23.59 -10.426,13.49 -18.008,34.47 -18.008,67.06 l 0,286.36 c 0,66.84 38.18,90.65 73.907,90.65 l 53.925,0 c 52.989,0 76.7,-45.53 76.7,-90.65 l 0,-275.2 41.845,0 0,0"
         style="fill:#d0cfd2;fill-opacity:1;fill-rule:nonzero;stroke:none"
         id="path78"
         inkscape:connector-curvature="0" /><path
         d="m 3402.06,3885.66 c 22.75,0 41.19,-18.45 41.19,-41.2 0,-22.75 -18.44,-41.19 -41.19,-41.19 -22.75,0 -41.19,18.44 -41.19,41.19 0,22.75 18.44,41.2 41.19,41.2 z m 131.56,0 c 22.76,0 41.21,-18.45 41.21,-41.2 0,-22.75 -18.45,-41.19 -41.21,-41.19 -22.75,0 -41.19,18.44 -41.19,41.19 0,22.75 18.44,41.2 41.19,41.2 z m 131.59,0 c 22.75,0 41.19,-18.45 41.19,-41.2 0,-22.75 -18.46,-41.19 -41.19,-41.19 -22.76,0 -41.2,18.44 -41.2,41.19 0,22.75 18.44,41.2 41.2,41.2 z m -375.45,-395.33 120.7,129.78 366.25,0 0,457.32 -486.15,0 -0.8,-587.1"
         style="fill:#d0cfd2;fill-opacity:1;fill-rule:nonzero;stroke:none"
         id="path114"
         inkscape:connector-curvature="0" /><path
         d="m 5931.07,1572.03 80.2,85.71 326.82,0 0,91.58 -312.05,0 0,213.69 -142.47,0 0,-305.27 47.5,0 0,-85.71"
         style="fill:#d0cfd2;fill-opacity:1;fill-rule:nonzero;stroke:none"
         id="path116"
         inkscape:connector-curvature="0" /><path
         d="m 6336.13,1885.12 c -19.82,0 -35.9,16.07 -35.9,35.9 0,19.81 16.08,35.87 35.9,35.87 0.65,0 1.31,-0.06 1.96,-0.1 18.9,-1.03 33.92,-16.62 33.92,-35.77 0,-19.17 -15.02,-34.77 -33.92,-35.8 -0.65,-0.03 -1.31,-0.1 -1.96,-0.1 z m -100.54,0 c -19.83,0 -35.88,16.07 -35.88,35.9 0,19.81 16.05,35.87 35.88,35.87 19.82,0 35.87,-16.06 35.87,-35.87 0,-19.83 -16.05,-35.9 -35.87,-35.9 z m -100.53,0 c -19.83,0 -35.9,16.07 -35.9,35.9 0,19.81 16.07,35.87 35.9,35.87 19.82,0 35.88,-16.06 35.88,-35.87 0,-19.83 -16.06,-35.9 -35.88,-35.9 z m 301.6,71.77 c 19.82,0 35.88,-16.06 35.88,-35.87 0,-19.83 -16.06,-35.9 -35.88,-35.9 -19.82,0 -35.88,16.07 -35.88,35.9 0,19.81 16.06,35.87 35.88,35.87 z m -54.94,-190.61 81.85,-90.52 0,90.52 50.88,0 0,315.44 -471.44,0 0,-315.44 338.71,0"
         style="fill:#d0cfd2;fill-opacity:1;fill-rule:nonzero;stroke:none"
         id="path118"
         inkscape:connector-curvature="0" /><path
         d="m 6842.67,1572.19 80.21,86.25 326.84,0 0,90.19 -313.15,0 0,213.72 -141.35,0 0,-303.91 47.45,0 0,-86.25"
         style="fill:#d0cfd2;fill-opacity:1;fill-rule:nonzero;stroke:none"
         id="path120"
         inkscape:connector-curvature="0" /><path
         d="m 7426.08,2081.56 -472.55,0 0,-315.97 339.82,0 83.38,-89.68 0,89.68 49.35,0 0,315.97"
         style="fill:#d0cfd2;fill-opacity:1;fill-rule:nonzero;stroke:none"
         id="path122"
         inkscape:connector-curvature="0" /><path
         d="m 1095.32,6932.03 -100.629,0 0,-42.9 100.629,-81.85 0,124.75"
         style="fill:#d0cfd2;fill-opacity:1;fill-rule:nonzero;stroke:none"
         id="path158"
         inkscape:connector-curvature="0" /><path
         d="m 1095.32,6613.2 0,42.55 -100.629,81.99 -107.418,87.52 -208.019,-169.51 0,-231.35 131.144,0 0,227.81 153.766,0 0,-227.81 131.156,0 0,188.8"
         style="fill:#d0cfd2;fill-opacity:1;fill-rule:nonzero;stroke:none"
         id="path160"
         inkscape:connector-curvature="0" /><path
         d="m 679.254,6677.63 208.019,169.51 107.418,-87.52 100.629,-81.99 46.13,-37.62 52.86,64.87 -98.99,80.53 -100.629,81.87 -107.418,87.36 -307.003,-249.76 52.839,-64.87 46.145,37.62"
         style="fill:#d0cfd2;fill-opacity:1;fill-rule:nonzero;stroke:none"
         id="path162"
         inkscape:connector-curvature="0" /><path
         d="m 619.926,2638.31 156.914,187.75 -156.914,126.07 0,-313.82"
         style="fill:#d0cfd2;fill-opacity:1;fill-rule:nonzero;stroke:none"
         id="path168"
         inkscape:connector-curvature="0" /><path
         d="m 1154.65,2638.31 0,313.82 -156.916,-126.07 156.916,-187.75"
         style="fill:#d0cfd2;fill-opacity:1;fill-rule:nonzero;stroke:none"
         id="path170"
         inkscape:connector-curvature="0" /><path
         d="m 1153.32,2625.14 1.33,0 0,1.11 -1.33,-1.11"
         style="fill:#d0cfd2;fill-opacity:1;fill-rule:nonzero;stroke:none"
         id="path172"
         inkscape:connector-curvature="0" /><path
         d="m 619.926,2625.14 1.328,0 -1.328,1.11 0,-1.11"
         style="fill:#d0cfd2;fill-opacity:1;fill-rule:nonzero;stroke:none"
         id="path174"
         inkscape:connector-curvature="0" /><path
         d="m 1145.51,2625.14 -0.94,1.11 -158.89,190.13 -98.395,-79.06 -98.398,79.06 -158.883,-190.13 -0.941,-1.11 516.447,0"
         style="fill:#d0cfd2;fill-opacity:1;fill-rule:nonzero;stroke:none"
         id="path176"
         inkscape:connector-curvature="0" /><path
         d="m 786.754,2837.92 6.019,-4.84 6.036,-4.84 88.476,-71.1 88.485,71.1 6.027,4.84 6.019,4.84 154.494,124.13 -510.048,0 154.492,-124.13"
         style="fill:#d0cfd2;fill-opacity:1;fill-rule:nonzero;stroke:none"
         id="path178"
         inkscape:connector-curvature="0" /><path
         d="m 2052.96,1822.99 -441,0 -49.38,-282.49 539.76,0 -49.38,282.49"
         style="fill:#d0cfd2;fill-opacity:1;fill-rule:nonzero;stroke:none"
         id="path350"
         inkscape:connector-curvature="0" /><path
         d="m 1832.47,2113.26 c 66.49,0 120.37,-53.89 120.37,-120.37 0,-66.49 -53.88,-120.39 -120.37,-120.39 -66.48,0 -120.39,53.9 -120.39,120.39 0,66.48 53.91,120.37 120.39,120.37"
         style="fill:#d0cfd2;fill-opacity:1;fill-rule:nonzero;stroke:none"
         id="path352"
         inkscape:connector-curvature="0" /><path
         d="m 3977.96,319.41 6.84,0 0,8.66 c 0,8.981 1.12,16.141 3.41,21.442 2.24,5.289 6.15,9.136 11.58,11.578 5.43,2.39 12.89,3.601 22.34,3.601 16.82,0 25.14,-4.062 25.14,-12.363 0,-2.609 -0.88,-4.937 -2.66,-6.777 -1.7,-1.91 -3.79,-2.84 -6.17,-2.84 -1.12,0 -3.07,0.168 -5.84,0.629 -2.62,0.41 -5.02,0.66 -6.9,0.66 -5.17,0 -8.47,-1.551 -10.02,-4.641 -1.4,-2.988 -2.16,-7.371 -2.16,-13.089 l 0,-6.86 7.01,0 c 10.95,0 16.38,-3.238 16.38,-9.89 0,-4.649 -1.38,-7.629 -4.31,-8.918 -2.91,-1.25 -6.94,-1.883 -12.07,-1.883 l -7.01,0 0,-76.067 c 0,-5.664 -1.33,-9.961 -4.1,-12.902 -2.66,-3.031 -6.11,-4.539 -10.41,-4.539 -4.08,0 -7.42,1.508 -10.18,4.539 -2.67,2.941 -4.03,7.238 -4.03,12.902 l 0,76.067 -7.89,0 c -4.31,0 -7.57,0.922 -9.89,2.871 -2.33,1.902 -3.49,4.43 -3.49,7.551 0,6.879 4.81,10.269 14.43,10.269"
         style="fill:#d0cfd2;fill-opacity:1;fill-rule:nonzero;stroke:none"
         id="path362"
         inkscape:connector-curvature="0" /><path
         d="m 4071.95,246.641 0,-23.989 c 0,-5.793 -1.48,-10.152 -4.16,-13.062 -2.73,-2.942 -6.17,-4.379 -10.37,-4.379 -4.22,0 -7.6,1.437 -10.23,4.469 -2.64,2.922 -3.99,7.218 -3.99,12.972 l 0,79.95 c 0,12.918 4.65,19.386 13.95,19.386 4.8,0 8.2,-1.508 10.33,-4.508 2.09,-3.058 3.24,-7.5 3.5,-13.398 3.41,5.898 6.91,10.34 10.52,13.398 3.66,3 8.44,4.508 14.48,4.508 6.07,0 11.87,-1.508 17.56,-4.508 5.7,-3.058 8.53,-7.089 8.53,-12.011 0,-3.528 -1.23,-6.43 -3.59,-8.68 -2.46,-2.301 -5.06,-3.437 -7.84,-3.437 -1.11,0 -3.65,0.66 -7.67,1.98 -4.04,1.25 -7.6,1.898 -10.67,1.898 -4.19,0 -7.65,-1.101 -10.27,-3.281 -2.69,-2.238 -4.78,-5.5 -6.27,-9.847 -1.42,-4.352 -2.42,-9.532 -3.01,-15.5 -0.56,-6.043 -0.8,-13.332 -0.8,-21.961"
         style="fill:#d0cfd2;fill-opacity:1;fill-rule:nonzero;stroke:none"
         id="path364"
         inkscape:connector-curvature="0" /><path
         d="m 4147.75,272.859 52.07,0 c -0.72,9.801 -3.32,17.141 -7.93,22.012 -4.62,4.859 -10.62,7.27 -18.16,7.27 -7.15,0 -13.03,-2.411 -17.62,-7.352 -4.59,-5 -7.38,-12.289 -8.36,-21.93 m 56.18,-16.308 -56.18,0 c 0.1,-6.539 1.37,-12.332 3.93,-17.27 2.58,-4.941 6,-8.699 10.23,-11.261 4.26,-2.528 8.91,-3.778 14.03,-3.778 3.45,0 6.58,0.41 9.43,1.25 2.81,0.75 5.59,2.047 8.24,3.778 2.68,1.722 5.1,3.511 7.35,5.519 2.24,1.961 5.17,4.621 8.73,7.992 1.52,1.25 3.61,1.899 6.31,1.899 2.96,0 5.33,-0.801 7.18,-2.461 1.84,-1.598 2.72,-3.848 2.72,-6.84 0,-2.598 -1,-5.598 -2.97,-9.09 -2.09,-3.519 -5.14,-6.769 -9.26,-9.98 -4.14,-3.168 -9.29,-5.879 -15.47,-7.957 -6.21,-2.09 -13.36,-3.141 -21.4,-3.141 -18.5,0 -32.82,5.219 -43.03,15.769 -10.22,10.551 -15.37,24.782 -15.37,42.79 0,8.48 1.27,16.382 3.83,23.671 2.48,7.309 6.19,13.45 11.05,18.688 4.81,5.152 10.74,9.133 17.85,11.902 7.07,2.75 14.92,4.141 23.56,4.141 11.21,0 20.82,-2.352 28.86,-7.113 7.99,-4.739 14.09,-10.84 18.03,-18.329 3.99,-7.531 6,-15.191 6,-22.98 0,-7.148 -2.09,-11.852 -6.23,-13.98 -4.12,-2.168 -9.92,-3.219 -17.42,-3.219"
         style="fill:#d0cfd2;fill-opacity:1;fill-rule:nonzero;stroke:none"
         id="path366"
         inkscape:connector-curvature="0" /><path
         d="m 4267.19,272.859 52.03,0 c -0.68,9.801 -3.36,17.141 -7.91,22.012 -4.65,4.859 -10.65,7.27 -18.17,7.27 -7.16,0 -13,-2.411 -17.63,-7.352 -4.57,-5 -7.4,-12.289 -8.32,-21.93 m 56.15,-16.308 -56.15,0 c 0.06,-6.539 1.38,-12.332 3.92,-17.27 2.54,-4.941 5.98,-8.699 10.2,-11.261 4.24,-2.528 8.92,-3.778 14.06,-3.778 3.42,0 6.58,0.41 9.38,1.25 2.85,0.75 5.58,2.047 8.28,3.778 2.67,1.722 5.1,3.511 7.36,5.519 2.19,1.961 5.16,4.621 8.71,7.992 1.51,1.25 3.61,1.899 6.31,1.899 2.99,0 5.33,-0.801 7.21,-2.461 1.79,-1.598 2.67,-3.848 2.67,-6.84 0,-2.598 -1.01,-5.598 -3.04,-9.09 -1.96,-3.519 -5.04,-6.769 -9.2,-9.98 -4.1,-3.168 -9.28,-5.879 -15.43,-7.957 -6.19,-2.09 -13.38,-3.141 -21.45,-3.141 -18.44,0 -32.75,5.219 -43.03,15.769 -10.21,10.551 -15.35,24.782 -15.35,42.79 0,8.48 1.27,16.382 3.83,23.671 2.5,7.309 6.17,13.45 11.02,18.688 4.82,5.152 10.78,9.133 17.89,11.902 7.07,2.75 14.94,4.141 23.55,4.141 11.19,0 20.8,-2.352 28.95,-7.113 7.97,-4.739 14,-10.84 17.95,-18.329 3.96,-7.531 6.03,-15.191 6.03,-22.98 0,-7.148 -2.11,-11.852 -6.21,-13.98 -4.16,-2.168 -9.96,-3.219 -17.46,-3.219"
         style="fill:#d0cfd2;fill-opacity:1;fill-rule:nonzero;stroke:none"
         id="path368"
         inkscape:connector-curvature="0" /><path
         d="m 4442.52,264.121 c 0,7.578 -1.17,14.07 -3.5,19.469 -2.3,5.5 -5.5,9.59 -9.61,12.539 -4.04,2.91 -8.63,4.363 -13.63,4.363 -7.89,0 -14.57,-3.113 -20,-9.351 -5.45,-6.25 -8.18,-15.411 -8.18,-27.582 0,-11.379 2.71,-20.278 8.12,-26.68 5.41,-6.297 12.05,-9.481 20.06,-9.481 4.77,0 9.2,1.422 13.28,4.133 4.08,2.809 7.35,6.93 9.77,12.5 2.46,5.528 3.69,12.27 3.69,20.09 m -56.29,41.719 0,-3.449 c 5.37,6.629 11.02,11.539 16.9,14.668 5.7,3.113 12.34,4.73 19.7,4.73 8.81,0 17.01,-2.309 24.44,-6.867 7.44,-4.602 13.26,-11.203 17.57,-20.012 4.34,-8.789 6.51,-19.129 6.51,-31.14 0,-8.801 -1.25,-16.911 -3.71,-24.36 -2.48,-7.379 -5.96,-13.578 -10.28,-18.57 -4.37,-4.981 -9.49,-8.91 -15.39,-11.598 -5.99,-2.691 -12.3,-4.031 -19.14,-4.031 -8.18,0 -15.1,1.648 -20.64,4.969 -5.59,3.211 -10.88,8.129 -15.96,14.472 l 0,-43.101 c 0,-12.61 -4.63,-18.922 -13.77,-18.922 -5.43,0 -8.94,1.59 -10.76,4.851 -1.68,3.301 -2.58,8 -2.58,14.29 l 0,123.902 c 0,5.469 1.17,9.547 3.54,12.238 2.38,2.672 5.66,4.078 9.8,4.078 4.08,0 7.36,-1.406 9.9,-4.168 2.62,-2.8 3.87,-6.75 3.87,-11.98"
         style="fill:#d0cfd2;fill-opacity:1;fill-rule:nonzero;stroke:none"
         id="path370"
         inkscape:connector-curvature="0" /><path
         d="m 4514.47,305.672 0,-83.02 c 0,-5.754 -1.36,-10.05 -4.1,-12.972 -2.75,-3.032 -6.21,-4.469 -10.41,-4.469 -4.24,0 -7.58,1.508 -10.27,4.539 -2.58,3.051 -3.95,7.309 -3.95,12.902 l 0,82.219 c 0,5.609 1.37,9.899 3.95,12.738 2.69,2.973 6.03,4.379 10.27,4.379 4.2,0 7.66,-1.406 10.41,-4.379 2.74,-2.839 4.1,-6.879 4.1,-11.937 m -14.22,29.699 c -4.02,0 -7.4,1.25 -10.21,3.629 -2.85,2.539 -4.3,5.949 -4.3,10.398 0,4.082 1.47,7.454 4.4,10.051 2.89,2.641 6.29,3.992 10.11,3.992 3.77,0 7.04,-1.211 9.91,-3.582 2.87,-2.418 4.31,-5.89 4.31,-10.461 0,-4.398 -1.4,-7.859 -4.2,-10.347 -2.81,-2.43 -6.11,-3.68 -10.02,-3.68"
         style="fill:#d0cfd2;fill-opacity:1;fill-rule:nonzero;stroke:none"
         id="path372"
         inkscape:connector-curvature="0" /><path
         d="m 4607.03,218.309 -25.29,41.703 -15.61,-14.723 0,-22.859 c 0,-5.532 -1.44,-9.739 -4.39,-12.68 -2.83,-3.031 -6.25,-4.539 -10.02,-4.539 -4.43,0 -7.89,1.437 -10.43,4.469 -2.48,2.922 -3.79,7.218 -3.79,12.972 l 0,122.5 c 0,6.336 1.25,11.2 3.67,14.508 2.48,3.371 6.02,5.031 10.55,5.031 4.41,0 7.89,-1.511 10.49,-4.582 2.61,-2.957 3.92,-7.429 3.92,-13.296 l 0,-69.661 32.29,33.887 c 4.02,4.18 7.03,7.082 9.16,8.633 2.13,1.5 4.65,2.316 7.63,2.316 3.62,0 6.59,-1.156 9.05,-3.418 2.34,-2.3 3.53,-5.14 3.53,-8.59 0,-4.14 -3.9,-9.839 -11.66,-16.839 l -15.25,-13.942 29.43,-46.328 c 2.13,-3.441 3.75,-6.031 4.69,-7.832 0.94,-1.758 1.45,-3.519 1.45,-5.109 0,-4.578 -1.25,-8.129 -3.77,-10.801 -2.5,-2.617 -5.82,-3.918 -9.83,-3.918 -3.49,0 -6.21,0.891 -8.1,2.852 -1.9,1.929 -4.52,5.328 -7.72,10.246"
         style="fill:#d0cfd2;fill-opacity:1;fill-rule:nonzero;stroke:none"
         id="path374"
         inkscape:connector-curvature="0" /><path
         d="m 4669.41,205.211 c -4.35,0 -8.06,1.391 -11.23,4.211 -3.14,2.769 -4.74,6.726 -4.74,11.808 0,4.262 1.54,7.95 4.55,11.012 3.03,3.09 6.74,4.598 11.13,4.598 4.42,0 8.18,-1.508 11.35,-4.52 3.08,-3.05 4.69,-6.781 4.69,-11.09 0,-5.039 -1.61,-8.929 -4.69,-11.742 -3.17,-2.886 -6.86,-4.277 -11.06,-4.277"
         style="fill:#d0cfd2;fill-opacity:1;fill-rule:nonzero;stroke:none"
         id="path376"
         inkscape:connector-curvature="0" /><path
         d="m 4812.23,240.781 c 0,-3.601 -1.1,-7.41 -3.23,-11.461 -2.12,-4.121 -5.41,-7.929 -9.82,-11.66 -4.36,-3.68 -9.86,-6.621 -16.54,-8.89 -6.66,-2.219 -14.16,-3.379 -22.48,-3.379 -17.78,0 -31.64,5.199 -41.61,15.539 -9.92,10.351 -14.92,24.211 -14.92,41.582 0,11.859 2.27,22.23 6.88,31.297 4.51,8.992 11.11,16.011 19.74,20.961 8.62,4.972 18.97,7.402 30.92,7.402 7.44,0 14.26,-1.102 20.51,-3.25 6.21,-2.152 11.43,-4.992 15.78,-8.391 4.26,-3.511 7.58,-7.129 9.84,-10.98 2.29,-3.93 3.4,-7.551 3.4,-10.973 0,-3.379 -1.25,-6.316 -3.81,-8.68 -2.57,-2.406 -5.7,-3.617 -9.27,-3.617 -2.42,0 -4.42,0.66 -6,1.867 -1.58,1.25 -3.36,3.223 -5.31,5.954 -3.52,5.347 -7.15,9.339 -11,11.976 -3.79,2.711 -8.65,4.024 -14.55,4.024 -8.44,0 -15.33,-3.313 -20.51,-9.961 -5.17,-6.59 -7.79,-15.731 -7.79,-27.161 0,-5.378 0.7,-10.421 2.03,-14.898 1.27,-4.504 3.22,-8.371 5.76,-11.594 2.54,-3.156 5.57,-5.547 9.13,-7.218 3.61,-1.731 7.53,-2.528 11.79,-2.528 5.78,0 10.71,1.379 14.79,4.039 4.18,2.668 7.77,6.739 10.93,12.188 1.74,3.211 3.6,5.742 5.61,7.543 2.03,1.789 4.53,2.758 7.48,2.758 3.54,0 6.45,-1.348 8.73,-4.008 2.33,-2.621 3.52,-5.543 3.52,-8.481"
         style="fill:#d0cfd2;fill-opacity:1;fill-rule:nonzero;stroke:none"
         id="path378"
         inkscape:connector-curvature="0" /><path
         d="m 4907.27,263.559 c 0,11.722 -2.58,20.793 -7.72,27.332 -5.14,6.578 -12.07,9.839 -20.76,9.839 -5.63,0 -10.55,-1.429 -14.84,-4.351 -4.3,-2.938 -7.54,-7.18 -9.89,-12.918 -2.28,-5.68 -3.45,-12.301 -3.45,-19.902 0,-7.528 1.11,-14 3.39,-19.629 2.33,-5.61 5.55,-9.942 9.83,-12.899 4.28,-2.961 9.24,-4.5 14.96,-4.5 8.69,0 15.62,3.278 20.76,9.86 5.14,6.578 7.72,15.621 7.72,27.168 m 28.84,0 c 0,-8.539 -1.36,-16.399 -3.92,-23.649 -2.76,-7.219 -6.56,-13.461 -11.64,-18.57 -5.02,-5.238 -11.12,-9.199 -18.05,-11.961 -7.09,-2.777 -14.96,-4.168 -23.71,-4.168 -8.67,0 -16.52,1.391 -23.46,4.211 -6.89,2.769 -12.97,6.82 -18.03,12.019 -5.09,5.258 -8.92,11.43 -11.62,18.52 -2.54,7.148 -3.9,15.008 -3.9,23.598 0,8.691 1.4,16.679 3.98,23.933 2.68,7.258 6.53,13.399 11.51,18.477 5,5.101 10.97,9.09 18.06,11.851 7.11,2.762 14.94,4.168 23.46,4.168 8.69,0 16.58,-1.406 23.71,-4.218 7.03,-2.801 13.07,-6.829 18.16,-11.93 5.08,-5.289 8.91,-11.43 11.55,-18.551 2.58,-7.18 3.9,-15.078 3.9,-23.73"
         style="fill:#d0cfd2;fill-opacity:1;fill-rule:nonzero;stroke:none"
         id="path380"
         inkscape:connector-curvature="0" /><path
         d="m 5045.61,261.461 0,-38.18 c 0,-6.031 -1.31,-10.48 -4.07,-13.531 -2.77,-3.031 -6.33,-4.539 -10.84,-4.539 -4.33,0 -7.91,1.508 -10.52,4.539 -2.74,3.051 -4.11,7.5 -4.11,13.531 l 0,45.77 c 0,7.23 -0.23,12.859 -0.72,16.89 -0.51,3.899 -1.85,7.2 -4,9.797 -2.19,2.551 -5.65,3.852 -10.31,3.852 -9.44,0 -15.59,-3.211 -18.56,-9.75 -2.95,-6.379 -4.49,-15.68 -4.49,-27.781 l 0,-38.778 c 0,-5.929 -1.37,-10.441 -4.03,-13.492 -2.73,-3.07 -6.28,-4.578 -10.68,-4.578 -4.35,0 -7.93,1.508 -10.7,4.578 -2.78,3.051 -4.18,7.563 -4.18,13.492 l 0,82.188 c 0,5.351 1.29,9.5 3.73,12.301 2.56,2.812 5.82,4.218 9.86,4.218 3.95,0 7.21,-1.367 9.87,-3.957 2.61,-2.609 3.9,-6.242 3.9,-10.89 l 0,-2.719 c 5.04,5.898 10.35,10.348 16.02,13.098 5.72,2.851 11.97,4.269 18.96,4.269 7.21,0 13.4,-1.469 18.58,-4.309 5.19,-2.921 9.45,-7.289 12.83,-13.058 4.88,5.848 10.08,10.258 15.6,13.098 5.55,2.8 11.68,4.269 18.4,4.269 7.83,0 14.65,-1.617 20.33,-4.68 5.65,-3.05 9.87,-7.539 12.68,-13.179 2.48,-5.25 3.67,-13.43 3.67,-24.571 l 0,-56.078 c 0,-6.031 -1.37,-10.48 -4.08,-13.531 -2.7,-3.031 -6.35,-4.539 -10.84,-4.539 -4.36,0 -7.89,1.508 -10.66,4.578 -2.78,3.051 -4.16,7.563 -4.16,13.492 l 0,48.328 c 0,6.172 -0.28,11.102 -0.79,14.84 -0.52,3.692 -1.93,6.813 -4.23,9.34 -2.35,2.5 -5.88,3.801 -10.55,3.801 -3.77,0 -7.38,-1.211 -10.78,-3.418 -3.4,-2.223 -6.06,-5.281 -7.99,-8.981 -2.05,-4.89 -3.14,-13.441 -3.14,-25.73"
         style="fill:#d0cfd2;fill-opacity:1;fill-rule:nonzero;stroke:none"
         id="path382"
         inkscape:connector-curvature="0" /><path
         d="m 3779.13,195.172 c 0,0 -15.69,2.508 -30.98,19.219 -15.4,16.89 -18,34.73 -18,34.73 0,0 19.54,-4.582 33.57,-6.152 24.73,-2.797 47.01,-1.25 57.5,-0.09 22.73,2.512 34.82,6.68 39.74,7.883 29.03,6.988 56.94,25.769 56.94,25.769 0,0 3.53,-21.801 -12.86,-46 -6.41,-9.441 -19.16,-20.293 -33.83,-27.781 -50.28,-21.441 -92.08,-7.578 -92.08,-7.578"
         style="fill:#d0cfd2;fill-opacity:1;fill-rule:evenodd;stroke:none"
         id="path384"
         inkscape:connector-curvature="0" /><path
         d="m 3869.44,293.441 c -10.42,-0.589 -19.39,7.239 -20.04,17.598 -0.65,10.332 7.29,19.293 17.69,19.93 10.39,0.703 19.42,-7.199 20.04,-17.5 0.67,-10.367 -7.31,-19.348 -17.69,-20.028 m -84.54,-21.23 c -16.55,-1.051 -30.78,11.379 -31.81,27.891 -1.01,16.41 11.57,30.66 28.11,31.668 16.56,1.128 30.84,-11.399 31.81,-27.809 1.06,-16.469 -11.56,-30.711 -28.11,-31.75 m 112.92,46.91 c -5.38,6.539 -23.38,37.359 -59.79,41.859 -9.3,1.11 -58.53,-0.82 -88.06,-28.121 -2.91,-2.777 -17.91,-15.929 -22.88,-40.468 -3.88,-18.93 2.46,-40.262 2.46,-40.262 0,0 32.75,-6.84 57.43,-6.188 39.12,0.957 58.83,4.43 79.27,10.61 30.12,9.109 51.46,24.398 51.46,24.398 0,0 -14.46,31.59 -19.89,38.172"
         style="fill:#d0cfd2;fill-opacity:1;fill-rule:evenodd;stroke:none"
         id="path386"
         inkscape:connector-curvature="0" /><path
         d="m 3883.67,340.469 9.52,11.41 c 0,0 13.12,-6.488 21.57,-18.629 8.41,-12.129 13.89,-23.219 13.89,-23.219 l -15.7,-9.539 c 0,0 -4.87,11.699 -12.16,21.09 -7.29,9.34 -17.12,18.887 -17.12,18.887"
         style="fill:#d0cfd2;fill-opacity:1;fill-rule:evenodd;stroke:none"
         id="path388"
         inkscape:connector-curvature="0" /><path
         d="m 3913.52,332.539 c 2.46,1.449 6.6,1.711 6.35,5.172 -0.18,3.469 -2.52,10.309 4.32,12.648 6.91,2.321 3.02,-2.05 0.65,-5.058 -2.35,-3.012 -1.59,-4.871 -1.31,-9.289 0.25,-4.383 -2.82,-5.883 -7.47,-8.051 -4.67,-2.191 -5.02,3.109 -2.54,4.578"
         style="fill:#d0cfd2;fill-opacity:1;fill-rule:evenodd;stroke:none"
         id="path390"
         inkscape:connector-curvature="0" /><path
         d="m 3739.1,325.531 c 0,0 -11.01,-12.793 -13.82,-24.34 -2.78,-11.601 -2.21,-25.55 -2.21,-25.55 l -16.3,5.609 c 0,0 -0.93,16.039 6.49,28.969 8.24,14.39 18.8,20.801 18.8,20.801 l 7.04,-5.489"
         style="fill:#d0cfd2;fill-opacity:1;fill-rule:evenodd;stroke:none"
         id="path392"
         inkscape:connector-curvature="0" /><path
         d="m 3715.11,310.992 c -2.64,1.707 -2.9,5.828 -4.99,8.539 -2.09,2.758 -2.62,1.09 -7.41,1.09 -4.79,0 -4.91,2.277 -6.26,3.438 -1.37,1.211 -2.01,-3.637 -2.01,-3.637 0,0 0.88,-4.063 6.01,-4.363 5.1,-0.289 4.97,2.222 7.17,-2.387 2.2,-4.652 6.56,-8.152 6.56,-8.152 0,0 3.62,3.71 0.93,5.472"
         style="fill:#d0cfd2;fill-opacity:1;fill-rule:evenodd;stroke:none"
         id="path394"
         inkscape:connector-curvature="0" /><path
         d="m 3801.63,371.691 c 26.73,6.7 43.45,-1.011 43.45,-1.011 l -1.42,-7.7 c 0,0 -19.53,1.301 -35.04,-1 -15.48,-2.23 -22.53,-7.128 -22.53,-7.128 l -3.35,7.679 c 0,0 7.31,6.258 18.89,9.16"
         style="fill:#d0cfd2;fill-opacity:1;fill-rule:evenodd;stroke:none"
         id="path396"
         inkscape:connector-curvature="0" /><path
         d="m 3809.63,382.672 3.77,1.359 4.96,-13.312 -3.73,-1.43 -5,13.383"
         style="fill:#d0cfd2;fill-opacity:1;fill-rule:evenodd;stroke:none"
         id="path398"
         inkscape:connector-curvature="0" /><path
         d="m 3927.42,357.898 c 3.78,0.211 7.02,-2.668 7.23,-6.41 0.28,-3.777 -2.6,-6.988 -6.39,-7.238 -3.78,-0.25 -7.02,2.641 -7.25,6.359 -0.24,3.782 2.63,7 6.41,7.289"
         style="fill:#d0cfd2;fill-opacity:1;fill-rule:evenodd;stroke:none"
         id="path400"
         inkscape:connector-curvature="0" /><path
         d="m 3692.59,332.039 c 3.76,0.25 7.02,-2.617 7.27,-6.379 0.22,-3.738 -2.63,-6.93 -6.44,-7.168 -3.75,-0.262 -6.99,2.578 -7.24,6.317 -0.24,3.761 2.65,6.961 6.41,7.23"
         style="fill:#d0cfd2;fill-opacity:1;fill-rule:evenodd;stroke:none"
         id="path402"
         inkscape:connector-curvature="0" /><path
         d="m 3812.91,399.711 c 6,0.34 11.2,-4.141 11.57,-10.16 0.35,-5.922 -4.23,-11.11 -10.24,-11.5 -6.01,-0.41 -11.16,4.121 -11.54,10.129 -0.41,6 4.18,11.172 10.21,11.531"
         style="fill:#d0cfd2;fill-opacity:1;fill-rule:evenodd;stroke:none"
         id="path404"
         inkscape:connector-curvature="0" /><path
         d="m 2922.85,268.102 c -10.44,0 -15.62,-10.942 -15.62,-20.43 0,-9.352 5.18,-20.274 15.62,-20.274 10.98,0 15.73,11.161 15.73,20.973 0,9.731 -5,19.731 -15.73,19.731 m 35.83,-47.071 c 0,-6.73 -4.23,-11.152 -10.08,-11.152 -5.53,0 -8.75,3.012 -10.02,8.371 -3.77,-6.148 -11.54,-9.168 -18.38,-9.168 -20.21,0 -33.03,18.707 -33.03,37.699 0,19.571 10.73,39.75 32.34,39.75 6.96,0 13.78,-2.429 19.07,-6.992 l 0,27.34 c 0,6.672 4.18,11.101 10.02,11.101 5.85,0 10.08,-4.429 10.08,-11.101 l 0,-85.848"
         style="fill:#d0cfd2;fill-opacity:1;fill-rule:nonzero;stroke:none"
         id="path406"
         inkscape:connector-curvature="0" /><path
         d="m 3017.74,254.469 c -1.09,8.801 -6.69,15.301 -16.05,15.301 -8.89,0 -14.91,-6.79 -15.86,-15.301 l 31.91,0 z m -31.52,-13.391 c 1.44,-9.848 9.62,-14.496 19.01,-14.496 10.28,0 17.37,8.047 22.7,8.047 4.29,0 8.17,-4.258 8.17,-8.637 0,-8.64 -17.8,-16.91 -32.72,-16.91 -22.59,0 -37.61,16.41 -37.61,38.59 0,20.34 14.76,38.859 35.92,38.859 21.75,0 36.11,-19.769 36.11,-36.519 0,-5.981 -2.66,-8.934 -8.77,-8.934 l -42.81,0"
         style="fill:#d0cfd2;fill-opacity:1;fill-rule:nonzero;stroke:none"
         id="path408"
         inkscape:connector-curvature="0" /><path
         d="m 3087.15,263.109 c -3.77,0 -11.42,5.891 -17.99,5.891 -3.61,0 -6.83,-1.699 -6.83,-5.641 0,-9.339 34.84,-7.929 34.84,-30.777 0,-13.352 -11.28,-23.5 -28.59,-23.5 -11.27,0 -28,6.359 -28,15.406 0,3.051 3.08,8.883 8.64,8.883 7.81,0 11.28,-6.789 20.75,-6.789 6.14,0 7.96,1.977 7.96,5.738 0,9.211 -34.82,7.801 -34.82,30.789 0,13.922 11.29,23.422 27.18,23.422 9.87,0 25.06,-4.621 25.06,-14.531 0,-4.559 -3.48,-8.891 -8.2,-8.891"
         style="fill:#d0cfd2;fill-opacity:1;fill-rule:nonzero;stroke:none"
         id="path410"
         inkscape:connector-curvature="0" /><path
         d="m 3103.99,274.5 c 0,6.699 4.17,11.191 10.04,11.191 5.84,0 10.02,-4.492 10.02,-11.191 l 0,-53.469 c 0,-6.73 -4.18,-11.152 -10.02,-11.152 -5.87,0 -10.04,4.422 -10.04,11.152 l 0,53.469 z m 21.32,30.27 c 0,-6.29 -5,-11.59 -11.28,-11.59 -6,0 -11.3,5.449 -11.3,11.59 0,5.71 5.3,11 11.3,11 5.97,0 11.28,-5.129 11.28,-11"
         style="fill:#d0cfd2;fill-opacity:1;fill-rule:nonzero;stroke:none"
         id="path412"
         inkscape:connector-curvature="0" /><path
         d="m 3167.93,268.102 c -10.43,0 -15.56,-10.84 -15.56,-20.192 0,-10.73 5.13,-20.512 15.56,-20.512 10.73,0 15.77,10.082 15.77,19.852 0,9.699 -4.74,20.852 -15.77,20.852 m 35.83,-51.543 c 0,-24.11 -15.75,-36.278 -38.6,-36.278 -8.2,0 -31.64,4.09 -31.64,15.078 0,3.743 4.17,8.782 8.13,8.782 6.38,0 13.49,-6.219 25.05,-6.219 9.78,0 17,5.617 17,15.879 l 0,4.719 -0.28,0 c -4.16,-6.129 -11.01,-9.438 -20.19,-9.438 -21.04,0 -30.97,18.457 -30.97,38.418 0,20.199 12.8,39.031 33.03,39.031 6.86,0 14.62,-3.07 18.41,-9.179 1.27,5.25 4.45,8.339 10.04,8.339 5.84,0 10.02,-4.492 10.02,-11.191 l 0,-57.941"
         style="fill:#d0cfd2;fill-opacity:1;fill-rule:nonzero;stroke:none"
         id="path414"
         inkscape:connector-curvature="0" /><path
         d="m 3215.18,274.5 c 0,6.699 4.16,11.191 10.03,11.191 5.15,0 8.52,-2.781 9.19,-7.453 3.92,5.473 9.88,8.293 19.37,8.293 15.75,0 27.45,-10.051 27.45,-27.019 l 0,-38.481 c 0,-6.73 -4.14,-11.152 -10,-11.152 -5.82,0 -10.06,4.422 -10.06,11.152 l 0,34.949 c 0,9.34 -5.83,13.79 -13.09,13.79 -8.24,0 -12.81,-6 -12.81,-13.79 l 0,-34.949 c 0,-6.73 -4.2,-11.152 -10.05,-11.152 -5.87,0 -10.03,4.422 -10.03,11.152 l 0,53.469"
         style="fill:#d0cfd2;fill-opacity:1;fill-rule:nonzero;stroke:none"
         id="path416"
         inkscape:connector-curvature="0" /><path
         d="m 3340.32,254.469 c -1.12,8.801 -6.7,15.301 -16.04,15.301 -8.92,0 -14.94,-6.79 -15.89,-15.301 l 31.93,0 z m -31.52,-13.391 c 1.42,-9.848 9.62,-14.496 18.98,-14.496 10.32,0 17.41,8.047 22.69,8.047 4.33,0 8.27,-4.258 8.27,-8.637 0,-8.64 -17.88,-16.91 -32.78,-16.91 -22.6,0 -37.62,16.41 -37.62,38.59 0,20.34 14.77,38.859 35.94,38.859 21.75,0 36.09,-19.769 36.09,-36.519 0,-5.981 -2.65,-8.934 -8.77,-8.934 l -42.8,0"
         style="fill:#d0cfd2;fill-opacity:1;fill-rule:nonzero;stroke:none"
         id="path418"
         inkscape:connector-curvature="0" /><path
         d="m 3400.24,268.102 c -10.47,0 -15.61,-10.942 -15.61,-20.43 0,-9.352 5.14,-20.274 15.61,-20.274 10.98,0 15.74,11.161 15.74,20.973 0,9.731 -5.02,19.731 -15.74,19.731 m 35.8,-47.071 c 0,-6.73 -4.2,-11.152 -10.06,-11.152 -5.55,0 -8.74,3.012 -10,8.371 -3.79,-6.148 -11.57,-9.168 -18.41,-9.168 -20.18,0 -32.99,18.707 -32.99,37.699 0,19.571 10.71,39.75 32.33,39.75 6.94,0 13.78,-2.429 19.07,-6.992 l 0,27.34 c 0,6.672 4.17,11.101 10,11.101 5.86,0 10.06,-4.429 10.06,-11.101 l 0,-85.848"
         style="fill:#d0cfd2;fill-opacity:1;fill-rule:nonzero;stroke:none"
         id="path420"
         inkscape:connector-curvature="0" /><path
         d="m 3520.63,227.398 c 10.44,0 15.59,10.922 15.59,20.274 0,9.488 -5.15,20.43 -15.59,20.43 -10.72,0 -15.74,-10 -15.74,-19.731 0,-9.812 4.76,-20.973 15.74,-20.973 m -35.84,79.481 c 0,6.672 4.22,11.101 10.08,11.101 5.86,0 10.02,-4.429 10.02,-11.101 l 0,-27.34 c 5.31,4.563 12.11,6.992 19.07,6.992 21.6,0 32.32,-20.179 32.32,-39.75 0,-18.992 -12.79,-37.699 -33.01,-37.699 -6.85,0 -14.63,3.02 -18.38,9.168 -1.27,-5.359 -4.47,-8.371 -10.02,-8.371 -5.86,0 -10.08,4.422 -10.08,11.152 l 0,85.848"
         style="fill:#d0cfd2;fill-opacity:1;fill-rule:nonzero;stroke:none"
         id="path422"
         inkscape:connector-curvature="0" /><path
         d="m 3559.78,271.898 c -0.56,1.512 -1,3.063 -1,5.133 0,5.059 5.31,8.66 9.5,8.66 4.85,0 8.35,-2.679 10.05,-7.089 l 13.75,-37.821 14.8,37.821 c 1.67,4.41 5.13,7.089 10.03,7.089 4.18,0 9.45,-3.601 9.45,-8.66 0,-2.07 -0.26,-3.621 -0.94,-5.133 l -33.6,-83.636 c -1.65,-4.153 -4.74,-7.981 -9.47,-7.981 -6.83,0 -10.44,4.379 -10.44,8.641 0,2.027 0.57,4.078 1.22,5.879 l 8.8,21.758 -22.15,55.339"
         style="fill:#d0cfd2;fill-opacity:1;fill-rule:nonzero;stroke:none"
         id="path424"
         inkscape:connector-curvature="0" /><g
         id="g426"><g
           id="g428"
           clip-path="url(#clipPath430)"><path
             d="m 827.445,7517.64 c -8.527,8.53 -11.328,8.78 -19.855,0.25 -9.422,-9.42 -12.352,-13.37 2.414,-27.88 l 16.934,16.93 c 3.691,3.7 3.824,7.38 0.507,10.7"
             style="fill:#d0cfd2;fill-opacity:1;fill-rule:nonzero;stroke:none"
             id="path434"
             inkscape:connector-curvature="0" /><path
             d="m 372.813,7063 c -8.532,8.54 -11.329,8.78 -19.86,0.25 -9.422,-9.42 -12.351,-13.37 2.414,-27.88 l 16.934,16.93 c 3.691,3.7 3.828,7.39 0.512,10.7"
             style="fill:#d0cfd2;fill-opacity:1;fill-rule:nonzero;stroke:none"
             id="path436"
             inkscape:connector-curvature="0" /><path
             d="m 653.711,7343.9 c -8.531,8.53 -11.324,8.79 -19.859,0.25 -9.418,-9.42 -12.348,-13.36 2.418,-27.88 l 16.933,16.94 c 3.692,3.69 3.824,7.38 0.508,10.69"
             style="fill:#d0cfd2;fill-opacity:1;fill-rule:nonzero;stroke:none"
             id="path438"
             inkscape:connector-curvature="0" /><path
             d="m 976.23,7666.42 c -8.531,8.53 -11.324,8.79 -19.851,0.26 -9.426,-9.43 -12.356,-13.38 2.41,-27.89 l 16.934,16.94 c 3.691,3.69 3.824,7.38 0.507,10.69"
             style="fill:#d0cfd2;fill-opacity:1;fill-rule:nonzero;stroke:none"
             id="path440"
             inkscape:connector-curvature="0" /><path
             d="m 1087.23,7687.29 c -12.86,-12.86 -33.61,-32.34 -41.38,-34 l -11.07,11.08 31.95,31.96 c 1.15,1.14 4.33,4.57 0.14,8.77 l -3.19,3.19 c -2.8,2.8 -5.09,3.57 -8.78,-0.13 l -15.79,-15.78 c -11.97,-11.97 -24.07,-13.88 -37.18,-0.77 l -5.856,5.85 c -10.437,10.45 -13.75,22.67 -0.64,35.78 12.986,12.99 31.326,30.56 39.596,32.73 l 11.21,-11.21 -30.68,-30.68 c -4.59,-4.59 -3.69,-6.75 -0.51,-9.94 l 3.06,-3.05 c 4.19,-4.2 6.61,-2.03 9.54,0.9 l 16.04,16.04 c 12.86,12.86 25.6,10.31 35.53,0.37 l 6.87,-6.86 c 13.88,-13.88 9.29,-26.11 1.14,-34.25 z m -84.01,-84.01 c -17.185,-17.19 -32.204,-12.36 -57.029,12.47 -29.035,29.03 -25.847,42.14 -4.461,63.53 19.61,19.61 30.809,26.49 53.215,4.08 12.105,-12.1 10.445,-23.69 -1.777,-35.91 l -21.52,-21.52 c 12.098,-12.09 17.446,-8.27 27.122,1.41 10.31,10.31 15.41,15.14 23.42,26.22 l 12.1,-12.1 c -5.98,-13.1 -20.5,-27.62 -31.07,-38.18 z m -51.169,-49.9 -67.602,67.6 17.824,17.82 67.606,-67.6 -17.828,-17.82 z m -52.692,-52.7 -67.601,67.61 15.023,15.02 11.328,-5.73 c 0,9.17 1.786,20.12 10.188,28.53 2.926,2.92 5.726,5.72 8.273,6.74 l 17.184,-17.19 c -1.902,-1.66 -6.231,-5.47 -10.18,-9.43 -7.383,-7.38 -11.461,-14 -9.551,-24.57 l 43.161,-43.15 -17.825,-17.83 z m -44.921,-46.19 c -17.188,-17.19 -32.208,-12.35 -57.032,12.47 -29.031,29.04 -25.851,42.15 -4.461,63.54 19.606,19.6 30.809,26.48 53.211,4.07 12.102,-12.1 10.449,-23.68 -1.777,-35.91 l -21.512,-21.51 c 12.094,-12.1 17.442,-8.27 27.113,1.4 10.313,10.31 15.411,15.15 23.426,26.23 l 12.102,-12.1 c -5.992,-13.11 -20.504,-27.62 -31.07,-38.19 z m -56.633,-57.4 c -15.918,-15.91 -27.375,-25.34 -39.852,-32.21 l -14.004,14.01 c 5.606,4.58 22.028,19.22 33.867,31.06 5.348,5.35 10.567,12.35 3.434,19.48 l -4.965,4.96 c -5.347,5.35 -10.312,7.26 -17.187,0.38 l -14.258,-14.25 c -22.535,-22.54 -40.617,-7.51 -48.766,0.64 l -8.011,8.01 c -18.469,18.47 -12.868,34.76 1.14,49.28 13.117,13.62 30.176,27.12 39.727,32.33 l 14.004,-14 c -8.914,-7.39 -27.883,-25.34 -32.465,-29.92 -7.895,-7.64 -11.848,-12.61 -3.184,-21.27 l 4.574,-4.57 c 7.387,-7.39 11.719,-6.12 18.848,1.01 l 14.773,14.77 c 18.333,18.34 36.411,7.64 46.727,-2.67 l 6.234,-6.24 c 21.137,-21.14 11.965,-38.19 -0.636,-50.8 z M 680.703,7280.76 c -17.187,-17.19 -32.207,-12.36 -57.031,12.47 -29.031,29.03 -25.856,42.14 -4.461,63.53 19.602,19.61 30.809,26.49 53.215,4.08 12.101,-12.1 10.445,-23.69 -1.778,-35.91 l -21.515,-21.52 c 12.094,-12.09 17.437,-8.27 27.113,1.4 10.313,10.32 15.41,15.15 23.426,26.24 l 12.101,-12.1 c -5.992,-13.11 -20.503,-27.63 -31.07,-38.19 z m -72.426,-71.16 -67.609,67.6 15.023,15.02 11.336,-5.72 c 0,9.16 1.778,20.11 10.18,28.52 2.93,2.93 5.731,5.73 8.281,6.74 l 17.184,-17.18 c -1.906,-1.66 -6.234,-5.48 -10.184,-9.43 -7.383,-7.38 -11.457,-14 -9.55,-24.57 l 43.16,-43.16 -17.821,-17.82 z m -25.953,-25.95 -10.57,3.69 c -2.801,-10.7 -2.926,-19.48 -13.238,-29.8 -15.661,-15.65 -30.934,-9.29 -43.922,3.7 l -44.942,44.94 17.825,17.82 45.32,-45.32 c 6.754,-6.75 12.101,-5.98 16.555,-1.53 7.132,7.13 9.293,12.87 10.433,22.16 l -48.5,48.5 17.82,17.83 67.606,-67.61 -14.387,-14.38 z m -69.625,-70.9 c -12.859,-12.86 -33.613,-32.34 -41.375,-33.99 l -11.082,11.08 31.961,31.96 c 1.141,1.14 4.328,4.57 0.133,8.77 l -3.188,3.18 c -2.8,2.81 -5.089,3.57 -8.781,-0.12 l -15.793,-15.79 c -11.969,-11.96 -24.062,-13.88 -37.176,-0.76 l -5.855,5.85 c -10.438,10.45 -13.75,22.67 -0.641,35.78 12.989,12.99 31.328,30.56 39.602,32.73 l 11.199,-11.21 -30.68,-30.68 c -4.582,-4.59 -3.695,-6.76 -0.511,-9.94 l 3.058,-3.06 c 4.2,-4.19 6.618,-2.02 9.543,0.91 l 16.043,16.04 c 12.86,12.86 25.594,10.3 35.528,0.37 l 6.875,-6.87 c 13.875,-13.87 9.293,-26.1 1.14,-34.25 z m -68.359,-67.09 -67.602,67.61 17.828,17.82 67.598,-67.61 -17.824,-17.82 z m -44.539,-45.81 c -17.188,-17.18 -32.207,-12.35 -57.031,12.47 -29.036,29.04 -25.852,42.15 -4.465,63.54 19.609,19.61 30.812,26.48 53.218,4.08 12.098,-12.1 10.446,-23.69 -1.777,-35.91 l -21.519,-21.52 c 12.093,-12.1 17.441,-8.27 27.121,1.41 10.312,10.31 15.41,15.14 23.422,26.22 l 12.097,-12.1 c -5.984,-13.1 -20.5,-27.62 -31.066,-38.19 z m -69.238,-67.97 c -10.059,-10.05 -23.168,-15.53 -37.426,-1.27 l -75.117,75.12 17.824,17.82 70.148,-70.15 c 6.746,-6.75 10.824,-2.42 14.516,1.27 l 31.957,31.96 16.422,-16.42 -38.324,-38.33 z m 24.023,208.39 13.363,13.36 c 1.91,1.91 4.336,1.27 6.117,-0.51 l 11.204,-11.21 c 1.91,-1.91 1.902,-3.94 0.121,-5.72 l -13.364,-13.37 c -1.789,-1.78 -4.207,-1.91 -5.98,-0.13 l -11.203,11.2 c -2.039,2.04 -2.301,4.33 -0.258,6.38 z m 507.711,507.7 13.367,13.37 c 1.91,1.91 4.332,1.27 6.113,-0.52 l 11.203,-11.19 c 1.907,-1.92 1.907,-3.95 0.125,-5.73 l -13.371,-13.37 c -1.781,-1.78 -4.203,-1.9 -5.98,-0.13 l -11.199,11.2 c -2.043,2.04 -2.297,4.34 -0.258,6.37 z m 704.563,898.16 -2101.29,-2101.31 295.309,-295.31 2101.291,2101.32 -295.31,295.3"
             style="fill:#d0cfd2;fill-opacity:1;fill-rule:nonzero;stroke:none"
             id="path442"
             inkscape:connector-curvature="0" /></g></g></g></g></svg>