<?xml version="1.0" encoding="UTF-8" standalone="no"?>
<!-- Created with Inkscape (http://www.inkscape.org/) -->

<svg
   xmlns:dc="http://purl.org/dc/elements/1.1/"
   xmlns:cc="http://creativecommons.org/ns#"
   xmlns:rdf="http://www.w3.org/1999/02/22-rdf-syntax-ns#"
   xmlns:svg="http://www.w3.org/2000/svg"
   xmlns="http://www.w3.org/2000/svg"
   xmlns:sodipodi="http://sodipodi.sourceforge.net/DTD/sodipodi-0.dtd"
   xmlns:inkscape="http://www.inkscape.org/namespaces/inkscape"
   id="svg2"
   version="1.1"
   inkscape:version="0.91 r13725"
   xml:space="preserve"
   width="1000"
   height="1000"
   viewBox="0 0 1000 1000"
   sodipodi:docname="571011 (2).svg"><metadata
     id="metadata8"><rdf:RDF><cc:Work
         rdf:about=""><dc:format>image/svg+xml</dc:format><dc:type
           rdf:resource="http://purl.org/dc/dcmitype/StillImage" /><dc:title></dc:title></cc:Work></rdf:RDF></metadata><defs
     id="defs6"><linearGradient
       x1="0"
       y1="0"
       x2="1"
       y2="0"
       gradientUnits="userSpaceOnUse"
       gradientTransform="matrix(-3.497e-4,8000,8000,3.497e-4,4000,0)"
       spreadMethod="pad"
       id="linearGradient14"><stop
         style="stop-opacity:1;stop-color:#1f1618"
         offset="0"
         id="stop16" /><stop
         style="stop-opacity:1;stop-color:#413d48"
         offset="0.950549"
         id="stop18" /><stop
         style="stop-opacity:1;stop-color:#413d48"
         offset="1"
         id="stop20" /></linearGradient><clipPath
       clipPathUnits="userSpaceOnUse"
       id="clipPath352"><path
         d="m 0,6047.52 1952.47,0 0,1952.48 L 0,8000 0,6047.52 Z"
         id="path354"
         inkscape:connector-curvature="0" /></clipPath></defs><sodipodi:namedview
     pagecolor="#ffffff"
     bordercolor="#666666"
     borderopacity="1"
     objecttolerance="10"
     gridtolerance="10"
     guidetolerance="10"
     inkscape:pageopacity="0"
     inkscape:pageshadow="2"
     inkscape:window-width="1680"
     inkscape:window-height="1026"
     id="namedview4"
     showgrid="false"
     inkscape:zoom="0.6675088"
     inkscape:cx="572.05843"
     inkscape:cy="520.55391"
     inkscape:window-x="1600"
     inkscape:window-y="24"
     inkscape:window-maximized="1"
     inkscape:current-layer="g12" /><g
     id="g10"
     inkscape:groupmode="layer"
     inkscape:label="ink_ext_XXXXXX"
     transform="matrix(1.25,0,0,-1.25,0,1000)"><g
       id="g12"
       transform="scale(0.1,0.1)"><path
         d="m 0,0 8000,0 0,8000 L 0,8000 0,0 Z"
         style="fill:url(#linearGradient14);fill-opacity:1;fill-rule:nonzero;stroke:none"
         id="path22"
         inkscape:connector-curvature="0" /><path
         d="m 1837.93,1887.83 c -16.8,-69.29 -37.9,-83.95 -52.74,-83.95 -2.13,0 -6.58,0 -6.58,6.65 0,19.8 13.63,49.34 30.37,65.87 6.62,6.61 17.41,9.47 28.95,11.43 z m 70.11,-41.25 19.04,93.89 3.13,15.44 -15.75,0.47 c -8.46,0.24 -16.67,0.37 -24.4,0.37 -88.75,0 -122.73,-16.46 -146.48,-41.16 -26.43,-27.64 -44.88,-72.11 -44.88,-108.18 0,-40.13 34.77,-69.28 82.68,-69.28 31.37,0 49.32,8.58 69.44,22.14 17.64,-14.22 32.31,-22.14 64,-22.14 42.35,0 77.21,19.29 100.86,55.79 17.77,27.39 28.35,64.55 28.35,99.4 0,75.27 -39.61,119.58 -72.82,143.49 -37.25,26.79 -87.98,42.8 -135.68,42.8 -95.88,0 -154.03,-46.92 -185.93,-86.29 -38.58,-47.64 -60.71,-111.31 -60.71,-174.71 0,-61.4 23.83,-112.15 68.95,-146.75 37.97,-29.11 88.89,-45.13 143.37,-45.13 66.5,0 133.56,17.11 193.89,49.49 l 11.05,5.94 -5.31,11.37 -18.32,39.22 -5.89,12.63 -12.33,-6.5 c -45.63,-24.1 -96.5,-46.42 -159.29,-46.42 -41.42,0 -75.95,11.55 -99.82,33.41 -23.81,21.78 -36.4,53.43 -36.4,91.51 0,129 81.57,196.5 162.14,196.5 39.63,0 73.19,-11.79 97.05,-34.09 23.62,-22.08 36.12,-53.06 36.12,-89.58 0,-13.85 -3.02,-36.79 -11.44,-55.86 -8.97,-20.21 -21.42,-30.47 -37.05,-30.47 -9.13,0 -12.67,3.27 -12.67,11.65 0,5.29 2.55,18.08 4.06,25.72 0.39,2 0.76,3.82 1.04,5.33"
         style="fill:#d0cfd2;fill-opacity:1;fill-rule:nonzero;stroke:none"
         id="path40"
         inkscape:connector-curvature="0" /><path
         d="M 2851.71,4018.12 2608,3774.41 l -92.09,92.09 -95.55,-95.56 92.08,-92.08 95.56,-95.55 95.54,95.55 243.73,243.72 -95.56,95.54"
         style="fill:#d0cfd2;fill-opacity:1;fill-rule:nonzero;stroke:none"
         id="path48"
         inkscape:connector-curvature="0" /><path
         d="m 7009.53,5770.51 c 77.73,0 140.74,-63.01 140.74,-140.73 0,-77.74 -63.01,-140.75 -140.74,-140.75 -77.72,0 -140.73,63.01 -140.73,140.75 0,77.72 63.01,140.73 140.73,140.73 z m -157.12,-248.64 -23.32,-23.33 49.2,-49.2 23.34,23.32 c 21.57,-14.85 46.36,-25.35 73.11,-30.28 l 0,-33 69.59,0 0,33 c 26.73,4.93 51.53,15.43 73.11,30.28 l 23.32,-23.32 49.21,49.2 -23.32,23.33 c 14.84,21.58 25.33,46.36 30.27,73.11 l 32.99,0 0,69.59 -32.99,0 c -4.94,26.75 -15.43,51.53 -30.27,73.12 l 23.32,23.33 -49.21,49.19 -23.32,-23.32 c -21.58,14.85 -46.38,25.35 -73.11,30.28 l 0,33 -69.59,0 0,-33 c -26.75,-4.93 -51.53,-15.43 -73.11,-30.28 l -23.34,23.32 -49.2,-49.2 23.32,-23.33 c -14.84,-21.58 -25.33,-46.36 -30.27,-73.11 l -32.99,0 0,-69.6 32.99,0 c 4.94,-26.74 15.43,-51.52 30.27,-73.1"
         style="fill:#d0cfd2;fill-opacity:1;fill-rule:nonzero;stroke:none"
         id="path50"
         inkscape:connector-curvature="0" /><path
         d="m 7311.14,5820.32 c -10.92,-4.65 -22.41,-7.01 -34.15,-7.01 -35.02,0 -66.51,20.81 -80.24,53 -18.85,44.23 1.79,95.54 45.99,114.39 10.91,4.65 22.41,7.01 34.15,7.01 35.02,0 66.51,-20.81 80.25,-53 18.84,-44.22 -1.78,-95.53 -46,-114.39 z m 93.62,104.35 20.74,8.85 -21.92,51.35 -20.74,-8.85 c -8.93,12.56 -19.86,23.29 -32.6,31.95 l 8.4,20.93 -51.79,20.82 -8.42,-20.92 c -15.09,2.53 -30.61,2.37 -45.64,-0.49 l -8.85,20.75 -51.35,-21.89 8.85,-20.75 c -12.57,-8.93 -23.3,-19.88 -31.96,-32.62 l -20.92,8.42 -20.83,-51.8 20.92,-8.41 c -2.56,-15.2 -2.38,-30.52 0.49,-45.65 l -20.74,-8.86 21.88,-51.35 20.76,8.85 c 8.92,-12.56 19.88,-23.28 32.61,-31.94 l -8.42,-20.93 51.8,-20.82 8.41,20.92 c 15.09,-2.53 30.61,-2.38 45.66,0.48 l 8.85,-20.75 51.36,21.9 -8.85,20.75 c 12.56,8.93 23.28,19.87 31.94,32.62 l 20.93,-8.42 20.83,51.8 -20.95,8.4 c 2.58,15.2 2.42,30.52 -0.45,45.66"
         style="fill:#d0cfd2;fill-opacity:1;fill-rule:nonzero;stroke:none"
         id="path52"
         inkscape:connector-curvature="0" /><path
         d="m 2521.71,4855.17 c 22.8,0 41.28,-18.49 41.28,-41.29 0,-22.81 -18.48,-41.28 -41.28,-41.28 -22.8,0 -41.29,18.48 -41.29,41.28 0,22.81 18.49,41.29 41.29,41.29 z m 108.08,0 c 22.8,0 41.27,-18.49 41.27,-41.29 0,-22.81 -18.47,-41.28 -41.27,-41.28 -22.82,0 -41.29,18.48 -41.29,41.28 0,22.81 18.47,41.29 41.29,41.29 z m 108.06,0 c 22.79,0 41.28,-18.49 41.28,-41.29 0,-22.81 -18.49,-41.28 -41.28,-41.28 -22.81,0 -41.29,18.48 -41.29,41.28 0,22.81 18.48,41.29 41.29,41.29 z m 108.07,0 c 22.8,0 41.29,-18.49 41.29,-41.29 0,-22.81 -18.49,-41.28 -41.29,-41.28 -22.79,0 -41.29,18.48 -41.29,41.28 0,22.81 18.49,41.29 41.29,41.29 z m -405.72,-266.13 315.33,0 0,-130.08 120.96,130.08 50.94,0 0,458.32 -487.23,0 0,-458.32"
         style="fill:#d0cfd2;fill-opacity:1;fill-rule:nonzero;stroke:none"
         id="path54"
         inkscape:connector-curvature="0" /><path
         d="m 1152.16,1644.82 39.68,0 0,360.34 -173.37,0 0,-217.56 -207.357,0 0,-142.78 248.157,0 0,-100.02 92.89,100.02"
         style="fill:#d0cfd2;fill-opacity:1;fill-rule:nonzero;stroke:none"
         id="path56"
         inkscape:connector-curvature="0" /><path
         d="m 684.004,2012.06 c 17.805,0 32.234,-14.43 32.234,-32.24 0,-17.81 -14.429,-32.24 -32.234,-32.24 -17.813,0 -32.246,14.43 -32.246,32.24 0,17.82 14.433,32.24 32.246,32.24 z m 84.402,0 c 17.805,0 32.239,-14.43 32.239,-32.24 0,-17.81 -14.446,-32.24 -32.239,-32.24 -17.82,0 -32.246,14.43 -32.246,32.24 0,17.82 14.426,32.24 32.246,32.24 z m 84.399,0.82 c 7.988,0 15.269,-4.33 20.918,-7.72 6.914,-6.8 11.316,-15.11 11.316,-24.93 0,-17.81 -14.434,-32.45 -32.234,-32.45 -17.817,0 -32.246,14.75 -32.246,32.55 0,9.83 4.402,18.01 11.336,24.82 5.617,3.4 12.91,7.73 20.91,7.73 z m 84.39,0 c 7.993,0 15.285,-4.33 20.918,-7.72 6.914,-6.8 11.328,-15.11 11.328,-24.93 0,-17.81 -14.441,-32.45 -32.246,-32.45 -17.793,0 -32.234,14.75 -32.234,32.55 0,9.83 4.402,18.01 11.316,24.82 5.637,3.4 12.934,7.73 20.918,7.73 z m -316.441,-208.29 39.363,0 93.211,-101.94 0,101.94 248.142,0 0,356.93 -380.716,0 0,-356.93"
         style="fill:#d0cfd2;fill-opacity:1;fill-rule:nonzero;stroke:none"
         id="path58"
         inkscape:connector-curvature="0" /><path
         d="m 5254.5,5790.92 218.85,96.14 -96.11,-218.87 -218.87,-96.14 96.13,218.87 z m 61.37,-369.57 c 170.19,0 308.2,137.99 308.2,308.2 0,170.22 -138.01,308.2 -308.2,308.2 -170.22,0 -308.2,-137.98 -308.2,-308.2 0,-170.21 137.98,-308.2 308.2,-308.2"
         style="fill:#d0cfd2;fill-opacity:1;fill-rule:nonzero;stroke:none"
         id="path60"
         inkscape:connector-curvature="0" /><path
         d="m 5315.87,5768.43 c 19.51,0 35.35,-15.83 35.35,-35.36 0,-19.53 -15.84,-35.36 -35.35,-35.36 -19.53,0 -35.37,15.83 -35.37,35.36 0,19.53 15.84,35.36 35.37,35.36"
         style="fill:#d0cfd2;fill-opacity:1;fill-rule:nonzero;stroke:none"
         id="path62"
         inkscape:connector-curvature="0" /><path
         d="m 3848.88,1723.14 -50.98,0 0,-81.58 -452.12,0 0,79.89 -50.98,0 0,-130.88 554.08,0 0,132.57"
         style="fill:#d0cfd2;fill-opacity:1;fill-rule:nonzero;stroke:none"
         id="path76"
         inkscape:connector-curvature="0" /><path
         d="m 3443.75,1932.85 -70.82,0 204.27,-253.9 204.26,253.9 -70.83,0 0,182.91 -266.88,0 0,-182.91"
         style="fill:#d0cfd2;fill-opacity:1;fill-rule:nonzero;stroke:none"
         id="path78"
         inkscape:connector-curvature="0" /><path
         d="m 806.016,6952.72 -98.582,0 0,-166.32 98.582,98.58 0,67.74"
         style="fill:#d0cfd2;fill-opacity:1;fill-rule:nonzero;stroke:none"
         id="path134"
         inkscape:connector-curvature="0" /><path
         d="m 1105.15,6663 -397.716,0 0,-300.05 148.711,0 0,142.77 100.281,0 0,-142.77 148.724,0 0,300.05"
         style="fill:#d0cfd2;fill-opacity:1;fill-rule:nonzero;stroke:none"
         id="path136"
         inkscape:connector-curvature="0" /><path
         d="m 806.016,6680 381.504,0 -281.231,281.22 -100.273,-100.28 -98.582,-98.58 -82.368,-82.36 180.95,0"
         style="fill:#d0cfd2;fill-opacity:1;fill-rule:nonzero;stroke:none"
         id="path138"
         inkscape:connector-curvature="0" /><path
         d="m 1930.29,3052.42 109.973,0 0,48.0195 -109.973,0 0,-48.0195 z"
         style="fill:#d0cfd2;fill-opacity:1;fill-rule:nonzero;stroke:none"
         id="path176"
         inkscape:connector-curvature="0" /><path
         d="m 1575.24,2823.19 c 0,5.77 0.31,11.46 0.87,17.06 0.58,5.61 1.42,11.15 2.53,16.58 2.23,10.85 5.51,21.33 9.73,31.31 2.1,4.99 4.46,9.86 7.02,14.58 2.58,4.73 5.36,9.32 8.36,13.76 2.99,4.45 6.21,8.73 9.61,12.85 2.58,3.11 5.28,6.1 8.07,9.02 30.39,31.84 73.21,51.71 120.68,51.71 48.95,0 92.99,-21.1 123.51,-54.68 5.38,-5.93 10.35,-12.24 14.84,-18.9 3.01,-4.44 5.8,-9.03 8.37,-13.76 2.57,-4.72 4.91,-9.59 7.03,-14.58 4.21,-9.98 7.49,-20.45 9.72,-31.31 1.11,-5.43 1.95,-10.97 2.52,-16.58 0.57,-5.6 0.86,-11.29 0.86,-17.06 l 0,0 c 0,-20.14 -3.57,-39.47 -10.12,-57.37 -4.68,-12.77 -10.88,-24.82 -18.38,-35.91 -4.49,-6.66 -9.46,-12.98 -14.84,-18.9 -30.52,-33.58 -74.56,-54.67 -123.51,-54.67 -17.29,0 -33.95,2.62 -49.62,7.51 -13.06,4.05 -25.44,9.68 -36.9,16.65 -4.59,2.78 -9.03,5.79 -13.31,8.99 -2.14,1.6 -4.25,3.25 -6.31,4.95 -4.11,3.4 -8.08,7 -11.85,10.77 -2.9,2.9 -5.64,5.93 -8.34,9.04 -2.18,2.53 -4.29,5.11 -6.32,7.76 -1.96,2.58 -3.89,5.21 -5.71,7.89 -3,4.44 -5.78,9.04 -8.36,13.76 -3.86,7.09 -7.2,14.49 -10.01,22.16 -6.55,17.89 -10.14,37.22 -10.14,57.37 l 0,0 z m 349.63,165.54 120.82,0 0,-71.75 -120.82,0 0,71.75 z m -399.6,-379.28 582.37,0 0,427.48 -582.37,0 0,-427.48"
         style="fill:#d0cfd2;fill-opacity:1;fill-rule:nonzero;stroke:none"
         id="path178"
         inkscape:connector-curvature="0" /><path
         d="m 1742.11,2702.8 c 66.38,0 120.38,54.02 120.38,120.39 0,66.39 -54,120.39 -120.38,120.39 -66.39,0 -120.39,-54 -120.39,-120.39 0,-66.37 54,-120.39 120.39,-120.39"
         style="fill:#d0cfd2;fill-opacity:1;fill-rule:nonzero;stroke:none"
         id="path180"
         inkscape:connector-curvature="0" /><path
         d="m 6261.03,4077.64 0,-49.75 c -249.48,0 -280.54,-242.99 -280.54,-242.99 0,0 77.84,55.51 280.54,55.51 l 0,-49.77 217.2,143.5 -217.2,143.5"
         style="fill:#d0cfd2;fill-opacity:1;fill-rule:nonzero;stroke:none"
         id="path192"
         inkscape:connector-curvature="0" /><path
         d="m 6148.3,3523.79 0,49.75 c 249.48,0 277.27,242.97 277.27,242.97 0,0 -74.58,-55.48 -277.27,-55.48 l 0,49.74 -217.21,-143.48 217.21,-143.5"
         style="fill:#d0cfd2;fill-opacity:1;fill-rule:nonzero;stroke:none"
         id="path194"
         inkscape:connector-curvature="0" /><path
         d="m 4670.75,1647.79 -438.78,0 0,77.54 -49.48,0 0,-127.01 537.73,0 0,128.65 -49.47,0 0,-79.18"
         style="fill:#d0cfd2;fill-opacity:1;fill-rule:nonzero;stroke:none"
         id="path244"
         inkscape:connector-curvature="0" /><path
         d="m 4327.04,1861.6 0,-177.52 259.02,0 0,177.52 68.73,0 -198.23,246.42 -198.25,-246.42 68.73,0"
         style="fill:#d0cfd2;fill-opacity:1;fill-rule:nonzero;stroke:none"
         id="path246"
         inkscape:connector-curvature="0" /><path
         d="m 3977.97,319.41 6.83,0 0,8.66 c 0,8.981 1.12,16.141 3.4,21.442 2.25,5.289 6.16,9.136 11.59,11.578 5.42,2.39 12.89,3.601 22.34,3.601 16.82,0 25.14,-4.062 25.14,-12.363 0,-2.609 -0.88,-4.937 -2.66,-6.777 -1.7,-1.91 -3.79,-2.84 -6.17,-2.84 -1.12,0 -3.07,0.168 -5.84,0.629 -2.62,0.41 -5.02,0.66 -6.9,0.66 -5.17,0 -8.47,-1.551 -10.02,-4.641 -1.4,-2.988 -2.16,-7.371 -2.16,-13.089 l 0,-6.86 7.01,0 c 10.95,0 16.38,-3.238 16.38,-9.89 0,-4.649 -1.38,-7.629 -4.31,-8.918 -2.91,-1.25 -6.94,-1.883 -12.07,-1.883 l -7.01,0 0,-76.067 c 0,-5.664 -1.33,-9.961 -4.11,-12.902 -2.65,-3.031 -6.11,-4.539 -10.41,-4.539 -4.08,0 -7.42,1.508 -10.17,4.539 -2.68,2.941 -4.03,7.238 -4.03,12.902 l 0,76.067 -7.89,0 c -4.31,0 -7.57,0.922 -9.9,2.871 -2.32,1.902 -3.47,4.43 -3.47,7.551 0,6.879 4.8,10.269 14.43,10.269"
         style="fill:#d0cfd2;fill-opacity:1;fill-rule:nonzero;stroke:none"
         id="path284"
         inkscape:connector-curvature="0" /><path
         d="m 4071.95,246.641 0,-23.989 c 0,-5.793 -1.48,-10.152 -4.16,-13.062 -2.73,-2.942 -6.17,-4.379 -10.37,-4.379 -4.22,0 -7.6,1.437 -10.23,4.469 -2.64,2.922 -3.99,7.218 -3.99,12.972 l 0,79.95 c 0,12.918 4.65,19.386 13.95,19.386 4.8,0 8.2,-1.508 10.33,-4.508 2.09,-3.058 3.24,-7.5 3.5,-13.398 3.41,5.898 6.91,10.34 10.52,13.398 3.66,3 8.44,4.508 14.48,4.508 6.07,0 11.87,-1.508 17.56,-4.508 5.7,-3.058 8.53,-7.089 8.53,-12.011 0,-3.528 -1.23,-6.43 -3.59,-8.68 -2.46,-2.301 -5.06,-3.437 -7.84,-3.437 -1.11,0 -3.65,0.66 -7.67,1.98 -4.04,1.25 -7.6,1.898 -10.67,1.898 -4.19,0 -7.65,-1.101 -10.27,-3.281 -2.69,-2.238 -4.78,-5.5 -6.27,-9.847 -1.42,-4.352 -2.42,-9.532 -3.01,-15.5 -0.56,-6.043 -0.8,-13.332 -0.8,-21.961"
         style="fill:#d0cfd2;fill-opacity:1;fill-rule:nonzero;stroke:none"
         id="path286"
         inkscape:connector-curvature="0" /><path
         d="m 4147.75,272.859 52.07,0 c -0.72,9.801 -3.32,17.141 -7.93,22.012 -4.62,4.859 -10.62,7.27 -18.16,7.27 -7.15,0 -13.03,-2.411 -17.62,-7.352 -4.59,-5 -7.38,-12.289 -8.36,-21.93 m 56.18,-16.308 -56.18,0 c 0.1,-6.539 1.37,-12.332 3.93,-17.27 2.58,-4.941 6,-8.699 10.23,-11.261 4.26,-2.528 8.91,-3.778 14.03,-3.778 3.45,0 6.58,0.41 9.43,1.25 2.81,0.75 5.59,2.047 8.24,3.778 2.68,1.722 5.1,3.511 7.35,5.519 2.24,1.961 5.17,4.621 8.73,7.992 1.52,1.25 3.61,1.899 6.31,1.899 2.96,0 5.33,-0.801 7.18,-2.461 1.84,-1.598 2.72,-3.848 2.72,-6.84 0,-2.598 -1,-5.598 -2.97,-9.09 -2.09,-3.519 -5.14,-6.769 -9.26,-9.98 -4.14,-3.168 -9.29,-5.879 -15.47,-7.957 -6.21,-2.09 -13.36,-3.141 -21.4,-3.141 -18.5,0 -32.82,5.219 -43.03,15.769 -10.22,10.551 -15.37,24.782 -15.37,42.79 0,8.48 1.27,16.382 3.83,23.671 2.48,7.309 6.19,13.45 11.05,18.688 4.81,5.152 10.74,9.133 17.85,11.902 7.07,2.75 14.92,4.141 23.56,4.141 11.21,0 20.82,-2.352 28.86,-7.113 7.99,-4.739 14.09,-10.84 18.03,-18.329 3.99,-7.531 6,-15.191 6,-22.98 0,-7.148 -2.09,-11.852 -6.23,-13.98 -4.12,-2.168 -9.92,-3.219 -17.42,-3.219"
         style="fill:#d0cfd2;fill-opacity:1;fill-rule:nonzero;stroke:none"
         id="path288"
         inkscape:connector-curvature="0" /><path
         d="m 4267.19,272.859 52.03,0 c -0.68,9.801 -3.36,17.141 -7.91,22.012 -4.65,4.859 -10.65,7.27 -18.17,7.27 -7.16,0 -13,-2.411 -17.63,-7.352 -4.57,-5 -7.4,-12.289 -8.32,-21.93 m 56.15,-16.308 -56.15,0 c 0.06,-6.539 1.38,-12.332 3.92,-17.27 2.54,-4.941 5.98,-8.699 10.2,-11.261 4.24,-2.528 8.92,-3.778 14.06,-3.778 3.42,0 6.58,0.41 9.38,1.25 2.85,0.75 5.58,2.047 8.28,3.778 2.67,1.722 5.1,3.511 7.36,5.519 2.19,1.961 5.16,4.621 8.71,7.992 1.51,1.25 3.61,1.899 6.31,1.899 2.99,0 5.33,-0.801 7.21,-2.461 1.79,-1.598 2.67,-3.848 2.67,-6.84 0,-2.598 -1.01,-5.598 -3.04,-9.09 -1.96,-3.519 -5.04,-6.769 -9.2,-9.98 -4.1,-3.168 -9.28,-5.879 -15.43,-7.957 -6.19,-2.09 -13.38,-3.141 -21.45,-3.141 -18.44,0 -32.75,5.219 -43.03,15.769 -10.21,10.551 -15.35,24.782 -15.35,42.79 0,8.48 1.27,16.382 3.83,23.671 2.5,7.309 6.17,13.45 11.02,18.688 4.82,5.152 10.78,9.133 17.89,11.902 7.07,2.75 14.94,4.141 23.55,4.141 11.19,0 20.8,-2.352 28.95,-7.113 7.97,-4.739 14,-10.84 17.95,-18.329 3.96,-7.531 6.03,-15.191 6.03,-22.98 0,-7.148 -2.11,-11.852 -6.21,-13.98 -4.16,-2.168 -9.96,-3.219 -17.46,-3.219"
         style="fill:#d0cfd2;fill-opacity:1;fill-rule:nonzero;stroke:none"
         id="path290"
         inkscape:connector-curvature="0" /><path
         d="m 4442.52,264.121 c 0,7.578 -1.17,14.07 -3.5,19.469 -2.3,5.5 -5.5,9.59 -9.61,12.539 -4.04,2.91 -8.63,4.363 -13.63,4.363 -7.89,0 -14.57,-3.113 -20,-9.351 -5.45,-6.25 -8.18,-15.411 -8.18,-27.582 0,-11.379 2.71,-20.278 8.12,-26.68 5.41,-6.297 12.05,-9.481 20.06,-9.481 4.77,0 9.2,1.422 13.28,4.133 4.08,2.809 7.35,6.93 9.77,12.5 2.46,5.528 3.69,12.27 3.69,20.09 m -56.29,41.719 0,-3.449 c 5.37,6.629 11.02,11.539 16.9,14.668 5.7,3.113 12.34,4.73 19.7,4.73 8.81,0 17.01,-2.309 24.44,-6.867 7.44,-4.602 13.26,-11.203 17.57,-20.012 4.34,-8.789 6.51,-19.129 6.51,-31.14 0,-8.801 -1.25,-16.911 -3.71,-24.36 -2.48,-7.379 -5.96,-13.578 -10.28,-18.57 -4.37,-4.981 -9.49,-8.91 -15.39,-11.598 -5.99,-2.691 -12.3,-4.031 -19.14,-4.031 -8.18,0 -15.1,1.648 -20.64,4.969 -5.59,3.211 -10.88,8.129 -15.96,14.472 l 0,-43.101 c 0,-12.61 -4.63,-18.922 -13.77,-18.922 -5.43,0 -8.94,1.59 -10.76,4.851 -1.68,3.301 -2.58,8 -2.58,14.29 l 0,123.902 c 0,5.469 1.17,9.547 3.54,12.238 2.38,2.672 5.66,4.078 9.8,4.078 4.08,0 7.36,-1.406 9.9,-4.168 2.62,-2.8 3.87,-6.75 3.87,-11.98"
         style="fill:#d0cfd2;fill-opacity:1;fill-rule:nonzero;stroke:none"
         id="path292"
         inkscape:connector-curvature="0" /><path
         d="m 4514.47,305.672 0,-83.02 c 0,-5.754 -1.36,-10.05 -4.1,-12.972 -2.75,-3.032 -6.21,-4.469 -10.41,-4.469 -4.24,0 -7.58,1.508 -10.27,4.539 -2.58,3.051 -3.95,7.309 -3.95,12.902 l 0,82.219 c 0,5.609 1.37,9.899 3.95,12.738 2.69,2.973 6.03,4.379 10.27,4.379 4.2,0 7.66,-1.406 10.41,-4.379 2.74,-2.839 4.1,-6.879 4.1,-11.937 m -14.22,29.699 c -4.02,0 -7.4,1.25 -10.21,3.629 -2.85,2.539 -4.3,5.949 -4.3,10.398 0,4.082 1.47,7.454 4.4,10.051 2.89,2.641 6.29,3.992 10.11,3.992 3.77,0 7.04,-1.211 9.91,-3.582 2.87,-2.418 4.31,-5.89 4.31,-10.461 0,-4.398 -1.4,-7.859 -4.2,-10.347 -2.81,-2.43 -6.11,-3.68 -10.02,-3.68"
         style="fill:#d0cfd2;fill-opacity:1;fill-rule:nonzero;stroke:none"
         id="path294"
         inkscape:connector-curvature="0" /><path
         d="m 4607.03,218.309 -25.29,41.703 -15.61,-14.723 0,-22.859 c 0,-5.532 -1.44,-9.739 -4.39,-12.68 -2.83,-3.031 -6.25,-4.539 -10.02,-4.539 -4.43,0 -7.89,1.437 -10.43,4.469 -2.48,2.922 -3.79,7.218 -3.79,12.972 l 0,122.5 c 0,6.336 1.25,11.2 3.67,14.508 2.48,3.371 6.02,5.031 10.55,5.031 4.41,0 7.89,-1.511 10.49,-4.582 2.61,-2.957 3.92,-7.429 3.92,-13.296 l 0,-69.661 32.29,33.887 c 4.02,4.18 7.03,7.082 9.16,8.633 2.13,1.5 4.65,2.316 7.63,2.316 3.62,0 6.59,-1.156 9.05,-3.418 2.34,-2.3 3.53,-5.14 3.53,-8.59 0,-4.14 -3.9,-9.839 -11.66,-16.839 l -15.25,-13.942 29.43,-46.328 c 2.13,-3.441 3.75,-6.031 4.69,-7.832 0.94,-1.758 1.45,-3.519 1.45,-5.109 0,-4.578 -1.25,-8.129 -3.77,-10.801 -2.5,-2.617 -5.82,-3.918 -9.83,-3.918 -3.49,0 -6.21,0.891 -8.1,2.852 -1.9,1.929 -4.52,5.328 -7.72,10.246"
         style="fill:#d0cfd2;fill-opacity:1;fill-rule:nonzero;stroke:none"
         id="path296"
         inkscape:connector-curvature="0" /><path
         d="m 4669.41,205.211 c -4.35,0 -8.06,1.391 -11.23,4.211 -3.14,2.769 -4.74,6.726 -4.74,11.808 0,4.262 1.54,7.95 4.55,11.012 3.03,3.09 6.74,4.598 11.13,4.598 4.42,0 8.18,-1.508 11.35,-4.52 3.08,-3.05 4.69,-6.781 4.69,-11.09 0,-5.039 -1.61,-8.929 -4.69,-11.742 -3.17,-2.886 -6.86,-4.277 -11.06,-4.277"
         style="fill:#d0cfd2;fill-opacity:1;fill-rule:nonzero;stroke:none"
         id="path298"
         inkscape:connector-curvature="0" /><path
         d="m 4812.23,240.781 c 0,-3.601 -1.1,-7.41 -3.23,-11.461 -2.12,-4.121 -5.41,-7.929 -9.82,-11.66 -4.36,-3.68 -9.86,-6.621 -16.54,-8.89 -6.66,-2.219 -14.16,-3.379 -22.48,-3.379 -17.78,0 -31.64,5.199 -41.61,15.539 -9.92,10.351 -14.92,24.211 -14.92,41.582 0,11.859 2.27,22.23 6.88,31.297 4.51,8.992 11.11,16.011 19.74,20.961 8.62,4.972 18.97,7.402 30.92,7.402 7.44,0 14.26,-1.102 20.51,-3.25 6.21,-2.152 11.43,-4.992 15.78,-8.391 4.26,-3.511 7.58,-7.129 9.84,-10.98 2.29,-3.93 3.4,-7.551 3.4,-10.973 0,-3.379 -1.25,-6.316 -3.81,-8.68 -2.57,-2.406 -5.7,-3.617 -9.27,-3.617 -2.42,0 -4.42,0.66 -6,1.867 -1.58,1.25 -3.36,3.223 -5.31,5.954 -3.52,5.347 -7.15,9.339 -11,11.976 -3.79,2.711 -8.65,4.024 -14.55,4.024 -8.44,0 -15.33,-3.313 -20.51,-9.961 -5.17,-6.59 -7.79,-15.731 -7.79,-27.161 0,-5.378 0.7,-10.421 2.03,-14.898 1.27,-4.504 3.22,-8.371 5.76,-11.594 2.54,-3.156 5.57,-5.547 9.13,-7.218 3.61,-1.731 7.53,-2.528 11.79,-2.528 5.78,0 10.71,1.379 14.79,4.039 4.18,2.668 7.77,6.739 10.93,12.188 1.74,3.211 3.6,5.742 5.61,7.543 2.03,1.789 4.53,2.758 7.48,2.758 3.54,0 6.45,-1.348 8.73,-4.008 2.33,-2.621 3.52,-5.543 3.52,-8.481"
         style="fill:#d0cfd2;fill-opacity:1;fill-rule:nonzero;stroke:none"
         id="path300"
         inkscape:connector-curvature="0" /><path
         d="m 4907.27,263.559 c 0,11.722 -2.58,20.793 -7.72,27.332 -5.14,6.578 -12.07,9.839 -20.76,9.839 -5.63,0 -10.55,-1.429 -14.84,-4.351 -4.3,-2.938 -7.54,-7.18 -9.89,-12.918 -2.28,-5.68 -3.45,-12.301 -3.45,-19.902 0,-7.528 1.11,-14 3.39,-19.629 2.33,-5.61 5.55,-9.942 9.83,-12.899 4.28,-2.961 9.24,-4.5 14.96,-4.5 8.69,0 15.62,3.278 20.76,9.86 5.14,6.578 7.72,15.621 7.72,27.168 m 28.84,0 c 0,-8.539 -1.36,-16.399 -3.92,-23.649 -2.76,-7.219 -6.56,-13.461 -11.64,-18.57 -5.02,-5.238 -11.12,-9.199 -18.05,-11.961 -7.09,-2.777 -14.96,-4.168 -23.71,-4.168 -8.67,0 -16.52,1.391 -23.46,4.211 -6.89,2.769 -12.97,6.82 -18.03,12.019 -5.09,5.258 -8.92,11.43 -11.62,18.52 -2.54,7.148 -3.9,15.008 -3.9,23.598 0,8.691 1.4,16.679 3.98,23.933 2.68,7.258 6.53,13.399 11.51,18.477 5,5.101 10.97,9.09 18.06,11.851 7.11,2.762 14.94,4.168 23.46,4.168 8.69,0 16.58,-1.406 23.71,-4.218 7.03,-2.801 13.07,-6.829 18.16,-11.93 5.08,-5.289 8.91,-11.43 11.55,-18.551 2.58,-7.18 3.9,-15.078 3.9,-23.73"
         style="fill:#d0cfd2;fill-opacity:1;fill-rule:nonzero;stroke:none"
         id="path302"
         inkscape:connector-curvature="0" /><path
         d="m 5045.61,261.461 0,-38.18 c 0,-6.031 -1.31,-10.48 -4.07,-13.531 -2.77,-3.031 -6.33,-4.539 -10.84,-4.539 -4.33,0 -7.91,1.508 -10.52,4.539 -2.74,3.051 -4.11,7.5 -4.11,13.531 l 0,45.77 c 0,7.23 -0.23,12.859 -0.72,16.89 -0.51,3.899 -1.85,7.2 -4,9.797 -2.19,2.551 -5.65,3.852 -10.31,3.852 -9.44,0 -15.59,-3.211 -18.56,-9.75 -2.95,-6.379 -4.49,-15.68 -4.49,-27.781 l 0,-38.778 c 0,-5.929 -1.37,-10.441 -4.03,-13.492 -2.73,-3.07 -6.28,-4.578 -10.68,-4.578 -4.35,0 -7.93,1.508 -10.7,4.578 -2.78,3.051 -4.18,7.563 -4.18,13.492 l 0,82.188 c 0,5.351 1.29,9.5 3.73,12.301 2.56,2.812 5.82,4.218 9.86,4.218 3.95,0 7.21,-1.367 9.87,-3.957 2.61,-2.609 3.9,-6.242 3.9,-10.89 l 0,-2.719 c 5.04,5.898 10.35,10.348 16.02,13.098 5.72,2.851 11.97,4.269 18.96,4.269 7.21,0 13.4,-1.469 18.58,-4.309 5.19,-2.921 9.45,-7.289 12.83,-13.058 4.88,5.848 10.08,10.258 15.6,13.098 5.55,2.8 11.68,4.269 18.4,4.269 7.83,0 14.65,-1.617 20.33,-4.68 5.65,-3.05 9.87,-7.539 12.68,-13.179 2.48,-5.25 3.67,-13.43 3.67,-24.571 l 0,-56.078 c 0,-6.031 -1.37,-10.48 -4.08,-13.531 -2.7,-3.031 -6.35,-4.539 -10.84,-4.539 -4.36,0 -7.89,1.508 -10.66,4.578 -2.78,3.051 -4.16,7.563 -4.16,13.492 l 0,48.328 c 0,6.172 -0.28,11.102 -0.79,14.84 -0.52,3.692 -1.93,6.813 -4.23,9.34 -2.35,2.5 -5.88,3.801 -10.55,3.801 -3.77,0 -7.38,-1.211 -10.78,-3.418 -3.4,-2.223 -6.06,-5.281 -7.99,-8.981 -2.05,-4.89 -3.14,-13.441 -3.14,-25.73"
         style="fill:#d0cfd2;fill-opacity:1;fill-rule:nonzero;stroke:none"
         id="path304"
         inkscape:connector-curvature="0" /><path
         d="m 3779.12,195.172 c 0,0 -15.68,2.508 -30.98,19.219 -15.39,16.89 -17.98,34.73 -17.98,34.73 0,0 19.53,-4.582 33.55,-6.152 24.75,-2.797 47.01,-1.25 57.5,-0.09 22.74,2.512 34.83,6.68 39.75,7.883 29.02,6.988 56.93,25.769 56.93,25.769 0,0 3.54,-21.801 -12.85,-46 -6.41,-9.441 -19.16,-20.293 -33.83,-27.781 -50.27,-21.441 -92.09,-7.578 -92.09,-7.578"
         style="fill:#d0cfd2;fill-opacity:1;fill-rule:evenodd;stroke:none"
         id="path306"
         inkscape:connector-curvature="0" /><path
         d="m 3869.43,293.441 c -10.41,-0.589 -19.37,7.239 -20.04,17.598 -0.64,10.332 7.31,19.293 17.7,19.93 10.39,0.703 19.41,-7.199 20.04,-17.5 0.66,-10.367 -7.31,-19.348 -17.7,-20.028 m -84.53,-21.23 c -16.54,-1.051 -30.78,11.379 -31.81,27.891 -1.02,16.41 11.58,30.66 28.1,31.668 16.56,1.128 30.84,-11.399 31.82,-27.809 1.05,-16.469 -11.56,-30.711 -28.11,-31.75 m 112.91,46.91 c -5.37,6.539 -23.38,37.359 -59.78,41.859 -9.3,1.11 -58.54,-0.82 -88.07,-28.121 -2.91,-2.777 -17.91,-15.929 -22.87,-40.468 -3.89,-18.93 2.46,-40.262 2.46,-40.262 0,0 32.75,-6.84 57.42,-6.188 39.12,0.957 58.83,4.43 79.28,10.61 30.12,9.109 51.46,24.398 51.46,24.398 0,0 -14.47,31.59 -19.9,38.172"
         style="fill:#d0cfd2;fill-opacity:1;fill-rule:evenodd;stroke:none"
         id="path308"
         inkscape:connector-curvature="0" /><path
         d="m 3883.67,340.469 9.51,11.41 c 0,0 13.13,-6.488 21.59,-18.629 8.39,-12.129 13.88,-23.219 13.88,-23.219 l -15.7,-9.539 c 0,0 -4.86,11.699 -12.17,21.09 -7.28,9.34 -17.11,18.887 -17.11,18.887"
         style="fill:#d0cfd2;fill-opacity:1;fill-rule:evenodd;stroke:none"
         id="path310"
         inkscape:connector-curvature="0" /><path
         d="m 3913.52,332.539 c 2.46,1.449 6.6,1.711 6.34,5.172 -0.17,3.469 -2.52,10.309 4.34,12.648 6.89,2.321 3.01,-2.05 0.64,-5.058 -2.36,-3.012 -1.6,-4.871 -1.3,-9.289 0.25,-4.383 -2.84,-5.883 -7.49,-8.051 -4.66,-2.191 -5.01,3.109 -2.53,4.578"
         style="fill:#d0cfd2;fill-opacity:1;fill-rule:evenodd;stroke:none"
         id="path312"
         inkscape:connector-curvature="0" /><path
         d="m 3739.1,325.531 c 0,0 -11.01,-12.793 -13.83,-24.34 -2.77,-11.601 -2.2,-25.55 -2.2,-25.55 l -16.29,5.609 c 0,0 -0.94,16.039 6.48,28.969 8.24,14.39 18.79,20.801 18.79,20.801 l 7.05,-5.489"
         style="fill:#d0cfd2;fill-opacity:1;fill-rule:evenodd;stroke:none"
         id="path314"
         inkscape:connector-curvature="0" /><path
         d="m 3715.12,310.992 c -2.66,1.707 -2.91,5.828 -5,8.539 -2.09,2.758 -2.62,1.09 -7.41,1.09 -4.78,0 -4.92,2.277 -6.26,3.438 -1.37,1.211 -2.02,-3.637 -2.02,-3.637 0,0 0.88,-4.063 6.02,-4.363 5.1,-0.289 4.98,2.222 7.17,-2.387 2.2,-4.652 6.56,-8.152 6.56,-8.152 0,0 3.61,3.71 0.94,5.472"
         style="fill:#d0cfd2;fill-opacity:1;fill-rule:evenodd;stroke:none"
         id="path316"
         inkscape:connector-curvature="0" /><path
         d="m 3801.62,371.691 c 26.74,6.7 43.46,-1.011 43.46,-1.011 l -1.43,-7.7 c 0,0 -19.53,1.301 -35.04,-1 -15.47,-2.23 -22.52,-7.128 -22.52,-7.128 l -3.36,7.679 c 0,0 7.33,6.258 18.89,9.16"
         style="fill:#d0cfd2;fill-opacity:1;fill-rule:evenodd;stroke:none"
         id="path318"
         inkscape:connector-curvature="0" /><path
         d="m 3809.63,382.672 3.77,1.359 4.96,-13.312 -3.73,-1.43 -5,13.383"
         style="fill:#d0cfd2;fill-opacity:1;fill-rule:evenodd;stroke:none"
         id="path320"
         inkscape:connector-curvature="0" /><path
         d="m 3927.42,357.898 c 3.77,0.211 7.01,-2.668 7.23,-6.41 0.27,-3.777 -2.6,-6.988 -6.39,-7.238 -3.79,-0.25 -7.03,2.641 -7.24,6.359 -0.26,3.782 2.61,7 6.4,7.289"
         style="fill:#d0cfd2;fill-opacity:1;fill-rule:evenodd;stroke:none"
         id="path322"
         inkscape:connector-curvature="0" /><path
         d="m 3692.6,332.039 c 3.75,0.25 7.01,-2.617 7.26,-6.379 0.22,-3.738 -2.63,-6.93 -6.44,-7.168 -3.75,-0.262 -6.99,2.578 -7.25,6.317 -0.23,3.761 2.66,6.961 6.43,7.23"
         style="fill:#d0cfd2;fill-opacity:1;fill-rule:evenodd;stroke:none"
         id="path324"
         inkscape:connector-curvature="0" /><path
         d="m 3812.91,399.711 c 6,0.34 11.19,-4.141 11.56,-10.16 0.35,-5.922 -4.22,-11.11 -10.23,-11.5 -6.02,-0.41 -11.15,4.121 -11.54,10.129 -0.41,6 4.18,11.172 10.21,11.531"
         style="fill:#d0cfd2;fill-opacity:1;fill-rule:evenodd;stroke:none"
         id="path326"
         inkscape:connector-curvature="0" /><path
         d="m 2922.85,268.102 c -10.45,0 -15.62,-10.942 -15.62,-20.43 0,-9.352 5.17,-20.274 15.62,-20.274 10.98,0 15.72,11.161 15.72,20.973 0,9.731 -5,19.731 -15.72,19.731 m 35.82,-47.071 c 0,-6.73 -4.22,-11.152 -10.08,-11.152 -5.52,0 -8.75,3.012 -10.02,8.371 -3.77,-6.148 -11.54,-9.168 -18.37,-9.168 -20.22,0 -33.03,18.707 -33.03,37.699 0,19.571 10.72,39.75 32.34,39.75 6.95,0 13.77,-2.429 19.06,-6.992 l 0,27.34 c 0,6.672 4.18,11.101 10.02,11.101 5.86,0 10.08,-4.429 10.08,-11.101 l 0,-85.848"
         style="fill:#d0cfd2;fill-opacity:1;fill-rule:nonzero;stroke:none"
         id="path328"
         inkscape:connector-curvature="0" /><path
         d="m 3017.73,254.469 c -1.09,8.801 -6.68,15.301 -16.03,15.301 -8.91,0 -14.92,-6.79 -15.88,-15.301 l 31.91,0 z m -31.52,-13.391 c 1.45,-9.848 9.63,-14.496 19.02,-14.496 10.28,0 17.37,8.047 22.7,8.047 4.3,0 8.16,-4.258 8.16,-8.637 0,-8.64 -17.79,-16.91 -32.71,-16.91 -22.6,0 -37.62,16.41 -37.62,38.59 0,20.34 14.77,38.859 35.94,38.859 21.74,0 36.09,-19.769 36.09,-36.519 0,-5.981 -2.65,-8.934 -8.77,-8.934 l -42.81,0"
         style="fill:#d0cfd2;fill-opacity:1;fill-rule:nonzero;stroke:none"
         id="path330"
         inkscape:connector-curvature="0" /><path
         d="m 3087.15,263.109 c -3.77,0 -11.43,5.891 -17.99,5.891 -3.61,0 -6.84,-1.699 -6.84,-5.641 0,-9.339 34.85,-7.929 34.85,-30.777 0,-13.352 -11.27,-23.5 -28.6,-23.5 -11.27,0 -27.98,6.359 -27.98,15.406 0,3.051 3.06,8.883 8.63,8.883 7.81,0 11.29,-6.789 20.74,-6.789 6.15,0 7.97,1.977 7.97,5.738 0,9.211 -34.82,7.801 -34.82,30.789 0,13.922 11.28,23.422 27.18,23.422 9.87,0 25.06,-4.621 25.06,-14.531 0,-4.559 -3.47,-8.891 -8.2,-8.891"
         style="fill:#d0cfd2;fill-opacity:1;fill-rule:nonzero;stroke:none"
         id="path332"
         inkscape:connector-curvature="0" /><path
         d="m 3103.98,274.5 c 0,6.699 4.18,11.191 10.04,11.191 5.84,0 10.02,-4.492 10.02,-11.191 l 0,-53.469 c 0,-6.73 -4.18,-11.152 -10.02,-11.152 -5.86,0 -10.04,4.422 -10.04,11.152 l 0,53.469 z m 21.33,30.27 c 0,-6.29 -5,-11.59 -11.29,-11.59 -5.99,0 -11.29,5.449 -11.29,11.59 0,5.71 5.3,11 11.29,11 5.98,0 11.29,-5.129 11.29,-11"
         style="fill:#d0cfd2;fill-opacity:1;fill-rule:nonzero;stroke:none"
         id="path334"
         inkscape:connector-curvature="0" /><path
         d="m 3167.93,268.102 c -10.43,0 -15.57,-10.84 -15.57,-20.192 0,-10.73 5.14,-20.512 15.57,-20.512 10.72,0 15.76,10.082 15.76,19.852 0,9.699 -4.73,20.852 -15.76,20.852 m 35.84,-51.543 c 0,-24.11 -15.76,-36.278 -38.61,-36.278 -8.21,0 -31.64,4.09 -31.64,15.078 0,3.743 4.18,8.782 8.12,8.782 6.39,0 13.5,-6.219 25.06,-6.219 9.78,0 16.99,5.617 16.99,15.879 l 0,4.719 -0.27,0 c -4.16,-6.129 -11.02,-9.438 -20.2,-9.438 -21.03,0 -30.95,18.457 -30.95,38.418 0,20.199 12.79,39.031 33.02,39.031 6.86,0 14.61,-3.07 18.4,-9.179 1.27,5.25 4.45,8.339 10.04,8.339 5.84,0 10.04,-4.492 10.04,-11.191 l 0,-57.941"
         style="fill:#d0cfd2;fill-opacity:1;fill-rule:nonzero;stroke:none"
         id="path336"
         inkscape:connector-curvature="0" /><path
         d="m 3215.18,274.5 c 0,6.699 4.16,11.191 10.03,11.191 5.14,0 8.52,-2.781 9.18,-7.453 3.93,5.473 9.89,8.293 19.38,8.293 15.74,0 27.44,-10.051 27.44,-27.019 l 0,-38.481 c 0,-6.73 -4.12,-11.152 -10,-11.152 -5.82,0 -10.06,4.422 -10.06,11.152 l 0,34.949 c 0,9.34 -5.82,13.79 -13.08,13.79 -8.25,0 -12.82,-6 -12.82,-13.79 l 0,-34.949 c 0,-6.73 -4.2,-11.152 -10.04,-11.152 -5.87,0 -10.03,4.422 -10.03,11.152 l 0,53.469"
         style="fill:#d0cfd2;fill-opacity:1;fill-rule:nonzero;stroke:none"
         id="path338"
         inkscape:connector-curvature="0" /><path
         d="m 3340.31,254.469 c -1.11,8.801 -6.7,15.301 -16.03,15.301 -8.93,0 -14.94,-6.79 -15.88,-15.301 l 31.91,0 z m -31.5,-13.391 c 1.4,-9.848 9.61,-14.496 18.96,-14.496 10.34,0 17.43,8.047 22.7,8.047 4.33,0 8.26,-4.258 8.26,-8.637 0,-8.64 -17.87,-16.91 -32.77,-16.91 -22.6,0 -37.62,16.41 -37.62,38.59 0,20.34 14.77,38.859 35.94,38.859 21.76,0 36.09,-19.769 36.09,-36.519 0,-5.981 -2.66,-8.934 -8.77,-8.934 l -42.79,0"
         style="fill:#d0cfd2;fill-opacity:1;fill-rule:nonzero;stroke:none"
         id="path340"
         inkscape:connector-curvature="0" /><path
         d="m 3400.23,268.102 c -10.46,0 -15.6,-10.942 -15.6,-20.43 0,-9.352 5.14,-20.274 15.6,-20.274 10.98,0 15.75,11.161 15.75,20.973 0,9.731 -5.02,19.731 -15.75,19.731 m 35.81,-47.071 c 0,-6.73 -4.2,-11.152 -10.06,-11.152 -5.55,0 -8.73,3.012 -10,8.371 -3.79,-6.148 -11.57,-9.168 -18.4,-9.168 -20.2,0 -33.01,18.707 -33.01,37.699 0,19.571 10.72,39.75 32.34,39.75 6.94,0 13.77,-2.429 19.07,-6.992 l 0,27.34 c 0,6.672 4.18,11.101 10,11.101 5.86,0 10.06,-4.429 10.06,-11.101 l 0,-85.848"
         style="fill:#d0cfd2;fill-opacity:1;fill-rule:nonzero;stroke:none"
         id="path342"
         inkscape:connector-curvature="0" /><path
         d="m 3520.63,227.398 c 10.44,0 15.58,10.922 15.58,20.274 0,9.488 -5.14,20.43 -15.58,20.43 -10.73,0 -15.75,-10 -15.75,-19.731 0,-9.812 4.77,-20.973 15.75,-20.973 m -35.84,79.481 c 0,6.672 4.21,11.101 10.07,11.101 5.86,0 10.02,-4.429 10.02,-11.101 l 0,-27.34 c 5.32,4.563 12.11,6.992 19.08,6.992 21.61,0 32.33,-20.179 32.33,-39.75 0,-18.992 -12.79,-37.699 -33.03,-37.699 -6.83,0 -14.63,3.02 -18.38,9.168 -1.27,-5.359 -4.45,-8.371 -10.02,-8.371 -5.86,0 -10.07,4.422 -10.07,11.152 l 0,85.848"
         style="fill:#d0cfd2;fill-opacity:1;fill-rule:nonzero;stroke:none"
         id="path344"
         inkscape:connector-curvature="0" /><path
         d="m 3559.79,271.898 c -0.57,1.512 -1,3.063 -1,5.133 0,5.059 5.29,8.66 9.49,8.66 4.85,0 8.34,-2.679 10.04,-7.089 l 13.75,-37.821 14.81,37.821 c 1.67,4.41 5.13,7.089 10.03,7.089 4.18,0 9.46,-3.601 9.46,-8.66 0,-2.07 -0.28,-3.621 -0.96,-5.133 l -33.59,-83.636 c -1.64,-4.153 -4.73,-7.981 -9.48,-7.981 -6.81,0 -10.43,4.379 -10.43,8.641 0,2.027 0.57,4.078 1.22,5.879 l 8.8,21.758 -22.14,55.339"
         style="fill:#d0cfd2;fill-opacity:1;fill-rule:nonzero;stroke:none"
         id="path346"
         inkscape:connector-curvature="0" /><g
         id="g348"><g
           id="g350"
           clip-path="url(#clipPath352)"><path
             d="m 531.145,7192.3 c -4.321,-5.09 -1.528,-9.42 1.406,-12.35 l 3.301,-3.31 c 5.601,-5.59 9.293,-3.18 12.617,0.13 7.383,7.38 10.176,20.88 10.176,20.88 l -12.344,12.35 -15.156,-17.7"
             style="fill:#d0cfd2;fill-opacity:1;fill-rule:nonzero;stroke:none"
             id="path356"
             inkscape:connector-curvature="0" /><path
             d="m 346.465,7014.51 c -15.149,15.15 -22.781,16.67 -28.504,10.94 -6.762,-6.75 -10.449,-13.75 -11.848,-19.99 l 33.489,-33.48 c 6.484,2.93 12.207,7.13 18.457,13.37 5.601,5.61 5.593,11.97 -11.594,29.16"
             style="fill:#d0cfd2;fill-opacity:1;fill-rule:nonzero;stroke:none"
             id="path358"
             inkscape:connector-curvature="0" /><path
             d="m 192.844,6866.99 -43.789,22.92 22.144,-44.56 21.645,21.64"
             style="fill:#d0cfd2;fill-opacity:1;fill-rule:nonzero;stroke:none"
             id="path360"
             inkscape:connector-curvature="0" /><path
             d="m 958.152,7648.35 c -8.523,8.53 -11.328,8.78 -19.851,0.25 -9.422,-9.42 -12.356,-13.37 2.414,-27.88 l 16.93,16.94 c 3.695,3.69 3.832,7.38 0.507,10.69"
             style="fill:#d0cfd2;fill-opacity:1;fill-rule:nonzero;stroke:none"
             id="path362"
             inkscape:connector-curvature="0" /><path
             d="m 275.691,6943.74 c -15.144,15.15 -22.769,16.67 -28.503,10.94 -6.75,-6.75 -10.442,-13.74 -11.844,-19.98 l 33.496,-33.49 c 6.48,2.94 12.207,7.14 18.445,13.37 5.598,5.61 5.598,11.97 -11.594,29.16"
             style="fill:#d0cfd2;fill-opacity:1;fill-rule:nonzero;stroke:none"
             id="path364"
             inkscape:connector-curvature="0" /><path
             d="m 659.055,7368.34 c -10.571,-10.57 -10.825,-15.15 8.14,-34.12 17.446,-17.44 22.668,-15.53 32.09,-6.11 10.063,10.05 11.711,14.26 -6.109,32.08 -18.965,18.97 -23.418,18.85 -34.121,8.15"
             style="fill:#d0cfd2;fill-opacity:1;fill-rule:nonzero;stroke:none"
             id="path366"
             inkscape:connector-curvature="0" /><path
             d="m 1106.94,7797.13 c -8.53,8.53 -11.32,8.79 -19.85,0.26 -9.42,-9.43 -12.35,-13.37 2.41,-27.88 l 16.94,16.93 c 3.69,3.69 3.82,7.38 0.5,10.69"
             style="fill:#d0cfd2;fill-opacity:1;fill-rule:nonzero;stroke:none"
             id="path368"
             inkscape:connector-curvature="0" /><path
             d="m 1217.94,7818 c -12.85,-12.86 -33.6,-32.34 -41.37,-34 l -11.08,11.08 31.96,31.96 c 1.13,1.14 4.33,4.58 0.13,8.78 l -3.19,3.18 c -2.8,2.8 -5.08,3.57 -8.77,-0.12 l -15.81,-15.79 c -11.96,-11.97 -24.06,-13.88 -37.16,-0.77 l -5.86,5.86 c -10.44,10.44 -13.75,22.66 -0.65,35.78 12.99,12.98 31.33,30.55 39.61,32.72 l 11.2,-11.21 -30.68,-30.68 c -4.58,-4.58 -3.69,-6.75 -0.51,-9.93 l 3.06,-3.06 c 4.2,-4.2 6.61,-2.03 9.54,0.9 l 16.04,16.04 c 12.86,12.86 25.6,10.31 35.53,0.38 l 6.88,-6.87 c 13.86,-13.88 9.28,-26.1 1.13,-34.25 z m -84,-84.01 c -17.19,-17.19 -32.21,-12.35 -57.04,12.47 -29.03,29.03 -25.85,42.15 -4.46,63.54 19.61,19.61 30.81,26.48 53.21,4.07 12.11,-12.1 10.45,-23.68 -1.77,-35.91 l -21.52,-21.52 c 12.1,-12.09 17.44,-8.26 27.12,1.41 10.31,10.31 15.41,15.15 23.42,26.23 l 12.11,-12.1 c -6,-13.11 -20.51,-27.63 -31.07,-38.19 z m -51.18,-49.9 -67.59,67.6 17.82,17.83 67.61,-67.61 -17.84,-17.82 z m -52.69,-52.7 -67.597,67.61 15.015,15.02 11.328,-5.73 c 0,9.17 1.789,20.12 10.2,28.53 2.924,2.93 5.724,5.72 8.274,6.74 l 17.17,-17.18 c -1.89,-1.66 -6.23,-5.48 -10.17,-9.43 -7.39,-7.38 -11.47,-14 -9.55,-24.57 l 43.16,-43.16 -17.83,-17.83 z m -44.925,-46.18 c -17.184,-17.19 -32.207,-12.36 -57.032,12.47 -29.019,29.03 -25.847,42.14 -4.453,63.53 19.602,19.61 30.805,26.49 53.203,4.08 12.114,-12.11 10.45,-23.69 -1.773,-35.91 l -21.504,-21.52 c 12.09,-12.09 17.437,-8.27 27.105,1.4 10.317,10.31 15.414,15.15 23.429,26.23 l 12.1,-12.1 c -6,-13.1 -20.505,-27.62 -31.075,-38.18 z m -56.629,-57.4 c -15.911,-15.92 -27.371,-25.34 -39.856,-32.21 l -14.004,14 c 5.61,4.58 22.032,19.22 33.867,31.06 5.356,5.35 10.579,12.35 3.442,19.48 l -4.961,4.97 c -5.356,5.35 -10.316,7.26 -17.191,0.38 l -14.254,-14.26 c -22.539,-22.53 -40.625,-7.51 -48.774,0.64 l -8.008,8.01 c -18.472,18.47 -12.871,34.77 1.133,49.28 13.125,13.63 30.18,27.12 39.731,32.34 l 14.004,-14.01 c -8.911,-7.38 -27.875,-25.33 -32.461,-29.92 -7.891,-7.64 -11.836,-12.6 -3.188,-21.26 l 4.582,-4.58 c 7.395,-7.38 11.707,-6.11 18.84,1.02 l 14.773,14.77 c 18.329,18.33 36.414,7.64 46.731,-2.68 l 6.226,-6.23 c 21.145,-21.15 11.973,-38.2 -0.632,-50.8 z M 796.145,7397.47 750.82,7442.8 c -6.621,6.62 -12.215,6.11 -16.672,1.65 -7.128,-7.13 -9.175,-12.99 -10.449,-22.15 l 48.637,-48.64 -17.816,-17.82 -67.606,67.6 14.258,14.26 10.82,-3.69 c 1.531,9.94 2.676,19.48 12.988,29.79 15.79,15.79 31.067,9.43 43.926,-3.43 l 45.071,-45.07 -17.832,-17.83 z m -82.485,-83.75 c -23.289,-23.29 -40.097,-21.52 -64.285,2.67 -27.629,27.63 -27.371,43.42 -4.578,66.21 23.301,23.3 39.336,22.28 66.199,-4.59 25.078,-25.08 26.359,-40.61 2.664,-64.29 z m -59.695,-58.43 -67.61,67.6 17.833,17.83 67.597,-67.6 -17.82,-17.83 z m -24.563,-24.56 c -9.922,-9.93 -22.769,-10.31 -40.742,7.64 l -29.922,29.92 -10.933,-10.95 -9.934,9.93 7.258,14.64 -15.918,21.77 14.898,14.9 18.84,-18.84 15.149,15.15 13.632,-13.62 -15.16,-15.15 27.121,-27.12 c 9.93,-9.93 14.383,-9.81 19.09,-7.64 0,0 10.317,4.97 11.211,5.86 l 10.949,-10.95 -15.539,-15.54 z m -48.218,-48.23 -11.079,3.69 c 0.625,-2.16 -1.914,-18.71 -12.476,-28.77 -13.383,-12.61 -28.266,-9.93 -37.055,-1.15 l -6.363,6.37 c -9.926,9.93 -13.242,23.94 1.269,38.45 0,0 20,19.73 19.864,19.86 0,0 -4.074,4.33 -4.328,4.33 -7.254,7.26 -11.707,4.84 -17.317,-0.76 -5.984,-5.99 -21.902,-23.94 -26.988,-29.8 l -11.074,11.08 c 5.468,12.34 13.75,22.67 26.343,35.27 14.512,14.52 29.415,19.48 46.211,2.67 l 47.114,-47.11 -14.121,-14.13 z m -82.368,-83.62 c -12.593,-12.61 -28.894,-15.66 -56.773,12.21 -27.883,27.89 -25.078,43.68 -12.094,56.66 6.621,6.63 20.371,19.61 35.141,27 l 10.945,-10.96 c 0,0 -12.859,-11.33 -24.187,-22.66 -8.285,-8.28 -11.582,-12.61 8.394,-32.59 17.317,-17.31 22.668,-16.81 31.836,-7.64 11.711,11.71 23.164,25.46 23.164,25.46 l 11.211,-11.2 c -4.707,-14.89 -17.183,-25.59 -27.637,-36.28 z m -51.171,-49.9 -67.594,67.6 17.82,17.82 67.609,-67.6 -17.835,-17.82 z m -22.008,-22.02 c -11.074,-11.08 -23.559,-11.33 -41.504,6.63 l -75.625,75.62 17.82,17.83 72.832,-72.84 c 9.793,-9.8 14.258,-9.67 19.094,-7.38 0,0 10.309,4.97 11.199,5.86 l 10.945,-10.95 -14.761,-14.77 z m -53.828,-122.59 -101.973,101.99 14.629,14.64 9.805,-3.7 c 0.886,7.52 4.96,20 12.988,28.02 16.68,16.67 36.035,8.02 56.277,-12.23 19.602,-19.61 31.824,-38.44 13.106,-57.16 -5.735,-5.73 -15.911,-12.86 -24.817,-16.17 l 37.68,-37.68 -17.695,-17.71 z m -70.762,-70.76 -101.992,101.98 14.644,14.64 9.809,-3.69 c 0.879,7.51 4.961,19.99 12.984,28.01 16.684,16.68 36.028,8.02 56.274,-12.23 19.605,-19.6 31.824,-38.44 13.101,-57.15 -5.722,-5.73 -15.894,-12.87 -24.812,-16.18 l 37.683,-37.68 -17.691,-17.7 z m -60.957,7.8 -27.246,14 -30.571,-30.56 13.887,-27.37 -19.097,-19.1 -61.75,124.64 20.246,20.25 123.496,-62.89 -18.965,-18.97 z m 117.801,302.16 13.371,13.37 c 1.914,1.91 4.336,1.27 6.109,-0.51 l 11.215,-11.2 c 1.902,-1.91 1.894,-3.95 0.113,-5.73 l -13.367,-13.37 c -1.785,-1.78 -4.211,-1.91 -5.984,-0.13 l -11.196,11.2 c -2.047,2.04 -2.3,4.34 -0.261,6.37 z m 206.32,206.32 13.367,13.37 c 1.902,1.91 4.324,1.26 6.113,-0.52 l 11.204,-11.2 c 1.914,-1.91 1.914,-3.94 0.125,-5.72 l -13.372,-13.37 c -1.777,-1.79 -4.199,-1.91 -5.972,-0.14 l -11.211,11.21 c -2.031,2.04 -2.285,4.33 -0.254,6.37 z m 428.797,428.8 13.372,13.36 c 1.91,1.91 4.33,1.27 6.11,-0.51 l 11.21,-11.2 c 1.9,-1.91 1.9,-3.95 0.12,-5.73 l -13.37,-13.36 c -1.79,-1.79 -4.21,-1.91 -5.99,-0.14 l -11.19,11.2 c -2.047,2.05 -2.301,4.34 -0.262,6.38 z m 573.852,767.44 -2101.294,-2101.31 295.313,-295.31 2101.291,2101.32 -295.31,295.3"
             style="fill:#d0cfd2;fill-opacity:1;fill-rule:nonzero;stroke:none"
             id="path370"
             inkscape:connector-curvature="0" /></g></g></g></g></svg>