<?xml version="1.0" encoding="UTF-8" standalone="no"?>
<!-- Created with Inkscape (http://www.inkscape.org/) -->

<svg
   xmlns:dc="http://purl.org/dc/elements/1.1/"
   xmlns:cc="http://creativecommons.org/ns#"
   xmlns:rdf="http://www.w3.org/1999/02/22-rdf-syntax-ns#"
   xmlns:svg="http://www.w3.org/2000/svg"
   xmlns="http://www.w3.org/2000/svg"
   xmlns:sodipodi="http://sodipodi.sourceforge.net/DTD/sodipodi-0.dtd"
   xmlns:inkscape="http://www.inkscape.org/namespaces/inkscape"
   id="svg2"
   version="1.1"
   inkscape:version="0.91 r13725"
   xml:space="preserve"
   width="6250"
   height="6250"
   viewBox="0 0 6250 6250"
   sodipodi:docname="297.svg"><metadata
     id="metadata8"><rdf:RDF><cc:Work
         rdf:about=""><dc:format>image/svg+xml</dc:format><dc:type
           rdf:resource="http://purl.org/dc/dcmitype/StillImage" /><dc:title></dc:title></cc:Work></rdf:RDF></metadata><defs
     id="defs6"><linearGradient
       x1="0"
       y1="0"
       x2="1"
       y2="0"
       gradientUnits="userSpaceOnUse"
       gradientTransform="matrix(6.454793e-7,14669.984,14669.984,-6.454793e-7,7334.992,-7.6283917e-5)"
       spreadMethod="pad"
       id="linearGradient14"><stop
         style="stop-opacity:1;stop-color:#1d191c"
         offset="0"
         id="stop16" /><stop
         style="stop-opacity:1;stop-color:#363c48"
         offset="0.241935"
         id="stop18" /><stop
         style="stop-opacity:1;stop-color:#356b72"
         offset="0.521505"
         id="stop20" /><stop
         style="stop-opacity:1;stop-color:#ae977c"
         offset="0.784946"
         id="stop22" /><stop
         style="stop-opacity:1;stop-color:#f03f33"
         offset="1"
         id="stop24" /></linearGradient></defs><sodipodi:namedview
     pagecolor="#ffffff"
     bordercolor="#666666"
     borderopacity="1"
     objecttolerance="10"
     gridtolerance="10"
     guidetolerance="10"
     inkscape:pageopacity="0"
     inkscape:pageshadow="2"
     inkscape:window-width="1680"
     inkscape:window-height="1026"
     id="namedview4"
     showgrid="false"
     inkscape:zoom="0.15104"
     inkscape:cx="3145.4102"
     inkscape:cy="2852.0196"
     inkscape:window-x="1600"
     inkscape:window-y="24"
     inkscape:window-maximized="1"
     inkscape:current-layer="g12" /><g
     id="g10"
     inkscape:groupmode="layer"
     inkscape:label="ink_ext_XXXXXX"
     transform="matrix(1.25,0,0,-1.25,0,6250)"><g
       id="g12"
       transform="scale(0.340832,0.340832)"><path
         d="m 0,0 14670,0 0,14670 L 0,14670 0,0 Z"
         style="fill:url(#linearGradient14);fill-opacity:1;fill-rule:nonzero;stroke:none"
         id="path26"
         inkscape:connector-curvature="0" /><path
         d="m 3435.71,6159.11 c 0,-9.91 -2.02,-19.31 -6.51,-27.61 l -0.35,0.06 c -10.89,-20.33 -32.13,-34.71 -56.69,-34.71 l -857.99,0 c -9.67,0 -18.86,2.61 -27.14,6.43 -0.25,0.11 -0.52,0.44 -0.77,0.56 l 0.02,0.14 c -11.8,5.64 -21.66,14.76 -28.29,25.94 l -0.29,-0.68 c -5.28,8.83 -7.81,19.05 -7.81,29.87 l 0,0.91 c 0,1.03 0,2.03 0,3.02 l 0,555.03 c 0,0.26 -0.78,0.79 -0.55,0.79 l 0.36,0 -0.89,0.64 490.06,-0.64 497.4,0 c 0.24,0 -0.56,-0.53 -0.56,-0.79 l 0,0.79 1.09,0 -1.09,-1.09 0,-555.43 c 0,-1.06 0,-2.05 0,-3.08 l 0,-0.15 z m -511.1,994.92 c -397.41,0 -719.57,-322.15 -719.57,-719.56 0,-397.41 322.16,-719.56 719.57,-719.56 397.41,0 719.57,322.15 719.57,719.56 0,397.41 -322.16,719.56 -719.57,719.56"
         style="fill:#ffffff;fill-opacity:1;fill-rule:nonzero;stroke:none"
         id="path238"
         inkscape:connector-curvature="0" /><path
         d="m 3435.71,6717.77 -467.82,-345.18 c -14.5,-10.68 -36.59,-10.5 -51.05,0.21 l -467.14,346.06 -0.36,0 c -0.23,0 0.55,-0.53 0.55,-0.79 l 0,-555.03 c 0,-0.99 0,-1.99 0,-3.02 l 0,520.32 333.1,-247.02 -324.77,-303.34 c 6.63,-11.18 16.38,-20.25 28.17,-25.88 l 327.61,306.08 128.83,-95.48 130.86,96.85 328.08,-305.66 c -9.16,-4.52 -19.6,-6.1 -30.69,-6.1 l -856.56,0 c -9.82,0 -19.13,0.59 -27.49,4.16 8.28,-3.81 17.47,-7.1 27.14,-7.1 l 857.99,0 c 24.56,0 46.04,14.38 56.92,34.71 l -324.47,303.03 331.1,245.78 0,-521.11 c 0,1.03 0,2.02 0,3.08 l 0,555.43"
         style="fill:#ffffff;fill-opacity:1;fill-rule:nonzero;stroke:none"
         id="path240"
         inkscape:connector-curvature="0" /><path
         d="m 1620.32,7853.73 c -3.97,1.97 -7.97,3.96 -11.96,5.96 -8.18,4.11 -16.64,8.36 -24.95,12.41 -39.11,19.13 -71.91,33.83 -103.23,46.33 -0.14,0.05 -0.26,0.11 -0.36,0.14 -32.3,-11.53 -67.61,-17.78 -104.93,-18.6 -25.63,-0.56 -51.11,1.64 -75.69,6.57 -41.47,8.31 -76.79,22.71 -107.99,44.01 -22.46,15.32 -40.01,32.66 -53.64,52.99 -11.63,17.34 -19.25,35.74 -22.85,54.81 -6.71,-0.09 -13.44,-0.12 -20.17,0.03 -54.4,1.17 -107.577,9.77 -158.894,28.1 -8.465,3.03 -15.265,2.53 -23.301,-0.7 -57.207,-22.8 -113.105,-48.53 -168.414,-75.55 -19.961,-9.77 -39.789,-19.8 -59.675,-29.72 -0.364,-0.18 -0.754,-0.3 -1.317,-0.53 13.832,9.68 27.629,18.87 40.926,28.73 27.266,20.21 52.508,42.6 73.059,69.88 14.14,18.78 23.457,39.73 28.507,62.64 0.539,2.44 -0.449,3.61 -2.152,4.93 -22.476,17.43 -42.367,37.38 -58.672,60.77 -20.609,29.54 -33.828,61.96 -37.074,98.02 -3.715,41.23 5.832,79.51 26.457,115.13 21.027,36.33 50.242,64.96 84.523,88.64 43.618,30.13 91.832,49.79 143.161,62.23 48.106,11.68 96.946,15.87 146.336,13.93 46.68,-1.84 92.37,-9.53 136.87,-23.93 42.83,-13.88 82.88,-33.25 118.93,-60.42 31.28,-23.56 57.68,-51.55 76.42,-86.26 17.64,-32.65 25.98,-67.51 23.57,-104.65 -1.31,-20.25 -5.78,-39.41 -12.97,-57.63 27.54,-8.62 51.97,-20.33 74.09,-35.61 25.63,-17.73 44.75,-37.86 58.47,-61.53 15.26,-26.35 21.67,-54.43 19.06,-83.39 -2.23,-24.79 -11.17,-48.53 -26.56,-70.62 -8.86,-12.7 -19.33,-24.2 -31.83,-34.94 2.7,-7.69 6.43,-14.67 11.32,-21.15 10.18,-13.5 23.3,-26.03 41.3,-39.38 5.39,-3.99 10.93,-7.8 16.8,-11.85 2.71,-1.85 5.43,-3.73 8.16,-5.64 l 114.24,-79.86 c 78.33,115.19 124.12,254.29 124.12,404.1 0,397.41 -322.15,719.56 -719.56,719.56 -397.403,0 -719.563,-322.15 -719.563,-719.56 0,-397.41 322.16,-719.57 719.563,-719.57 245.19,0 461.69,122.68 591.61,309.95 l -129.21,50.14 c -0.62,0.21 -1.48,0.56 -2.53,1.09"
         style="fill:#ffffff;fill-opacity:1;fill-rule:nonzero;stroke:none"
         id="path374"
         inkscape:connector-curvature="0" /><path
         d="m 984.719,8361.11 c -21.664,0 -39.223,-17.55 -39.223,-39.23 0,-21.65 17.559,-39.23 39.223,-39.23 21.661,0 39.221,17.58 39.221,39.23 0,21.68 -17.56,39.23 -39.221,39.23"
         style="fill:#ffffff;fill-opacity:1;fill-rule:nonzero;stroke:none"
         id="path376"
         inkscape:connector-curvature="0" /><path
         d="m 1102.69,8361.11 c -21.66,0 -39.22,-17.55 -39.22,-39.23 0,-21.65 17.56,-39.23 39.22,-39.23 21.66,0 39.22,17.58 39.22,39.23 0,21.68 -17.56,39.23 -39.22,39.23"
         style="fill:#ffffff;fill-opacity:1;fill-rule:nonzero;stroke:none"
         id="path378"
         inkscape:connector-curvature="0" /><path
         d="m 1220.66,8361.11 c -21.66,0 -39.22,-17.55 -39.22,-39.23 0,-21.65 17.56,-39.23 39.22,-39.23 21.66,0 39.23,17.58 39.23,39.23 0,21.68 -17.57,39.23 -39.23,39.23"
         style="fill:#ffffff;fill-opacity:1;fill-rule:nonzero;stroke:none"
         id="path380"
         inkscape:connector-curvature="0" /><path
         d="m 1638.23,7889.73 c 0.01,0 0.03,0 0.05,-0.03 -0.02,0.03 -0.04,0.03 -0.05,0.03 z m 3.42,-1.85 c -2.73,1.91 -5.45,3.79 -8.16,5.64 -5.87,4.05 -11.41,7.86 -16.8,11.85 -18,13.35 -31.12,25.88 -41.3,39.38 -4.89,6.48 -8.62,13.46 -11.32,21.15 12.5,10.74 22.97,22.24 31.83,34.94 15.39,22.09 24.33,45.83 26.56,70.62 2.61,28.96 -3.8,57.04 -19.06,83.39 -13.72,23.67 -32.84,43.8 -58.47,61.53 -22.12,15.28 -46.55,26.99 -74.09,35.61 -2.48,-6.25 -5.27,-12.41 -8.38,-18.45 25.22,-7.72 49.08,-18.54 71.03,-33.71 21.3,-14.7 39.44,-32.48 52.51,-55.04 12.8,-22.16 18.73,-45.95 16.43,-71.54 -2.02,-22.41 -10.23,-42.54 -23.03,-60.91 -10.13,-14.52 -22.49,-26.9 -36.45,-37.73 -1.06,-0.82 -1.67,-1.55 -1.33,-3.08 3.13,-14.23 8.92,-27.23 17.7,-38.87 12.77,-16.96 28.45,-30.87 45.39,-43.43 8.25,-6.13 16.83,-11.82 25.42,-17.84 -0.35,0.15 -0.59,0.21 -0.82,0.32 -12.35,6.17 -24.67,12.39 -37.07,18.46 -34.35,16.78 -69.08,32.78 -104.61,46.95 -4.99,1.99 -9.22,2.31 -14.47,0.43 -31.88,-11.41 -64.91,-16.75 -98.7,-17.48 -23.99,-0.5 -47.79,1.5 -71.31,6.19 -36.11,7.25 -70.02,20.01 -100.6,40.9 -18.95,12.94 -35.43,28.43 -48.27,47.59 -9.23,13.76 -15.82,28.46 -19.22,44.27 -6.77,-0.35 -13.55,-0.56 -20.34,-0.67 3.6,-19.07 11.22,-37.47 22.85,-54.81 13.63,-20.33 31.18,-37.67 53.64,-52.99 31.2,-21.3 66.52,-35.7 107.99,-44.01 24.58,-4.93 50.06,-7.13 75.69,-6.57 37.32,0.82 72.63,7.07 104.93,18.6 0.1,-0.03 0.22,-0.09 0.36,-0.14 31.32,-12.5 64.12,-27.2 103.23,-46.33 8.31,-4.05 16.77,-8.3 24.95,-12.41 3.99,-2 7.99,-3.99 11.96,-5.96 1.05,-0.53 1.91,-0.88 2.53,-1.09 l 129.21,-50.14 c 1.28,1.85 2.57,3.67 3.83,5.52 l -114.24,79.86"
         style="fill:#ffffff;fill-opacity:1;fill-rule:nonzero;stroke:none"
         id="path382"
         inkscape:connector-curvature="0" /><path
         d="m 1352.88,8267.22 c -31.36,-1.23 -61.79,-6.54 -90.43,-15.81 -30.57,-9.92 -56.67,-23.18 -79.79,-40.61 -23.38,-17.6 -40.75,-37.26 -53.06,-60.09 l 0,0 c -12.99,-24.06 -18.72,-49.58 -17.01,-75.87 0.36,-5.55 1.11,-11.04 2.13,-16.49 6.79,0.11 13.57,0.32 20.34,0.67 -1.2,5.58 -2.02,11.27 -2.4,17.14 -1.5,23.06 3.68,44.71 14.64,64.98 11.64,21.57 28.04,38.97 47.47,53.61 22.39,16.87 47.27,28.9 73.87,37.53 27.65,8.95 56.02,13.73 85.02,14.84 30.68,1.24 61.02,-1.41 90.9,-8.62 6.05,-1.47 12,-3.17 17.9,-4.96 3.11,6.04 5.9,12.2 8.38,18.45 -6.99,2.21 -14.13,4.26 -21.54,6.05 -30.62,7.42 -63.07,10.5 -96.42,9.18"
         style="fill:#ffffff;fill-opacity:1;fill-rule:nonzero;stroke:none"
         id="path384"
         inkscape:connector-curvature="0" /><path
         d="m 3372.28,2878.31 -447.66,354.81 -447.69,-354.81 c -21.36,-16.95 -52.38,-13.35 -69.32,8.01 -16.94,21.36 -13.37,52.4 8,69.36 l 478.35,379.11 c 17.93,14.23 43.36,14.23 61.28,0 l 85.85,-67.31 c 1.35,21.42 18.98,39.14 40.73,39.14 l 105.38,0 c 22.62,0 40.2,-19.75 40.2,-42.4 l 0,-145.76 205.79,-162.78 c 21.39,-16.96 25.15,-48 8.24,-69.36 -16.95,-21.39 -47.79,-24.96 -69.15,-8.01 z m -74.46,-228.03 c 0,0 -1.18,-159.32 -160.61,-159.32 l -106.39,0 0,240.07 c 0,0 0.65,106.27 -105.61,106.27 -106.3,0 -105.64,-106.27 -105.64,-106.27 l 0,-240.07 c -64.54,0 -107.54,0 -107.54,0 0,0 -159.45,-0.11 -159.45,159.32 0,159.47 0,203.97 0,203.97 l 70.84,54.37 301.21,231.43 301.75,-231.43 71.44,-54.37 0,-203.97 z m -373.21,948.45 c -397.41,0 -719.57,-322.16 -719.57,-719.57 0,-397.37 322.16,-719.56 719.57,-719.56 397.41,0 719.57,322.19 719.57,719.56 0,397.41 -322.16,719.57 -719.57,719.57"
         style="fill:#ffffff;fill-opacity:1;fill-rule:nonzero;stroke:none"
         id="path392"
         inkscape:connector-curvature="0" /><path
         d="m 8217.93,6780.71 c -111.73,0 -202.3,-90.57 -202.3,-202.33 0,-111.73 90.57,-202.3 202.3,-202.3 111.73,0 202.33,90.57 202.33,202.3 0,111.76 -90.6,202.33 -202.33,202.33"
         style="fill:#ffffff;fill-opacity:1;fill-rule:nonzero;stroke:none"
         id="path454"
         inkscape:connector-curvature="0" /><path
         d="m 8582.54,6398.88 c -67.81,-152.27 -149.81,-251.77 -149.81,-251.77 -50.59,-78.34 -214.66,-272.86 -214.66,-272.86 0,0 -164.24,194.52 -214.79,272.86 0,0 -82.12,99.5 -149.93,251.77 0,0 -61.06,108.94 -28.28,238.97 32.8,130.04 126.48,216.18 129.24,211.75 0,0 110.38,99.46 263.76,98.35 153.37,1.11 263.6,-98.35 263.6,-98.35 2.78,4.43 96.32,-81.71 129.12,-211.75 32.78,-130.03 -28.25,-238.97 -28.25,-238.97 z m -365.46,755.15 c -397.41,0 -719.56,-322.15 -719.56,-719.56 0,-397.41 322.15,-719.56 719.56,-719.56 397.41,0 719.56,322.15 719.56,719.56 0,397.41 -322.15,719.56 -719.56,719.56"
         style="fill:#ffffff;fill-opacity:1;fill-rule:nonzero;stroke:none"
         id="path456"
         inkscape:connector-curvature="0" /><path
         d="m 1652.06,6325.59 c -6.65,-32.54 -16.59,-64.52 -29.52,-95.09 -12.68,-29.99 -28.4,-58.95 -46.68,-86 -18.1,-26.79 -38.89,-51.99 -61.79,-74.91 -22.9,-22.88 -48.1,-43.68 -74.9,-61.79 -27.06,-18.27 -56,-33.97 -86.01,-46.67 -30.57,-12.92 -62.56,-22.86 -95.09,-29.52 -33.35,-6.81 -67.67,-10.27 -101.99,-10.27 -34.32,0 -68.63,3.46 -101.97,10.27 -32.52,6.66 -64.505,16.6 -95.071,29.52 -30.004,12.7 -58.937,28.4 -86.004,46.67 -26.797,18.11 -51.992,38.91 -74.887,61.79 -22.902,22.92 -43.687,48.12 -61.793,74.91 -18.285,27.05 -33.992,56.01 -46.683,86 -12.93,30.57 -22.859,62.55 -29.516,95.09 -6.824,33.36 -10.285,67.66 -10.285,101.98 0,34.3 3.461,68.63 10.285,101.96 6.657,32.54 16.586,64.52 29.516,95.09 12.691,30.02 28.398,58.94 46.683,86 18.106,26.81 38.891,52.02 61.793,74.9 22.895,22.89 48.09,43.69 74.887,61.79 27.067,18.28 56,33.98 86.004,46.68 30.566,12.94 62.551,22.86 95.071,29.52 33.34,6.83 67.65,10.27 101.97,10.27 34.32,0 68.64,-3.44 101.99,-10.27 32.53,-6.66 64.52,-16.58 95.09,-29.52 30.01,-12.7 58.95,-28.4 86.01,-46.68 26.8,-18.1 52,-38.9 74.9,-61.79 22.9,-22.88 43.69,-48.09 61.79,-74.9 18.28,-27.06 34,-55.98 46.68,-86 12.93,-30.57 22.87,-62.55 29.52,-95.09 6.82,-33.33 10.28,-67.66 10.28,-101.96 0,-34.32 -3.46,-68.62 -10.28,-101.98 z m -491.61,828.44 c -397.403,0 -719.563,-322.15 -719.563,-719.56 0,-397.41 322.16,-719.56 719.563,-719.56 397.41,0 719.56,322.15 719.56,719.56 0,397.41 -322.15,719.56 -719.56,719.56"
         style="fill:#ffffff;fill-opacity:1;fill-rule:nonzero;stroke:none"
         id="path588"
         inkscape:connector-curvature="0" /><path
         d="m 1582.21,6421.27 c 0,-6.55 -5.35,-11.92 -11.89,-11.92 l -70.44,-0.06 c -6.55,-0.02 -11.92,5.34 -11.92,11.89 -0.01,6.54 5.34,11.91 11.89,11.91 l 70.44,0.09 c 6.55,0 11.91,-5.37 11.92,-11.91 z m -118.91,283.65 -49.78,-49.81 c -4.63,-4.64 -12.21,-4.64 -16.84,0 -4.63,4.6 -4.63,12.2 -0.01,16.81 l 49.78,49.85 c 4.63,4.63 12.21,4.63 16.84,0 4.63,-4.64 4.64,-12.21 0.01,-16.85 z m -5.44,-575.85 c -4.62,-4.64 -12.2,-4.64 -16.84,0 l -49.88,49.7 c -4.64,4.64 -4.65,12.21 -0.03,16.84 4.63,4.64 12.21,4.67 16.84,0.03 l 49.89,-49.73 c 4.63,-4.61 4.64,-12.21 0.02,-16.84 z m -161.13,62.55 -18.04,-10.42 -103.21,178.77 c -5.48,-1.58 -11.25,-2.49 -17.24,-2.49 -34.26,0 -62.13,27.87 -62.13,62.14 0,8.66 1.78,16.9 4.99,24.38 l -133.272,137.99 c -4.648,4.31 -7.586,10.44 -7.586,17.28 0,13 10.543,23.5 23.528,23.5 7.328,0 13.906,-3.37 18.2,-8.65 l 132.43,-137.14 c 7.35,3.08 15.39,4.78 23.84,4.78 21.94,0 41.21,-11.47 52.27,-28.66 l 177.29,22.12 c 0.05,0 0.11,0 0.16,0 l 0.06,0 c 5.32,0.71 10.92,-0.59 15.58,-4.05 9.42,-7.04 11.36,-20.33 4.35,-29.72 -3.32,-4.46 -8.04,-7.22 -13.15,-8.13 -0.43,-0.2 -0.89,-0.32 -1.37,-0.38 l -173.69,-21.68 c -2.35,-17.34 -11.85,-32.42 -25.47,-42.16 l 102.46,-177.48 z m -132.05,-189.21 c -6.55,-0.03 -11.92,5.31 -11.93,11.88 l -0.14,70.42 c -0.02,6.54 5.32,11.91 11.87,11.94 6.55,0 11.92,-5.34 11.93,-11.88 l 0.15,-70.45 c 0.01,-6.54 -5.33,-11.91 -11.88,-11.91 z m -234.125,167.06 -49.676,-49.94 c -4.621,-4.64 -12.195,-4.66 -16.836,-0.03 -4.645,4.61 -4.664,12.18 -0.043,16.84 l 49.676,49.94 c 4.617,4.64 12.191,4.64 16.836,0.03 4.64,-4.61 4.66,-12.2 0.043,-16.84 z m -72.575,554.94 c 4.614,4.63 12.188,4.66 16.836,0.05 l 49.989,-49.61 c 4.644,-4.64 4.675,-12.21 0.062,-16.84 -4.613,-4.67 -12.191,-4.7 -16.836,-0.06 l -49.988,49.61 c -4.648,4.61 -4.676,12.21 -0.063,16.85 z m 295.08,115.42 c 0,6.54 5.19,11.88 11.74,11.88 6.55,0 11.74,-5.34 11.74,-11.88 l 0,-70.45 c 0,-6.54 -5.19,-11.91 -11.74,-11.91 -6.55,0 -11.74,5.37 -11.74,11.91 l 0,70.45 z m -336.412,-432 -70.437,-0.21 c -6.547,-0.03 -11.922,5.31 -11.941,11.86 -0.02,6.54 5.32,11.91 11.867,11.94 l 70.441,0.23 c 6.543,0 11.918,-5.34 11.942,-11.88 0.019,-6.54 -5.321,-11.91 -11.872,-11.94 z M 1529,6705.98 c -8.94,11.94 -18.43,23.44 -28.45,34.45 -2.5,2.75 -5.03,5.48 -7.6,8.18 -51.37,53.87 -115.53,95.44 -187.61,119.82 -7.21,2.44 -14.5,4.73 -21.86,6.81 -7.36,2.08 -14.79,3.99 -22.3,5.72 -7.5,1.74 -15.08,3.29 -22.72,4.67 -26.74,4.78 -54.27,7.25 -82.38,7.25 -96.36,0 -185.881,-29.29 -260.146,-79.46 -9.286,-6.28 -18.329,-12.88 -27.118,-19.77 -5.859,-4.61 -11.605,-9.36 -17.234,-14.23 -5.629,-4.87 -11.141,-9.89 -16.527,-15.03 -13.469,-12.85 -26.164,-26.46 -38.024,-40.84 -4.738,-5.75 -9.347,-11.61 -13.812,-17.57 -2.231,-2.99 -4.43,-6.02 -6.594,-9.04 -4.324,-6.1 -8.508,-12.29 -12.539,-18.57 -4.035,-6.31 -7.922,-12.7 -11.66,-19.19 -5.602,-9.74 -10.863,-19.72 -15.766,-29.86 -29.406,-61.03 -45.887,-129.48 -45.887,-201.75 0,-72.29 16.481,-140.71 45.887,-201.74 8.172,-16.96 17.336,-33.33 27.426,-49.08 12.105,-18.87 25.535,-36.83 40.16,-53.7 7.317,-8.45 14.926,-16.63 22.82,-24.53 5.266,-5.25 10.653,-10.38 16.164,-15.4 82.633,-75.11 192.4,-120.88 312.85,-120.88 28.11,0 55.64,2.49 82.38,7.25 7.64,1.38 15.22,2.93 22.72,4.66 7.51,1.73 14.94,3.64 22.3,5.73 7.36,2.11 14.65,4.37 21.86,6.8 64.63,21.86 122.87,57.53 171.25,103.51 0.25,0.24 0.51,0.47 0.76,0.7 5.32,5.11 10.52,10.31 15.6,15.61 2.57,2.7 5.1,5.43 7.6,8.19 5.5,6.04 10.82,12.24 16,18.57 5.97,7.31 11.73,14.82 17.26,22.48 1.26,1.76 2.5,3.52 3.74,5.28 2.33,3.32 4.62,6.69 6.87,10.09 8.4,12.71 16.19,25.82 23.34,39.35 2.68,5.07 5.3,10.18 7.79,15.37 2.36,4.87 4.59,9.8 6.77,14.76 1.75,3.99 3.45,8.01 5.09,12.06 1.13,2.76 2.22,5.54 3.29,8.33 1.72,4.49 3.37,9.01 4.96,13.56 16.68,47.94 25.78,99.4 25.78,153.03 0,72.27 -16.48,140.72 -45.89,201.75 -13.06,27.11 -28.69,52.78 -46.55,76.66"
         style="fill:#ffffff;fill-opacity:1;fill-rule:nonzero;stroke:none"
         id="path590"
         inkscape:connector-curvature="0" /><path
         d="m 10301.3,4367.46 c 0,-57.65 -46.7,-104.36 -104.4,-104.36 l -392.73,0 c -57.66,0 -104.37,46.71 -104.37,104.36 l 0,334.07 c 0,57.65 46.71,104.36 104.37,104.36 l 392.73,0 c 57.7,0 104.4,-46.71 104.4,-104.36 l 0,-334.07 z m -306.01,784.29 c 123.21,0 223.11,-143.41 223.11,-328.25 l -91.7,0 c -0.4,126.16 -55.7,228.29 -131.41,228.29 -75.7,0 -127.69,-102.13 -128.01,-228.29 l -95.12,0 c 0,184.84 99.9,328.25 223.13,328.25 z m -14.06,224.63 c -397.41,0 -719.56,-322.15 -719.56,-719.56 0,-397.41 322.15,-719.57 719.56,-719.57 397.37,0 719.57,322.16 719.57,719.57 0,397.41 -322.2,719.56 -719.57,719.56"
         style="fill:#ffffff;fill-opacity:1;fill-rule:nonzero;stroke:none"
         id="path642"
         inkscape:connector-curvature="0" /><path
         d="m 9996.2,4673.16 c -51.61,0 -93.04,-41.84 -93.04,-93.45 0,-36.58 25.5,-68.21 51.9,-83.56 l 0,-112.34 c 0,-22.97 22.48,-41.78 45.44,-41.78 23,0 45.5,18.81 45.5,41.78 l 0,112.34 c 20.6,15.35 47.6,46.98 47.6,83.56 0,51.61 -45.8,93.45 -97.4,93.45"
         style="fill:#ffffff;fill-opacity:1;fill-rule:nonzero;stroke:none"
         id="path644"
         inkscape:connector-curvature="0" /><path
         d="m 13812.8,8094.91 c -2.2,5.86 -4.4,10.21 -6.7,14.64 -28.5,53.98 -71.3,94.09 -124.2,115.66 6.1,8.15 11.5,17.01 16.1,25.99 6.4,12.53 11.4,25.91 14.8,39.52 3.4,13.97 5.1,28.43 5.1,42.9 0,6.42 -0.3,12.82 -1,19.16 18.9,-7.55 38.9,-11.33 59.5,-11.33 20.7,0 40.8,3.87 59.8,11.5 18.2,7.34 34.6,17.81 48.6,31.13 63.1,-22.24 104.4,-81.47 115.7,-157.9 l 22.2,-131.27 -209.9,0 z m -606.5,-269.93 28.3,168.61 c 5.3,35.57 15.6,69.04 30.6,97.36 0.1,0.32 0.3,0.64 0.5,0.96 26.1,49 65.8,85.82 116.7,103.81 0.1,0 0.1,0.26 0.1,0.26 3.6,-3.31 7.2,-6.51 10.9,-9.56 0.5,-0.35 0.9,-0.71 1.3,-1.06 0.5,-0.41 1.1,-0.82 1.6,-1.23 0.5,-0.44 1.1,-0.88 1.7,-1.32 0.6,-0.44 1.2,-0.91 1.8,-1.35 0.6,-0.44 1.2,-0.88 1.8,-1.32 13,-9.51 27.3,-17.37 42.5,-23.56 0.2,-0.09 0.4,-0.18 0.6,-0.24 7.2,-2.9 14.5,-5.36 21.9,-7.39 0.6,-0.15 1.1,-0.29 1.7,-0.44 0.6,-0.17 1.1,-0.32 1.7,-0.47 0.3,-0.06 0.6,-0.15 0.9,-0.24 0.4,-0.05 0.7,-0.14 1,-0.23 0.6,-0.14 1.3,-0.29 1.9,-0.47 0.2,-0.03 0.3,-0.32 0.5,-0.35 9.7,-2.26 19.5,-4.9 29.6,-4.9 l 0,0 c 5.7,0 11.5,-0.41 17.3,-0.41 5.9,0 11.7,0.38 17.4,0.88 0,0 0.1,0.06 0.1,0.06 8.3,0.7 16.4,1.91 24.5,3.58 0,0 0,0.03 0.1,0.03 1.8,0.38 3.6,0.79 5.5,1.23 1.8,0.44 3.7,0.91 5.6,1.41 1,0.29 2.1,0.58 3.1,0.88 0.3,0.08 0.6,0.15 0.8,0.23 3,0.85 5.9,1.76 8.7,2.73 1.9,0.62 3.6,1.26 5.4,1.91 1.8,0.67 3.6,1.35 5.4,2.08 23.3,9.36 44.2,22.74 62.1,39.79 l 0,0 c 0.1,-0.03 0.1,-0.03 0.2,-0.03 51.2,-18.11 91.2,-54.84 117.2,-104.31 14.9,-28.34 25.3,-62.75 30.5,-98.32 l 28.4,-168.61 -629.9,0 z m -164.3,401.2 c 11.3,76.45 52.6,135.22 115.6,157.43 14.1,-13.32 30.5,-23.56 48.7,-30.86 18.9,-7.63 39.1,-11.39 59.8,-11.39 20.6,0 40.6,3.85 59.4,11.39 -0.7,-6.34 -1,-12.68 -1,-19.1 0,-14.47 1.8,-28.87 5.2,-42.84 3.3,-13.58 8.3,-26.85 14.8,-39.4 4.7,-9.1 10.2,-17.84 16.3,-26.12 -25.1,-10.27 -48.2,-24.73 -68.6,-43.16 -22.2,-20.04 -41,-45.42 -55.8,-73.58 -2.2,-4.14 -4.3,-7.78 -6.3,-13.64 l -210.3,0 22.2,131.27 z m 224.1,382.15 c 70,0 126.7,-53.99 126.7,-120.56 0,-4.34 -0.2,-8.63 -0.7,-12.85 -3.4,-2.85 -6.7,-5.81 -10,-8.89 -18,-17.17 -32.2,-37.17 -42.1,-59.48 -3.2,-7.15 -5.9,-14.46 -8.1,-21.85 -19.2,-11.09 -41.7,-17.52 -65.8,-17.52 -30,0 -57.6,9.95 -79.3,26.59 -28.9,22.09 -47.4,55.98 -47.4,94 0,66.57 56.7,120.56 126.7,120.56 z m 255.1,-120.47 c 74.1,0 136.5,-47.27 155.8,-111.82 4.1,-13.43 6.3,-27.66 6.3,-42.36 0,-48.59 -23.7,-91.96 -60.6,-120.21 -22.1,-16.9 -48.9,-28.4 -78.3,-32.39 -7.6,-1.03 -15.3,-1.59 -23.2,-1.59 -7.8,0 -15.6,0.56 -23.1,1.59 -29.4,3.99 -56.2,15.49 -78.3,32.39 -36.9,28.25 -60.6,71.62 -60.6,120.21 0,14.7 2.2,28.93 6.2,42.36 19.4,64.55 81.8,111.82 155.8,111.82 z m 255.2,120.47 c 69.9,0 126.7,-53.99 126.7,-120.56 0,-38.02 -18.5,-71.91 -47.4,-94 -21.7,-16.64 -49.3,-26.59 -79.3,-26.59 -24.2,0 -46.7,6.43 -65.8,17.52 -2.2,7.39 -4.9,14.7 -8.1,21.85 -9.9,22.31 -24.1,42.31 -42.1,59.48 -3.3,3.08 -6.6,6.04 -10.1,8.89 -0.4,4.22 -0.7,8.51 -0.7,12.85 0,66.57 56.8,120.56 126.8,120.56 z m -266.9,323.35 c -397.4,0 -719.5,-322.15 -719.5,-719.56 0,-397.41 322.1,-719.57 719.5,-719.57 397.5,0 719.6,322.16 719.6,719.57 0,397.41 -322.1,719.56 -719.6,719.56"
         style="fill:#ffffff;fill-opacity:1;fill-rule:nonzero;stroke:none"
         id="path648"
         inkscape:connector-curvature="0" /><path
         d="m 10470.6,11563.8 c -4.6,-16.9 -22,-26.9 -38.8,-22.4 l -75.1,21 c -21.8,-39.6 -42.8,-70.9 -80.8,-104.3 l 0.2,-0.3 39.2,-68.2 c 8.7,-15.2 1,-34.1 -14.1,-42.8 l -118.7,-68.1 c -15.1,-8.7 -27,-1 -35.7,14.1 l -39.2,68.2 c -48.3,-15.4 -91.2,-19.8 -135.05,-18.3 l -1.76,-1.3 -21.36,-76.4 c -4.58,-16.9 -22.36,-27.1 -39.26,-22.5 l -132.26,35.6 c -16.87,4.5 -26.96,21.8 -22.39,38.7 l 19.48,77.7 c -39.58,21.7 -72.47,45.3 -105.83,83.3 l -0.32,-0.2 -68.21,-39.2 c -15.18,-8.7 -28.61,-4.7 -37.32,10.4 l -68.11,118.6 c -8.71,15.2 -6.51,30.8 8.66,39.5 l 68.22,39.2 c -15.43,48.3 -18.37,88.6 -16.84,132.5 l -0.56,0.5 -76.05,20.7 c -16.87,4.5 -26.91,22 -22.36,38.9 l 35.71,132.1 c 4.55,16.9 21.92,26.9 38.79,22.3 l 78.92,-18.8 c 21.77,39.6 46.57,73.2 84.56,106.5 l -0.18,0.3 -39.17,68.2 c -8.68,15.2 -10.21,32.4 4.96,41.1 l 118.63,68.1 c 15.16,8.7 36.23,2.8 44.91,-12.4 l 39.17,-68.2 c 48.33,15.4 87.35,17.6 131.27,16.1 l -0.15,0.2 20.4,75.9 c 4.6,16.9 21.9,26.8 38.8,22.2 l 132,-35.7 c 16.9,-4.5 26.8,-21.9 22.3,-38.8 l -20.3,-76.4 c 39.6,-21.7 76.6,-52.6 105,-82 l 0.3,0.2 68.2,39.2 c 15.2,8.7 37.8,6.5 46.5,-8.7 l 68.1,-118.6 c 8.7,-15.2 -2.7,-32.5 -17.8,-41.2 l -68.2,-39.2 c 15.4,-48.3 19.1,-89.9 17.6,-133.8 l 0.9,-1.2 76.2,-21 c 16.9,-4.6 27.1,-22.2 22.5,-39.1 l -35.6,-132.2 z m -489.37,923.2 c -397.41,0 -719.56,-322.2 -719.56,-719.6 0,-397.4 322.15,-719.5 719.56,-719.5 397.37,0 719.57,322.1 719.57,719.5 0,397.4 -322.2,719.6 -719.57,719.6"
         style="fill:#ffffff;fill-opacity:1;fill-rule:nonzero;stroke:none"
         id="path694"
         inkscape:connector-curvature="0" /><path
         d="m 10152,11866.3 c -8.5,14.8 -18.6,28 -29.9,39.6 -2.3,2.4 -4.6,4.6 -7,6.8 -3.5,3.3 -7.2,6.5 -10.9,9.5 -2.6,2 -5.1,3.9 -7.7,5.8 -1.7,1.2 -3.5,2.4 -5.2,3.6 -3.5,2.4 -7.1,4.6 -10.8,6.8 -2.7,1.6 -5.5,3.1 -8.3,4.5 -2.2,1.2 -4.5,2.3 -6.8,3.4 -2,0.9 -4,1.9 -6,2.7 -1.5,0.7 -2.9,1.3 -4.4,1.9 -2.9,1.1 -5.9,2.3 -8.9,3.3 -1.5,0.5 -3,1 -4.5,1.5 -2.9,1 -6,1.9 -9,2.7 -1.5,0.4 -3.1,0.8 -4.6,1.2 -6.1,1.5 -12.3,2.7 -18.5,3.6 -1.6,0.2 -3.2,0.4 -4.7,0.6 -3.2,0.4 -6.32,0.7 -9.48,0.9 -3.14,0.3 -6.31,0.4 -9.48,0.5 -1.59,0 -3.17,0 -4.75,0 -3.17,0 -6.34,0 -9.54,-0.2 -30.16,-1.4 -60.47,-9.9 -88.49,-25.9 -22.53,-13 -41.54,-29.7 -56.68,-49 -1.38,-1.7 -2.76,-3.5 -4.08,-5.3 -1.23,-1.7 -2.44,-3.4 -3.61,-5.1 -3.61,-5.3 -6.92,-10.7 -10,-16.2 -1.53,-2.8 -3,-5.6 -4.38,-8.5 -1.38,-2.8 -2.7,-5.7 -3.96,-8.6 -0.61,-1.4 -1.23,-2.9 -1.81,-4.3 -3.41,-8.5 -6.25,-17.2 -8.46,-26 -2.22,-8.8 -3.81,-17.8 -4.81,-26.9 -0.38,-3.6 -0.67,-7.3 -0.85,-10.9 -0.59,-11 -0.23,-22 1.06,-33.1 3.02,-25.7 11.15,-51.2 24.85,-75.1 28.78,-50.1 76.25,-82.8 128.6,-94.3 4.6,-1 9.27,-1.8 13.93,-2.5 1.56,-0.3 3.14,-0.5 4.7,-0.6 3.14,-0.4 6.28,-0.7 9.44,-0.9 9.45,-0.7 18.99,-0.7 28.52,-0.1 3.17,0.3 6.38,0.6 9.58,1 25.4,3 50.6,11.2 74.2,24.7 28,16.1 50.5,38 67,63.3 1.7,2.7 3.4,5.4 5,8.2 2.4,4.1 4.6,8.3 6.7,12.5 1.4,2.9 2.7,5.7 4,8.6 0.6,1.5 1.2,3 1.8,4.4 1.2,2.9 2.3,5.9 3.3,8.9 1.6,4.4 3,8.9 4.2,13.5 0.8,3 1.6,6.1 2.3,9.2 1.7,7.7 2.9,15.5 3.7,23.3 0.2,3.2 0.5,6.3 0.6,9.5 0.2,3.2 0.3,6.3 0.3,9.5 0,4.8 -0.2,9.5 -0.5,14.3 -2.1,28.6 -10.5,57.2 -25.7,83.7"
         style="fill:#ffffff;fill-opacity:1;fill-rule:nonzero;stroke:none"
         id="path696"
         inkscape:connector-curvature="0" /></g></g></svg>