<?xml version="1.0" encoding="UTF-8" standalone="no"?>
<svg
   xmlns:dc="http://purl.org/dc/elements/1.1/"
   xmlns:cc="http://creativecommons.org/ns#"
   xmlns:rdf="http://www.w3.org/1999/02/22-rdf-syntax-ns#"
   xmlns:svg="http://www.w3.org/2000/svg"
   xmlns="http://www.w3.org/2000/svg"
   viewBox="0 0 203.75 92.5"
   height="92.5"
   width="203.75"
   xml:space="preserve"
   version="1.1"
   id="svg2"><metadata
     id="metadata8"><rdf:RDF><cc:Work
         rdf:about=""><dc:format>image/svg+xml</dc:format><dc:type
           rdf:resource="http://purl.org/dc/dcmitype/StillImage" /></cc:Work></rdf:RDF></metadata><defs
     id="defs6" /><g
     transform="matrix(1.25,0,0,-1.25,0,92.5)"
     id="g10"><g
       transform="scale(0.1,0.1)"
       id="g12"><path
         id="path14"
         style="fill:#3a4145;fill-opacity:1;fill-rule:nonzero;stroke:none"
         d="m 1426.09,256.441 c -96.01,-47.82 -247.03,-110 -424.25,-138.281 -10.039,-1.648 -20.078,-3.32 -30.281,-4.609 24.062,12.07 46.451,27.179 67.031,44.371 78.6,65.816 128.91,165.699 128.91,277.93 0,10.468 -0.47,20.898 -1.37,31.089 -2.73,31.68 -9.57,62.188 -19.76,90.981 161.29,-83.281 287.22,-204.57 345.58,-266.684 -17.38,-9.879 -39.68,-21.797 -65.86,-34.797 z M 595.16,435.852 c 0,125.507 99.25,227.187 221.641,227.187 122.418,0 221.639,-101.68 221.639,-227.187 0,-125.512 -99.221,-227.301 -221.639,-227.301 -122.391,0 -221.641,101.789 -221.641,227.301 z M 491.949,161.441 c -157.5,55 -281.949,135.309 -345.308,181.09 -1.84,1.289 -3.911,2.699 -5.621,4.02 60.031,54.07 188.429,158.168 352.652,228.289 -17.621,-42.699 -27.582,-89.688 -27.582,-138.988 0,-137.692 75.469,-257.114 186.25,-317.543 -56.25,10.429 -109.961,25.511 -160.391,43.132 z M 1595.47,309.52 C 1581.33,326.941 1243.91,736.629 816.801,736.629 391.879,736.629 54.7305,389.641 40.5508,374.84 L 10.2305,343.039 7.03125,339.719 43.75,308.23 C 57.8906,296.121 394.34,11.9414 816.801,11.9414 c 370.189,0 674.449,171.9996 750.739,218.9886 10.23,6.41 16.48,10.511 18.16,11.601 l 41.57,27.809 -31.8,39.18" /><path
         id="path16"
         style="fill:#3a4145;fill-opacity:1;fill-rule:nonzero;stroke:none"
         d="m 816.801,557.141 c -65.321,0 -118.321,-54.411 -118.321,-121.289 0,-66.993 53,-121.411 118.321,-121.411 65.308,0 118.32,54.418 118.32,121.411 0,66.878 -53.012,121.289 -118.32,121.289" /></g></g></svg>